<?xml version="1.0" encoding="UTF-8" standalone="no"?>
<!DOCTYPE svg PUBLIC "-//W3C//DTD SVG 1.1//EN"
 "http://www.w3.org/Graphics/SVG/1.1/DTD/svg11.dtd">
<!-- Generated by graphviz version 2.40.1 (20161225.0304)
 -->
<!-- Title: dependencies Pages: 1 -->
<svg width="1660pt" height="284pt"
 viewBox="0.00 0.00 1660.00 284.00" xmlns="http://www.w3.org/2000/svg" xmlns:xlink="http://www.w3.org/1999/xlink">
<g id="graph0" class="graph" transform="scale(1 1) rotate(0) translate(4 280)">
<title>dependencies</title>
<polygon fill="#ffffff" stroke="transparent" points="-4,4 -4,-280 1656,-280 1656,4 -4,4"/>
<text text-anchor="start" x="805.0091" y="-42.4" font-family="sans-serif" font-weight="bold" font-size="14.00" fill="#000000">Legend</text>
<polygon fill="#ffffb3" stroke="transparent" points="592,-10 592,-30 612,-30 612,-10 592,-10"/>
<text text-anchor="start" x="615.629" y="-15.4" font-family="sans-serif" font-size="14.00" fill="#000000"> &#160;Declarations</text>
<polygon fill="#8dd3c7" stroke="transparent" points="705,-10 705,-30 725,-30 725,-10 705,-10"/>
<text text-anchor="start" x="728.7251" y="-15.4" font-family="sans-serif" font-size="14.00" fill="#000000"> &#160;Module</text>
<polygon fill="#80b1d3" stroke="transparent" points="791,-10 791,-30 811,-30 811,-10 791,-10"/>
<text text-anchor="start" x="814.7812" y="-15.4" font-family="sans-serif" font-size="14.00" fill="#000000"> &#160;Bootstrap</text>
<polygon fill="#fdb462" stroke="transparent" points="888,-10 888,-30 908,-30 908,-10 888,-10"/>
<text text-anchor="start" x="911.6732" y="-15.4" font-family="sans-serif" font-size="14.00" fill="#000000"> &#160;Providers</text>
<polygon fill="#fb8072" stroke="transparent" points="984,-10 984,-30 1004,-30 1004,-10 984,-10"/>
<text text-anchor="start" x="1007.7258" y="-15.4" font-family="sans-serif" font-size="14.00" fill="#000000"> &#160;Exports</text>
<g id="clust1" class="cluster">
<title>cluster_GroupModalModule</title>
<polygon fill="none" stroke="#000000" stroke-dasharray="1,5" points="8,-70 8,-268 1644,-268 1644,-70 8,-70"/>
</g>
<g id="clust2" class="cluster">
<title>cluster_GroupModalModule_declarations</title>
<polygon fill="none" stroke="#000000" points="1466,-78 1466,-130 1636,-130 1636,-78 1466,-78"/>
</g>
<g id="clust4" class="cluster">
<title>cluster_GroupModalModule_imports</title>
<polygon fill="none" stroke="#000000" points="16,-78 16,-130 1458,-130 1458,-78 16,-78"/>
</g>
<g id="clust5" class="cluster">
<title>cluster_GroupModalModule_exports</title>
<polygon fill="none" stroke="#000000" points="669,-208 669,-260 990,-260 990,-208 669,-208"/>
</g>
<!-- GroupModalComponent -->
<g id="node1" class="node">
<title>GroupModalComponent</title>
<polygon fill="#ffffb3" stroke="#000000" points="1627.6498,-122 1474.3502,-122 1474.3502,-86 1627.6498,-86 1627.6498,-122"/>
<text text-anchor="middle" x="1551" y="-99.8" font-family="Times,serif" font-size="14.00" fill="#000000">GroupModalComponent</text>
</g>
<!-- GroupModalModule -->
<g id="node2" class="node">
<title>GroupModalModule</title>
<polygon fill="#8dd3c7" stroke="#000000" points="887.8669,-187 884.8669,-191 863.8669,-191 860.8669,-187 756.1331,-187 756.1331,-151 887.8669,-151 887.8669,-187"/>
<text text-anchor="middle" x="822" y="-164.8" font-family="Times,serif" font-size="14.00" fill="#000000">GroupModalModule</text>
</g>
<!-- GroupModalComponent&#45;&gt;GroupModalModule -->
<g id="edge1" class="edge">
<title>GroupModalComponent&#45;&gt;GroupModalModule</title>
<path fill="none" stroke="#000000" d="M1551,-122.2479C1551,-145.0179 1551,-181 1551,-181 1551,-181 897.9796,-181 897.9796,-181"/>
<polygon fill="#000000" stroke="#000000" points="897.9797,-177.5001 887.9796,-181 897.9796,-184.5001 897.9797,-177.5001"/>
</g>
<!-- GroupModalComponent  -->
<g id="node13" class="node">
<title>GroupModalComponent </title>
<polygon fill="#fb8072" stroke="#000000" points="981.6495,-252 824.3505,-252 824.3505,-216 981.6495,-216 981.6495,-252"/>
<text text-anchor="middle" x="903" y="-229.8" font-family="Times,serif" font-size="14.00" fill="#000000">GroupModalComponent </text>
</g>
<!-- GroupModalModule&#45;&gt;GroupModalComponent  -->
<g id="edge12" class="edge">
<title>GroupModalModule&#45;&gt;GroupModalComponent </title>
<path fill="none" stroke="#000000" stroke-dasharray="5,2" d="M856.1794,-187.1061C856.1794,-187.1061 856.1794,-205.991 856.1794,-205.991"/>
<polygon fill="#000000" stroke="#000000" points="852.6794,-205.9909 856.1794,-215.991 859.6794,-205.991 852.6794,-205.9909"/>
</g>
<!-- FormGroupModule  -->
<g id="node14" class="node">
<title>FormGroupModule </title>
<polygon fill="#fb8072" stroke="#000000" points="806.6509,-252 677.3491,-252 677.3491,-216 806.6509,-216 806.6509,-252"/>
<text text-anchor="middle" x="742" y="-229.8" font-family="Times,serif" font-size="14.00" fill="#000000">FormGroupModule </text>
</g>
<!-- GroupModalModule&#45;&gt;FormGroupModule  -->
<g id="edge13" class="edge">
<title>GroupModalModule&#45;&gt;FormGroupModule </title>
<path fill="none" stroke="#000000" stroke-dasharray="5,2" d="M781.321,-187.1061C781.321,-187.1061 781.321,-205.991 781.321,-205.991"/>
<polygon fill="#000000" stroke="#000000" points="777.8211,-205.9909 781.321,-215.991 784.8211,-205.991 777.8211,-205.9909"/>
</g>
<!-- CommonModule -->
<g id="node3" class="node">
<title>CommonModule</title>
<polygon fill="#8dd3c7" stroke="#000000" points="1449.6681,-122 1446.6681,-126 1425.6681,-126 1422.6681,-122 1338.3319,-122 1338.3319,-86 1449.6681,-86 1449.6681,-122"/>
<text text-anchor="middle" x="1394" y="-99.8" font-family="Times,serif" font-size="14.00" fill="#000000">CommonModule</text>
</g>
<!-- CommonModule&#45;&gt;GroupModalModule -->
<g id="edge2" class="edge">
<title>CommonModule&#45;&gt;GroupModalModule</title>
<path fill="none" stroke="#000000" d="M1394,-122.2843C1394,-143.3211 1394,-175 1394,-175 1394,-175 897.8948,-175 897.8948,-175"/>
<polygon fill="#000000" stroke="#000000" points="897.8949,-171.5001 887.8948,-175 897.8948,-178.5001 897.8949,-171.5001"/>
</g>
<!-- IonicModule -->
<g id="node4" class="node">
<title>IonicModule</title>
<polygon fill="#8dd3c7" stroke="#000000" points="1320.3162,-122 1317.3162,-126 1296.3162,-126 1293.3162,-122 1231.6838,-122 1231.6838,-86 1320.3162,-86 1320.3162,-122"/>
<text text-anchor="middle" x="1276" y="-99.8" font-family="Times,serif" font-size="14.00" fill="#000000">IonicModule</text>
</g>
<!-- IonicModule&#45;&gt;GroupModalModule -->
<g id="edge3" class="edge">
<title>IonicModule&#45;&gt;GroupModalModule</title>
<path fill="none" stroke="#000000" d="M1276,-122.1061C1276,-141.3391 1276,-169 1276,-169 1276,-169 898.0155,-169 898.0155,-169"/>
<polygon fill="#000000" stroke="#000000" points="898.0155,-165.5001 888.0155,-169 898.0155,-172.5001 898.0155,-165.5001"/>
</g>
<!-- FormGroupModule -->
<g id="node5" class="node">
<title>FormGroupModule</title>
<polygon fill="#8dd3c7" stroke="#000000" points="1213.6513,-122 1210.6513,-126 1189.6513,-126 1186.6513,-122 1088.3487,-122 1088.3487,-86 1213.6513,-86 1213.6513,-122"/>
<text text-anchor="middle" x="1151" y="-99.8" font-family="Times,serif" font-size="14.00" fill="#000000">FormGroupModule</text>
</g>
<!-- FormGroupModule&#45;&gt;GroupModalModule -->
<g id="edge4" class="edge">
<title>FormGroupModule&#45;&gt;GroupModalModule</title>
<path fill="none" stroke="#000000" d="M1151,-122.0225C1151,-139.3734 1151,-163 1151,-163 1151,-163 898.1823,-163 898.1823,-163"/>
<polygon fill="#000000" stroke="#000000" points="898.1823,-159.5001 888.1823,-163 898.1823,-166.5001 898.1823,-159.5001"/>
</g>
<!-- ReactiveFormsModule -->
<g id="node6" class="node">
<title>ReactiveFormsModule</title>
<polygon fill="#8dd3c7" stroke="#000000" points="1070.3047,-122 1067.3047,-126 1046.3047,-126 1043.3047,-122 925.6953,-122 925.6953,-86 1070.3047,-86 1070.3047,-122"/>
<text text-anchor="middle" x="998" y="-99.8" font-family="Times,serif" font-size="14.00" fill="#000000">ReactiveFormsModule</text>
</g>
<!-- ReactiveFormsModule&#45;&gt;GroupModalModule -->
<g id="edge5" class="edge">
<title>ReactiveFormsModule&#45;&gt;GroupModalModule</title>
<path fill="none" stroke="#000000" d="M953.7113,-122.2396C953.7113,-137.5706 953.7113,-157 953.7113,-157 953.7113,-157 898.2415,-157 898.2415,-157"/>
<polygon fill="#000000" stroke="#000000" points="898.2415,-153.5001 888.2415,-157 898.2415,-160.5001 898.2415,-153.5001"/>
</g>
<!-- TranslateModule.forChild() -->
<g id="node7" class="node">
<title>TranslateModule.forChild()</title>
<polygon fill="#8dd3c7" stroke="#000000" points="907.8928,-122 904.8928,-126 883.8928,-126 880.8928,-122 736.1072,-122 736.1072,-86 907.8928,-86 907.8928,-122"/>
<text text-anchor="middle" x="822" y="-99.8" font-family="Times,serif" font-size="14.00" fill="#000000">TranslateModule.forChild()</text>
</g>
<!-- TranslateModule.forChild()&#45;&gt;GroupModalModule -->
<g id="edge6" class="edge">
<title>TranslateModule.forChild()&#45;&gt;GroupModalModule</title>
<path fill="none" stroke="#000000" d="M822,-122.1061C822,-122.1061 822,-140.991 822,-140.991"/>
<polygon fill="#000000" stroke="#000000" points="818.5001,-140.9909 822,-150.991 825.5001,-140.991 818.5001,-140.9909"/>
</g>
<!-- DirectivesModule -->
<g id="node8" class="node">
<title>DirectivesModule</title>
<polygon fill="#8dd3c7" stroke="#000000" points="718.5772,-122 715.5772,-126 694.5772,-126 691.5772,-122 601.4228,-122 601.4228,-86 718.5772,-86 718.5772,-122"/>
<text text-anchor="middle" x="660" y="-99.8" font-family="Times,serif" font-size="14.00" fill="#000000">DirectivesModule</text>
</g>
<!-- DirectivesModule&#45;&gt;GroupModalModule -->
<g id="edge7" class="edge">
<title>DirectivesModule&#45;&gt;GroupModalModule</title>
<path fill="none" stroke="#000000" d="M697.9816,-122.2396C697.9816,-137.5706 697.9816,-157 697.9816,-157 697.9816,-157 745.9966,-157 745.9966,-157"/>
<polygon fill="#000000" stroke="#000000" points="745.9966,-160.5001 755.9966,-157 745.9965,-153.5001 745.9966,-160.5001"/>
</g>
<!-- PipesModule -->
<g id="node9" class="node">
<title>PipesModule</title>
<polygon fill="#8dd3c7" stroke="#000000" points="583.8823,-122 580.8823,-126 559.8823,-126 556.8823,-122 494.1177,-122 494.1177,-86 583.8823,-86 583.8823,-122"/>
<text text-anchor="middle" x="539" y="-99.8" font-family="Times,serif" font-size="14.00" fill="#000000">PipesModule</text>
</g>
<!-- PipesModule&#45;&gt;GroupModalModule -->
<g id="edge8" class="edge">
<title>PipesModule&#45;&gt;GroupModalModule</title>
<path fill="none" stroke="#000000" d="M539,-122.0225C539,-139.3734 539,-163 539,-163 539,-163 746.0062,-163 746.0062,-163"/>
<polygon fill="#000000" stroke="#000000" points="746.0063,-166.5001 756.0062,-163 746.0062,-159.5001 746.0063,-166.5001"/>
</g>
<!-- PromptFormModalModule -->
<g id="node10" class="node">
<title>PromptFormModalModule</title>
<polygon fill="#8dd3c7" stroke="#000000" points="475.6581,-122 472.6581,-126 451.6581,-126 448.6581,-122 308.3419,-122 308.3419,-86 475.6581,-86 475.6581,-122"/>
<text text-anchor="middle" x="392" y="-99.8" font-family="Times,serif" font-size="14.00" fill="#000000">PromptFormModalModule</text>
</g>
<!-- PromptFormModalModule&#45;&gt;GroupModalModule -->
<g id="edge9" class="edge">
<title>PromptFormModalModule&#45;&gt;GroupModalModule</title>
<path fill="none" stroke="#000000" d="M392,-122.1061C392,-141.3391 392,-169 392,-169 392,-169 745.7549,-169 745.7549,-169"/>
<polygon fill="#000000" stroke="#000000" points="745.7549,-172.5001 755.7549,-169 745.7548,-165.5001 745.7549,-172.5001"/>
</g>
<!-- SelectInputModule -->
<g id="node11" class="node">
<title>SelectInputModule</title>
<polygon fill="#8dd3c7" stroke="#000000" points="290.809,-122 287.809,-126 266.809,-126 263.809,-122 167.191,-122 167.191,-86 290.809,-86 290.809,-122"/>
<text text-anchor="middle" x="229" y="-99.8" font-family="Times,serif" font-size="14.00" fill="#000000">SelectInputModule</text>
</g>
<!-- SelectInputModule&#45;&gt;GroupModalModule -->
<g id="edge10" class="edge">
<title>SelectInputModule&#45;&gt;GroupModalModule</title>
<path fill="none" stroke="#000000" d="M229,-122.2843C229,-143.3211 229,-175 229,-175 229,-175 745.9874,-175 745.9874,-175"/>
<polygon fill="#000000" stroke="#000000" points="745.9875,-178.5001 755.9874,-175 745.9874,-171.5001 745.9875,-178.5001"/>
</g>
<!-- NgxBindIOModule -->
<g id="node12" class="node">
<title>NgxBindIOModule</title>
<polygon fill="#8dd3c7" stroke="#000000" points="149.6513,-122 146.6513,-126 125.6513,-126 122.6513,-122 24.3487,-122 24.3487,-86 149.6513,-86 149.6513,-122"/>
<text text-anchor="middle" x="87" y="-99.8" font-family="Times,serif" font-size="14.00" fill="#000000">NgxBindIOModule</text>
</g>
<!-- NgxBindIOModule&#45;&gt;GroupModalModule -->
<g id="edge11" class="edge">
<title>NgxBindIOModule&#45;&gt;GroupModalModule</title>
<path fill="none" stroke="#000000" d="M87,-122.2479C87,-145.0179 87,-181 87,-181 87,-181 746.1268,-181 746.1268,-181"/>
<polygon fill="#000000" stroke="#000000" points="746.1268,-184.5001 756.1268,-181 746.1268,-177.5001 746.1268,-184.5001"/>
</g>
</g>
</svg>
