<?xml version="1.0" encoding="UTF-8" standalone="no"?>
<!DOCTYPE svg PUBLIC "-//W3C//DTD SVG 1.1//EN"
 "http://www.w3.org/Graphics/SVG/1.1/DTD/svg11.dtd">
<!-- Generated by graphviz version 2.40.1 (20161225.0304)
 -->
<!-- Title: dependencies Pages: 1 -->
<svg width="1639pt" height="284pt"
 viewBox="0.00 0.00 1639.00 284.00" xmlns="http://www.w3.org/2000/svg" xmlns:xlink="http://www.w3.org/1999/xlink">
<g id="graph0" class="graph" transform="scale(1 1) rotate(0) translate(4 280)">
<title>dependencies</title>
<polygon fill="#ffffff" stroke="transparent" points="-4,4 -4,-280 1635,-280 1635,4 -4,4"/>
<text text-anchor="start" x="794.5091" y="-42.4" font-family="sans-serif" font-weight="bold" font-size="14.00" fill="#000000">Legend</text>
<polygon fill="#ffffb3" stroke="transparent" points="581.5,-10 581.5,-30 601.5,-30 601.5,-10 581.5,-10"/>
<text text-anchor="start" x="605.129" y="-15.4" font-family="sans-serif" font-size="14.00" fill="#000000"> &#160;Declarations</text>
<polygon fill="#8dd3c7" stroke="transparent" points="694.5,-10 694.5,-30 714.5,-30 714.5,-10 694.5,-10"/>
<text text-anchor="start" x="718.2251" y="-15.4" font-family="sans-serif" font-size="14.00" fill="#000000"> &#160;Module</text>
<polygon fill="#80b1d3" stroke="transparent" points="780.5,-10 780.5,-30 800.5,-30 800.5,-10 780.5,-10"/>
<text text-anchor="start" x="804.2812" y="-15.4" font-family="sans-serif" font-size="14.00" fill="#000000"> &#160;Bootstrap</text>
<polygon fill="#fdb462" stroke="transparent" points="877.5,-10 877.5,-30 897.5,-30 897.5,-10 877.5,-10"/>
<text text-anchor="start" x="901.1732" y="-15.4" font-family="sans-serif" font-size="14.00" fill="#000000"> &#160;Providers</text>
<polygon fill="#fb8072" stroke="transparent" points="973.5,-10 973.5,-30 993.5,-30 993.5,-10 973.5,-10"/>
<text text-anchor="start" x="997.2258" y="-15.4" font-family="sans-serif" font-size="14.00" fill="#000000"> &#160;Exports</text>
<g id="clust1" class="cluster">
<title>cluster_IonicAuthModalModule</title>
<polygon fill="none" stroke="#000000" stroke-dasharray="1,5" points="8,-70 8,-268 1623,-268 1623,-70 8,-70"/>
</g>
<g id="clust2" class="cluster">
<title>cluster_IonicAuthModalModule_declarations</title>
<polygon fill="none" stroke="#000000" points="1425,-78 1425,-130 1615,-130 1615,-78 1425,-78"/>
</g>
<g id="clust4" class="cluster">
<title>cluster_IonicAuthModalModule_imports</title>
<polygon fill="none" stroke="#000000" points="807,-78 807,-130 1417,-130 1417,-78 807,-78"/>
</g>
<g id="clust5" class="cluster">
<title>cluster_IonicAuthModalModule_exports</title>
<polygon fill="none" stroke="#000000" points="899,-208 899,-260 1283,-260 1283,-208 899,-208"/>
</g>
<g id="clust7" class="cluster">
<title>cluster_IonicAuthModalModule_providers</title>
<polygon fill="none" stroke="#000000" points="16,-78 16,-130 799,-130 799,-78 16,-78"/>
</g>
<!-- IonicAuthModalComponent -->
<g id="node1" class="node">
<title>IonicAuthModalComponent</title>
<polygon fill="#ffffb3" stroke="#000000" points="1607.1456,-122 1432.8544,-122 1432.8544,-86 1607.1456,-86 1607.1456,-122"/>
<text text-anchor="middle" x="1520" y="-99.8" font-family="Times,serif" font-size="14.00" fill="#000000">IonicAuthModalComponent</text>
</g>
<!-- IonicAuthModalModule -->
<g id="node2" class="node">
<title>IonicAuthModalModule</title>
<polygon fill="#8dd3c7" stroke="#000000" points="1165.3627,-187 1162.3627,-191 1141.3627,-191 1138.3627,-187 1012.6373,-187 1012.6373,-151 1165.3627,-151 1165.3627,-187"/>
<text text-anchor="middle" x="1089" y="-164.8" font-family="Times,serif" font-size="14.00" fill="#000000">IonicAuthModalModule</text>
</g>
<!-- IonicAuthModalComponent&#45;&gt;IonicAuthModalModule -->
<g id="edge1" class="edge">
<title>IonicAuthModalComponent&#45;&gt;IonicAuthModalModule</title>
<path fill="none" stroke="#000000" d="M1520,-122.2921C1520,-144.2057 1520,-178 1520,-178 1520,-178 1175.5575,-178 1175.5575,-178"/>
<polygon fill="#000000" stroke="#000000" points="1175.5576,-174.5001 1165.5575,-178 1175.5575,-181.5001 1175.5576,-174.5001"/>
</g>
<!-- IonicAuthModalComponent  -->
<g id="node7" class="node">
<title>IonicAuthModalComponent </title>
<polygon fill="#fb8072" stroke="#000000" points="1275.1453,-252 1096.8547,-252 1096.8547,-216 1275.1453,-216 1275.1453,-252"/>
<text text-anchor="middle" x="1186" y="-229.8" font-family="Times,serif" font-size="14.00" fill="#000000">IonicAuthModalComponent </text>
</g>
<!-- IonicAuthModalModule&#45;&gt;IonicAuthModalComponent  -->
<g id="edge6" class="edge">
<title>IonicAuthModalModule&#45;&gt;IonicAuthModalComponent </title>
<path fill="none" stroke="#000000" stroke-dasharray="5,2" d="M1131.1793,-187.1061C1131.1793,-187.1061 1131.1793,-205.991 1131.1793,-205.991"/>
<polygon fill="#000000" stroke="#000000" points="1127.6794,-205.9909 1131.1793,-215.991 1134.6794,-205.991 1127.6794,-205.9909"/>
</g>
<!-- PromptFormModalModule  -->
<g id="node8" class="node">
<title>PromptFormModalModule </title>
<polygon fill="#fb8072" stroke="#000000" points="1078.6579,-252 907.3421,-252 907.3421,-216 1078.6579,-216 1078.6579,-252"/>
<text text-anchor="middle" x="993" y="-229.8" font-family="Times,serif" font-size="14.00" fill="#000000">PromptFormModalModule </text>
</g>
<!-- IonicAuthModalModule&#45;&gt;PromptFormModalModule  -->
<g id="edge7" class="edge">
<title>IonicAuthModalModule&#45;&gt;PromptFormModalModule </title>
<path fill="none" stroke="#000000" stroke-dasharray="5,2" d="M1045.5738,-187.1061C1045.5738,-187.1061 1045.5738,-205.991 1045.5738,-205.991"/>
<polygon fill="#000000" stroke="#000000" points="1042.0739,-205.9909 1045.5738,-215.991 1049.0739,-205.991 1042.0739,-205.9909"/>
</g>
<!-- CommonModule -->
<g id="node3" class="node">
<title>CommonModule</title>
<polygon fill="#8dd3c7" stroke="#000000" points="1408.6681,-122 1405.6681,-126 1384.6681,-126 1381.6681,-122 1297.3319,-122 1297.3319,-86 1408.6681,-86 1408.6681,-122"/>
<text text-anchor="middle" x="1353" y="-99.8" font-family="Times,serif" font-size="14.00" fill="#000000">CommonModule</text>
</g>
<!-- CommonModule&#45;&gt;IonicAuthModalModule -->
<g id="edge2" class="edge">
<title>CommonModule&#45;&gt;IonicAuthModalModule</title>
<path fill="none" stroke="#000000" d="M1353,-122.1061C1353,-141.3391 1353,-169 1353,-169 1353,-169 1175.7144,-169 1175.7144,-169"/>
<polygon fill="#000000" stroke="#000000" points="1175.7144,-165.5001 1165.7144,-169 1175.7143,-172.5001 1175.7144,-165.5001"/>
</g>
<!-- IonicModule -->
<g id="node4" class="node">
<title>IonicModule</title>
<polygon fill="#8dd3c7" stroke="#000000" points="1279.3162,-122 1276.3162,-126 1255.3162,-126 1252.3162,-122 1190.6838,-122 1190.6838,-86 1279.3162,-86 1279.3162,-122"/>
<text text-anchor="middle" x="1235" y="-99.8" font-family="Times,serif" font-size="14.00" fill="#000000">IonicModule</text>
</g>
<!-- IonicModule&#45;&gt;IonicAuthModalModule -->
<g id="edge3" class="edge">
<title>IonicModule&#45;&gt;IonicAuthModalModule</title>
<path fill="none" stroke="#000000" d="M1232.9574,-122.027C1232.9574,-138.3976 1232.9574,-160 1232.9574,-160 1232.9574,-160 1175.6151,-160 1175.6151,-160"/>
<polygon fill="#000000" stroke="#000000" points="1175.6151,-156.5001 1165.6151,-160 1175.6151,-163.5001 1175.6151,-156.5001"/>
</g>
<!-- PromptFormModalModule -->
<g id="node5" class="node">
<title>PromptFormModalModule</title>
<polygon fill="#8dd3c7" stroke="#000000" points="1172.6581,-122 1169.6581,-126 1148.6581,-126 1145.6581,-122 1005.3419,-122 1005.3419,-86 1172.6581,-86 1172.6581,-122"/>
<text text-anchor="middle" x="1089" y="-99.8" font-family="Times,serif" font-size="14.00" fill="#000000">PromptFormModalModule</text>
</g>
<!-- PromptFormModalModule&#45;&gt;IonicAuthModalModule -->
<g id="edge4" class="edge">
<title>PromptFormModalModule&#45;&gt;IonicAuthModalModule</title>
<path fill="none" stroke="#000000" d="M1089,-122.1061C1089,-122.1061 1089,-140.991 1089,-140.991"/>
<polygon fill="#000000" stroke="#000000" points="1085.5001,-140.9909 1089,-150.991 1092.5001,-140.991 1085.5001,-140.9909"/>
</g>
<!-- TranslateModule.forChild() -->
<g id="node6" class="node">
<title>TranslateModule.forChild()</title>
<polygon fill="#8dd3c7" stroke="#000000" points="986.8928,-122 983.8928,-126 962.8928,-126 959.8928,-122 815.1072,-122 815.1072,-86 986.8928,-86 986.8928,-122"/>
<text text-anchor="middle" x="901" y="-99.8" font-family="Times,serif" font-size="14.00" fill="#000000">TranslateModule.forChild()</text>
</g>
<!-- TranslateModule.forChild()&#45;&gt;IonicAuthModalModule -->
<g id="edge5" class="edge">
<title>TranslateModule.forChild()&#45;&gt;IonicAuthModalModule</title>
<path fill="none" stroke="#000000" d="M947.1838,-122.027C947.1838,-138.3976 947.1838,-160 947.1838,-160 947.1838,-160 1002.281,-160 1002.281,-160"/>
<polygon fill="#000000" stroke="#000000" points="1002.281,-163.5001 1012.281,-160 1002.281,-156.5001 1002.281,-163.5001"/>
</g>
<!-- IonicAuthModalService -->
<g id="node9" class="node">
<title>IonicAuthModalService</title>
<ellipse fill="#fdb462" stroke="#000000" cx="687" cy="-104" rx="104.2149" ry="18"/>
<text text-anchor="middle" x="687" y="-99.8" font-family="Times,serif" font-size="14.00" fill="#000000">IonicAuthModalService</text>
</g>
<!-- IonicAuthModalService&#45;&gt;IonicAuthModalModule -->
<g id="edge8" class="edge">
<title>IonicAuthModalService&#45;&gt;IonicAuthModalModule</title>
<path fill="none" stroke="#000000" d="M687,-122.1061C687,-141.3391 687,-169 687,-169 687,-169 1002.4406,-169 1002.4406,-169"/>
<polygon fill="#000000" stroke="#000000" points="1002.4407,-172.5001 1012.4406,-169 1002.4406,-165.5001 1002.4407,-172.5001"/>
</g>
<!-- { provide: AuthModalService, useClass: IonicAuthModalService } -->
<g id="node10" class="node">
<title>{ provide: AuthModalService, useClass: IonicAuthModalService }</title>
<ellipse fill="#fdb462" stroke="#000000" cx="294" cy="-104" rx="270.4986" ry="18"/>
<text text-anchor="middle" x="294" y="-99.8" font-family="Times,serif" font-size="14.00" fill="#000000">{ provide: AuthModalService, useClass: IonicAuthModalService }</text>
</g>
<!-- { provide: AuthModalService, useClass: IonicAuthModalService }&#45;&gt;IonicAuthModalModule -->
<g id="edge9" class="edge">
<title>{ provide: AuthModalService, useClass: IonicAuthModalService }&#45;&gt;IonicAuthModalModule</title>
<path fill="none" stroke="#000000" d="M294,-122.2921C294,-144.2057 294,-178 294,-178 294,-178 1002.4112,-178 1002.4112,-178"/>
<polygon fill="#000000" stroke="#000000" points="1002.4113,-181.5001 1012.4112,-178 1002.4112,-174.5001 1002.4113,-181.5001"/>
</g>
</g>
</svg>
