<?xml version="1.0" encoding="UTF-8" standalone="no"?>
<!DOCTYPE svg PUBLIC "-//W3C//DTD SVG 1.1//EN"
 "http://www.w3.org/Graphics/SVG/1.1/DTD/svg11.dtd">
<!-- Generated by graphviz version 2.40.1 (20161225.0304)
 -->
<!-- Title: dependencies Pages: 1 -->
<svg width="1783pt" height="284pt"
 viewBox="0.00 0.00 1783.00 284.00" xmlns="http://www.w3.org/2000/svg" xmlns:xlink="http://www.w3.org/1999/xlink">
<g id="graph0" class="graph" transform="scale(1 1) rotate(0) translate(4 280)">
<title>dependencies</title>
<polygon fill="#ffffff" stroke="transparent" points="-4,4 -4,-280 1779,-280 1779,4 -4,4"/>
<text text-anchor="start" x="866.5091" y="-42.4" font-family="sans-serif" font-weight="bold" font-size="14.00" fill="#000000">Legend</text>
<polygon fill="#ffffb3" stroke="transparent" points="653.5,-10 653.5,-30 673.5,-30 673.5,-10 653.5,-10"/>
<text text-anchor="start" x="677.129" y="-15.4" font-family="sans-serif" font-size="14.00" fill="#000000"> &#160;Declarations</text>
<polygon fill="#8dd3c7" stroke="transparent" points="766.5,-10 766.5,-30 786.5,-30 786.5,-10 766.5,-10"/>
<text text-anchor="start" x="790.2251" y="-15.4" font-family="sans-serif" font-size="14.00" fill="#000000"> &#160;Module</text>
<polygon fill="#80b1d3" stroke="transparent" points="852.5,-10 852.5,-30 872.5,-30 872.5,-10 852.5,-10"/>
<text text-anchor="start" x="876.2812" y="-15.4" font-family="sans-serif" font-size="14.00" fill="#000000"> &#160;Bootstrap</text>
<polygon fill="#fdb462" stroke="transparent" points="949.5,-10 949.5,-30 969.5,-30 969.5,-10 949.5,-10"/>
<text text-anchor="start" x="973.1732" y="-15.4" font-family="sans-serif" font-size="14.00" fill="#000000"> &#160;Providers</text>
<polygon fill="#fb8072" stroke="transparent" points="1045.5,-10 1045.5,-30 1065.5,-30 1065.5,-10 1045.5,-10"/>
<text text-anchor="start" x="1069.2258" y="-15.4" font-family="sans-serif" font-size="14.00" fill="#000000"> &#160;Exports</text>
<g id="clust1" class="cluster">
<title>cluster_IonicAuthModalModule</title>
<polygon fill="none" stroke="#000000" stroke-dasharray="1,5" points="8,-70 8,-268 1767,-268 1767,-70 8,-70"/>
</g>
<g id="clust2" class="cluster">
<title>cluster_IonicAuthModalModule_declarations</title>
<polygon fill="none" stroke="#000000" points="1569,-78 1569,-130 1759,-130 1759,-78 1569,-78"/>
</g>
<g id="clust4" class="cluster">
<title>cluster_IonicAuthModalModule_imports</title>
<polygon fill="none" stroke="#000000" points="807,-78 807,-130 1561,-130 1561,-78 807,-78"/>
</g>
<g id="clust5" class="cluster">
<title>cluster_IonicAuthModalModule_exports</title>
<polygon fill="none" stroke="#000000" points="949,-208 949,-260 1333,-260 1333,-208 949,-208"/>
</g>
<g id="clust7" class="cluster">
<title>cluster_IonicAuthModalModule_providers</title>
<polygon fill="none" stroke="#000000" points="16,-78 16,-130 799,-130 799,-78 16,-78"/>
</g>
<!-- IonicAuthModalComponent -->
<g id="node1" class="node">
<title>IonicAuthModalComponent</title>
<polygon fill="#ffffb3" stroke="#000000" points="1751.1456,-122 1576.8544,-122 1576.8544,-86 1751.1456,-86 1751.1456,-122"/>
<text text-anchor="middle" x="1664" y="-99.8" font-family="Times,serif" font-size="14.00" fill="#000000">IonicAuthModalComponent</text>
</g>
<!-- IonicAuthModalModule -->
<g id="node2" class="node">
<title>IonicAuthModalModule</title>
<polygon fill="#8dd3c7" stroke="#000000" points="1215.3627,-187 1212.3627,-191 1191.3627,-191 1188.3627,-187 1062.6373,-187 1062.6373,-151 1215.3627,-151 1215.3627,-187"/>
<text text-anchor="middle" x="1139" y="-164.8" font-family="Times,serif" font-size="14.00" fill="#000000">IonicAuthModalModule</text>
</g>
<!-- IonicAuthModalComponent&#45;&gt;IonicAuthModalModule -->
<g id="edge1" class="edge">
<title>IonicAuthModalComponent&#45;&gt;IonicAuthModalModule</title>
<path fill="none" stroke="#000000" d="M1664,-122.2921C1664,-144.2057 1664,-178 1664,-178 1664,-178 1225.6204,-178 1225.6204,-178"/>
<polygon fill="#000000" stroke="#000000" points="1225.6205,-174.5001 1215.6204,-178 1225.6204,-181.5001 1225.6205,-174.5001"/>
</g>
<!-- IonicAuthModalComponent  -->
<g id="node8" class="node">
<title>IonicAuthModalComponent </title>
<polygon fill="#fb8072" stroke="#000000" points="1325.1453,-252 1146.8547,-252 1146.8547,-216 1325.1453,-216 1325.1453,-252"/>
<text text-anchor="middle" x="1236" y="-229.8" font-family="Times,serif" font-size="14.00" fill="#000000">IonicAuthModalComponent </text>
</g>
<!-- IonicAuthModalModule&#45;&gt;IonicAuthModalComponent  -->
<g id="edge7" class="edge">
<title>IonicAuthModalModule&#45;&gt;IonicAuthModalComponent </title>
<path fill="none" stroke="#000000" stroke-dasharray="5,2" d="M1181.1793,-187.1061C1181.1793,-187.1061 1181.1793,-205.991 1181.1793,-205.991"/>
<polygon fill="#000000" stroke="#000000" points="1177.6794,-205.9909 1181.1793,-215.991 1184.6794,-205.991 1177.6794,-205.9909"/>
</g>
<!-- PromptFormModalModule  -->
<g id="node9" class="node">
<title>PromptFormModalModule </title>
<polygon fill="#fb8072" stroke="#000000" points="1128.6579,-252 957.3421,-252 957.3421,-216 1128.6579,-216 1128.6579,-252"/>
<text text-anchor="middle" x="1043" y="-229.8" font-family="Times,serif" font-size="14.00" fill="#000000">PromptFormModalModule </text>
</g>
<!-- IonicAuthModalModule&#45;&gt;PromptFormModalModule  -->
<g id="edge8" class="edge">
<title>IonicAuthModalModule&#45;&gt;PromptFormModalModule </title>
<path fill="none" stroke="#000000" stroke-dasharray="5,2" d="M1095.5738,-187.1061C1095.5738,-187.1061 1095.5738,-205.991 1095.5738,-205.991"/>
<polygon fill="#000000" stroke="#000000" points="1092.0739,-205.9909 1095.5738,-215.991 1099.0739,-205.991 1092.0739,-205.9909"/>
</g>
<!-- CommonModule -->
<g id="node3" class="node">
<title>CommonModule</title>
<polygon fill="#8dd3c7" stroke="#000000" points="1552.6681,-122 1549.6681,-126 1528.6681,-126 1525.6681,-122 1441.3319,-122 1441.3319,-86 1552.6681,-86 1552.6681,-122"/>
<text text-anchor="middle" x="1497" y="-99.8" font-family="Times,serif" font-size="14.00" fill="#000000">CommonModule</text>
</g>
<!-- CommonModule&#45;&gt;IonicAuthModalModule -->
<g id="edge2" class="edge">
<title>CommonModule&#45;&gt;IonicAuthModalModule</title>
<path fill="none" stroke="#000000" d="M1497,-122.1061C1497,-141.3391 1497,-169 1497,-169 1497,-169 1225.8,-169 1225.8,-169"/>
<polygon fill="#000000" stroke="#000000" points="1225.8,-165.5001 1215.8,-169 1225.7999,-172.5001 1225.8,-165.5001"/>
</g>
<!-- IonicModule -->
<g id="node4" class="node">
<title>IonicModule</title>
<polygon fill="#8dd3c7" stroke="#000000" points="1423.3162,-122 1420.3162,-126 1399.3162,-126 1396.3162,-122 1334.6838,-122 1334.6838,-86 1423.3162,-86 1423.3162,-122"/>
<text text-anchor="middle" x="1379" y="-99.8" font-family="Times,serif" font-size="14.00" fill="#000000">IonicModule</text>
</g>
<!-- IonicModule&#45;&gt;IonicAuthModalModule -->
<g id="edge3" class="edge">
<title>IonicModule&#45;&gt;IonicAuthModalModule</title>
<path fill="none" stroke="#000000" d="M1379,-122.027C1379,-138.3976 1379,-160 1379,-160 1379,-160 1225.5974,-160 1225.5974,-160"/>
<polygon fill="#000000" stroke="#000000" points="1225.5974,-156.5001 1215.5974,-160 1225.5973,-163.5001 1225.5974,-156.5001"/>
</g>
<!-- PromptFormModalModule -->
<g id="node5" class="node">
<title>PromptFormModalModule</title>
<polygon fill="#8dd3c7" stroke="#000000" points="1316.6581,-122 1313.6581,-126 1292.6581,-126 1289.6581,-122 1149.3419,-122 1149.3419,-86 1316.6581,-86 1316.6581,-122"/>
<text text-anchor="middle" x="1233" y="-99.8" font-family="Times,serif" font-size="14.00" fill="#000000">PromptFormModalModule</text>
</g>
<!-- PromptFormModalModule&#45;&gt;IonicAuthModalModule -->
<g id="edge4" class="edge">
<title>PromptFormModalModule&#45;&gt;IonicAuthModalModule</title>
<path fill="none" stroke="#000000" d="M1182.3012,-122.1061C1182.3012,-122.1061 1182.3012,-140.991 1182.3012,-140.991"/>
<polygon fill="#000000" stroke="#000000" points="1178.8013,-140.9909 1182.3012,-150.991 1185.8013,-140.991 1178.8013,-140.9909"/>
</g>
<!-- TranslateModule.forChild() -->
<g id="node6" class="node">
<title>TranslateModule.forChild()</title>
<polygon fill="#8dd3c7" stroke="#000000" points="1130.8928,-122 1127.8928,-126 1106.8928,-126 1103.8928,-122 959.1072,-122 959.1072,-86 1130.8928,-86 1130.8928,-122"/>
<text text-anchor="middle" x="1045" y="-99.8" font-family="Times,serif" font-size="14.00" fill="#000000">TranslateModule.forChild()</text>
</g>
<!-- TranslateModule.forChild()&#45;&gt;IonicAuthModalModule -->
<g id="edge5" class="edge">
<title>TranslateModule.forChild()&#45;&gt;IonicAuthModalModule</title>
<path fill="none" stroke="#000000" d="M1096.7576,-122.1061C1096.7576,-122.1061 1096.7576,-140.991 1096.7576,-140.991"/>
<polygon fill="#000000" stroke="#000000" points="1093.2576,-140.9909 1096.7576,-150.991 1100.2576,-140.991 1093.2576,-140.9909"/>
</g>
<!-- NgxBindIOModule -->
<g id="node7" class="node">
<title>NgxBindIOModule</title>
<polygon fill="#8dd3c7" stroke="#000000" points="940.6513,-122 937.6513,-126 916.6513,-126 913.6513,-122 815.3487,-122 815.3487,-86 940.6513,-86 940.6513,-122"/>
<text text-anchor="middle" x="878" y="-99.8" font-family="Times,serif" font-size="14.00" fill="#000000">NgxBindIOModule</text>
</g>
<!-- NgxBindIOModule&#45;&gt;IonicAuthModalModule -->
<g id="edge6" class="edge">
<title>NgxBindIOModule&#45;&gt;IonicAuthModalModule</title>
<path fill="none" stroke="#000000" d="M878,-122.027C878,-138.3976 878,-160 878,-160 878,-160 1052.4549,-160 1052.4549,-160"/>
<polygon fill="#000000" stroke="#000000" points="1052.455,-163.5001 1062.4549,-160 1052.4549,-156.5001 1052.455,-163.5001"/>
</g>
<!-- IonicAuthModalService -->
<g id="node10" class="node">
<title>IonicAuthModalService</title>
<ellipse fill="#fdb462" stroke="#000000" cx="687" cy="-104" rx="104.2149" ry="18"/>
<text text-anchor="middle" x="687" y="-99.8" font-family="Times,serif" font-size="14.00" fill="#000000">IonicAuthModalService</text>
</g>
<!-- IonicAuthModalService&#45;&gt;IonicAuthModalModule -->
<g id="edge9" class="edge">
<title>IonicAuthModalService&#45;&gt;IonicAuthModalModule</title>
<path fill="none" stroke="#000000" d="M687,-122.1061C687,-141.3391 687,-169 687,-169 687,-169 1052.5801,-169 1052.5801,-169"/>
<polygon fill="#000000" stroke="#000000" points="1052.5801,-172.5001 1062.5801,-169 1052.58,-165.5001 1052.5801,-172.5001"/>
</g>
<!-- { provide: AuthModalService, useClass: IonicAuthModalService } -->
<g id="node11" class="node">
<title>{ provide: AuthModalService, useClass: IonicAuthModalService }</title>
<ellipse fill="#fdb462" stroke="#000000" cx="294" cy="-104" rx="270.4986" ry="18"/>
<text text-anchor="middle" x="294" y="-99.8" font-family="Times,serif" font-size="14.00" fill="#000000">{ provide: AuthModalService, useClass: IonicAuthModalService }</text>
</g>
<!-- { provide: AuthModalService, useClass: IonicAuthModalService }&#45;&gt;IonicAuthModalModule -->
<g id="edge10" class="edge">
<title>{ provide: AuthModalService, useClass: IonicAuthModalService }&#45;&gt;IonicAuthModalModule</title>
<path fill="none" stroke="#000000" d="M294,-122.2921C294,-144.2057 294,-178 294,-178 294,-178 1052.5215,-178 1052.5215,-178"/>
<polygon fill="#000000" stroke="#000000" points="1052.5216,-181.5001 1062.5215,-178 1052.5215,-174.5001 1052.5216,-181.5001"/>
</g>
</g>
</svg>
