<?xml version="1.0" encoding="UTF-8" standalone="no"?>
<!DOCTYPE svg PUBLIC "-//W3C//DTD SVG 1.1//EN"
 "http://www.w3.org/Graphics/SVG/1.1/DTD/svg11.dtd">
<!-- Generated by graphviz version 2.40.1 (20161225.0304)
 -->
<!-- Title: dependencies Pages: 1 -->
<svg width="1722pt" height="284pt"
 viewBox="0.00 0.00 1722.00 284.00" xmlns="http://www.w3.org/2000/svg" xmlns:xlink="http://www.w3.org/1999/xlink">
<g id="graph0" class="graph" transform="scale(1 1) rotate(0) translate(4 280)">
<title>dependencies</title>
<polygon fill="#ffffff" stroke="transparent" points="-4,4 -4,-280 1718,-280 1718,4 -4,4"/>
<text text-anchor="start" x="836.0091" y="-42.4" font-family="sans-serif" font-weight="bold" font-size="14.00" fill="#000000">Legend</text>
<polygon fill="#ffffb3" stroke="transparent" points="623,-10 623,-30 643,-30 643,-10 623,-10"/>
<text text-anchor="start" x="646.629" y="-15.4" font-family="sans-serif" font-size="14.00" fill="#000000"> &#160;Declarations</text>
<polygon fill="#8dd3c7" stroke="transparent" points="736,-10 736,-30 756,-30 756,-10 736,-10"/>
<text text-anchor="start" x="759.7251" y="-15.4" font-family="sans-serif" font-size="14.00" fill="#000000"> &#160;Module</text>
<polygon fill="#80b1d3" stroke="transparent" points="822,-10 822,-30 842,-30 842,-10 822,-10"/>
<text text-anchor="start" x="845.7812" y="-15.4" font-family="sans-serif" font-size="14.00" fill="#000000"> &#160;Bootstrap</text>
<polygon fill="#fdb462" stroke="transparent" points="919,-10 919,-30 939,-30 939,-10 919,-10"/>
<text text-anchor="start" x="942.6732" y="-15.4" font-family="sans-serif" font-size="14.00" fill="#000000"> &#160;Providers</text>
<polygon fill="#fb8072" stroke="transparent" points="1015,-10 1015,-30 1035,-30 1035,-10 1015,-10"/>
<text text-anchor="start" x="1038.7258" y="-15.4" font-family="sans-serif" font-size="14.00" fill="#000000"> &#160;Exports</text>
<g id="clust1" class="cluster">
<title>cluster_GroupsListFiltersModalModule</title>
<polygon fill="none" stroke="#000000" stroke-dasharray="1,5" points="8,-70 8,-268 1706,-268 1706,-70 8,-70"/>
</g>
<g id="clust2" class="cluster">
<title>cluster_GroupsListFiltersModalModule_declarations</title>
<polygon fill="none" stroke="#000000" points="1466,-78 1466,-130 1698,-130 1698,-78 1466,-78"/>
</g>
<g id="clust4" class="cluster">
<title>cluster_GroupsListFiltersModalModule_imports</title>
<polygon fill="none" stroke="#000000" points="16,-78 16,-130 1458,-130 1458,-78 16,-78"/>
</g>
<g id="clust5" class="cluster">
<title>cluster_GroupsListFiltersModalModule_exports</title>
<polygon fill="none" stroke="#000000" points="652,-208 652,-260 1036,-260 1036,-208 652,-208"/>
</g>
<!-- GroupsListFiltersModalComponent -->
<g id="node1" class="node">
<title>GroupsListFiltersModalComponent</title>
<polygon fill="#ffffb3" stroke="#000000" points="1690.1469,-122 1473.8531,-122 1473.8531,-86 1690.1469,-86 1690.1469,-122"/>
<text text-anchor="middle" x="1582" y="-99.8" font-family="Times,serif" font-size="14.00" fill="#000000">GroupsListFiltersModalComponent</text>
</g>
<!-- GroupsListFiltersModalModule -->
<g id="node2" class="node">
<title>GroupsListFiltersModalModule</title>
<polygon fill="#8dd3c7" stroke="#000000" points="919.364,-187 916.364,-191 895.364,-191 892.364,-187 724.636,-187 724.636,-151 919.364,-151 919.364,-187"/>
<text text-anchor="middle" x="822" y="-164.8" font-family="Times,serif" font-size="14.00" fill="#000000">GroupsListFiltersModalModule</text>
</g>
<!-- GroupsListFiltersModalComponent&#45;&gt;GroupsListFiltersModalModule -->
<g id="edge1" class="edge">
<title>GroupsListFiltersModalComponent&#45;&gt;GroupsListFiltersModalModule</title>
<path fill="none" stroke="#000000" d="M1582,-122.0109C1582,-144.4852 1582,-180 1582,-180 1582,-180 929.4134,-180 929.4134,-180"/>
<polygon fill="#000000" stroke="#000000" points="929.4134,-176.5001 919.4134,-180 929.4133,-183.5001 929.4134,-176.5001"/>
</g>
<!-- GroupsListFiltersModalComponent  -->
<g id="node13" class="node">
<title>GroupsListFiltersModalComponent </title>
<polygon fill="#fb8072" stroke="#000000" points="1028.1466,-252 807.8534,-252 807.8534,-216 1028.1466,-216 1028.1466,-252"/>
<text text-anchor="middle" x="918" y="-229.8" font-family="Times,serif" font-size="14.00" fill="#000000">GroupsListFiltersModalComponent </text>
</g>
<!-- GroupsListFiltersModalModule&#45;&gt;GroupsListFiltersModalComponent  -->
<g id="edge12" class="edge">
<title>GroupsListFiltersModalModule&#45;&gt;GroupsListFiltersModalComponent </title>
<path fill="none" stroke="#000000" stroke-dasharray="5,2" d="M863.6794,-187.1061C863.6794,-187.1061 863.6794,-205.991 863.6794,-205.991"/>
<polygon fill="#000000" stroke="#000000" points="860.1794,-205.9909 863.6794,-215.991 867.1794,-205.991 860.1794,-205.9909"/>
</g>
<!-- FormGroupModule  -->
<g id="node14" class="node">
<title>FormGroupModule </title>
<polygon fill="#fb8072" stroke="#000000" points="789.6509,-252 660.3491,-252 660.3491,-216 789.6509,-216 789.6509,-252"/>
<text text-anchor="middle" x="725" y="-229.8" font-family="Times,serif" font-size="14.00" fill="#000000">FormGroupModule </text>
</g>
<!-- GroupsListFiltersModalModule&#45;&gt;FormGroupModule  -->
<g id="edge13" class="edge">
<title>GroupsListFiltersModalModule&#45;&gt;FormGroupModule </title>
<path fill="none" stroke="#000000" stroke-dasharray="5,2" d="M757.0717,-187.1061C757.0717,-187.1061 757.0717,-205.991 757.0717,-205.991"/>
<polygon fill="#000000" stroke="#000000" points="753.5718,-205.9909 757.0717,-215.991 760.5718,-205.991 753.5718,-205.9909"/>
</g>
<!-- CommonModule -->
<g id="node3" class="node">
<title>CommonModule</title>
<polygon fill="#8dd3c7" stroke="#000000" points="1449.6681,-122 1446.6681,-126 1425.6681,-126 1422.6681,-122 1338.3319,-122 1338.3319,-86 1449.6681,-86 1449.6681,-122"/>
<text text-anchor="middle" x="1394" y="-99.8" font-family="Times,serif" font-size="14.00" fill="#000000">CommonModule</text>
</g>
<!-- CommonModule&#45;&gt;GroupsListFiltersModalModule -->
<g id="edge2" class="edge">
<title>CommonModule&#45;&gt;GroupsListFiltersModalModule</title>
<path fill="none" stroke="#000000" d="M1394,-122.1289C1394,-142.5724 1394,-173 1394,-173 1394,-173 929.6804,-173 929.6804,-173"/>
<polygon fill="#000000" stroke="#000000" points="929.6804,-169.5001 919.6804,-173 929.6803,-176.5001 929.6804,-169.5001"/>
</g>
<!-- IonicModule -->
<g id="node4" class="node">
<title>IonicModule</title>
<polygon fill="#8dd3c7" stroke="#000000" points="1320.3162,-122 1317.3162,-126 1296.3162,-126 1293.3162,-122 1231.6838,-122 1231.6838,-86 1320.3162,-86 1320.3162,-122"/>
<text text-anchor="middle" x="1276" y="-99.8" font-family="Times,serif" font-size="14.00" fill="#000000">IonicModule</text>
</g>
<!-- IonicModule&#45;&gt;GroupsListFiltersModalModule -->
<g id="edge3" class="edge">
<title>IonicModule&#45;&gt;GroupsListFiltersModalModule</title>
<path fill="none" stroke="#000000" d="M1276,-122.2667C1276,-140.5552 1276,-166 1276,-166 1276,-166 929.3944,-166 929.3944,-166"/>
<polygon fill="#000000" stroke="#000000" points="929.3944,-162.5001 919.3944,-166 929.3944,-169.5001 929.3944,-162.5001"/>
</g>
<!-- FormGroupModule -->
<g id="node5" class="node">
<title>FormGroupModule</title>
<polygon fill="#8dd3c7" stroke="#000000" points="1213.6513,-122 1210.6513,-126 1189.6513,-126 1186.6513,-122 1088.3487,-122 1088.3487,-86 1213.6513,-86 1213.6513,-122"/>
<text text-anchor="middle" x="1151" y="-99.8" font-family="Times,serif" font-size="14.00" fill="#000000">FormGroupModule</text>
</g>
<!-- FormGroupModule&#45;&gt;GroupsListFiltersModalModule -->
<g id="edge4" class="edge">
<title>FormGroupModule&#45;&gt;GroupsListFiltersModalModule</title>
<path fill="none" stroke="#000000" d="M1151,-122.0091C1151,-138.0494 1151,-159 1151,-159 1151,-159 929.3755,-159 929.3755,-159"/>
<polygon fill="#000000" stroke="#000000" points="929.3755,-155.5001 919.3755,-159 929.3754,-162.5001 929.3755,-155.5001"/>
</g>
<!-- ReactiveFormsModule -->
<g id="node6" class="node">
<title>ReactiveFormsModule</title>
<polygon fill="#8dd3c7" stroke="#000000" points="1070.3047,-122 1067.3047,-126 1046.3047,-126 1043.3047,-122 925.6953,-122 925.6953,-86 1070.3047,-86 1070.3047,-122"/>
<text text-anchor="middle" x="998" y="-99.8" font-family="Times,serif" font-size="14.00" fill="#000000">ReactiveFormsModule</text>
</g>
<!-- ReactiveFormsModule&#45;&gt;GroupsListFiltersModalModule -->
<g id="edge5" class="edge">
<title>ReactiveFormsModule&#45;&gt;GroupsListFiltersModalModule</title>
<path fill="none" stroke="#000000" d="M925.7689,-104C918.4762,-104 913.6892,-104 913.6892,-104 913.6892,-104 913.6892,-140.8939 913.6892,-140.8939"/>
<polygon fill="#000000" stroke="#000000" points="910.1893,-140.8938 913.6892,-150.8939 917.1893,-140.8939 910.1893,-140.8938"/>
</g>
<!-- TranslateModule.forChild() -->
<g id="node7" class="node">
<title>TranslateModule.forChild()</title>
<polygon fill="#8dd3c7" stroke="#000000" points="907.8928,-122 904.8928,-126 883.8928,-126 880.8928,-122 736.1072,-122 736.1072,-86 907.8928,-86 907.8928,-122"/>
<text text-anchor="middle" x="822" y="-99.8" font-family="Times,serif" font-size="14.00" fill="#000000">TranslateModule.forChild()</text>
</g>
<!-- TranslateModule.forChild()&#45;&gt;GroupsListFiltersModalModule -->
<g id="edge6" class="edge">
<title>TranslateModule.forChild()&#45;&gt;GroupsListFiltersModalModule</title>
<path fill="none" stroke="#000000" d="M822,-122.1061C822,-122.1061 822,-140.991 822,-140.991"/>
<polygon fill="#000000" stroke="#000000" points="818.5001,-140.9909 822,-150.991 825.5001,-140.991 818.5001,-140.9909"/>
</g>
<!-- DirectivesModule -->
<g id="node8" class="node">
<title>DirectivesModule</title>
<polygon fill="#8dd3c7" stroke="#000000" points="718.5772,-122 715.5772,-126 694.5772,-126 691.5772,-122 601.4228,-122 601.4228,-86 718.5772,-86 718.5772,-122"/>
<text text-anchor="middle" x="660" y="-99.8" font-family="Times,serif" font-size="14.00" fill="#000000">DirectivesModule</text>
</g>
<!-- DirectivesModule&#45;&gt;GroupsListFiltersModalModule -->
<g id="edge7" class="edge">
<title>DirectivesModule&#45;&gt;GroupsListFiltersModalModule</title>
<path fill="none" stroke="#000000" d="M718.7004,-104C725.6374,-104 730.3108,-104 730.3108,-104 730.3108,-104 730.3108,-140.8939 730.3108,-140.8939"/>
<polygon fill="#000000" stroke="#000000" points="726.8109,-140.8938 730.3108,-150.8939 733.8109,-140.8939 726.8109,-140.8938"/>
</g>
<!-- PipesModule -->
<g id="node9" class="node">
<title>PipesModule</title>
<polygon fill="#8dd3c7" stroke="#000000" points="583.8823,-122 580.8823,-126 559.8823,-126 556.8823,-122 494.1177,-122 494.1177,-86 583.8823,-86 583.8823,-122"/>
<text text-anchor="middle" x="539" y="-99.8" font-family="Times,serif" font-size="14.00" fill="#000000">PipesModule</text>
</g>
<!-- PipesModule&#45;&gt;GroupsListFiltersModalModule -->
<g id="edge8" class="edge">
<title>PipesModule&#45;&gt;GroupsListFiltersModalModule</title>
<path fill="none" stroke="#000000" d="M539,-122.0091C539,-138.0494 539,-159 539,-159 539,-159 714.6075,-159 714.6075,-159"/>
<polygon fill="#000000" stroke="#000000" points="714.6075,-162.5001 724.6075,-159 714.6074,-155.5001 714.6075,-162.5001"/>
</g>
<!-- PromptFormModalModule -->
<g id="node10" class="node">
<title>PromptFormModalModule</title>
<polygon fill="#8dd3c7" stroke="#000000" points="475.6581,-122 472.6581,-126 451.6581,-126 448.6581,-122 308.3419,-122 308.3419,-86 475.6581,-86 475.6581,-122"/>
<text text-anchor="middle" x="392" y="-99.8" font-family="Times,serif" font-size="14.00" fill="#000000">PromptFormModalModule</text>
</g>
<!-- PromptFormModalModule&#45;&gt;GroupsListFiltersModalModule -->
<g id="edge9" class="edge">
<title>PromptFormModalModule&#45;&gt;GroupsListFiltersModalModule</title>
<path fill="none" stroke="#000000" d="M392,-122.2667C392,-140.5552 392,-166 392,-166 392,-166 714.4263,-166 714.4263,-166"/>
<polygon fill="#000000" stroke="#000000" points="714.4264,-169.5001 724.4263,-166 714.4263,-162.5001 714.4264,-169.5001"/>
</g>
<!-- SelectInputModule -->
<g id="node11" class="node">
<title>SelectInputModule</title>
<polygon fill="#8dd3c7" stroke="#000000" points="290.809,-122 287.809,-126 266.809,-126 263.809,-122 167.191,-122 167.191,-86 290.809,-86 290.809,-122"/>
<text text-anchor="middle" x="229" y="-99.8" font-family="Times,serif" font-size="14.00" fill="#000000">SelectInputModule</text>
</g>
<!-- SelectInputModule&#45;&gt;GroupsListFiltersModalModule -->
<g id="edge10" class="edge">
<title>SelectInputModule&#45;&gt;GroupsListFiltersModalModule</title>
<path fill="none" stroke="#000000" d="M229,-122.1289C229,-142.5724 229,-173 229,-173 229,-173 714.4103,-173 714.4103,-173"/>
<polygon fill="#000000" stroke="#000000" points="714.4104,-176.5001 724.4103,-173 714.4103,-169.5001 714.4104,-176.5001"/>
</g>
<!-- NgxBindIOModule -->
<g id="node12" class="node">
<title>NgxBindIOModule</title>
<polygon fill="#8dd3c7" stroke="#000000" points="149.6513,-122 146.6513,-126 125.6513,-126 122.6513,-122 24.3487,-122 24.3487,-86 149.6513,-86 149.6513,-122"/>
<text text-anchor="middle" x="87" y="-99.8" font-family="Times,serif" font-size="14.00" fill="#000000">NgxBindIOModule</text>
</g>
<!-- NgxBindIOModule&#45;&gt;GroupsListFiltersModalModule -->
<g id="edge11" class="edge">
<title>NgxBindIOModule&#45;&gt;GroupsListFiltersModalModule</title>
<path fill="none" stroke="#000000" d="M87,-122.0109C87,-144.4852 87,-180 87,-180 87,-180 714.3977,-180 714.3977,-180"/>
<polygon fill="#000000" stroke="#000000" points="714.3977,-183.5001 724.3977,-180 714.3976,-176.5001 714.3977,-183.5001"/>
</g>
</g>
</svg>
