<?xml version="1.0" encoding="UTF-8" standalone="no"?>
<!DOCTYPE svg PUBLIC "-//W3C//DTD SVG 1.1//EN"
 "http://www.w3.org/Graphics/SVG/1.1/DTD/svg11.dtd">
<!-- Generated by graphviz version 2.40.1 (20161225.0304)
 -->
<!-- Title: dependencies Pages: 1 -->
<svg width="1507pt" height="284pt"
 viewBox="0.00 0.00 1507.00 284.00" xmlns="http://www.w3.org/2000/svg" xmlns:xlink="http://www.w3.org/1999/xlink">
<g id="graph0" class="graph" transform="scale(1 1) rotate(0) translate(4 280)">
<title>dependencies</title>
<polygon fill="#ffffff" stroke="transparent" points="-4,4 -4,-280 1503,-280 1503,4 -4,4"/>
<text text-anchor="start" x="728.5091" y="-42.4" font-family="sans-serif" font-weight="bold" font-size="14.00" fill="#000000">Legend</text>
<polygon fill="#ffffb3" stroke="transparent" points="515.5,-10 515.5,-30 535.5,-30 535.5,-10 515.5,-10"/>
<text text-anchor="start" x="539.129" y="-15.4" font-family="sans-serif" font-size="14.00" fill="#000000"> &#160;Declarations</text>
<polygon fill="#8dd3c7" stroke="transparent" points="628.5,-10 628.5,-30 648.5,-30 648.5,-10 628.5,-10"/>
<text text-anchor="start" x="652.2251" y="-15.4" font-family="sans-serif" font-size="14.00" fill="#000000"> &#160;Module</text>
<polygon fill="#80b1d3" stroke="transparent" points="714.5,-10 714.5,-30 734.5,-30 734.5,-10 714.5,-10"/>
<text text-anchor="start" x="738.2812" y="-15.4" font-family="sans-serif" font-size="14.00" fill="#000000"> &#160;Bootstrap</text>
<polygon fill="#fdb462" stroke="transparent" points="811.5,-10 811.5,-30 831.5,-30 831.5,-10 811.5,-10"/>
<text text-anchor="start" x="835.1732" y="-15.4" font-family="sans-serif" font-size="14.00" fill="#000000"> &#160;Providers</text>
<polygon fill="#fb8072" stroke="transparent" points="907.5,-10 907.5,-30 927.5,-30 927.5,-10 907.5,-10"/>
<text text-anchor="start" x="931.2258" y="-15.4" font-family="sans-serif" font-size="14.00" fill="#000000"> &#160;Exports</text>
<g id="clust1" class="cluster">
<title>cluster_UserModalModule</title>
<polygon fill="none" stroke="#000000" stroke-dasharray="1,5" points="8,-70 8,-268 1491,-268 1491,-70 8,-70"/>
</g>
<g id="clust2" class="cluster">
<title>cluster_UserModalModule_declarations</title>
<polygon fill="none" stroke="#000000" points="1323,-78 1323,-130 1483,-130 1483,-78 1323,-78"/>
</g>
<g id="clust4" class="cluster">
<title>cluster_UserModalModule_imports</title>
<polygon fill="none" stroke="#000000" points="16,-78 16,-130 1315,-130 1315,-78 16,-78"/>
</g>
<g id="clust5" class="cluster">
<title>cluster_UserModalModule_exports</title>
<polygon fill="none" stroke="#000000" points="616,-208 616,-260 927,-260 927,-208 616,-208"/>
</g>
<!-- UserModalComponent -->
<g id="node1" class="node">
<title>UserModalComponent</title>
<polygon fill="#ffffb3" stroke="#000000" points="1475.3089,-122 1330.6911,-122 1330.6911,-86 1475.3089,-86 1475.3089,-122"/>
<text text-anchor="middle" x="1403" y="-99.8" font-family="Times,serif" font-size="14.00" fill="#000000">UserModalComponent</text>
</g>
<!-- UserModalModule -->
<g id="node2" class="node">
<title>UserModalModule</title>
<polygon fill="#8dd3c7" stroke="#000000" points="828.0269,-187 825.0269,-191 804.0269,-191 801.0269,-187 705.9731,-187 705.9731,-151 828.0269,-151 828.0269,-187"/>
<text text-anchor="middle" x="767" y="-164.8" font-family="Times,serif" font-size="14.00" fill="#000000">UserModalModule</text>
</g>
<!-- UserModalComponent&#45;&gt;UserModalModule -->
<g id="edge1" class="edge">
<title>UserModalComponent&#45;&gt;UserModalModule</title>
<path fill="none" stroke="#000000" d="M1403,-122.0109C1403,-144.4852 1403,-180 1403,-180 1403,-180 838.271,-180 838.271,-180"/>
<polygon fill="#000000" stroke="#000000" points="838.271,-176.5001 828.271,-180 838.271,-183.5001 838.271,-176.5001"/>
</g>
<!-- UserModalComponent  -->
<g id="node12" class="node">
<title>UserModalComponent </title>
<polygon fill="#fb8072" stroke="#000000" points="918.8087,-252 771.1913,-252 771.1913,-216 918.8087,-216 918.8087,-252"/>
<text text-anchor="middle" x="845" y="-229.8" font-family="Times,serif" font-size="14.00" fill="#000000">UserModalComponent </text>
</g>
<!-- UserModalModule&#45;&gt;UserModalComponent  -->
<g id="edge11" class="edge">
<title>UserModalModule&#45;&gt;UserModalComponent </title>
<path fill="none" stroke="#000000" stroke-dasharray="5,2" d="M799.6794,-187.1061C799.6794,-187.1061 799.6794,-205.991 799.6794,-205.991"/>
<polygon fill="#000000" stroke="#000000" points="796.1794,-205.9909 799.6794,-215.991 803.1794,-205.991 796.1794,-205.9909"/>
</g>
<!-- FormGroupModule  -->
<g id="node13" class="node">
<title>FormGroupModule </title>
<polygon fill="#fb8072" stroke="#000000" points="753.6509,-252 624.3491,-252 624.3491,-216 753.6509,-216 753.6509,-252"/>
<text text-anchor="middle" x="689" y="-229.8" font-family="Times,serif" font-size="14.00" fill="#000000">FormGroupModule </text>
</g>
<!-- UserModalModule&#45;&gt;FormGroupModule  -->
<g id="edge12" class="edge">
<title>UserModalModule&#45;&gt;FormGroupModule </title>
<path fill="none" stroke="#000000" stroke-dasharray="5,2" d="M729.6562,-187.1061C729.6562,-187.1061 729.6562,-205.991 729.6562,-205.991"/>
<polygon fill="#000000" stroke="#000000" points="726.1563,-205.9909 729.6562,-215.991 733.1563,-205.991 726.1563,-205.9909"/>
</g>
<!-- CommonModule -->
<g id="node3" class="node">
<title>CommonModule</title>
<polygon fill="#8dd3c7" stroke="#000000" points="1306.6681,-122 1303.6681,-126 1282.6681,-126 1279.6681,-122 1195.3319,-122 1195.3319,-86 1306.6681,-86 1306.6681,-122"/>
<text text-anchor="middle" x="1251" y="-99.8" font-family="Times,serif" font-size="14.00" fill="#000000">CommonModule</text>
</g>
<!-- CommonModule&#45;&gt;UserModalModule -->
<g id="edge2" class="edge">
<title>CommonModule&#45;&gt;UserModalModule</title>
<path fill="none" stroke="#000000" d="M1251,-122.1289C1251,-142.5724 1251,-173 1251,-173 1251,-173 838.2989,-173 838.2989,-173"/>
<polygon fill="#000000" stroke="#000000" points="838.299,-169.5001 828.2989,-173 838.2989,-176.5001 838.299,-169.5001"/>
</g>
<!-- IonicModule -->
<g id="node4" class="node">
<title>IonicModule</title>
<polygon fill="#8dd3c7" stroke="#000000" points="1177.3162,-122 1174.3162,-126 1153.3162,-126 1150.3162,-122 1088.6838,-122 1088.6838,-86 1177.3162,-86 1177.3162,-122"/>
<text text-anchor="middle" x="1133" y="-99.8" font-family="Times,serif" font-size="14.00" fill="#000000">IonicModule</text>
</g>
<!-- IonicModule&#45;&gt;UserModalModule -->
<g id="edge3" class="edge">
<title>IonicModule&#45;&gt;UserModalModule</title>
<path fill="none" stroke="#000000" d="M1133,-122.2667C1133,-140.5552 1133,-166 1133,-166 1133,-166 838.2602,-166 838.2602,-166"/>
<polygon fill="#000000" stroke="#000000" points="838.2602,-162.5001 828.2602,-166 838.2601,-169.5001 838.2602,-162.5001"/>
</g>
<!-- FormGroupModule -->
<g id="node5" class="node">
<title>FormGroupModule</title>
<polygon fill="#8dd3c7" stroke="#000000" points="1070.6513,-122 1067.6513,-126 1046.6513,-126 1043.6513,-122 945.3487,-122 945.3487,-86 1070.6513,-86 1070.6513,-122"/>
<text text-anchor="middle" x="1008" y="-99.8" font-family="Times,serif" font-size="14.00" fill="#000000">FormGroupModule</text>
</g>
<!-- FormGroupModule&#45;&gt;UserModalModule -->
<g id="edge4" class="edge">
<title>FormGroupModule&#45;&gt;UserModalModule</title>
<path fill="none" stroke="#000000" d="M1008,-122.0091C1008,-138.0494 1008,-159 1008,-159 1008,-159 838.126,-159 838.126,-159"/>
<polygon fill="#000000" stroke="#000000" points="838.1261,-155.5001 828.126,-159 838.126,-162.5001 838.1261,-155.5001"/>
</g>
<!-- ReactiveFormsModule -->
<g id="node6" class="node">
<title>ReactiveFormsModule</title>
<polygon fill="#8dd3c7" stroke="#000000" points="927.3047,-122 924.3047,-126 903.3047,-126 900.3047,-122 782.6953,-122 782.6953,-86 927.3047,-86 927.3047,-122"/>
<text text-anchor="middle" x="855" y="-99.8" font-family="Times,serif" font-size="14.00" fill="#000000">ReactiveFormsModule</text>
</g>
<!-- ReactiveFormsModule&#45;&gt;UserModalModule -->
<g id="edge5" class="edge">
<title>ReactiveFormsModule&#45;&gt;UserModalModule</title>
<path fill="none" stroke="#000000" d="M805.5554,-122.1061C805.5554,-122.1061 805.5554,-140.991 805.5554,-140.991"/>
<polygon fill="#000000" stroke="#000000" points="802.0555,-140.9909 805.5554,-150.991 809.0555,-140.991 802.0555,-140.9909"/>
</g>
<!-- TranslateModule.forChild() -->
<g id="node7" class="node">
<title>TranslateModule.forChild()</title>
<polygon fill="#8dd3c7" stroke="#000000" points="764.8928,-122 761.8928,-126 740.8928,-126 737.8928,-122 593.1072,-122 593.1072,-86 764.8928,-86 764.8928,-122"/>
<text text-anchor="middle" x="679" y="-99.8" font-family="Times,serif" font-size="14.00" fill="#000000">TranslateModule.forChild()</text>
</g>
<!-- TranslateModule.forChild()&#45;&gt;UserModalModule -->
<g id="edge6" class="edge">
<title>TranslateModule.forChild()&#45;&gt;UserModalModule</title>
<path fill="none" stroke="#000000" d="M735.3417,-122.1061C735.3417,-122.1061 735.3417,-140.991 735.3417,-140.991"/>
<polygon fill="#000000" stroke="#000000" points="731.8418,-140.9909 735.3417,-150.991 738.8418,-140.991 731.8418,-140.9909"/>
</g>
<!-- DirectivesModule -->
<g id="node8" class="node">
<title>DirectivesModule</title>
<polygon fill="#8dd3c7" stroke="#000000" points="575.5772,-122 572.5772,-126 551.5772,-126 548.5772,-122 458.4228,-122 458.4228,-86 575.5772,-86 575.5772,-122"/>
<text text-anchor="middle" x="517" y="-99.8" font-family="Times,serif" font-size="14.00" fill="#000000">DirectivesModule</text>
</g>
<!-- DirectivesModule&#45;&gt;UserModalModule -->
<g id="edge7" class="edge">
<title>DirectivesModule&#45;&gt;UserModalModule</title>
<path fill="none" stroke="#000000" d="M517,-122.0091C517,-138.0494 517,-159 517,-159 517,-159 695.8431,-159 695.8431,-159"/>
<polygon fill="#000000" stroke="#000000" points="695.8432,-162.5001 705.8431,-159 695.8431,-155.5001 695.8432,-162.5001"/>
</g>
<!-- PipesModule -->
<g id="node9" class="node">
<title>PipesModule</title>
<polygon fill="#8dd3c7" stroke="#000000" points="440.8823,-122 437.8823,-126 416.8823,-126 413.8823,-122 351.1177,-122 351.1177,-86 440.8823,-86 440.8823,-122"/>
<text text-anchor="middle" x="396" y="-99.8" font-family="Times,serif" font-size="14.00" fill="#000000">PipesModule</text>
</g>
<!-- PipesModule&#45;&gt;UserModalModule -->
<g id="edge8" class="edge">
<title>PipesModule&#45;&gt;UserModalModule</title>
<path fill="none" stroke="#000000" d="M396,-122.2667C396,-140.5552 396,-166 396,-166 396,-166 695.7369,-166 695.7369,-166"/>
<polygon fill="#000000" stroke="#000000" points="695.7369,-169.5001 705.7369,-166 695.7369,-162.5001 695.7369,-169.5001"/>
</g>
<!-- PromptFormModalModule -->
<g id="node10" class="node">
<title>PromptFormModalModule</title>
<polygon fill="#8dd3c7" stroke="#000000" points="332.6581,-122 329.6581,-126 308.6581,-126 305.6581,-122 165.3419,-122 165.3419,-86 332.6581,-86 332.6581,-122"/>
<text text-anchor="middle" x="249" y="-99.8" font-family="Times,serif" font-size="14.00" fill="#000000">PromptFormModalModule</text>
</g>
<!-- PromptFormModalModule&#45;&gt;UserModalModule -->
<g id="edge9" class="edge">
<title>PromptFormModalModule&#45;&gt;UserModalModule</title>
<path fill="none" stroke="#000000" d="M249,-122.1289C249,-142.5724 249,-173 249,-173 249,-173 695.8002,-173 695.8002,-173"/>
<polygon fill="#000000" stroke="#000000" points="695.8003,-176.5001 705.8002,-173 695.8002,-169.5001 695.8003,-176.5001"/>
</g>
<!-- SelectInputModule -->
<g id="node11" class="node">
<title>SelectInputModule</title>
<polygon fill="#8dd3c7" stroke="#000000" points="147.809,-122 144.809,-126 123.809,-126 120.809,-122 24.191,-122 24.191,-86 147.809,-86 147.809,-122"/>
<text text-anchor="middle" x="86" y="-99.8" font-family="Times,serif" font-size="14.00" fill="#000000">SelectInputModule</text>
</g>
<!-- SelectInputModule&#45;&gt;UserModalModule -->
<g id="edge10" class="edge">
<title>SelectInputModule&#45;&gt;UserModalModule</title>
<path fill="none" stroke="#000000" d="M86,-122.0109C86,-144.4852 86,-180 86,-180 86,-180 695.9665,-180 695.9665,-180"/>
<polygon fill="#000000" stroke="#000000" points="695.9665,-183.5001 705.9665,-180 695.9664,-176.5001 695.9665,-183.5001"/>
</g>
</g>
</svg>
