<?xml version="1.0" encoding="UTF-8" standalone="no"?>
<!DOCTYPE svg PUBLIC "-//W3C//DTD SVG 1.1//EN"
 "http://www.w3.org/Graphics/SVG/1.1/DTD/svg11.dtd">
<!-- Generated by graphviz version 2.40.1 (20161225.0304)
 -->
<!-- Title: dependencies Pages: 1 -->
<svg width="1276pt" height="284pt"
 viewBox="0.00 0.00 1276.00 284.00" xmlns="http://www.w3.org/2000/svg" xmlns:xlink="http://www.w3.org/1999/xlink">
<g id="graph0" class="graph" transform="scale(1 1) rotate(0) translate(4 280)">
<title>dependencies</title>
<polygon fill="#ffffff" stroke="transparent" points="-4,4 -4,-280 1272,-280 1272,4 -4,4"/>
<text text-anchor="start" x="613.0091" y="-42.4" font-family="sans-serif" font-weight="bold" font-size="14.00" fill="#000000">Legend</text>
<polygon fill="#ffffb3" stroke="transparent" points="400,-10 400,-30 420,-30 420,-10 400,-10"/>
<text text-anchor="start" x="423.629" y="-15.4" font-family="sans-serif" font-size="14.00" fill="#000000"> &#160;Declarations</text>
<polygon fill="#8dd3c7" stroke="transparent" points="513,-10 513,-30 533,-30 533,-10 513,-10"/>
<text text-anchor="start" x="536.7251" y="-15.4" font-family="sans-serif" font-size="14.00" fill="#000000"> &#160;Module</text>
<polygon fill="#80b1d3" stroke="transparent" points="599,-10 599,-30 619,-30 619,-10 599,-10"/>
<text text-anchor="start" x="622.7812" y="-15.4" font-family="sans-serif" font-size="14.00" fill="#000000"> &#160;Bootstrap</text>
<polygon fill="#fdb462" stroke="transparent" points="696,-10 696,-30 716,-30 716,-10 696,-10"/>
<text text-anchor="start" x="719.6732" y="-15.4" font-family="sans-serif" font-size="14.00" fill="#000000"> &#160;Providers</text>
<polygon fill="#fb8072" stroke="transparent" points="792,-10 792,-30 812,-30 812,-10 792,-10"/>
<text text-anchor="start" x="815.7258" y="-15.4" font-family="sans-serif" font-size="14.00" fill="#000000"> &#160;Exports</text>
<g id="clust1" class="cluster">
<title>cluster_GroupsListModule</title>
<polygon fill="none" stroke="#000000" stroke-dasharray="1,5" points="8,-70 8,-268 1260,-268 1260,-70 8,-70"/>
</g>
<g id="clust2" class="cluster">
<title>cluster_GroupsListModule_declarations</title>
<polygon fill="none" stroke="#000000" points="1092,-78 1092,-130 1252,-130 1252,-78 1092,-78"/>
</g>
<g id="clust4" class="cluster">
<title>cluster_GroupsListModule_imports</title>
<polygon fill="none" stroke="#000000" points="16,-78 16,-130 1084,-130 1084,-78 16,-78"/>
</g>
<g id="clust5" class="cluster">
<title>cluster_GroupsListModule_exports</title>
<polygon fill="none" stroke="#000000" points="608,-208 608,-260 772,-260 772,-208 608,-208"/>
</g>
<!-- GroupsListComponent -->
<g id="node1" class="node">
<title>GroupsListComponent</title>
<polygon fill="#ffffb3" stroke="#000000" points="1244.323,-122 1099.677,-122 1099.677,-86 1244.323,-86 1244.323,-122"/>
<text text-anchor="middle" x="1172" y="-99.8" font-family="Times,serif" font-size="14.00" fill="#000000">GroupsListComponent</text>
</g>
<!-- GroupsListModule -->
<g id="node2" class="node">
<title>GroupsListModule</title>
<polygon fill="#8dd3c7" stroke="#000000" points="751.0409,-187 748.0409,-191 727.0409,-191 724.0409,-187 628.9591,-187 628.9591,-151 751.0409,-151 751.0409,-187"/>
<text text-anchor="middle" x="690" y="-164.8" font-family="Times,serif" font-size="14.00" fill="#000000">GroupsListModule</text>
</g>
<!-- GroupsListComponent&#45;&gt;GroupsListModule -->
<g id="edge1" class="edge">
<title>GroupsListComponent&#45;&gt;GroupsListModule</title>
<path fill="none" stroke="#000000" d="M1172,-122.2921C1172,-144.2057 1172,-178 1172,-178 1172,-178 761.0456,-178 761.0456,-178"/>
<polygon fill="#000000" stroke="#000000" points="761.0457,-174.5001 751.0456,-178 761.0456,-181.5001 761.0457,-174.5001"/>
</g>
<!-- GroupsListComponent  -->
<g id="node10" class="node">
<title>GroupsListComponent </title>
<polygon fill="#fb8072" stroke="#000000" points="763.8227,-252 616.1773,-252 616.1773,-216 763.8227,-216 763.8227,-252"/>
<text text-anchor="middle" x="690" y="-229.8" font-family="Times,serif" font-size="14.00" fill="#000000">GroupsListComponent </text>
</g>
<!-- GroupsListModule&#45;&gt;GroupsListComponent  -->
<g id="edge9" class="edge">
<title>GroupsListModule&#45;&gt;GroupsListComponent </title>
<path fill="none" stroke="#000000" stroke-dasharray="5,2" d="M690,-187.1061C690,-187.1061 690,-205.991 690,-205.991"/>
<polygon fill="#000000" stroke="#000000" points="686.5001,-205.9909 690,-215.991 693.5001,-205.991 686.5001,-205.9909"/>
</g>
<!-- CommonModule -->
<g id="node3" class="node">
<title>CommonModule</title>
<polygon fill="#8dd3c7" stroke="#000000" points="1075.6681,-122 1072.6681,-126 1051.6681,-126 1048.6681,-122 964.3319,-122 964.3319,-86 1075.6681,-86 1075.6681,-122"/>
<text text-anchor="middle" x="1020" y="-99.8" font-family="Times,serif" font-size="14.00" fill="#000000">CommonModule</text>
</g>
<!-- CommonModule&#45;&gt;GroupsListModule -->
<g id="edge2" class="edge">
<title>CommonModule&#45;&gt;GroupsListModule</title>
<path fill="none" stroke="#000000" d="M1020,-122.1061C1020,-141.3391 1020,-169 1020,-169 1020,-169 761.2971,-169 761.2971,-169"/>
<polygon fill="#000000" stroke="#000000" points="761.2971,-165.5001 751.2971,-169 761.297,-172.5001 761.2971,-165.5001"/>
</g>
<!-- IonicModule -->
<g id="node4" class="node">
<title>IonicModule</title>
<polygon fill="#8dd3c7" stroke="#000000" points="946.3162,-122 943.3162,-126 922.3162,-126 919.3162,-122 857.6838,-122 857.6838,-86 946.3162,-86 946.3162,-122"/>
<text text-anchor="middle" x="902" y="-99.8" font-family="Times,serif" font-size="14.00" fill="#000000">IonicModule</text>
</g>
<!-- IonicModule&#45;&gt;GroupsListModule -->
<g id="edge3" class="edge">
<title>IonicModule&#45;&gt;GroupsListModule</title>
<path fill="none" stroke="#000000" d="M902,-122.027C902,-138.3976 902,-160 902,-160 902,-160 761.3192,-160 761.3192,-160"/>
<polygon fill="#000000" stroke="#000000" points="761.3192,-156.5001 751.3192,-160 761.3191,-163.5001 761.3192,-156.5001"/>
</g>
<!-- IonicModalsModule -->
<g id="node5" class="node">
<title>IonicModalsModule</title>
<polygon fill="#8dd3c7" stroke="#000000" points="840.3104,-122 837.3104,-126 816.3104,-126 813.3104,-122 709.6896,-122 709.6896,-86 840.3104,-86 840.3104,-122"/>
<text text-anchor="middle" x="775" y="-99.8" font-family="Times,serif" font-size="14.00" fill="#000000">IonicModalsModule</text>
</g>
<!-- IonicModalsModule&#45;&gt;GroupsListModule -->
<g id="edge4" class="edge">
<title>IonicModalsModule&#45;&gt;GroupsListModule</title>
<path fill="none" stroke="#000000" d="M730.5575,-122.1061C730.5575,-122.1061 730.5575,-140.991 730.5575,-140.991"/>
<polygon fill="#000000" stroke="#000000" points="727.0576,-140.9909 730.5575,-150.991 734.0576,-140.991 727.0576,-140.9909"/>
</g>
<!-- TranslateModule.forChild() -->
<g id="node6" class="node">
<title>TranslateModule.forChild()</title>
<polygon fill="#8dd3c7" stroke="#000000" points="691.8928,-122 688.8928,-126 667.8928,-126 664.8928,-122 520.1072,-122 520.1072,-86 691.8928,-86 691.8928,-122"/>
<text text-anchor="middle" x="606" y="-99.8" font-family="Times,serif" font-size="14.00" fill="#000000">TranslateModule.forChild()</text>
</g>
<!-- TranslateModule.forChild()&#45;&gt;GroupsListModule -->
<g id="edge5" class="edge">
<title>TranslateModule.forChild()&#45;&gt;GroupsListModule</title>
<path fill="none" stroke="#000000" d="M660.3382,-122.1061C660.3382,-122.1061 660.3382,-140.991 660.3382,-140.991"/>
<polygon fill="#000000" stroke="#000000" points="656.8383,-140.9909 660.3382,-150.991 663.8383,-140.991 656.8383,-140.9909"/>
</g>
<!-- EntityListModule -->
<g id="node7" class="node">
<title>EntityListModule</title>
<polygon fill="#8dd3c7" stroke="#000000" points="501.5535,-122 498.5535,-126 477.5535,-126 474.5535,-122 386.4465,-122 386.4465,-86 501.5535,-86 501.5535,-122"/>
<text text-anchor="middle" x="444" y="-99.8" font-family="Times,serif" font-size="14.00" fill="#000000">EntityListModule</text>
</g>
<!-- EntityListModule&#45;&gt;GroupsListModule -->
<g id="edge6" class="edge">
<title>EntityListModule&#45;&gt;GroupsListModule</title>
<path fill="none" stroke="#000000" d="M444,-122.027C444,-138.3976 444,-160 444,-160 444,-160 618.8749,-160 618.8749,-160"/>
<polygon fill="#000000" stroke="#000000" points="618.875,-163.5001 628.8749,-160 618.8749,-156.5001 618.875,-163.5001"/>
</g>
<!-- GroupModalModule -->
<g id="node8" class="node">
<title>GroupModalModule</title>
<polygon fill="#8dd3c7" stroke="#000000" points="367.8669,-122 364.8669,-126 343.8669,-126 340.8669,-122 236.1331,-122 236.1331,-86 367.8669,-86 367.8669,-122"/>
<text text-anchor="middle" x="302" y="-99.8" font-family="Times,serif" font-size="14.00" fill="#000000">GroupModalModule</text>
</g>
<!-- GroupModalModule&#45;&gt;GroupsListModule -->
<g id="edge7" class="edge">
<title>GroupModalModule&#45;&gt;GroupsListModule</title>
<path fill="none" stroke="#000000" d="M302,-122.1061C302,-141.3391 302,-169 302,-169 302,-169 618.9482,-169 618.9482,-169"/>
<polygon fill="#000000" stroke="#000000" points="618.9482,-172.5001 628.9482,-169 618.9481,-165.5001 618.9482,-172.5001"/>
</g>
<!-- GroupsListFiltersModalModule -->
<g id="node9" class="node">
<title>GroupsListFiltersModalModule</title>
<polygon fill="#8dd3c7" stroke="#000000" points="218.364,-122 215.364,-126 194.364,-126 191.364,-122 23.636,-122 23.636,-86 218.364,-86 218.364,-122"/>
<text text-anchor="middle" x="121" y="-99.8" font-family="Times,serif" font-size="14.00" fill="#000000">GroupsListFiltersModalModule</text>
</g>
<!-- GroupsListFiltersModalModule&#45;&gt;GroupsListModule -->
<g id="edge8" class="edge">
<title>GroupsListFiltersModalModule&#45;&gt;GroupsListModule</title>
<path fill="none" stroke="#000000" d="M121,-122.2921C121,-144.2057 121,-178 121,-178 121,-178 618.837,-178 618.837,-178"/>
<polygon fill="#000000" stroke="#000000" points="618.837,-181.5001 628.837,-178 618.8369,-174.5001 618.837,-181.5001"/>
</g>
</g>
</svg>
