<?xml version="1.0" encoding="UTF-8" standalone="no"?>
<!DOCTYPE svg PUBLIC "-//W3C//DTD SVG 1.1//EN"
 "http://www.w3.org/Graphics/SVG/1.1/DTD/svg11.dtd">
<!-- Generated by graphviz version 2.40.1 (20161225.0304)
 -->
<!-- Title: dependencies Pages: 1 -->
<svg width="1420pt" height="284pt"
 viewBox="0.00 0.00 1420.00 284.00" xmlns="http://www.w3.org/2000/svg" xmlns:xlink="http://www.w3.org/1999/xlink">
<g id="graph0" class="graph" transform="scale(1 1) rotate(0) translate(4 280)">
<title>dependencies</title>
<polygon fill="#ffffff" stroke="transparent" points="-4,4 -4,-280 1416,-280 1416,4 -4,4"/>
<text text-anchor="start" x="685.0091" y="-42.4" font-family="sans-serif" font-weight="bold" font-size="14.00" fill="#000000">Legend</text>
<polygon fill="#ffffb3" stroke="transparent" points="472,-10 472,-30 492,-30 492,-10 472,-10"/>
<text text-anchor="start" x="495.629" y="-15.4" font-family="sans-serif" font-size="14.00" fill="#000000"> &#160;Declarations</text>
<polygon fill="#8dd3c7" stroke="transparent" points="585,-10 585,-30 605,-30 605,-10 585,-10"/>
<text text-anchor="start" x="608.7251" y="-15.4" font-family="sans-serif" font-size="14.00" fill="#000000"> &#160;Module</text>
<polygon fill="#80b1d3" stroke="transparent" points="671,-10 671,-30 691,-30 691,-10 671,-10"/>
<text text-anchor="start" x="694.7812" y="-15.4" font-family="sans-serif" font-size="14.00" fill="#000000"> &#160;Bootstrap</text>
<polygon fill="#fdb462" stroke="transparent" points="768,-10 768,-30 788,-30 788,-10 768,-10"/>
<text text-anchor="start" x="791.6732" y="-15.4" font-family="sans-serif" font-size="14.00" fill="#000000"> &#160;Providers</text>
<polygon fill="#fb8072" stroke="transparent" points="864,-10 864,-30 884,-30 884,-10 864,-10"/>
<text text-anchor="start" x="887.7258" y="-15.4" font-family="sans-serif" font-size="14.00" fill="#000000"> &#160;Exports</text>
<g id="clust1" class="cluster">
<title>cluster_GroupsListModule</title>
<polygon fill="none" stroke="#000000" stroke-dasharray="1,5" points="8,-70 8,-268 1404,-268 1404,-70 8,-70"/>
</g>
<g id="clust2" class="cluster">
<title>cluster_GroupsListModule_declarations</title>
<polygon fill="none" stroke="#000000" points="1236,-78 1236,-130 1396,-130 1396,-78 1236,-78"/>
</g>
<g id="clust4" class="cluster">
<title>cluster_GroupsListModule_imports</title>
<polygon fill="none" stroke="#000000" points="16,-78 16,-130 1228,-130 1228,-78 16,-78"/>
</g>
<g id="clust5" class="cluster">
<title>cluster_GroupsListModule_exports</title>
<polygon fill="none" stroke="#000000" points="668,-208 668,-260 832,-260 832,-208 668,-208"/>
</g>
<!-- GroupsListComponent -->
<g id="node1" class="node">
<title>GroupsListComponent</title>
<polygon fill="#ffffb3" stroke="#000000" points="1388.323,-122 1243.677,-122 1243.677,-86 1388.323,-86 1388.323,-122"/>
<text text-anchor="middle" x="1316" y="-99.8" font-family="Times,serif" font-size="14.00" fill="#000000">GroupsListComponent</text>
</g>
<!-- GroupsListModule -->
<g id="node2" class="node">
<title>GroupsListModule</title>
<polygon fill="#8dd3c7" stroke="#000000" points="811.0409,-187 808.0409,-191 787.0409,-191 784.0409,-187 688.9591,-187 688.9591,-151 811.0409,-151 811.0409,-187"/>
<text text-anchor="middle" x="750" y="-164.8" font-family="Times,serif" font-size="14.00" fill="#000000">GroupsListModule</text>
</g>
<!-- GroupsListComponent&#45;&gt;GroupsListModule -->
<g id="edge1" class="edge">
<title>GroupsListComponent&#45;&gt;GroupsListModule</title>
<path fill="none" stroke="#000000" d="M1316,-122.0109C1316,-144.4852 1316,-180 1316,-180 1316,-180 821.1097,-180 821.1097,-180"/>
<polygon fill="#000000" stroke="#000000" points="821.1097,-176.5001 811.1097,-180 821.1097,-183.5001 821.1097,-176.5001"/>
</g>
<!-- GroupsListComponent  -->
<g id="node11" class="node">
<title>GroupsListComponent </title>
<polygon fill="#fb8072" stroke="#000000" points="823.8227,-252 676.1773,-252 676.1773,-216 823.8227,-216 823.8227,-252"/>
<text text-anchor="middle" x="750" y="-229.8" font-family="Times,serif" font-size="14.00" fill="#000000">GroupsListComponent </text>
</g>
<!-- GroupsListModule&#45;&gt;GroupsListComponent  -->
<g id="edge10" class="edge">
<title>GroupsListModule&#45;&gt;GroupsListComponent </title>
<path fill="none" stroke="#000000" stroke-dasharray="5,2" d="M750,-187.1061C750,-187.1061 750,-205.991 750,-205.991"/>
<polygon fill="#000000" stroke="#000000" points="746.5001,-205.9909 750,-215.991 753.5001,-205.991 746.5001,-205.9909"/>
</g>
<!-- CommonModule -->
<g id="node3" class="node">
<title>CommonModule</title>
<polygon fill="#8dd3c7" stroke="#000000" points="1219.6681,-122 1216.6681,-126 1195.6681,-126 1192.6681,-122 1108.3319,-122 1108.3319,-86 1219.6681,-86 1219.6681,-122"/>
<text text-anchor="middle" x="1164" y="-99.8" font-family="Times,serif" font-size="14.00" fill="#000000">CommonModule</text>
</g>
<!-- CommonModule&#45;&gt;GroupsListModule -->
<g id="edge2" class="edge">
<title>CommonModule&#45;&gt;GroupsListModule</title>
<path fill="none" stroke="#000000" d="M1164,-122.1289C1164,-142.5724 1164,-173 1164,-173 1164,-173 821.0871,-173 821.0871,-173"/>
<polygon fill="#000000" stroke="#000000" points="821.0872,-169.5001 811.0871,-173 821.0871,-176.5001 821.0872,-169.5001"/>
</g>
<!-- IonicModule -->
<g id="node4" class="node">
<title>IonicModule</title>
<polygon fill="#8dd3c7" stroke="#000000" points="1090.3162,-122 1087.3162,-126 1066.3162,-126 1063.3162,-122 1001.6838,-122 1001.6838,-86 1090.3162,-86 1090.3162,-122"/>
<text text-anchor="middle" x="1046" y="-99.8" font-family="Times,serif" font-size="14.00" fill="#000000">IonicModule</text>
</g>
<!-- IonicModule&#45;&gt;GroupsListModule -->
<g id="edge3" class="edge">
<title>IonicModule&#45;&gt;GroupsListModule</title>
<path fill="none" stroke="#000000" d="M1046,-122.2667C1046,-140.5552 1046,-166 1046,-166 1046,-166 821.3314,-166 821.3314,-166"/>
<polygon fill="#000000" stroke="#000000" points="821.3314,-162.5001 811.3314,-166 821.3314,-169.5001 821.3314,-162.5001"/>
</g>
<!-- IonicModalsModule -->
<g id="node5" class="node">
<title>IonicModalsModule</title>
<polygon fill="#8dd3c7" stroke="#000000" points="984.3104,-122 981.3104,-126 960.3104,-126 957.3104,-122 853.6896,-122 853.6896,-86 984.3104,-86 984.3104,-122"/>
<text text-anchor="middle" x="919" y="-99.8" font-family="Times,serif" font-size="14.00" fill="#000000">IonicModalsModule</text>
</g>
<!-- IonicModalsModule&#45;&gt;GroupsListModule -->
<g id="edge4" class="edge">
<title>IonicModalsModule&#45;&gt;GroupsListModule</title>
<path fill="none" stroke="#000000" d="M919,-122.0091C919,-138.0494 919,-159 919,-159 919,-159 821.4909,-159 821.4909,-159"/>
<polygon fill="#000000" stroke="#000000" points="821.491,-155.5001 811.4909,-159 821.4909,-162.5001 821.491,-155.5001"/>
</g>
<!-- TranslateModule.forChild() -->
<g id="node6" class="node">
<title>TranslateModule.forChild()</title>
<polygon fill="#8dd3c7" stroke="#000000" points="835.8928,-122 832.8928,-126 811.8928,-126 808.8928,-122 664.1072,-122 664.1072,-86 835.8928,-86 835.8928,-122"/>
<text text-anchor="middle" x="750" y="-99.8" font-family="Times,serif" font-size="14.00" fill="#000000">TranslateModule.forChild()</text>
</g>
<!-- TranslateModule.forChild()&#45;&gt;GroupsListModule -->
<g id="edge5" class="edge">
<title>TranslateModule.forChild()&#45;&gt;GroupsListModule</title>
<path fill="none" stroke="#000000" d="M750,-122.1061C750,-122.1061 750,-140.991 750,-140.991"/>
<polygon fill="#000000" stroke="#000000" points="746.5001,-140.9909 750,-150.991 753.5001,-140.991 746.5001,-140.9909"/>
</g>
<!-- EntityListModule -->
<g id="node7" class="node">
<title>EntityListModule</title>
<polygon fill="#8dd3c7" stroke="#000000" points="645.5535,-122 642.5535,-126 621.5535,-126 618.5535,-122 530.4465,-122 530.4465,-86 645.5535,-86 645.5535,-122"/>
<text text-anchor="middle" x="588" y="-99.8" font-family="Times,serif" font-size="14.00" fill="#000000">EntityListModule</text>
</g>
<!-- EntityListModule&#45;&gt;GroupsListModule -->
<g id="edge6" class="edge">
<title>EntityListModule&#45;&gt;GroupsListModule</title>
<path fill="none" stroke="#000000" d="M588,-122.0091C588,-138.0494 588,-159 588,-159 588,-159 678.7547,-159 678.7547,-159"/>
<polygon fill="#000000" stroke="#000000" points="678.7548,-162.5001 688.7547,-159 678.7547,-155.5001 678.7548,-162.5001"/>
</g>
<!-- GroupModalModule -->
<g id="node8" class="node">
<title>GroupModalModule</title>
<polygon fill="#8dd3c7" stroke="#000000" points="511.8669,-122 508.8669,-126 487.8669,-126 484.8669,-122 380.1331,-122 380.1331,-86 511.8669,-86 511.8669,-122"/>
<text text-anchor="middle" x="446" y="-99.8" font-family="Times,serif" font-size="14.00" fill="#000000">GroupModalModule</text>
</g>
<!-- GroupModalModule&#45;&gt;GroupsListModule -->
<g id="edge7" class="edge">
<title>GroupModalModule&#45;&gt;GroupsListModule</title>
<path fill="none" stroke="#000000" d="M446,-122.2667C446,-140.5552 446,-166 446,-166 446,-166 678.8468,-166 678.8468,-166"/>
<polygon fill="#000000" stroke="#000000" points="678.8468,-169.5001 688.8468,-166 678.8467,-162.5001 678.8468,-169.5001"/>
</g>
<!-- GroupsListFiltersModalModule -->
<g id="node9" class="node">
<title>GroupsListFiltersModalModule</title>
<polygon fill="#8dd3c7" stroke="#000000" points="362.364,-122 359.364,-126 338.364,-126 335.364,-122 167.636,-122 167.636,-86 362.364,-86 362.364,-122"/>
<text text-anchor="middle" x="265" y="-99.8" font-family="Times,serif" font-size="14.00" fill="#000000">GroupsListFiltersModalModule</text>
</g>
<!-- GroupsListFiltersModalModule&#45;&gt;GroupsListModule -->
<g id="edge8" class="edge">
<title>GroupsListFiltersModalModule&#45;&gt;GroupsListModule</title>
<path fill="none" stroke="#000000" d="M265,-122.1289C265,-142.5724 265,-173 265,-173 265,-173 678.5744,-173 678.5744,-173"/>
<polygon fill="#000000" stroke="#000000" points="678.5744,-176.5001 688.5744,-173 678.5744,-169.5001 678.5744,-176.5001"/>
</g>
<!-- NgxBindIOModule -->
<g id="node10" class="node">
<title>NgxBindIOModule</title>
<polygon fill="#8dd3c7" stroke="#000000" points="149.6513,-122 146.6513,-126 125.6513,-126 122.6513,-122 24.3487,-122 24.3487,-86 149.6513,-86 149.6513,-122"/>
<text text-anchor="middle" x="87" y="-99.8" font-family="Times,serif" font-size="14.00" fill="#000000">NgxBindIOModule</text>
</g>
<!-- NgxBindIOModule&#45;&gt;GroupsListModule -->
<g id="edge9" class="edge">
<title>NgxBindIOModule&#45;&gt;GroupsListModule</title>
<path fill="none" stroke="#000000" d="M87,-122.0109C87,-144.4852 87,-180 87,-180 87,-180 678.8149,-180 678.8149,-180"/>
<polygon fill="#000000" stroke="#000000" points="678.815,-183.5001 688.8149,-180 678.8149,-176.5001 678.815,-183.5001"/>
</g>
</g>
</svg>
