<?xml version="1.0" encoding="UTF-8" standalone="no"?>
<!DOCTYPE svg PUBLIC "-//W3C//DTD SVG 1.1//EN"
 "http://www.w3.org/Graphics/SVG/1.1/DTD/svg11.dtd">
<!-- Generated by graphviz version 2.40.1 (20161225.0304)
 -->
<!-- Title: dependencies Pages: 1 -->
<svg width="2718pt" height="284pt"
 viewBox="0.00 0.00 2718.00 284.00" xmlns="http://www.w3.org/2000/svg" xmlns:xlink="http://www.w3.org/1999/xlink">
<g id="graph0" class="graph" transform="scale(1 1) rotate(0) translate(4 280)">
<title>dependencies</title>
<polygon fill="#ffffff" stroke="transparent" points="-4,4 -4,-280 2714,-280 2714,4 -4,4"/>
<text text-anchor="start" x="1334.0091" y="-42.4" font-family="sans-serif" font-weight="bold" font-size="14.00" fill="#000000">Legend</text>
<polygon fill="#ffffb3" stroke="transparent" points="1121,-10 1121,-30 1141,-30 1141,-10 1121,-10"/>
<text text-anchor="start" x="1144.629" y="-15.4" font-family="sans-serif" font-size="14.00" fill="#000000"> &#160;Declarations</text>
<polygon fill="#8dd3c7" stroke="transparent" points="1234,-10 1234,-30 1254,-30 1254,-10 1234,-10"/>
<text text-anchor="start" x="1257.7251" y="-15.4" font-family="sans-serif" font-size="14.00" fill="#000000"> &#160;Module</text>
<polygon fill="#80b1d3" stroke="transparent" points="1320,-10 1320,-30 1340,-30 1340,-10 1320,-10"/>
<text text-anchor="start" x="1343.7812" y="-15.4" font-family="sans-serif" font-size="14.00" fill="#000000"> &#160;Bootstrap</text>
<polygon fill="#fdb462" stroke="transparent" points="1417,-10 1417,-30 1437,-30 1437,-10 1417,-10"/>
<text text-anchor="start" x="1440.6732" y="-15.4" font-family="sans-serif" font-size="14.00" fill="#000000"> &#160;Providers</text>
<polygon fill="#fb8072" stroke="transparent" points="1513,-10 1513,-30 1533,-30 1533,-10 1513,-10"/>
<text text-anchor="start" x="1536.7258" y="-15.4" font-family="sans-serif" font-size="14.00" fill="#000000"> &#160;Exports</text>
<g id="clust1" class="cluster">
<title>cluster_AppBrowserModule</title>
<polygon fill="none" stroke="#000000" stroke-dasharray="1,5" points="8,-70 8,-268 2702,-268 2702,-70 8,-70"/>
</g>
<g id="clust3" class="cluster">
<title>cluster_AppBrowserModule_imports</title>
<polygon fill="none" stroke="#000000" points="2314,-78 2314,-130 2694,-130 2694,-78 2314,-78"/>
</g>
<g id="clust5" class="cluster">
<title>cluster_AppBrowserModule_bootstrap</title>
<polygon fill="none" stroke="#000000" points="1948,-208 1948,-260 2072,-260 2072,-208 1948,-208"/>
</g>
<g id="clust6" class="cluster">
<title>cluster_AppBrowserModule_providers</title>
<polygon fill="none" stroke="#000000" points="16,-78 16,-130 2306,-130 2306,-78 16,-78"/>
</g>
<!-- BrowserModule.withServerTransition(args) -->
<g id="node1" class="node">
<title>BrowserModule.withServerTransition(args)</title>
<polygon fill="#8dd3c7" stroke="#000000" points="2686.0794,-122 2683.0794,-126 2662.0794,-126 2659.0794,-122 2423.9206,-122 2423.9206,-86 2686.0794,-86 2686.0794,-122"/>
<text text-anchor="middle" x="2555" y="-99.8" font-family="Times,serif" font-size="14.00" fill="#000000">BrowserModule.withServerTransition(args)</text>
</g>
<!-- AppBrowserModule -->
<g id="node3" class="node">
<title>AppBrowserModule</title>
<polygon fill="#8dd3c7" stroke="#000000" points="2075.58,-187 2072.58,-191 2051.58,-191 2048.58,-187 1944.42,-187 1944.42,-151 2075.58,-151 2075.58,-187"/>
<text text-anchor="middle" x="2010" y="-164.8" font-family="Times,serif" font-size="14.00" fill="#000000">AppBrowserModule</text>
</g>
<!-- BrowserModule.withServerTransition(args)&#45;&gt;AppBrowserModule -->
<g id="edge1" class="edge">
<title>BrowserModule.withServerTransition(args)&#45;&gt;AppBrowserModule</title>
<path fill="none" stroke="#000000" d="M2555,-122.2843C2555,-143.3211 2555,-175 2555,-175 2555,-175 2085.7397,-175 2085.7397,-175"/>
<polygon fill="#000000" stroke="#000000" points="2085.7398,-171.5001 2075.7397,-175 2085.7397,-178.5001 2085.7398,-171.5001"/>
</g>
<!-- AppModule -->
<g id="node2" class="node">
<title>AppModule</title>
<polygon fill="#8dd3c7" stroke="#000000" points="2405.6571,-122 2402.6571,-126 2381.6571,-126 2378.6571,-122 2322.3429,-122 2322.3429,-86 2405.6571,-86 2405.6571,-122"/>
<text text-anchor="middle" x="2364" y="-99.8" font-family="Times,serif" font-size="14.00" fill="#000000">AppModule</text>
</g>
<!-- AppModule&#45;&gt;AppBrowserModule -->
<g id="edge2" class="edge">
<title>AppModule&#45;&gt;AppBrowserModule</title>
<path fill="none" stroke="#000000" d="M2364,-122.0225C2364,-139.3734 2364,-163 2364,-163 2364,-163 2085.7551,-163 2085.7551,-163"/>
<polygon fill="#000000" stroke="#000000" points="2085.7551,-159.5001 2075.7551,-163 2085.755,-166.5001 2085.7551,-159.5001"/>
</g>
<!-- AppComponent  -->
<g id="node4" class="node">
<title>AppComponent </title>
<polygon fill="#80b1d3" stroke="#000000" points="2064.439,-252 1955.561,-252 1955.561,-216 2064.439,-216 2064.439,-252"/>
<text text-anchor="middle" x="2010" y="-229.8" font-family="Times,serif" font-size="14.00" fill="#000000">AppComponent </text>
</g>
<!-- AppBrowserModule&#45;&gt;AppComponent  -->
<g id="edge3" class="edge">
<title>AppBrowserModule&#45;&gt;AppComponent </title>
<path fill="none" stroke="#000000" stroke-dasharray="1,5" d="M2010,-187.1061C2010,-187.1061 2010,-205.991 2010,-205.991"/>
<polygon fill="#000000" stroke="#000000" points="2006.5001,-205.9909 2010,-215.991 2013.5001,-205.991 2006.5001,-205.9909"/>
</g>
<!-- { provide: STORAGE_CONFIG_TOKEN, useClass: BrowserStorage } -->
<g id="node5" class="node">
<title>{ provide: STORAGE_CONFIG_TOKEN, useClass: BrowserStorage }</title>
<ellipse fill="#fdb462" stroke="#000000" cx="2010" cy="-104" rx="288.4746" ry="18"/>
<text text-anchor="middle" x="2010" y="-99.8" font-family="Times,serif" font-size="14.00" fill="#000000">{ provide: STORAGE_CONFIG_TOKEN, useClass: BrowserStorage }</text>
</g>
<!-- { provide: STORAGE_CONFIG_TOKEN, useClass: BrowserStorage }&#45;&gt;AppBrowserModule -->
<g id="edge4" class="edge">
<title>{ provide: STORAGE_CONFIG_TOKEN, useClass: BrowserStorage }&#45;&gt;AppBrowserModule</title>
<path fill="none" stroke="#000000" d="M2010,-122.1061C2010,-122.1061 2010,-140.991 2010,-140.991"/>
<polygon fill="#000000" stroke="#000000" points="2006.5001,-140.9909 2010,-150.991 2013.5001,-140.991 2006.5001,-140.9909"/>
</g>
<!-- { provide: &#39;ORIGIN_URL&#39;, useValue: &#160;} -->
<g id="node6" class="node">
<title>{ provide: &#39;ORIGIN_URL&#39;, useValue: &#160;}</title>
<ellipse fill="#fdb462" stroke="#000000" cx="1534" cy="-104" rx="169.8754" ry="18"/>
<text text-anchor="middle" x="1534" y="-99.8" font-family="Times,serif" font-size="14.00" fill="#000000">{ provide: &#39;ORIGIN_URL&#39;, useValue: &#160;}</text>
</g>
<!-- { provide: &#39;ORIGIN_URL&#39;, useValue: &#160;}&#45;&gt;AppBrowserModule -->
<g id="edge5" class="edge">
<title>{ provide: &#39;ORIGIN_URL&#39;, useValue: &#160;}&#45;&gt;AppBrowserModule</title>
<path fill="none" stroke="#000000" d="M1534,-122.0225C1534,-139.3734 1534,-163 1534,-163 1534,-163 1934.314,-163 1934.314,-163"/>
<polygon fill="#000000" stroke="#000000" points="1934.314,-166.5001 1944.314,-163 1934.314,-159.5001 1934.314,-166.5001"/>
</g>
<!-- { provide: APP_INITIALIZER, useFactory: initializeApp, multi: , deps: [TokenService, LangService, UsersListFiltersModalService, GroupsListFiltersModalService] } -->
<g id="node7" class="node">
<title>{ provide: APP_INITIALIZER, useFactory: initializeApp, multi: , deps: [TokenService, LangService, UsersListFiltersModalService, GroupsListFiltersModalService] }</title>
<ellipse fill="#fdb462" stroke="#000000" cx="685" cy="-104" rx="661.4927" ry="18"/>
<text text-anchor="middle" x="685" y="-99.8" font-family="Times,serif" font-size="14.00" fill="#000000">{ provide: APP_INITIALIZER, useFactory: initializeApp, multi: , deps: [TokenService, LangService, UsersListFiltersModalService, GroupsListFiltersModalService] }</text>
</g>
<!-- { provide: APP_INITIALIZER, useFactory: initializeApp, multi: , deps: [TokenService, LangService, UsersListFiltersModalService, GroupsListFiltersModalService] }&#45;&gt;AppBrowserModule -->
<g id="edge6" class="edge">
<title>{ provide: APP_INITIALIZER, useFactory: initializeApp, multi: , deps: [TokenService, LangService, UsersListFiltersModalService, GroupsListFiltersModalService] }&#45;&gt;AppBrowserModule</title>
<path fill="none" stroke="#000000" d="M1346.6811,-104C1352.1991,-104 1355.1543,-104 1355.1543,-104 1355.1543,-104 1355.1543,-175 1355.1543,-175 1355.1543,-175 1934.2126,-175 1934.2126,-175"/>
<polygon fill="#000000" stroke="#000000" points="1934.2127,-178.5001 1944.2126,-175 1934.2126,-171.5001 1934.2127,-178.5001"/>
</g>
</g>
</svg>
