<?xml version="1.0" encoding="UTF-8" standalone="no"?>
<!DOCTYPE svg PUBLIC "-//W3C//DTD SVG 1.1//EN"
 "http://www.w3.org/Graphics/SVG/1.1/DTD/svg11.dtd">
<!-- Generated by graphviz version 2.40.1 (20161225.0304)
 -->
<!-- Title: dependencies Pages: 1 -->
<svg width="779pt" height="211pt"
 viewBox="0.00 0.00 779.00 211.00" xmlns="http://www.w3.org/2000/svg" xmlns:xlink="http://www.w3.org/1999/xlink">
<g id="graph0" class="graph" transform="scale(1 1) rotate(0) translate(4 207)">
<title>dependencies</title>
<polygon fill="#ffffff" stroke="transparent" points="-4,4 -4,-207 775,-207 775,4 -4,4"/>
<text text-anchor="start" x="364.5091" y="-42.4" font-family="sans-serif" font-weight="bold" font-size="14.00" fill="#000000">Legend</text>
<polygon fill="#ffffb3" stroke="transparent" points="151.5,-10 151.5,-30 171.5,-30 171.5,-10 151.5,-10"/>
<text text-anchor="start" x="175.129" y="-15.4" font-family="sans-serif" font-size="14.00" fill="#000000"> &#160;Declarations</text>
<polygon fill="#8dd3c7" stroke="transparent" points="264.5,-10 264.5,-30 284.5,-30 284.5,-10 264.5,-10"/>
<text text-anchor="start" x="288.2251" y="-15.4" font-family="sans-serif" font-size="14.00" fill="#000000"> &#160;Module</text>
<polygon fill="#80b1d3" stroke="transparent" points="350.5,-10 350.5,-30 370.5,-30 370.5,-10 350.5,-10"/>
<text text-anchor="start" x="374.2812" y="-15.4" font-family="sans-serif" font-size="14.00" fill="#000000"> &#160;Bootstrap</text>
<polygon fill="#fdb462" stroke="transparent" points="447.5,-10 447.5,-30 467.5,-30 467.5,-10 447.5,-10"/>
<text text-anchor="start" x="471.1732" y="-15.4" font-family="sans-serif" font-size="14.00" fill="#000000"> &#160;Providers</text>
<polygon fill="#fb8072" stroke="transparent" points="543.5,-10 543.5,-30 563.5,-30 563.5,-10 543.5,-10"/>
<text text-anchor="start" x="567.2258" y="-15.4" font-family="sans-serif" font-size="14.00" fill="#000000"> &#160;Exports</text>
<g id="clust1" class="cluster">
<title>cluster_UsersPageModule</title>
<polygon fill="none" stroke="#000000" stroke-dasharray="1,5" points="8,-70 8,-195 763,-195 763,-70 8,-70"/>
</g>
<g id="clust2" class="cluster">
<title>cluster_UsersPageModule_declarations</title>
<polygon fill="none" stroke="#000000" points="599,-78 599,-130 755,-130 755,-78 599,-78"/>
</g>
<g id="clust4" class="cluster">
<title>cluster_UsersPageModule_imports</title>
<polygon fill="none" stroke="#000000" points="16,-78 16,-130 591,-130 591,-78 16,-78"/>
</g>
<!-- UsersPageComponent -->
<g id="node1" class="node">
<title>UsersPageComponent</title>
<polygon fill="#ffffb3" stroke="#000000" points="747.4158,-122 606.5842,-122 606.5842,-86 747.4158,-86 747.4158,-122"/>
<text text-anchor="middle" x="677" y="-99.8" font-family="Times,serif" font-size="14.00" fill="#000000">UsersPageComponent</text>
</g>
<!-- UsersPageModule -->
<g id="node2" class="node">
<title>UsersPageModule</title>
<polygon fill="#8dd3c7" stroke="#000000" points="463.1332,-187 460.1332,-191 439.1332,-191 436.1332,-187 344.8668,-187 344.8668,-151 463.1332,-151 463.1332,-187"/>
<text text-anchor="middle" x="404" y="-164.8" font-family="Times,serif" font-size="14.00" fill="#000000">UsersPageModule</text>
</g>
<!-- UsersPageComponent&#45;&gt;UsersPageModule -->
<g id="edge1" class="edge">
<title>UsersPageComponent&#45;&gt;UsersPageModule</title>
<path fill="none" stroke="#000000" d="M677,-122.1061C677,-141.3391 677,-169 677,-169 677,-169 473.2369,-169 473.2369,-169"/>
<polygon fill="#000000" stroke="#000000" points="473.237,-165.5001 463.2369,-169 473.2369,-172.5001 473.237,-165.5001"/>
</g>
<!-- CommonModule -->
<g id="node3" class="node">
<title>CommonModule</title>
<polygon fill="#8dd3c7" stroke="#000000" points="582.6681,-122 579.6681,-126 558.6681,-126 555.6681,-122 471.3319,-122 471.3319,-86 582.6681,-86 582.6681,-122"/>
<text text-anchor="middle" x="527" y="-99.8" font-family="Times,serif" font-size="14.00" fill="#000000">CommonModule</text>
</g>
<!-- CommonModule&#45;&gt;UsersPageModule -->
<g id="edge2" class="edge">
<title>CommonModule&#45;&gt;UsersPageModule</title>
<path fill="none" stroke="#000000" d="M471.1925,-104C463.5509,-104 458.2637,-104 458.2637,-104 458.2637,-104 458.2637,-140.8939 458.2637,-140.8939"/>
<polygon fill="#000000" stroke="#000000" points="454.7638,-140.8938 458.2637,-150.8939 461.7638,-140.8939 454.7638,-140.8938"/>
</g>
<!-- SharedModule -->
<g id="node4" class="node">
<title>SharedModule</title>
<polygon fill="#8dd3c7" stroke="#000000" points="453.4231,-122 450.4231,-126 429.4231,-126 426.4231,-122 354.5769,-122 354.5769,-86 453.4231,-86 453.4231,-122"/>
<text text-anchor="middle" x="404" y="-99.8" font-family="Times,serif" font-size="14.00" fill="#000000">SharedModule</text>
</g>
<!-- SharedModule&#45;&gt;UsersPageModule -->
<g id="edge3" class="edge">
<title>SharedModule&#45;&gt;UsersPageModule</title>
<path fill="none" stroke="#000000" d="M404,-122.1061C404,-122.1061 404,-140.991 404,-140.991"/>
<polygon fill="#000000" stroke="#000000" points="400.5001,-140.9909 404,-150.991 407.5001,-140.991 400.5001,-140.9909"/>
</g>
<!-- UsersListModule -->
<g id="node5" class="node">
<title>UsersListModule</title>
<polygon fill="#8dd3c7" stroke="#000000" points="336.6994,-122 333.6994,-126 312.6994,-126 309.6994,-122 223.3006,-122 223.3006,-86 336.6994,-86 336.6994,-122"/>
<text text-anchor="middle" x="280" y="-99.8" font-family="Times,serif" font-size="14.00" fill="#000000">UsersListModule</text>
</g>
<!-- UsersListModule&#45;&gt;UsersPageModule -->
<g id="edge4" class="edge">
<title>UsersListModule&#45;&gt;UsersPageModule</title>
<path fill="none" stroke="#000000" d="M336.6194,-104C344.3722,-104 349.7363,-104 349.7363,-104 349.7363,-104 349.7363,-140.8939 349.7363,-140.8939"/>
<polygon fill="#000000" stroke="#000000" points="346.2364,-140.8938 349.7363,-150.8939 353.2364,-140.8939 346.2364,-140.8938"/>
</g>
<!-- RouterModule.forChild(args) -->
<g id="node6" class="node">
<title>RouterModule.forChild(args)</title>
<polygon fill="#8dd3c7" stroke="#000000" points="205.7323,-122 202.7323,-126 181.7323,-126 178.7323,-122 24.2677,-122 24.2677,-86 205.7323,-86 205.7323,-122"/>
<text text-anchor="middle" x="115" y="-99.8" font-family="Times,serif" font-size="14.00" fill="#000000">RouterModule.forChild(args)</text>
</g>
<!-- RouterModule.forChild(args)&#45;&gt;UsersPageModule -->
<g id="edge5" class="edge">
<title>RouterModule.forChild(args)&#45;&gt;UsersPageModule</title>
<path fill="none" stroke="#000000" d="M115,-122.1061C115,-141.3391 115,-169 115,-169 115,-169 334.8192,-169 334.8192,-169"/>
<polygon fill="#000000" stroke="#000000" points="334.8192,-172.5001 344.8192,-169 334.8191,-165.5001 334.8192,-172.5001"/>
</g>
</g>
</svg>
