<?xml version="1.0" encoding="UTF-8" standalone="no"?>
<!DOCTYPE svg PUBLIC "-//W3C//DTD SVG 1.1//EN"
 "http://www.w3.org/Graphics/SVG/1.1/DTD/svg11.dtd">
<!-- Generated by graphviz version 2.40.1 (20161225.0304)
 -->
<!-- Title: dependencies Pages: 1 -->
<svg width="1003pt" height="284pt"
 viewBox="0.00 0.00 1003.00 284.00" xmlns="http://www.w3.org/2000/svg" xmlns:xlink="http://www.w3.org/1999/xlink">
<g id="graph0" class="graph" transform="scale(1 1) rotate(0) translate(4 280)">
<title>dependencies</title>
<polygon fill="#ffffff" stroke="transparent" points="-4,4 -4,-280 999,-280 999,4 -4,4"/>
<text text-anchor="start" x="476.5091" y="-42.4" font-family="sans-serif" font-weight="bold" font-size="14.00" fill="#000000">Legend</text>
<polygon fill="#ffffb3" stroke="transparent" points="263.5,-10 263.5,-30 283.5,-30 283.5,-10 263.5,-10"/>
<text text-anchor="start" x="287.129" y="-15.4" font-family="sans-serif" font-size="14.00" fill="#000000"> &#160;Declarations</text>
<polygon fill="#8dd3c7" stroke="transparent" points="376.5,-10 376.5,-30 396.5,-30 396.5,-10 376.5,-10"/>
<text text-anchor="start" x="400.2251" y="-15.4" font-family="sans-serif" font-size="14.00" fill="#000000"> &#160;Module</text>
<polygon fill="#80b1d3" stroke="transparent" points="462.5,-10 462.5,-30 482.5,-30 482.5,-10 462.5,-10"/>
<text text-anchor="start" x="486.2812" y="-15.4" font-family="sans-serif" font-size="14.00" fill="#000000"> &#160;Bootstrap</text>
<polygon fill="#fdb462" stroke="transparent" points="559.5,-10 559.5,-30 579.5,-30 579.5,-10 559.5,-10"/>
<text text-anchor="start" x="583.1732" y="-15.4" font-family="sans-serif" font-size="14.00" fill="#000000"> &#160;Providers</text>
<polygon fill="#fb8072" stroke="transparent" points="655.5,-10 655.5,-30 675.5,-30 675.5,-10 655.5,-10"/>
<text text-anchor="start" x="679.2258" y="-15.4" font-family="sans-serif" font-size="14.00" fill="#000000"> &#160;Exports</text>
<g id="clust1" class="cluster">
<title>cluster_NavbarModule</title>
<polygon fill="none" stroke="#000000" stroke-dasharray="1,5" points="8,-70 8,-268 987,-268 987,-70 8,-70"/>
</g>
<g id="clust2" class="cluster">
<title>cluster_NavbarModule_declarations</title>
<polygon fill="none" stroke="#000000" points="841,-78 841,-130 979,-130 979,-78 841,-78"/>
</g>
<g id="clust4" class="cluster">
<title>cluster_NavbarModule_imports</title>
<polygon fill="none" stroke="#000000" points="16,-78 16,-130 833,-130 833,-78 16,-78"/>
</g>
<g id="clust5" class="cluster">
<title>cluster_NavbarModule_exports</title>
<polygon fill="none" stroke="#000000" points="384,-208 384,-260 638,-260 638,-208 384,-208"/>
</g>
<!-- NavbarComponent -->
<g id="node1" class="node">
<title>NavbarComponent</title>
<polygon fill="#ffffb3" stroke="#000000" points="971.0297,-122 848.9703,-122 848.9703,-86 971.0297,-86 971.0297,-122"/>
<text text-anchor="middle" x="910" y="-99.8" font-family="Times,serif" font-size="14.00" fill="#000000">NavbarComponent</text>
</g>
<!-- NavbarModule -->
<g id="node2" class="node">
<title>NavbarModule</title>
<polygon fill="#8dd3c7" stroke="#000000" points="553.2465,-187 550.2465,-191 529.2465,-191 526.2465,-187 452.7535,-187 452.7535,-151 553.2465,-151 553.2465,-187"/>
<text text-anchor="middle" x="503" y="-164.8" font-family="Times,serif" font-size="14.00" fill="#000000">NavbarModule</text>
</g>
<!-- NavbarComponent&#45;&gt;NavbarModule -->
<g id="edge1" class="edge">
<title>NavbarComponent&#45;&gt;NavbarModule</title>
<path fill="none" stroke="#000000" d="M910,-122.2921C910,-144.2057 910,-178 910,-178 910,-178 563.3144,-178 563.3144,-178"/>
<polygon fill="#000000" stroke="#000000" points="563.3144,-174.5001 553.3144,-178 563.3144,-181.5001 563.3144,-174.5001"/>
</g>
<!-- NavbarComponent  -->
<g id="node9" class="node">
<title>NavbarComponent </title>
<polygon fill="#fb8072" stroke="#000000" points="630.0288,-252 503.9712,-252 503.9712,-216 630.0288,-216 630.0288,-252"/>
<text text-anchor="middle" x="567" y="-229.8" font-family="Times,serif" font-size="14.00" fill="#000000">NavbarComponent </text>
</g>
<!-- NavbarModule&#45;&gt;NavbarComponent  -->
<g id="edge8" class="edge">
<title>NavbarModule&#45;&gt;NavbarComponent </title>
<path fill="none" stroke="#000000" stroke-dasharray="5,2" d="M528.6794,-187.1061C528.6794,-187.1061 528.6794,-205.991 528.6794,-205.991"/>
<polygon fill="#000000" stroke="#000000" points="525.1794,-205.9909 528.6794,-215.991 532.1794,-205.991 525.1794,-205.9909"/>
</g>
<!-- PipesModule  -->
<g id="node10" class="node">
<title>PipesModule </title>
<polygon fill="#fb8072" stroke="#000000" points="485.883,-252 392.117,-252 392.117,-216 485.883,-216 485.883,-252"/>
<text text-anchor="middle" x="439" y="-229.8" font-family="Times,serif" font-size="14.00" fill="#000000">PipesModule </text>
</g>
<!-- NavbarModule&#45;&gt;PipesModule  -->
<g id="edge9" class="edge">
<title>NavbarModule&#45;&gt;PipesModule </title>
<path fill="none" stroke="#000000" stroke-dasharray="5,2" d="M469.159,-187.1061C469.159,-187.1061 469.159,-205.991 469.159,-205.991"/>
<polygon fill="#000000" stroke="#000000" points="465.6591,-205.9909 469.159,-215.991 472.6591,-205.991 465.6591,-205.9909"/>
</g>
<!-- CommonModule -->
<g id="node3" class="node">
<title>CommonModule</title>
<polygon fill="#8dd3c7" stroke="#000000" points="824.6681,-122 821.6681,-126 800.6681,-126 797.6681,-122 713.3319,-122 713.3319,-86 824.6681,-86 824.6681,-122"/>
<text text-anchor="middle" x="769" y="-99.8" font-family="Times,serif" font-size="14.00" fill="#000000">CommonModule</text>
</g>
<!-- CommonModule&#45;&gt;NavbarModule -->
<g id="edge2" class="edge">
<title>CommonModule&#45;&gt;NavbarModule</title>
<path fill="none" stroke="#000000" d="M769,-122.1061C769,-141.3391 769,-169 769,-169 769,-169 563.3453,-169 563.3453,-169"/>
<polygon fill="#000000" stroke="#000000" points="563.3453,-165.5001 553.3453,-169 563.3452,-172.5001 563.3453,-165.5001"/>
</g>
<!-- IonicModule -->
<g id="node4" class="node">
<title>IonicModule</title>
<polygon fill="#8dd3c7" stroke="#000000" points="695.3162,-122 692.3162,-126 671.3162,-126 668.3162,-122 606.6838,-122 606.6838,-86 695.3162,-86 695.3162,-122"/>
<text text-anchor="middle" x="651" y="-99.8" font-family="Times,serif" font-size="14.00" fill="#000000">IonicModule</text>
</g>
<!-- IonicModule&#45;&gt;NavbarModule -->
<g id="edge3" class="edge">
<title>IonicModule&#45;&gt;NavbarModule</title>
<path fill="none" stroke="#000000" d="M618.4283,-122.027C618.4283,-138.3976 618.4283,-160 618.4283,-160 618.4283,-160 563.2928,-160 563.2928,-160"/>
<polygon fill="#000000" stroke="#000000" points="563.2928,-156.5001 553.2928,-160 563.2927,-163.5001 563.2928,-156.5001"/>
</g>
<!-- TranslateModule.forChild() -->
<g id="node5" class="node">
<title>TranslateModule.forChild()</title>
<polygon fill="#8dd3c7" stroke="#000000" points="588.8928,-122 585.8928,-126 564.8928,-126 561.8928,-122 417.1072,-122 417.1072,-86 588.8928,-86 588.8928,-122"/>
<text text-anchor="middle" x="503" y="-99.8" font-family="Times,serif" font-size="14.00" fill="#000000">TranslateModule.forChild()</text>
</g>
<!-- TranslateModule.forChild()&#45;&gt;NavbarModule -->
<g id="edge4" class="edge">
<title>TranslateModule.forChild()&#45;&gt;NavbarModule</title>
<path fill="none" stroke="#000000" d="M503,-122.1061C503,-122.1061 503,-140.991 503,-140.991"/>
<polygon fill="#000000" stroke="#000000" points="499.5001,-140.9909 503,-150.991 506.5001,-140.991 499.5001,-140.9909"/>
</g>
<!-- NgxPermissionsModule -->
<g id="node6" class="node">
<title>NgxPermissionsModule</title>
<polygon fill="#8dd3c7" stroke="#000000" points="398.8201,-122 395.8201,-126 374.8201,-126 371.8201,-122 247.1799,-122 247.1799,-86 398.8201,-86 398.8201,-122"/>
<text text-anchor="middle" x="323" y="-99.8" font-family="Times,serif" font-size="14.00" fill="#000000">NgxPermissionsModule</text>
</g>
<!-- NgxPermissionsModule&#45;&gt;NavbarModule -->
<g id="edge5" class="edge">
<title>NgxPermissionsModule&#45;&gt;NavbarModule</title>
<path fill="none" stroke="#000000" d="M319.8245,-122.027C319.8245,-138.3976 319.8245,-160 319.8245,-160 319.8245,-160 442.4616,-160 442.4616,-160"/>
<polygon fill="#000000" stroke="#000000" points="442.4616,-163.5001 452.4616,-160 442.4616,-156.5001 442.4616,-163.5001"/>
</g>
<!-- RouterModule -->
<g id="node7" class="node">
<title>RouterModule</title>
<polygon fill="#8dd3c7" stroke="#000000" points="229.6528,-122 226.6528,-126 205.6528,-126 202.6528,-122 132.3472,-122 132.3472,-86 229.6528,-86 229.6528,-122"/>
<text text-anchor="middle" x="181" y="-99.8" font-family="Times,serif" font-size="14.00" fill="#000000">RouterModule</text>
</g>
<!-- RouterModule&#45;&gt;NavbarModule -->
<g id="edge6" class="edge">
<title>RouterModule&#45;&gt;NavbarModule</title>
<path fill="none" stroke="#000000" d="M181,-122.1061C181,-141.3391 181,-169 181,-169 181,-169 442.6875,-169 442.6875,-169"/>
<polygon fill="#000000" stroke="#000000" points="442.6875,-172.5001 452.6875,-169 442.6875,-165.5001 442.6875,-172.5001"/>
</g>
<!-- PipesModule -->
<g id="node8" class="node">
<title>PipesModule</title>
<polygon fill="#8dd3c7" stroke="#000000" points="113.8823,-122 110.8823,-126 89.8823,-126 86.8823,-122 24.1177,-122 24.1177,-86 113.8823,-86 113.8823,-122"/>
<text text-anchor="middle" x="69" y="-99.8" font-family="Times,serif" font-size="14.00" fill="#000000">PipesModule</text>
</g>
<!-- PipesModule&#45;&gt;NavbarModule -->
<g id="edge7" class="edge">
<title>PipesModule&#45;&gt;NavbarModule</title>
<path fill="none" stroke="#000000" d="M69,-122.2921C69,-144.2057 69,-178 69,-178 69,-178 442.3653,-178 442.3653,-178"/>
<polygon fill="#000000" stroke="#000000" points="442.3653,-181.5001 452.3653,-178 442.3653,-174.5001 442.3653,-181.5001"/>
</g>
</g>
</svg>
