<?xml version="1.0" encoding="UTF-8" standalone="no"?>
<!DOCTYPE svg PUBLIC "-//W3C//DTD SVG 1.1//EN"
 "http://www.w3.org/Graphics/SVG/1.1/DTD/svg11.dtd">
<!-- Generated by graphviz version 2.40.1 (20161225.0304)
 -->
<!-- Title: dependencies Pages: 1 -->
<svg width="1045pt" height="349pt"
 viewBox="0.00 0.00 1045.00 349.00" xmlns="http://www.w3.org/2000/svg" xmlns:xlink="http://www.w3.org/1999/xlink">
<g id="graph0" class="graph" transform="scale(1 1) rotate(0) translate(4 345)">
<title>dependencies</title>
<polygon fill="#ffffff" stroke="transparent" points="-4,4 -4,-345 1041,-345 1041,4 -4,4"/>
<text text-anchor="start" x="497.5091" y="-42.4" font-family="sans-serif" font-weight="bold" font-size="14.00" fill="#000000">Legend</text>
<polygon fill="#ffffb3" stroke="transparent" points="284.5,-10 284.5,-30 304.5,-30 304.5,-10 284.5,-10"/>
<text text-anchor="start" x="308.129" y="-15.4" font-family="sans-serif" font-size="14.00" fill="#000000"> &#160;Declarations</text>
<polygon fill="#8dd3c7" stroke="transparent" points="397.5,-10 397.5,-30 417.5,-30 417.5,-10 397.5,-10"/>
<text text-anchor="start" x="421.2251" y="-15.4" font-family="sans-serif" font-size="14.00" fill="#000000"> &#160;Module</text>
<polygon fill="#80b1d3" stroke="transparent" points="483.5,-10 483.5,-30 503.5,-30 503.5,-10 483.5,-10"/>
<text text-anchor="start" x="507.2812" y="-15.4" font-family="sans-serif" font-size="14.00" fill="#000000"> &#160;Bootstrap</text>
<polygon fill="#fdb462" stroke="transparent" points="580.5,-10 580.5,-30 600.5,-30 600.5,-10 580.5,-10"/>
<text text-anchor="start" x="604.1732" y="-15.4" font-family="sans-serif" font-size="14.00" fill="#000000"> &#160;Providers</text>
<polygon fill="#fb8072" stroke="transparent" points="676.5,-10 676.5,-30 696.5,-30 696.5,-10 676.5,-10"/>
<text text-anchor="start" x="700.2258" y="-15.4" font-family="sans-serif" font-size="14.00" fill="#000000"> &#160;Exports</text>
<g id="clust1" class="cluster">
<title>cluster_SelectInputModule</title>
<polygon fill="none" stroke="#000000" stroke-dasharray="1,5" points="8,-70 8,-333 1029,-333 1029,-70 8,-70"/>
</g>
<g id="clust2" class="cluster">
<title>cluster_SelectInputModule_declarations</title>
<polygon fill="none" stroke="#000000" points="859,-143 859,-195 1021,-195 1021,-143 859,-143"/>
</g>
<g id="clust3" class="cluster">
<title>cluster_SelectInputModule_SelectInputComponent_providers</title>
<polygon fill="none" stroke="#000000" points="503,-78 503,-130 1021,-130 1021,-78 503,-78"/>
</g>
<g id="clust4" class="cluster">
<title>cluster_SelectInputModule_imports</title>
<polygon fill="none" stroke="#000000" points="16,-143 16,-195 851,-195 851,-143 16,-143"/>
</g>
<g id="clust5" class="cluster">
<title>cluster_SelectInputModule_exports</title>
<polygon fill="none" stroke="#000000" points="477,-273 477,-325 641,-325 641,-273 477,-273"/>
</g>
<!-- SelectInputComponent -->
<g id="node1" class="node">
<title>SelectInputComponent</title>
<polygon fill="#ffffb3" stroke="#000000" points="1012.5912,-187 867.4088,-187 867.4088,-151 1012.5912,-151 1012.5912,-187"/>
<text text-anchor="middle" x="940" y="-164.8" font-family="Times,serif" font-size="14.00" fill="#000000">SelectInputComponent</text>
</g>
<!-- SelectInputModule -->
<g id="node2" class="node">
<title>SelectInputModule</title>
<polygon fill="#8dd3c7" stroke="#000000" points="620.809,-252 617.809,-256 596.809,-256 593.809,-252 497.191,-252 497.191,-216 620.809,-216 620.809,-252"/>
<text text-anchor="middle" x="559" y="-229.8" font-family="Times,serif" font-size="14.00" fill="#000000">SelectInputModule</text>
</g>
<!-- SelectInputComponent&#45;&gt;SelectInputModule -->
<g id="edge1" class="edge">
<title>SelectInputComponent&#45;&gt;SelectInputModule</title>
<path fill="none" stroke="#000000" d="M940,-187.2921C940,-209.2057 940,-243 940,-243 940,-243 631.0622,-243 631.0622,-243"/>
<polygon fill="#000000" stroke="#000000" points="631.0622,-239.5001 621.0622,-243 631.0622,-246.5001 631.0622,-239.5001"/>
</g>
<!-- SelectInputComponent  -->
<g id="node10" class="node">
<title>SelectInputComponent </title>
<polygon fill="#fb8072" stroke="#000000" points="633.0918,-317 484.9082,-317 484.9082,-281 633.0918,-281 633.0918,-317"/>
<text text-anchor="middle" x="559" y="-294.8" font-family="Times,serif" font-size="14.00" fill="#000000">SelectInputComponent </text>
</g>
<!-- SelectInputModule&#45;&gt;SelectInputComponent  -->
<g id="edge9" class="edge">
<title>SelectInputModule&#45;&gt;SelectInputComponent </title>
<path fill="none" stroke="#000000" stroke-dasharray="5,2" d="M559,-252.1061C559,-252.1061 559,-270.991 559,-270.991"/>
<polygon fill="#000000" stroke="#000000" points="555.5001,-270.9909 559,-280.991 562.5001,-270.991 555.5001,-270.9909"/>
</g>
<!-- { provide: NG_VALUE_ACCESSOR, useExisting: , multi: &#160;} -->
<g id="node3" class="node">
<title>{ provide: NG_VALUE_ACCESSOR, useExisting: , multi: &#160;}</title>
<ellipse fill="#fdb462" stroke="#000000" cx="762" cy="-104" rx="251.4985" ry="18"/>
<text text-anchor="middle" x="762" y="-99.8" font-family="Times,serif" font-size="14.00" fill="#000000">{ provide: NG_VALUE_ACCESSOR, useExisting: , multi: &#160;}</text>
</g>
<!-- { provide: NG_VALUE_ACCESSOR, useExisting: , multi: &#160;}&#45;&gt;SelectInputComponent -->
<g id="edge2" class="edge">
<title>{ provide: NG_VALUE_ACCESSOR, useExisting: , multi: &#160;}&#45;&gt;SelectInputComponent</title>
<path fill="none" stroke="#000000" d="M940,-116.8419C940,-116.8419 940,-140.5231 940,-140.5231"/>
<polygon fill="#000000" stroke="#000000" points="936.5001,-140.523 940,-150.5231 943.5001,-140.5231 936.5001,-140.523"/>
</g>
<!-- CommonModule -->
<g id="node4" class="node">
<title>CommonModule</title>
<polygon fill="#8dd3c7" stroke="#000000" points="842.6681,-187 839.6681,-191 818.6681,-191 815.6681,-187 731.3319,-187 731.3319,-151 842.6681,-151 842.6681,-187"/>
<text text-anchor="middle" x="787" y="-164.8" font-family="Times,serif" font-size="14.00" fill="#000000">CommonModule</text>
</g>
<!-- CommonModule&#45;&gt;SelectInputModule -->
<g id="edge3" class="edge">
<title>CommonModule&#45;&gt;SelectInputModule</title>
<path fill="none" stroke="#000000" d="M787,-187.1061C787,-206.3391 787,-234 787,-234 787,-234 630.7001,-234 630.7001,-234"/>
<polygon fill="#000000" stroke="#000000" points="630.7001,-230.5001 620.7001,-234 630.7,-237.5001 630.7001,-230.5001"/>
</g>
<!-- IonicModule -->
<g id="node5" class="node">
<title>IonicModule</title>
<polygon fill="#8dd3c7" stroke="#000000" points="713.3162,-187 710.3162,-191 689.3162,-191 686.3162,-187 624.6838,-187 624.6838,-151 713.3162,-151 713.3162,-187"/>
<text text-anchor="middle" x="669" y="-164.8" font-family="Times,serif" font-size="14.00" fill="#000000">IonicModule</text>
</g>
<!-- IonicModule&#45;&gt;SelectInputModule -->
<g id="edge4" class="edge">
<title>IonicModule&#45;&gt;SelectInputModule</title>
<path fill="none" stroke="#000000" d="M629.0689,-187.027C629.0689,-203.3976 629.0689,-225 629.0689,-225 629.0689,-225 628.2376,-225 628.2376,-225"/>
<polygon fill="#000000" stroke="#000000" points="630.756,-221.5001 620.7559,-225 630.7559,-228.5001 630.756,-221.5001"/>
</g>
<!-- FormsModule -->
<g id="node6" class="node">
<title>FormsModule</title>
<polygon fill="#8dd3c7" stroke="#000000" points="606.8288,-187 603.8288,-191 582.8288,-191 579.8288,-187 511.1712,-187 511.1712,-151 606.8288,-151 606.8288,-187"/>
<text text-anchor="middle" x="559" y="-164.8" font-family="Times,serif" font-size="14.00" fill="#000000">FormsModule</text>
</g>
<!-- FormsModule&#45;&gt;SelectInputModule -->
<g id="edge5" class="edge">
<title>FormsModule&#45;&gt;SelectInputModule</title>
<path fill="none" stroke="#000000" d="M559,-187.1061C559,-187.1061 559,-205.991 559,-205.991"/>
<polygon fill="#000000" stroke="#000000" points="555.5001,-205.9909 559,-215.991 562.5001,-205.991 555.5001,-205.9909"/>
</g>
<!-- ReactiveFormsModule -->
<g id="node7" class="node">
<title>ReactiveFormsModule</title>
<polygon fill="#8dd3c7" stroke="#000000" points="493.3047,-187 490.3047,-191 469.3047,-191 466.3047,-187 348.6953,-187 348.6953,-151 493.3047,-151 493.3047,-187"/>
<text text-anchor="middle" x="421" y="-164.8" font-family="Times,serif" font-size="14.00" fill="#000000">ReactiveFormsModule</text>
</g>
<!-- ReactiveFormsModule&#45;&gt;SelectInputModule -->
<g id="edge6" class="edge">
<title>ReactiveFormsModule&#45;&gt;SelectInputModule</title>
<path fill="none" stroke="#000000" d="M488.9283,-187.027C488.9283,-203.3976 488.9283,-225 488.9283,-225 488.9283,-225 489.7596,-225 489.7596,-225"/>
<polygon fill="#000000" stroke="#000000" points="487.2417,-228.5001 497.2416,-225 487.2416,-221.5001 487.2417,-228.5001"/>
</g>
<!-- DirectivesModule -->
<g id="node8" class="node">
<title>DirectivesModule</title>
<polygon fill="#8dd3c7" stroke="#000000" points="330.5772,-187 327.5772,-191 306.5772,-191 303.5772,-187 213.4228,-187 213.4228,-151 330.5772,-151 330.5772,-187"/>
<text text-anchor="middle" x="272" y="-164.8" font-family="Times,serif" font-size="14.00" fill="#000000">DirectivesModule</text>
</g>
<!-- DirectivesModule&#45;&gt;SelectInputModule -->
<g id="edge7" class="edge">
<title>DirectivesModule&#45;&gt;SelectInputModule</title>
<path fill="none" stroke="#000000" d="M272,-187.1061C272,-206.3391 272,-234 272,-234 272,-234 487.0786,-234 487.0786,-234"/>
<polygon fill="#000000" stroke="#000000" points="487.0787,-237.5001 497.0786,-234 487.0786,-230.5001 487.0787,-237.5001"/>
</g>
<!-- TranslateModule.forChild() -->
<g id="node9" class="node">
<title>TranslateModule.forChild()</title>
<polygon fill="#8dd3c7" stroke="#000000" points="195.8928,-187 192.8928,-191 171.8928,-191 168.8928,-187 24.1072,-187 24.1072,-151 195.8928,-151 195.8928,-187"/>
<text text-anchor="middle" x="110" y="-164.8" font-family="Times,serif" font-size="14.00" fill="#000000">TranslateModule.forChild()</text>
</g>
<!-- TranslateModule.forChild()&#45;&gt;SelectInputModule -->
<g id="edge8" class="edge">
<title>TranslateModule.forChild()&#45;&gt;SelectInputModule</title>
<path fill="none" stroke="#000000" d="M110,-187.2921C110,-209.2057 110,-243 110,-243 110,-243 487.0399,-243 487.0399,-243"/>
<polygon fill="#000000" stroke="#000000" points="487.0399,-246.5001 497.0399,-243 487.0398,-239.5001 487.0399,-246.5001"/>
</g>
</g>
</svg>
