<?xml version="1.0" encoding="UTF-8" standalone="no"?>
<!DOCTYPE svg PUBLIC "-//W3C//DTD SVG 1.1//EN"
 "http://www.w3.org/Graphics/SVG/1.1/DTD/svg11.dtd">
<!-- Generated by graphviz version 2.40.1 (20161225.0304)
 -->
<!-- Title: dependencies Pages: 1 -->
<svg width="1153pt" height="349pt"
 viewBox="0.00 0.00 1153.00 349.00" xmlns="http://www.w3.org/2000/svg" xmlns:xlink="http://www.w3.org/1999/xlink">
<g id="graph0" class="graph" transform="scale(1 1) rotate(0) translate(4 345)">
<title>dependencies</title>
<polygon fill="#ffffff" stroke="transparent" points="-4,4 -4,-345 1149,-345 1149,4 -4,4"/>
<text text-anchor="start" x="551.5091" y="-42.4" font-family="sans-serif" font-weight="bold" font-size="14.00" fill="#000000">Legend</text>
<polygon fill="#ffffb3" stroke="transparent" points="338.5,-10 338.5,-30 358.5,-30 358.5,-10 338.5,-10"/>
<text text-anchor="start" x="362.129" y="-15.4" font-family="sans-serif" font-size="14.00" fill="#000000"> &#160;Declarations</text>
<polygon fill="#8dd3c7" stroke="transparent" points="451.5,-10 451.5,-30 471.5,-30 471.5,-10 451.5,-10"/>
<text text-anchor="start" x="475.2251" y="-15.4" font-family="sans-serif" font-size="14.00" fill="#000000"> &#160;Module</text>
<polygon fill="#80b1d3" stroke="transparent" points="537.5,-10 537.5,-30 557.5,-30 557.5,-10 537.5,-10"/>
<text text-anchor="start" x="561.2812" y="-15.4" font-family="sans-serif" font-size="14.00" fill="#000000"> &#160;Bootstrap</text>
<polygon fill="#fdb462" stroke="transparent" points="634.5,-10 634.5,-30 654.5,-30 654.5,-10 634.5,-10"/>
<text text-anchor="start" x="658.1732" y="-15.4" font-family="sans-serif" font-size="14.00" fill="#000000"> &#160;Providers</text>
<polygon fill="#fb8072" stroke="transparent" points="730.5,-10 730.5,-30 750.5,-30 750.5,-10 730.5,-10"/>
<text text-anchor="start" x="754.2258" y="-15.4" font-family="sans-serif" font-size="14.00" fill="#000000"> &#160;Exports</text>
<g id="clust1" class="cluster">
<title>cluster_SelectInputModule</title>
<polygon fill="none" stroke="#000000" stroke-dasharray="1,5" points="8,-70 8,-333 1137,-333 1137,-70 8,-70"/>
</g>
<g id="clust2" class="cluster">
<title>cluster_SelectInputModule_declarations</title>
<polygon fill="none" stroke="#000000" points="967,-143 967,-195 1129,-195 1129,-143 967,-143"/>
</g>
<g id="clust3" class="cluster">
<title>cluster_SelectInputModule_SelectInputComponent_providers</title>
<polygon fill="none" stroke="#000000" points="611,-78 611,-130 1129,-130 1129,-78 611,-78"/>
</g>
<g id="clust4" class="cluster">
<title>cluster_SelectInputModule_imports</title>
<polygon fill="none" stroke="#000000" points="16,-143 16,-195 959,-195 959,-143 16,-143"/>
</g>
<g id="clust5" class="cluster">
<title>cluster_SelectInputModule_exports</title>
<polygon fill="none" stroke="#000000" points="516,-273 516,-325 680,-325 680,-273 516,-273"/>
</g>
<!-- SelectInputComponent -->
<g id="node1" class="node">
<title>SelectInputComponent</title>
<polygon fill="#ffffb3" stroke="#000000" points="1120.5912,-187 975.4088,-187 975.4088,-151 1120.5912,-151 1120.5912,-187"/>
<text text-anchor="middle" x="1048" y="-164.8" font-family="Times,serif" font-size="14.00" fill="#000000">SelectInputComponent</text>
</g>
<!-- SelectInputModule -->
<g id="node2" class="node">
<title>SelectInputModule</title>
<polygon fill="#8dd3c7" stroke="#000000" points="659.809,-252 656.809,-256 635.809,-256 632.809,-252 536.191,-252 536.191,-216 659.809,-216 659.809,-252"/>
<text text-anchor="middle" x="598" y="-229.8" font-family="Times,serif" font-size="14.00" fill="#000000">SelectInputModule</text>
</g>
<!-- SelectInputComponent&#45;&gt;SelectInputModule -->
<g id="edge1" class="edge">
<title>SelectInputComponent&#45;&gt;SelectInputModule</title>
<path fill="none" stroke="#000000" d="M1048,-187.2921C1048,-209.2057 1048,-243 1048,-243 1048,-243 670.0981,-243 670.0981,-243"/>
<polygon fill="#000000" stroke="#000000" points="670.0982,-239.5001 660.0981,-243 670.0981,-246.5001 670.0982,-239.5001"/>
</g>
<!-- SelectInputComponent  -->
<g id="node11" class="node">
<title>SelectInputComponent </title>
<polygon fill="#fb8072" stroke="#000000" points="672.0918,-317 523.9082,-317 523.9082,-281 672.0918,-281 672.0918,-317"/>
<text text-anchor="middle" x="598" y="-294.8" font-family="Times,serif" font-size="14.00" fill="#000000">SelectInputComponent </text>
</g>
<!-- SelectInputModule&#45;&gt;SelectInputComponent  -->
<g id="edge10" class="edge">
<title>SelectInputModule&#45;&gt;SelectInputComponent </title>
<path fill="none" stroke="#000000" stroke-dasharray="5,2" d="M598,-252.1061C598,-252.1061 598,-270.991 598,-270.991"/>
<polygon fill="#000000" stroke="#000000" points="594.5001,-270.9909 598,-280.991 601.5001,-270.991 594.5001,-270.9909"/>
</g>
<!-- { provide: NG_VALUE_ACCESSOR, useExisting: , multi: &#160;} -->
<g id="node3" class="node">
<title>{ provide: NG_VALUE_ACCESSOR, useExisting: , multi: &#160;}</title>
<ellipse fill="#fdb462" stroke="#000000" cx="870" cy="-104" rx="251.4985" ry="18"/>
<text text-anchor="middle" x="870" y="-99.8" font-family="Times,serif" font-size="14.00" fill="#000000">{ provide: NG_VALUE_ACCESSOR, useExisting: , multi: &#160;}</text>
</g>
<!-- { provide: NG_VALUE_ACCESSOR, useExisting: , multi: &#160;}&#45;&gt;SelectInputComponent -->
<g id="edge2" class="edge">
<title>{ provide: NG_VALUE_ACCESSOR, useExisting: , multi: &#160;}&#45;&gt;SelectInputComponent</title>
<path fill="none" stroke="#000000" d="M1048,-116.8419C1048,-116.8419 1048,-140.5231 1048,-140.5231"/>
<polygon fill="#000000" stroke="#000000" points="1044.5001,-140.523 1048,-150.5231 1051.5001,-140.5231 1044.5001,-140.523"/>
</g>
<!-- CommonModule -->
<g id="node4" class="node">
<title>CommonModule</title>
<polygon fill="#8dd3c7" stroke="#000000" points="950.6681,-187 947.6681,-191 926.6681,-191 923.6681,-187 839.3319,-187 839.3319,-151 950.6681,-151 950.6681,-187"/>
<text text-anchor="middle" x="895" y="-164.8" font-family="Times,serif" font-size="14.00" fill="#000000">CommonModule</text>
</g>
<!-- CommonModule&#45;&gt;SelectInputModule -->
<g id="edge3" class="edge">
<title>CommonModule&#45;&gt;SelectInputModule</title>
<path fill="none" stroke="#000000" d="M895,-187.1061C895,-206.3391 895,-234 895,-234 895,-234 669.8994,-234 669.8994,-234"/>
<polygon fill="#000000" stroke="#000000" points="669.8994,-230.5001 659.8994,-234 669.8994,-237.5001 669.8994,-230.5001"/>
</g>
<!-- IonicModule -->
<g id="node5" class="node">
<title>IonicModule</title>
<polygon fill="#8dd3c7" stroke="#000000" points="821.3162,-187 818.3162,-191 797.3162,-191 794.3162,-187 732.6838,-187 732.6838,-151 821.3162,-151 821.3162,-187"/>
<text text-anchor="middle" x="777" y="-164.8" font-family="Times,serif" font-size="14.00" fill="#000000">IonicModule</text>
</g>
<!-- IonicModule&#45;&gt;SelectInputModule -->
<g id="edge4" class="edge">
<title>IonicModule&#45;&gt;SelectInputModule</title>
<path fill="none" stroke="#000000" d="M777,-187.027C777,-203.3976 777,-225 777,-225 777,-225 669.8523,-225 669.8523,-225"/>
<polygon fill="#000000" stroke="#000000" points="669.8523,-221.5001 659.8523,-225 669.8523,-228.5001 669.8523,-221.5001"/>
</g>
<!-- FormsModule -->
<g id="node6" class="node">
<title>FormsModule</title>
<polygon fill="#8dd3c7" stroke="#000000" points="714.8288,-187 711.8288,-191 690.8288,-191 687.8288,-187 619.1712,-187 619.1712,-151 714.8288,-151 714.8288,-187"/>
<text text-anchor="middle" x="667" y="-164.8" font-family="Times,serif" font-size="14.00" fill="#000000">FormsModule</text>
</g>
<!-- FormsModule&#45;&gt;SelectInputModule -->
<g id="edge5" class="edge">
<title>FormsModule&#45;&gt;SelectInputModule</title>
<path fill="none" stroke="#000000" d="M639.4951,-187.1061C639.4951,-187.1061 639.4951,-205.991 639.4951,-205.991"/>
<polygon fill="#000000" stroke="#000000" points="635.9952,-205.9909 639.4951,-215.991 642.9952,-205.991 635.9952,-205.9909"/>
</g>
<!-- ReactiveFormsModule -->
<g id="node7" class="node">
<title>ReactiveFormsModule</title>
<polygon fill="#8dd3c7" stroke="#000000" points="601.3047,-187 598.3047,-191 577.3047,-191 574.3047,-187 456.6953,-187 456.6953,-151 601.3047,-151 601.3047,-187"/>
<text text-anchor="middle" x="529" y="-164.8" font-family="Times,serif" font-size="14.00" fill="#000000">ReactiveFormsModule</text>
</g>
<!-- ReactiveFormsModule&#45;&gt;SelectInputModule -->
<g id="edge6" class="edge">
<title>ReactiveFormsModule&#45;&gt;SelectInputModule</title>
<path fill="none" stroke="#000000" d="M568.749,-187.1061C568.749,-187.1061 568.749,-205.991 568.749,-205.991"/>
<polygon fill="#000000" stroke="#000000" points="565.249,-205.9909 568.749,-215.991 572.249,-205.991 565.249,-205.9909"/>
</g>
<!-- DirectivesModule -->
<g id="node8" class="node">
<title>DirectivesModule</title>
<polygon fill="#8dd3c7" stroke="#000000" points="438.5772,-187 435.5772,-191 414.5772,-191 411.5772,-187 321.4228,-187 321.4228,-151 438.5772,-151 438.5772,-187"/>
<text text-anchor="middle" x="380" y="-164.8" font-family="Times,serif" font-size="14.00" fill="#000000">DirectivesModule</text>
</g>
<!-- DirectivesModule&#45;&gt;SelectInputModule -->
<g id="edge7" class="edge">
<title>DirectivesModule&#45;&gt;SelectInputModule</title>
<path fill="none" stroke="#000000" d="M380,-187.027C380,-203.3976 380,-225 380,-225 380,-225 526.1131,-225 526.1131,-225"/>
<polygon fill="#000000" stroke="#000000" points="526.1131,-228.5001 536.1131,-225 526.113,-221.5001 526.1131,-228.5001"/>
</g>
<!-- PipesModule -->
<g id="node9" class="node">
<title>PipesModule</title>
<polygon fill="#8dd3c7" stroke="#000000" points="303.8823,-187 300.8823,-191 279.8823,-191 276.8823,-187 214.1177,-187 214.1177,-151 303.8823,-151 303.8823,-187"/>
<text text-anchor="middle" x="259" y="-164.8" font-family="Times,serif" font-size="14.00" fill="#000000">PipesModule</text>
</g>
<!-- PipesModule&#45;&gt;SelectInputModule -->
<g id="edge8" class="edge">
<title>PipesModule&#45;&gt;SelectInputModule</title>
<path fill="none" stroke="#000000" d="M259,-187.1061C259,-206.3391 259,-234 259,-234 259,-234 526.2164,-234 526.2164,-234"/>
<polygon fill="#000000" stroke="#000000" points="526.2164,-237.5001 536.2164,-234 526.2163,-230.5001 526.2164,-237.5001"/>
</g>
<!-- TranslateModule.forChild() -->
<g id="node10" class="node">
<title>TranslateModule.forChild()</title>
<polygon fill="#8dd3c7" stroke="#000000" points="195.8928,-187 192.8928,-191 171.8928,-191 168.8928,-187 24.1072,-187 24.1072,-151 195.8928,-151 195.8928,-187"/>
<text text-anchor="middle" x="110" y="-164.8" font-family="Times,serif" font-size="14.00" fill="#000000">TranslateModule.forChild()</text>
</g>
<!-- TranslateModule.forChild()&#45;&gt;SelectInputModule -->
<g id="edge9" class="edge">
<title>TranslateModule.forChild()&#45;&gt;SelectInputModule</title>
<path fill="none" stroke="#000000" d="M110,-187.2921C110,-209.2057 110,-243 110,-243 110,-243 526.1945,-243 526.1945,-243"/>
<polygon fill="#000000" stroke="#000000" points="526.1945,-246.5001 536.1945,-243 526.1944,-239.5001 526.1945,-246.5001"/>
</g>
</g>
</svg>
