<?xml version="1.0" encoding="UTF-8" standalone="no"?>
<!DOCTYPE svg PUBLIC "-//W3C//DTD SVG 1.1//EN"
 "http://www.w3.org/Graphics/SVG/1.1/DTD/svg11.dtd">
<!-- Generated by graphviz version 2.40.1 (20161225.0304)
 -->
<!-- Title: dependencies Pages: 1 -->
<svg width="1384pt" height="284pt"
 viewBox="0.00 0.00 1384.00 284.00" xmlns="http://www.w3.org/2000/svg" xmlns:xlink="http://www.w3.org/1999/xlink">
<g id="graph0" class="graph" transform="scale(1 1) rotate(0) translate(4 280)">
<title>dependencies</title>
<polygon fill="#ffffff" stroke="transparent" points="-4,4 -4,-280 1380,-280 1380,4 -4,4"/>
<text text-anchor="start" x="667.0091" y="-42.4" font-family="sans-serif" font-weight="bold" font-size="14.00" fill="#000000">Legend</text>
<polygon fill="#ffffb3" stroke="transparent" points="454,-10 454,-30 474,-30 474,-10 454,-10"/>
<text text-anchor="start" x="477.629" y="-15.4" font-family="sans-serif" font-size="14.00" fill="#000000"> &#160;Declarations</text>
<polygon fill="#8dd3c7" stroke="transparent" points="567,-10 567,-30 587,-30 587,-10 567,-10"/>
<text text-anchor="start" x="590.7251" y="-15.4" font-family="sans-serif" font-size="14.00" fill="#000000"> &#160;Module</text>
<polygon fill="#80b1d3" stroke="transparent" points="653,-10 653,-30 673,-30 673,-10 653,-10"/>
<text text-anchor="start" x="676.7812" y="-15.4" font-family="sans-serif" font-size="14.00" fill="#000000"> &#160;Bootstrap</text>
<polygon fill="#fdb462" stroke="transparent" points="750,-10 750,-30 770,-30 770,-10 750,-10"/>
<text text-anchor="start" x="773.6732" y="-15.4" font-family="sans-serif" font-size="14.00" fill="#000000"> &#160;Providers</text>
<polygon fill="#fb8072" stroke="transparent" points="846,-10 846,-30 866,-30 866,-10 846,-10"/>
<text text-anchor="start" x="869.7258" y="-15.4" font-family="sans-serif" font-size="14.00" fill="#000000"> &#160;Exports</text>
<g id="clust1" class="cluster">
<title>cluster_EntityModalModule</title>
<polygon fill="none" stroke="#000000" stroke-dasharray="1,5" points="8,-70 8,-268 1368,-268 1368,-70 8,-70"/>
</g>
<g id="clust2" class="cluster">
<title>cluster_EntityModalModule_declarations</title>
<polygon fill="none" stroke="#000000" points="1192,-78 1192,-130 1360,-130 1360,-78 1192,-78"/>
</g>
<g id="clust4" class="cluster">
<title>cluster_EntityModalModule_imports</title>
<polygon fill="none" stroke="#000000" points="16,-78 16,-130 1184,-130 1184,-78 16,-78"/>
</g>
<g id="clust5" class="cluster">
<title>cluster_EntityModalModule_exports</title>
<polygon fill="none" stroke="#000000" points="571,-208 571,-260 890,-260 890,-208 571,-208"/>
</g>
<!-- EntityModalComponent -->
<g id="node1" class="node">
<title>EntityModalComponent</title>
<polygon fill="#ffffb3" stroke="#000000" points="1352.1066,-122 1199.8934,-122 1199.8934,-86 1352.1066,-86 1352.1066,-122"/>
<text text-anchor="middle" x="1276" y="-99.8" font-family="Times,serif" font-size="14.00" fill="#000000">EntityModalComponent</text>
</g>
<!-- EntityModalModule -->
<g id="node2" class="node">
<title>EntityModalModule</title>
<polygon fill="#8dd3c7" stroke="#000000" points="789.3244,-187 786.3244,-191 765.3244,-191 762.3244,-187 658.6756,-187 658.6756,-151 789.3244,-151 789.3244,-187"/>
<text text-anchor="middle" x="724" y="-164.8" font-family="Times,serif" font-size="14.00" fill="#000000">EntityModalModule</text>
</g>
<!-- EntityModalComponent&#45;&gt;EntityModalModule -->
<g id="edge1" class="edge">
<title>EntityModalComponent&#45;&gt;EntityModalModule</title>
<path fill="none" stroke="#000000" d="M1276,-122.0109C1276,-144.4852 1276,-180 1276,-180 1276,-180 799.2167,-180 799.2167,-180"/>
<polygon fill="#000000" stroke="#000000" points="799.2168,-176.5001 789.2167,-180 799.2167,-183.5001 799.2168,-176.5001"/>
</g>
<!-- EntityModalComponent  -->
<g id="node11" class="node">
<title>EntityModalComponent </title>
<polygon fill="#fb8072" stroke="#000000" points="881.6071,-252 726.3929,-252 726.3929,-216 881.6071,-216 881.6071,-252"/>
<text text-anchor="middle" x="804" y="-229.8" font-family="Times,serif" font-size="14.00" fill="#000000">EntityModalComponent </text>
</g>
<!-- EntityModalModule&#45;&gt;EntityModalComponent  -->
<g id="edge10" class="edge">
<title>EntityModalModule&#45;&gt;EntityModalComponent </title>
<path fill="none" stroke="#000000" stroke-dasharray="5,2" d="M757.6794,-187.1061C757.6794,-187.1061 757.6794,-205.991 757.6794,-205.991"/>
<polygon fill="#000000" stroke="#000000" points="754.1794,-205.9909 757.6794,-215.991 761.1794,-205.991 754.1794,-205.9909"/>
</g>
<!-- FormGroupModule  -->
<g id="node12" class="node">
<title>FormGroupModule </title>
<polygon fill="#fb8072" stroke="#000000" points="708.6509,-252 579.3491,-252 579.3491,-216 708.6509,-216 708.6509,-252"/>
<text text-anchor="middle" x="644" y="-229.8" font-family="Times,serif" font-size="14.00" fill="#000000">FormGroupModule </text>
</g>
<!-- EntityModalModule&#45;&gt;FormGroupModule  -->
<g id="edge11" class="edge">
<title>EntityModalModule&#45;&gt;FormGroupModule </title>
<path fill="none" stroke="#000000" stroke-dasharray="5,2" d="M683.7067,-187.1061C683.7067,-187.1061 683.7067,-205.991 683.7067,-205.991"/>
<polygon fill="#000000" stroke="#000000" points="680.2068,-205.9909 683.7067,-215.991 687.2068,-205.991 680.2068,-205.9909"/>
</g>
<!-- CommonModule -->
<g id="node3" class="node">
<title>CommonModule</title>
<polygon fill="#8dd3c7" stroke="#000000" points="1175.6681,-122 1172.6681,-126 1151.6681,-126 1148.6681,-122 1064.3319,-122 1064.3319,-86 1175.6681,-86 1175.6681,-122"/>
<text text-anchor="middle" x="1120" y="-99.8" font-family="Times,serif" font-size="14.00" fill="#000000">CommonModule</text>
</g>
<!-- CommonModule&#45;&gt;EntityModalModule -->
<g id="edge2" class="edge">
<title>CommonModule&#45;&gt;EntityModalModule</title>
<path fill="none" stroke="#000000" d="M1120,-122.1289C1120,-142.5724 1120,-173 1120,-173 1120,-173 799.3913,-173 799.3913,-173"/>
<polygon fill="#000000" stroke="#000000" points="799.3914,-169.5001 789.3913,-173 799.3913,-176.5001 799.3914,-169.5001"/>
</g>
<!-- IonicModule -->
<g id="node4" class="node">
<title>IonicModule</title>
<polygon fill="#8dd3c7" stroke="#000000" points="1046.3162,-122 1043.3162,-126 1022.3162,-126 1019.3162,-122 957.6838,-122 957.6838,-86 1046.3162,-86 1046.3162,-122"/>
<text text-anchor="middle" x="1002" y="-99.8" font-family="Times,serif" font-size="14.00" fill="#000000">IonicModule</text>
</g>
<!-- IonicModule&#45;&gt;EntityModalModule -->
<g id="edge3" class="edge">
<title>IonicModule&#45;&gt;EntityModalModule</title>
<path fill="none" stroke="#000000" d="M1002,-122.2667C1002,-140.5552 1002,-166 1002,-166 1002,-166 799.1786,-166 799.1786,-166"/>
<polygon fill="#000000" stroke="#000000" points="799.1787,-162.5001 789.1786,-166 799.1786,-169.5001 799.1787,-162.5001"/>
</g>
<!-- FormGroupModule -->
<g id="node5" class="node">
<title>FormGroupModule</title>
<polygon fill="#8dd3c7" stroke="#000000" points="939.6513,-122 936.6513,-126 915.6513,-126 912.6513,-122 814.3487,-122 814.3487,-86 939.6513,-86 939.6513,-122"/>
<text text-anchor="middle" x="877" y="-99.8" font-family="Times,serif" font-size="14.00" fill="#000000">FormGroupModule</text>
</g>
<!-- FormGroupModule&#45;&gt;EntityModalModule -->
<g id="edge4" class="edge">
<title>FormGroupModule&#45;&gt;EntityModalModule</title>
<path fill="none" stroke="#000000" d="M847.989,-122.0091C847.989,-138.0494 847.989,-159 847.989,-159 847.989,-159 799.2624,-159 799.2624,-159"/>
<polygon fill="#000000" stroke="#000000" points="799.2624,-155.5001 789.2624,-159 799.2623,-162.5001 799.2624,-155.5001"/>
</g>
<!-- ReactiveFormsModule -->
<g id="node6" class="node">
<title>ReactiveFormsModule</title>
<polygon fill="#8dd3c7" stroke="#000000" points="796.3047,-122 793.3047,-126 772.3047,-126 769.3047,-122 651.6953,-122 651.6953,-86 796.3047,-86 796.3047,-122"/>
<text text-anchor="middle" x="724" y="-99.8" font-family="Times,serif" font-size="14.00" fill="#000000">ReactiveFormsModule</text>
</g>
<!-- ReactiveFormsModule&#45;&gt;EntityModalModule -->
<g id="edge5" class="edge">
<title>ReactiveFormsModule&#45;&gt;EntityModalModule</title>
<path fill="none" stroke="#000000" d="M724,-122.1061C724,-122.1061 724,-140.991 724,-140.991"/>
<polygon fill="#000000" stroke="#000000" points="720.5001,-140.9909 724,-150.991 727.5001,-140.991 720.5001,-140.9909"/>
</g>
<!-- TranslateModule.forChild() -->
<g id="node7" class="node">
<title>TranslateModule.forChild()</title>
<polygon fill="#8dd3c7" stroke="#000000" points="633.8928,-122 630.8928,-126 609.8928,-126 606.8928,-122 462.1072,-122 462.1072,-86 633.8928,-86 633.8928,-122"/>
<text text-anchor="middle" x="548" y="-99.8" font-family="Times,serif" font-size="14.00" fill="#000000">TranslateModule.forChild()</text>
</g>
<!-- TranslateModule.forChild()&#45;&gt;EntityModalModule -->
<g id="edge6" class="edge">
<title>TranslateModule.forChild()&#45;&gt;EntityModalModule</title>
<path fill="none" stroke="#000000" d="M606.6855,-122.0091C606.6855,-138.0494 606.6855,-159 606.6855,-159 606.6855,-159 648.8245,-159 648.8245,-159"/>
<polygon fill="#000000" stroke="#000000" points="648.8246,-162.5001 658.8245,-159 648.8245,-155.5001 648.8246,-162.5001"/>
</g>
<!-- PipesModule -->
<g id="node8" class="node">
<title>PipesModule</title>
<polygon fill="#8dd3c7" stroke="#000000" points="443.8823,-122 440.8823,-126 419.8823,-126 416.8823,-122 354.1177,-122 354.1177,-86 443.8823,-86 443.8823,-122"/>
<text text-anchor="middle" x="399" y="-99.8" font-family="Times,serif" font-size="14.00" fill="#000000">PipesModule</text>
</g>
<!-- PipesModule&#45;&gt;EntityModalModule -->
<g id="edge7" class="edge">
<title>PipesModule&#45;&gt;EntityModalModule</title>
<path fill="none" stroke="#000000" d="M399,-122.2667C399,-140.5552 399,-166 399,-166 399,-166 648.6224,-166 648.6224,-166"/>
<polygon fill="#000000" stroke="#000000" points="648.6224,-169.5001 658.6224,-166 648.6223,-162.5001 648.6224,-169.5001"/>
</g>
<!-- PromptFormModalModule -->
<g id="node9" class="node">
<title>PromptFormModalModule</title>
<polygon fill="#8dd3c7" stroke="#000000" points="335.6581,-122 332.6581,-126 311.6581,-126 308.6581,-122 168.3419,-122 168.3419,-86 335.6581,-86 335.6581,-122"/>
<text text-anchor="middle" x="252" y="-99.8" font-family="Times,serif" font-size="14.00" fill="#000000">PromptFormModalModule</text>
</g>
<!-- PromptFormModalModule&#45;&gt;EntityModalModule -->
<g id="edge8" class="edge">
<title>PromptFormModalModule&#45;&gt;EntityModalModule</title>
<path fill="none" stroke="#000000" d="M252,-122.1289C252,-142.5724 252,-173 252,-173 252,-173 648.3704,-173 648.3704,-173"/>
<polygon fill="#000000" stroke="#000000" points="648.3705,-176.5001 658.3704,-173 648.3704,-169.5001 648.3705,-176.5001"/>
</g>
<!-- NgxBindIOModule -->
<g id="node10" class="node">
<title>NgxBindIOModule</title>
<polygon fill="#8dd3c7" stroke="#000000" points="149.6513,-122 146.6513,-126 125.6513,-126 122.6513,-122 24.3487,-122 24.3487,-86 149.6513,-86 149.6513,-122"/>
<text text-anchor="middle" x="87" y="-99.8" font-family="Times,serif" font-size="14.00" fill="#000000">NgxBindIOModule</text>
</g>
<!-- NgxBindIOModule&#45;&gt;EntityModalModule -->
<g id="edge9" class="edge">
<title>NgxBindIOModule&#45;&gt;EntityModalModule</title>
<path fill="none" stroke="#000000" d="M87,-122.0109C87,-144.4852 87,-180 87,-180 87,-180 648.8234,-180 648.8234,-180"/>
<polygon fill="#000000" stroke="#000000" points="648.8234,-183.5001 658.8234,-180 648.8234,-176.5001 648.8234,-183.5001"/>
</g>
</g>
</svg>
