<?xml version="1.0" encoding="UTF-8" standalone="no"?>
<!DOCTYPE svg PUBLIC "-//W3C//DTD SVG 1.1//EN"
 "http://www.w3.org/Graphics/SVG/1.1/DTD/svg11.dtd">
<!-- Generated by graphviz version 2.40.1 (20161225.0304)
 -->
<!-- Title: dependencies Pages: 1 -->
<svg width="1240pt" height="284pt"
 viewBox="0.00 0.00 1240.00 284.00" xmlns="http://www.w3.org/2000/svg" xmlns:xlink="http://www.w3.org/1999/xlink">
<g id="graph0" class="graph" transform="scale(1 1) rotate(0) translate(4 280)">
<title>dependencies</title>
<polygon fill="#ffffff" stroke="transparent" points="-4,4 -4,-280 1236,-280 1236,4 -4,4"/>
<text text-anchor="start" x="595.0091" y="-42.4" font-family="sans-serif" font-weight="bold" font-size="14.00" fill="#000000">Legend</text>
<polygon fill="#ffffb3" stroke="transparent" points="382,-10 382,-30 402,-30 402,-10 382,-10"/>
<text text-anchor="start" x="405.629" y="-15.4" font-family="sans-serif" font-size="14.00" fill="#000000"> &#160;Declarations</text>
<polygon fill="#8dd3c7" stroke="transparent" points="495,-10 495,-30 515,-30 515,-10 495,-10"/>
<text text-anchor="start" x="518.7251" y="-15.4" font-family="sans-serif" font-size="14.00" fill="#000000"> &#160;Module</text>
<polygon fill="#80b1d3" stroke="transparent" points="581,-10 581,-30 601,-30 601,-10 581,-10"/>
<text text-anchor="start" x="604.7812" y="-15.4" font-family="sans-serif" font-size="14.00" fill="#000000"> &#160;Bootstrap</text>
<polygon fill="#fdb462" stroke="transparent" points="678,-10 678,-30 698,-30 698,-10 678,-10"/>
<text text-anchor="start" x="701.6732" y="-15.4" font-family="sans-serif" font-size="14.00" fill="#000000"> &#160;Providers</text>
<polygon fill="#fb8072" stroke="transparent" points="774,-10 774,-30 794,-30 794,-10 774,-10"/>
<text text-anchor="start" x="797.7258" y="-15.4" font-family="sans-serif" font-size="14.00" fill="#000000"> &#160;Exports</text>
<g id="clust1" class="cluster">
<title>cluster_EntityModalModule</title>
<polygon fill="none" stroke="#000000" stroke-dasharray="1,5" points="8,-70 8,-268 1224,-268 1224,-70 8,-70"/>
</g>
<g id="clust2" class="cluster">
<title>cluster_EntityModalModule_declarations</title>
<polygon fill="none" stroke="#000000" points="1048,-78 1048,-130 1216,-130 1216,-78 1048,-78"/>
</g>
<g id="clust4" class="cluster">
<title>cluster_EntityModalModule_imports</title>
<polygon fill="none" stroke="#000000" points="16,-78 16,-130 1040,-130 1040,-78 16,-78"/>
</g>
<g id="clust5" class="cluster">
<title>cluster_EntityModalModule_exports</title>
<polygon fill="none" stroke="#000000" points="503,-208 503,-260 822,-260 822,-208 503,-208"/>
</g>
<!-- EntityModalComponent -->
<g id="node1" class="node">
<title>EntityModalComponent</title>
<polygon fill="#ffffb3" stroke="#000000" points="1208.1066,-122 1055.8934,-122 1055.8934,-86 1208.1066,-86 1208.1066,-122"/>
<text text-anchor="middle" x="1132" y="-99.8" font-family="Times,serif" font-size="14.00" fill="#000000">EntityModalComponent</text>
</g>
<!-- EntityModalModule -->
<g id="node2" class="node">
<title>EntityModalModule</title>
<polygon fill="#8dd3c7" stroke="#000000" points="721.3244,-187 718.3244,-191 697.3244,-191 694.3244,-187 590.6756,-187 590.6756,-151 721.3244,-151 721.3244,-187"/>
<text text-anchor="middle" x="656" y="-164.8" font-family="Times,serif" font-size="14.00" fill="#000000">EntityModalModule</text>
</g>
<!-- EntityModalComponent&#45;&gt;EntityModalModule -->
<g id="edge1" class="edge">
<title>EntityModalComponent&#45;&gt;EntityModalModule</title>
<path fill="none" stroke="#000000" d="M1132,-122.2921C1132,-144.2057 1132,-178 1132,-178 1132,-178 731.1877,-178 731.1877,-178"/>
<polygon fill="#000000" stroke="#000000" points="731.1877,-174.5001 721.1877,-178 731.1877,-181.5001 731.1877,-174.5001"/>
</g>
<!-- EntityModalComponent  -->
<g id="node10" class="node">
<title>EntityModalComponent </title>
<polygon fill="#fb8072" stroke="#000000" points="813.6071,-252 658.3929,-252 658.3929,-216 813.6071,-216 813.6071,-252"/>
<text text-anchor="middle" x="736" y="-229.8" font-family="Times,serif" font-size="14.00" fill="#000000">EntityModalComponent </text>
</g>
<!-- EntityModalModule&#45;&gt;EntityModalComponent  -->
<g id="edge9" class="edge">
<title>EntityModalModule&#45;&gt;EntityModalComponent </title>
<path fill="none" stroke="#000000" stroke-dasharray="5,2" d="M689.6794,-187.1061C689.6794,-187.1061 689.6794,-205.991 689.6794,-205.991"/>
<polygon fill="#000000" stroke="#000000" points="686.1794,-205.9909 689.6794,-215.991 693.1794,-205.991 686.1794,-205.9909"/>
</g>
<!-- FormGroupModule  -->
<g id="node11" class="node">
<title>FormGroupModule </title>
<polygon fill="#fb8072" stroke="#000000" points="640.6509,-252 511.3491,-252 511.3491,-216 640.6509,-216 640.6509,-252"/>
<text text-anchor="middle" x="576" y="-229.8" font-family="Times,serif" font-size="14.00" fill="#000000">FormGroupModule </text>
</g>
<!-- EntityModalModule&#45;&gt;FormGroupModule  -->
<g id="edge10" class="edge">
<title>EntityModalModule&#45;&gt;FormGroupModule </title>
<path fill="none" stroke="#000000" stroke-dasharray="5,2" d="M615.7067,-187.1061C615.7067,-187.1061 615.7067,-205.991 615.7067,-205.991"/>
<polygon fill="#000000" stroke="#000000" points="612.2068,-205.9909 615.7067,-215.991 619.2068,-205.991 612.2068,-205.9909"/>
</g>
<!-- CommonModule -->
<g id="node3" class="node">
<title>CommonModule</title>
<polygon fill="#8dd3c7" stroke="#000000" points="1031.6681,-122 1028.6681,-126 1007.6681,-126 1004.6681,-122 920.3319,-122 920.3319,-86 1031.6681,-86 1031.6681,-122"/>
<text text-anchor="middle" x="976" y="-99.8" font-family="Times,serif" font-size="14.00" fill="#000000">CommonModule</text>
</g>
<!-- CommonModule&#45;&gt;EntityModalModule -->
<g id="edge2" class="edge">
<title>CommonModule&#45;&gt;EntityModalModule</title>
<path fill="none" stroke="#000000" d="M976,-122.1061C976,-141.3391 976,-169 976,-169 976,-169 731.529,-169 731.529,-169"/>
<polygon fill="#000000" stroke="#000000" points="731.529,-165.5001 721.529,-169 731.5289,-172.5001 731.529,-165.5001"/>
</g>
<!-- IonicModule -->
<g id="node4" class="node">
<title>IonicModule</title>
<polygon fill="#8dd3c7" stroke="#000000" points="902.3162,-122 899.3162,-126 878.3162,-126 875.3162,-122 813.6838,-122 813.6838,-86 902.3162,-86 902.3162,-122"/>
<text text-anchor="middle" x="858" y="-99.8" font-family="Times,serif" font-size="14.00" fill="#000000">IonicModule</text>
</g>
<!-- IonicModule&#45;&gt;EntityModalModule -->
<g id="edge3" class="edge">
<title>IonicModule&#45;&gt;EntityModalModule</title>
<path fill="none" stroke="#000000" d="M858,-122.027C858,-138.3976 858,-160 858,-160 858,-160 731.3047,-160 731.3047,-160"/>
<polygon fill="#000000" stroke="#000000" points="731.3047,-156.5001 721.3047,-160 731.3046,-163.5001 731.3047,-156.5001"/>
</g>
<!-- FormGroupModule -->
<g id="node5" class="node">
<title>FormGroupModule</title>
<polygon fill="#8dd3c7" stroke="#000000" points="795.6513,-122 792.6513,-126 771.6513,-126 768.6513,-122 670.3487,-122 670.3487,-86 795.6513,-86 795.6513,-122"/>
<text text-anchor="middle" x="733" y="-99.8" font-family="Times,serif" font-size="14.00" fill="#000000">FormGroupModule</text>
</g>
<!-- FormGroupModule&#45;&gt;EntityModalModule -->
<g id="edge4" class="edge">
<title>FormGroupModule&#45;&gt;EntityModalModule</title>
<path fill="none" stroke="#000000" d="M695.6683,-122.1061C695.6683,-122.1061 695.6683,-140.991 695.6683,-140.991"/>
<polygon fill="#000000" stroke="#000000" points="692.1684,-140.9909 695.6683,-150.991 699.1684,-140.991 692.1684,-140.9909"/>
</g>
<!-- ReactiveFormsModule -->
<g id="node6" class="node">
<title>ReactiveFormsModule</title>
<polygon fill="#8dd3c7" stroke="#000000" points="652.3047,-122 649.3047,-126 628.3047,-126 625.3047,-122 507.6953,-122 507.6953,-86 652.3047,-86 652.3047,-122"/>
<text text-anchor="middle" x="580" y="-99.8" font-family="Times,serif" font-size="14.00" fill="#000000">ReactiveFormsModule</text>
</g>
<!-- ReactiveFormsModule&#45;&gt;EntityModalModule -->
<g id="edge5" class="edge">
<title>ReactiveFormsModule&#45;&gt;EntityModalModule</title>
<path fill="none" stroke="#000000" d="M621.4951,-122.1061C621.4951,-122.1061 621.4951,-140.991 621.4951,-140.991"/>
<polygon fill="#000000" stroke="#000000" points="617.9952,-140.9909 621.4951,-150.991 624.9952,-140.991 617.9952,-140.9909"/>
</g>
<!-- TranslateModule.forChild() -->
<g id="node7" class="node">
<title>TranslateModule.forChild()</title>
<polygon fill="#8dd3c7" stroke="#000000" points="489.8928,-122 486.8928,-126 465.8928,-126 462.8928,-122 318.1072,-122 318.1072,-86 489.8928,-86 489.8928,-122"/>
<text text-anchor="middle" x="404" y="-99.8" font-family="Times,serif" font-size="14.00" fill="#000000">TranslateModule.forChild()</text>
</g>
<!-- TranslateModule.forChild()&#45;&gt;EntityModalModule -->
<g id="edge6" class="edge">
<title>TranslateModule.forChild()&#45;&gt;EntityModalModule</title>
<path fill="none" stroke="#000000" d="M404,-122.027C404,-138.3976 404,-160 404,-160 404,-160 580.776,-160 580.776,-160"/>
<polygon fill="#000000" stroke="#000000" points="580.776,-163.5001 590.776,-160 580.776,-156.5001 580.776,-163.5001"/>
</g>
<!-- PipesModule -->
<g id="node8" class="node">
<title>PipesModule</title>
<polygon fill="#8dd3c7" stroke="#000000" points="299.8823,-122 296.8823,-126 275.8823,-126 272.8823,-122 210.1177,-122 210.1177,-86 299.8823,-86 299.8823,-122"/>
<text text-anchor="middle" x="255" y="-99.8" font-family="Times,serif" font-size="14.00" fill="#000000">PipesModule</text>
</g>
<!-- PipesModule&#45;&gt;EntityModalModule -->
<g id="edge7" class="edge">
<title>PipesModule&#45;&gt;EntityModalModule</title>
<path fill="none" stroke="#000000" d="M255,-122.1061C255,-141.3391 255,-169 255,-169 255,-169 580.6799,-169 580.6799,-169"/>
<polygon fill="#000000" stroke="#000000" points="580.68,-172.5001 590.6799,-169 580.6799,-165.5001 580.68,-172.5001"/>
</g>
<!-- PromptFormModalModule -->
<g id="node9" class="node">
<title>PromptFormModalModule</title>
<polygon fill="#8dd3c7" stroke="#000000" points="191.6581,-122 188.6581,-126 167.6581,-126 164.6581,-122 24.3419,-122 24.3419,-86 191.6581,-86 191.6581,-122"/>
<text text-anchor="middle" x="108" y="-99.8" font-family="Times,serif" font-size="14.00" fill="#000000">PromptFormModalModule</text>
</g>
<!-- PromptFormModalModule&#45;&gt;EntityModalModule -->
<g id="edge8" class="edge">
<title>PromptFormModalModule&#45;&gt;EntityModalModule</title>
<path fill="none" stroke="#000000" d="M108,-122.2921C108,-144.2057 108,-178 108,-178 108,-178 580.7142,-178 580.7142,-178"/>
<polygon fill="#000000" stroke="#000000" points="580.7142,-181.5001 590.7142,-178 580.7142,-174.5001 580.7142,-181.5001"/>
</g>
</g>
</svg>
