<?xml version="1.0" encoding="UTF-8" standalone="no"?>
<!DOCTYPE svg PUBLIC "-//W3C//DTD SVG 1.1//EN"
 "http://www.w3.org/Graphics/SVG/1.1/DTD/svg11.dtd">
<!-- Generated by graphviz version 2.40.1 (20161225.0304)
 -->
<!-- Title: dependencies Pages: 1 -->
<svg width="1650pt" height="284pt"
 viewBox="0.00 0.00 1650.00 284.00" xmlns="http://www.w3.org/2000/svg" xmlns:xlink="http://www.w3.org/1999/xlink">
<g id="graph0" class="graph" transform="scale(1 1) rotate(0) translate(4 280)">
<title>dependencies</title>
<polygon fill="#ffffff" stroke="transparent" points="-4,4 -4,-280 1646,-280 1646,4 -4,4"/>
<text text-anchor="start" x="800.0091" y="-42.4" font-family="sans-serif" font-weight="bold" font-size="14.00" fill="#000000">Legend</text>
<polygon fill="#ffffb3" stroke="transparent" points="587,-10 587,-30 607,-30 607,-10 587,-10"/>
<text text-anchor="start" x="610.629" y="-15.4" font-family="sans-serif" font-size="14.00" fill="#000000"> &#160;Declarations</text>
<polygon fill="#8dd3c7" stroke="transparent" points="700,-10 700,-30 720,-30 720,-10 700,-10"/>
<text text-anchor="start" x="723.7251" y="-15.4" font-family="sans-serif" font-size="14.00" fill="#000000"> &#160;Module</text>
<polygon fill="#80b1d3" stroke="transparent" points="786,-10 786,-30 806,-30 806,-10 786,-10"/>
<text text-anchor="start" x="809.7812" y="-15.4" font-family="sans-serif" font-size="14.00" fill="#000000"> &#160;Bootstrap</text>
<polygon fill="#fdb462" stroke="transparent" points="883,-10 883,-30 903,-30 903,-10 883,-10"/>
<text text-anchor="start" x="906.6732" y="-15.4" font-family="sans-serif" font-size="14.00" fill="#000000"> &#160;Providers</text>
<polygon fill="#fb8072" stroke="transparent" points="979,-10 979,-30 999,-30 999,-10 979,-10"/>
<text text-anchor="start" x="1002.7258" y="-15.4" font-family="sans-serif" font-size="14.00" fill="#000000"> &#160;Exports</text>
<g id="clust1" class="cluster">
<title>cluster_UserModalModule</title>
<polygon fill="none" stroke="#000000" stroke-dasharray="1,5" points="8,-70 8,-268 1634,-268 1634,-70 8,-70"/>
</g>
<g id="clust2" class="cluster">
<title>cluster_UserModalModule_declarations</title>
<polygon fill="none" stroke="#000000" points="1466,-78 1466,-130 1626,-130 1626,-78 1466,-78"/>
</g>
<g id="clust4" class="cluster">
<title>cluster_UserModalModule_imports</title>
<polygon fill="none" stroke="#000000" points="16,-78 16,-130 1458,-130 1458,-78 16,-78"/>
</g>
<g id="clust5" class="cluster">
<title>cluster_UserModalModule_exports</title>
<polygon fill="none" stroke="#000000" points="671,-208 671,-260 982,-260 982,-208 671,-208"/>
</g>
<!-- UserModalComponent -->
<g id="node1" class="node">
<title>UserModalComponent</title>
<polygon fill="#ffffb3" stroke="#000000" points="1618.3089,-122 1473.6911,-122 1473.6911,-86 1618.3089,-86 1618.3089,-122"/>
<text text-anchor="middle" x="1546" y="-99.8" font-family="Times,serif" font-size="14.00" fill="#000000">UserModalComponent</text>
</g>
<!-- UserModalModule -->
<g id="node2" class="node">
<title>UserModalModule</title>
<polygon fill="#8dd3c7" stroke="#000000" points="883.0269,-187 880.0269,-191 859.0269,-191 856.0269,-187 760.9731,-187 760.9731,-151 883.0269,-151 883.0269,-187"/>
<text text-anchor="middle" x="822" y="-164.8" font-family="Times,serif" font-size="14.00" fill="#000000">UserModalModule</text>
</g>
<!-- UserModalComponent&#45;&gt;UserModalModule -->
<g id="edge1" class="edge">
<title>UserModalComponent&#45;&gt;UserModalModule</title>
<path fill="none" stroke="#000000" d="M1546,-122.2479C1546,-145.0179 1546,-181 1546,-181 1546,-181 893.1039,-181 893.1039,-181"/>
<polygon fill="#000000" stroke="#000000" points="893.1039,-177.5001 883.1039,-181 893.1038,-184.5001 893.1039,-177.5001"/>
</g>
<!-- UserModalComponent  -->
<g id="node13" class="node">
<title>UserModalComponent </title>
<polygon fill="#fb8072" stroke="#000000" points="973.8087,-252 826.1913,-252 826.1913,-216 973.8087,-216 973.8087,-252"/>
<text text-anchor="middle" x="900" y="-229.8" font-family="Times,serif" font-size="14.00" fill="#000000">UserModalComponent </text>
</g>
<!-- UserModalModule&#45;&gt;UserModalComponent  -->
<g id="edge12" class="edge">
<title>UserModalModule&#45;&gt;UserModalComponent </title>
<path fill="none" stroke="#000000" stroke-dasharray="5,2" d="M854.6794,-187.1061C854.6794,-187.1061 854.6794,-205.991 854.6794,-205.991"/>
<polygon fill="#000000" stroke="#000000" points="851.1794,-205.9909 854.6794,-215.991 858.1794,-205.991 851.1794,-205.9909"/>
</g>
<!-- FormGroupModule  -->
<g id="node14" class="node">
<title>FormGroupModule </title>
<polygon fill="#fb8072" stroke="#000000" points="808.6509,-252 679.3491,-252 679.3491,-216 808.6509,-216 808.6509,-252"/>
<text text-anchor="middle" x="744" y="-229.8" font-family="Times,serif" font-size="14.00" fill="#000000">FormGroupModule </text>
</g>
<!-- UserModalModule&#45;&gt;FormGroupModule  -->
<g id="edge13" class="edge">
<title>UserModalModule&#45;&gt;FormGroupModule </title>
<path fill="none" stroke="#000000" stroke-dasharray="5,2" d="M784.6562,-187.1061C784.6562,-187.1061 784.6562,-205.991 784.6562,-205.991"/>
<polygon fill="#000000" stroke="#000000" points="781.1563,-205.9909 784.6562,-215.991 788.1563,-205.991 781.1563,-205.9909"/>
</g>
<!-- CommonModule -->
<g id="node3" class="node">
<title>CommonModule</title>
<polygon fill="#8dd3c7" stroke="#000000" points="1449.6681,-122 1446.6681,-126 1425.6681,-126 1422.6681,-122 1338.3319,-122 1338.3319,-86 1449.6681,-86 1449.6681,-122"/>
<text text-anchor="middle" x="1394" y="-99.8" font-family="Times,serif" font-size="14.00" fill="#000000">CommonModule</text>
</g>
<!-- CommonModule&#45;&gt;UserModalModule -->
<g id="edge2" class="edge">
<title>CommonModule&#45;&gt;UserModalModule</title>
<path fill="none" stroke="#000000" d="M1394,-122.2843C1394,-143.3211 1394,-175 1394,-175 1394,-175 893.214,-175 893.214,-175"/>
<polygon fill="#000000" stroke="#000000" points="893.2141,-171.5001 883.214,-175 893.214,-178.5001 893.2141,-171.5001"/>
</g>
<!-- IonicModule -->
<g id="node4" class="node">
<title>IonicModule</title>
<polygon fill="#8dd3c7" stroke="#000000" points="1320.3162,-122 1317.3162,-126 1296.3162,-126 1293.3162,-122 1231.6838,-122 1231.6838,-86 1320.3162,-86 1320.3162,-122"/>
<text text-anchor="middle" x="1276" y="-99.8" font-family="Times,serif" font-size="14.00" fill="#000000">IonicModule</text>
</g>
<!-- IonicModule&#45;&gt;UserModalModule -->
<g id="edge3" class="edge">
<title>IonicModule&#45;&gt;UserModalModule</title>
<path fill="none" stroke="#000000" d="M1276,-122.1061C1276,-141.3391 1276,-169 1276,-169 1276,-169 893.2285,-169 893.2285,-169"/>
<polygon fill="#000000" stroke="#000000" points="893.2285,-165.5001 883.2285,-169 893.2284,-172.5001 893.2285,-165.5001"/>
</g>
<!-- FormGroupModule -->
<g id="node5" class="node">
<title>FormGroupModule</title>
<polygon fill="#8dd3c7" stroke="#000000" points="1213.6513,-122 1210.6513,-126 1189.6513,-126 1186.6513,-122 1088.3487,-122 1088.3487,-86 1213.6513,-86 1213.6513,-122"/>
<text text-anchor="middle" x="1151" y="-99.8" font-family="Times,serif" font-size="14.00" fill="#000000">FormGroupModule</text>
</g>
<!-- FormGroupModule&#45;&gt;UserModalModule -->
<g id="edge4" class="edge">
<title>FormGroupModule&#45;&gt;UserModalModule</title>
<path fill="none" stroke="#000000" d="M1151,-122.0225C1151,-139.3734 1151,-163 1151,-163 1151,-163 893.1113,-163 893.1113,-163"/>
<polygon fill="#000000" stroke="#000000" points="893.1114,-159.5001 883.1113,-163 893.1113,-166.5001 893.1114,-159.5001"/>
</g>
<!-- ReactiveFormsModule -->
<g id="node6" class="node">
<title>ReactiveFormsModule</title>
<polygon fill="#8dd3c7" stroke="#000000" points="1070.3047,-122 1067.3047,-126 1046.3047,-126 1043.3047,-122 925.6953,-122 925.6953,-86 1070.3047,-86 1070.3047,-122"/>
<text text-anchor="middle" x="998" y="-99.8" font-family="Times,serif" font-size="14.00" fill="#000000">ReactiveFormsModule</text>
</g>
<!-- ReactiveFormsModule&#45;&gt;UserModalModule -->
<g id="edge5" class="edge">
<title>ReactiveFormsModule&#45;&gt;UserModalModule</title>
<path fill="none" stroke="#000000" d="M949.8761,-122.2396C949.8761,-137.5706 949.8761,-157 949.8761,-157 949.8761,-157 893.3162,-157 893.3162,-157"/>
<polygon fill="#000000" stroke="#000000" points="893.3163,-153.5001 883.3162,-157 893.3162,-160.5001 893.3163,-153.5001"/>
</g>
<!-- TranslateModule.forChild() -->
<g id="node7" class="node">
<title>TranslateModule.forChild()</title>
<polygon fill="#8dd3c7" stroke="#000000" points="907.8928,-122 904.8928,-126 883.8928,-126 880.8928,-122 736.1072,-122 736.1072,-86 907.8928,-86 907.8928,-122"/>
<text text-anchor="middle" x="822" y="-99.8" font-family="Times,serif" font-size="14.00" fill="#000000">TranslateModule.forChild()</text>
</g>
<!-- TranslateModule.forChild()&#45;&gt;UserModalModule -->
<g id="edge6" class="edge">
<title>TranslateModule.forChild()&#45;&gt;UserModalModule</title>
<path fill="none" stroke="#000000" d="M822,-122.1061C822,-122.1061 822,-140.991 822,-140.991"/>
<polygon fill="#000000" stroke="#000000" points="818.5001,-140.9909 822,-150.991 825.5001,-140.991 818.5001,-140.9909"/>
</g>
<!-- DirectivesModule -->
<g id="node8" class="node">
<title>DirectivesModule</title>
<polygon fill="#8dd3c7" stroke="#000000" points="718.5772,-122 715.5772,-126 694.5772,-126 691.5772,-122 601.4228,-122 601.4228,-86 718.5772,-86 718.5772,-122"/>
<text text-anchor="middle" x="660" y="-99.8" font-family="Times,serif" font-size="14.00" fill="#000000">DirectivesModule</text>
</g>
<!-- DirectivesModule&#45;&gt;UserModalModule -->
<g id="edge7" class="edge">
<title>DirectivesModule&#45;&gt;UserModalModule</title>
<path fill="none" stroke="#000000" d="M698.9816,-122.2396C698.9816,-137.5706 698.9816,-157 698.9816,-157 698.9816,-157 750.8512,-157 750.8512,-157"/>
<polygon fill="#000000" stroke="#000000" points="750.8512,-160.5001 760.8512,-157 750.8512,-153.5001 750.8512,-160.5001"/>
</g>
<!-- PipesModule -->
<g id="node9" class="node">
<title>PipesModule</title>
<polygon fill="#8dd3c7" stroke="#000000" points="583.8823,-122 580.8823,-126 559.8823,-126 556.8823,-122 494.1177,-122 494.1177,-86 583.8823,-86 583.8823,-122"/>
<text text-anchor="middle" x="539" y="-99.8" font-family="Times,serif" font-size="14.00" fill="#000000">PipesModule</text>
</g>
<!-- PipesModule&#45;&gt;UserModalModule -->
<g id="edge8" class="edge">
<title>PipesModule&#45;&gt;UserModalModule</title>
<path fill="none" stroke="#000000" d="M539,-122.0225C539,-139.3734 539,-163 539,-163 539,-163 750.9416,-163 750.9416,-163"/>
<polygon fill="#000000" stroke="#000000" points="750.9417,-166.5001 760.9416,-163 750.9416,-159.5001 750.9417,-166.5001"/>
</g>
<!-- PromptFormModalModule -->
<g id="node10" class="node">
<title>PromptFormModalModule</title>
<polygon fill="#8dd3c7" stroke="#000000" points="475.6581,-122 472.6581,-126 451.6581,-126 448.6581,-122 308.3419,-122 308.3419,-86 475.6581,-86 475.6581,-122"/>
<text text-anchor="middle" x="392" y="-99.8" font-family="Times,serif" font-size="14.00" fill="#000000">PromptFormModalModule</text>
</g>
<!-- PromptFormModalModule&#45;&gt;UserModalModule -->
<g id="edge9" class="edge">
<title>PromptFormModalModule&#45;&gt;UserModalModule</title>
<path fill="none" stroke="#000000" d="M392,-122.1061C392,-141.3391 392,-169 392,-169 392,-169 750.8481,-169 750.8481,-169"/>
<polygon fill="#000000" stroke="#000000" points="750.8482,-172.5001 760.8481,-169 750.8481,-165.5001 750.8482,-172.5001"/>
</g>
<!-- SelectInputModule -->
<g id="node11" class="node">
<title>SelectInputModule</title>
<polygon fill="#8dd3c7" stroke="#000000" points="290.809,-122 287.809,-126 266.809,-126 263.809,-122 167.191,-122 167.191,-86 290.809,-86 290.809,-122"/>
<text text-anchor="middle" x="229" y="-99.8" font-family="Times,serif" font-size="14.00" fill="#000000">SelectInputModule</text>
</g>
<!-- SelectInputModule&#45;&gt;UserModalModule -->
<g id="edge10" class="edge">
<title>SelectInputModule&#45;&gt;UserModalModule</title>
<path fill="none" stroke="#000000" d="M229,-122.2843C229,-143.3211 229,-175 229,-175 229,-175 750.7721,-175 750.7721,-175"/>
<polygon fill="#000000" stroke="#000000" points="750.7721,-178.5001 760.7721,-175 750.7721,-171.5001 750.7721,-178.5001"/>
</g>
<!-- NgxBindIOModule -->
<g id="node12" class="node">
<title>NgxBindIOModule</title>
<polygon fill="#8dd3c7" stroke="#000000" points="149.6513,-122 146.6513,-126 125.6513,-126 122.6513,-122 24.3487,-122 24.3487,-86 149.6513,-86 149.6513,-122"/>
<text text-anchor="middle" x="87" y="-99.8" font-family="Times,serif" font-size="14.00" fill="#000000">NgxBindIOModule</text>
</g>
<!-- NgxBindIOModule&#45;&gt;UserModalModule -->
<g id="edge11" class="edge">
<title>NgxBindIOModule&#45;&gt;UserModalModule</title>
<path fill="none" stroke="#000000" d="M87,-122.2479C87,-145.0179 87,-181 87,-181 87,-181 750.9129,-181 750.9129,-181"/>
<polygon fill="#000000" stroke="#000000" points="750.9129,-184.5001 760.9129,-181 750.9128,-177.5001 750.9129,-184.5001"/>
</g>
</g>
</svg>
