<?xml version="1.0" encoding="UTF-8" standalone="no"?>
<!DOCTYPE svg PUBLIC "-//W3C//DTD SVG 1.1//EN"
 "http://www.w3.org/Graphics/SVG/1.1/DTD/svg11.dtd">
<!-- Generated by graphviz version 2.40.1 (20161225.0304)
 -->
<!-- Title: dependencies Pages: 1 -->
<svg width="978pt" height="211pt"
 viewBox="0.00 0.00 978.00 211.00" xmlns="http://www.w3.org/2000/svg" xmlns:xlink="http://www.w3.org/1999/xlink">
<g id="graph0" class="graph" transform="scale(1 1) rotate(0) translate(4 207)">
<title>dependencies</title>
<polygon fill="#ffffff" stroke="transparent" points="-4,4 -4,-207 974,-207 974,4 -4,4"/>
<text text-anchor="start" x="464.0091" y="-42.4" font-family="sans-serif" font-weight="bold" font-size="14.00" fill="#000000">Legend</text>
<polygon fill="#ffffb3" stroke="transparent" points="251,-10 251,-30 271,-30 271,-10 251,-10"/>
<text text-anchor="start" x="274.629" y="-15.4" font-family="sans-serif" font-size="14.00" fill="#000000"> &#160;Declarations</text>
<polygon fill="#8dd3c7" stroke="transparent" points="364,-10 364,-30 384,-30 384,-10 364,-10"/>
<text text-anchor="start" x="387.7251" y="-15.4" font-family="sans-serif" font-size="14.00" fill="#000000"> &#160;Module</text>
<polygon fill="#80b1d3" stroke="transparent" points="450,-10 450,-30 470,-30 470,-10 450,-10"/>
<text text-anchor="start" x="473.7812" y="-15.4" font-family="sans-serif" font-size="14.00" fill="#000000"> &#160;Bootstrap</text>
<polygon fill="#fdb462" stroke="transparent" points="547,-10 547,-30 567,-30 567,-10 547,-10"/>
<text text-anchor="start" x="570.6732" y="-15.4" font-family="sans-serif" font-size="14.00" fill="#000000"> &#160;Providers</text>
<polygon fill="#fb8072" stroke="transparent" points="643,-10 643,-30 663,-30 663,-10 643,-10"/>
<text text-anchor="start" x="666.7258" y="-15.4" font-family="sans-serif" font-size="14.00" fill="#000000"> &#160;Exports</text>
<g id="clust1" class="cluster">
<title>cluster_GroupsPageModule</title>
<polygon fill="none" stroke="#000000" stroke-dasharray="1,5" points="8,-70 8,-195 962,-195 962,-70 8,-70"/>
</g>
<g id="clust2" class="cluster">
<title>cluster_GroupsPageModule_declarations</title>
<polygon fill="none" stroke="#000000" points="788,-78 788,-130 954,-130 954,-78 788,-78"/>
</g>
<g id="clust4" class="cluster">
<title>cluster_GroupsPageModule_imports</title>
<polygon fill="none" stroke="#000000" points="16,-78 16,-130 780,-130 780,-78 16,-78"/>
</g>
<!-- GroupsPageComponent -->
<g id="node1" class="node">
<title>GroupsPageComponent</title>
<polygon fill="#ffffb3" stroke="#000000" points="945.7562,-122 796.2438,-122 796.2438,-86 945.7562,-86 945.7562,-122"/>
<text text-anchor="middle" x="871" y="-99.8" font-family="Times,serif" font-size="14.00" fill="#000000">GroupsPageComponent</text>
</g>
<!-- GroupsPageModule -->
<g id="node2" class="node">
<title>GroupsPageModule</title>
<polygon fill="#8dd3c7" stroke="#000000" points="599.9734,-187 596.9734,-191 575.9734,-191 572.9734,-187 472.0266,-187 472.0266,-151 599.9734,-151 599.9734,-187"/>
<text text-anchor="middle" x="536" y="-164.8" font-family="Times,serif" font-size="14.00" fill="#000000">GroupsPageModule</text>
</g>
<!-- GroupsPageComponent&#45;&gt;GroupsPageModule -->
<g id="edge1" class="edge">
<title>GroupsPageComponent&#45;&gt;GroupsPageModule</title>
<path fill="none" stroke="#000000" d="M871,-122.2843C871,-143.3211 871,-175 871,-175 871,-175 610.195,-175 610.195,-175"/>
<polygon fill="#000000" stroke="#000000" points="610.195,-171.5001 600.195,-175 610.195,-178.5001 610.195,-171.5001"/>
</g>
<!-- CommonModule -->
<g id="node3" class="node">
<title>CommonModule</title>
<polygon fill="#8dd3c7" stroke="#000000" points="771.6681,-122 768.6681,-126 747.6681,-126 744.6681,-122 660.3319,-122 660.3319,-86 771.6681,-86 771.6681,-122"/>
<text text-anchor="middle" x="716" y="-99.8" font-family="Times,serif" font-size="14.00" fill="#000000">CommonModule</text>
</g>
<!-- CommonModule&#45;&gt;GroupsPageModule -->
<g id="edge2" class="edge">
<title>CommonModule&#45;&gt;GroupsPageModule</title>
<path fill="none" stroke="#000000" d="M716,-122.0225C716,-139.3734 716,-163 716,-163 716,-163 610.2218,-163 610.2218,-163"/>
<polygon fill="#000000" stroke="#000000" points="610.2218,-159.5001 600.2218,-163 610.2218,-166.5001 610.2218,-159.5001"/>
</g>
<!-- IonicModule -->
<g id="node4" class="node">
<title>IonicModule</title>
<polygon fill="#8dd3c7" stroke="#000000" points="642.3162,-122 639.3162,-126 618.3162,-126 615.3162,-122 553.6838,-122 553.6838,-86 642.3162,-86 642.3162,-122"/>
<text text-anchor="middle" x="598" y="-99.8" font-family="Times,serif" font-size="14.00" fill="#000000">IonicModule</text>
</g>
<!-- IonicModule&#45;&gt;GroupsPageModule -->
<g id="edge3" class="edge">
<title>IonicModule&#45;&gt;GroupsPageModule</title>
<path fill="none" stroke="#000000" d="M576.9145,-122.1061C576.9145,-122.1061 576.9145,-140.991 576.9145,-140.991"/>
<polygon fill="#000000" stroke="#000000" points="573.4145,-140.9909 576.9145,-150.991 580.4145,-140.991 573.4145,-140.9909"/>
</g>
<!-- GroupsListModule -->
<g id="node5" class="node">
<title>GroupsListModule</title>
<polygon fill="#8dd3c7" stroke="#000000" points="536.0409,-122 533.0409,-126 512.0409,-126 509.0409,-122 413.9591,-122 413.9591,-86 536.0409,-86 536.0409,-122"/>
<text text-anchor="middle" x="475" y="-99.8" font-family="Times,serif" font-size="14.00" fill="#000000">GroupsListModule</text>
</g>
<!-- GroupsListModule&#45;&gt;GroupsPageModule -->
<g id="edge4" class="edge">
<title>GroupsListModule&#45;&gt;GroupsPageModule</title>
<path fill="none" stroke="#000000" d="M504.1417,-122.1061C504.1417,-122.1061 504.1417,-140.991 504.1417,-140.991"/>
<polygon fill="#000000" stroke="#000000" points="500.6417,-140.9909 504.1417,-150.991 507.6417,-140.991 500.6417,-140.9909"/>
</g>
<!-- TranslateModule.forChild() -->
<g id="node6" class="node">
<title>TranslateModule.forChild()</title>
<polygon fill="#8dd3c7" stroke="#000000" points="395.8928,-122 392.8928,-126 371.8928,-126 368.8928,-122 224.1072,-122 224.1072,-86 395.8928,-86 395.8928,-122"/>
<text text-anchor="middle" x="310" y="-99.8" font-family="Times,serif" font-size="14.00" fill="#000000">TranslateModule.forChild()</text>
</g>
<!-- TranslateModule.forChild()&#45;&gt;GroupsPageModule -->
<g id="edge5" class="edge">
<title>TranslateModule.forChild()&#45;&gt;GroupsPageModule</title>
<path fill="none" stroke="#000000" d="M310,-122.0225C310,-139.3734 310,-163 310,-163 310,-163 461.842,-163 461.842,-163"/>
<polygon fill="#000000" stroke="#000000" points="461.842,-166.5001 471.842,-163 461.842,-159.5001 461.842,-166.5001"/>
</g>
<!-- RouterModule.forChild(args) -->
<g id="node7" class="node">
<title>RouterModule.forChild(args)</title>
<polygon fill="#8dd3c7" stroke="#000000" points="205.7323,-122 202.7323,-126 181.7323,-126 178.7323,-122 24.2677,-122 24.2677,-86 205.7323,-86 205.7323,-122"/>
<text text-anchor="middle" x="115" y="-99.8" font-family="Times,serif" font-size="14.00" fill="#000000">RouterModule.forChild(args)</text>
</g>
<!-- RouterModule.forChild(args)&#45;&gt;GroupsPageModule -->
<g id="edge6" class="edge">
<title>RouterModule.forChild(args)&#45;&gt;GroupsPageModule</title>
<path fill="none" stroke="#000000" d="M115,-122.2843C115,-143.3211 115,-175 115,-175 115,-175 461.6009,-175 461.6009,-175"/>
<polygon fill="#000000" stroke="#000000" points="461.6009,-178.5001 471.6009,-175 461.6008,-171.5001 461.6009,-178.5001"/>
</g>
</g>
</svg>
