<?xml version="1.0" encoding="UTF-8" standalone="no"?>
<!DOCTYPE svg PUBLIC "-//W3C//DTD SVG 1.1//EN"
 "http://www.w3.org/Graphics/SVG/1.1/DTD/svg11.dtd">
<!-- Generated by graphviz version 2.40.1 (20161225.0304)
 -->
<!-- Title: dependencies Pages: 1 -->
<svg width="798pt" height="211pt"
 viewBox="0.00 0.00 798.00 211.00" xmlns="http://www.w3.org/2000/svg" xmlns:xlink="http://www.w3.org/1999/xlink">
<g id="graph0" class="graph" transform="scale(1 1) rotate(0) translate(4 207)">
<title>dependencies</title>
<polygon fill="#ffffff" stroke="transparent" points="-4,4 -4,-207 794,-207 794,4 -4,4"/>
<text text-anchor="start" x="374.0091" y="-42.4" font-family="sans-serif" font-weight="bold" font-size="14.00" fill="#000000">Legend</text>
<polygon fill="#ffffb3" stroke="transparent" points="161,-10 161,-30 181,-30 181,-10 161,-10"/>
<text text-anchor="start" x="184.629" y="-15.4" font-family="sans-serif" font-size="14.00" fill="#000000"> &#160;Declarations</text>
<polygon fill="#8dd3c7" stroke="transparent" points="274,-10 274,-30 294,-30 294,-10 274,-10"/>
<text text-anchor="start" x="297.7251" y="-15.4" font-family="sans-serif" font-size="14.00" fill="#000000"> &#160;Module</text>
<polygon fill="#80b1d3" stroke="transparent" points="360,-10 360,-30 380,-30 380,-10 360,-10"/>
<text text-anchor="start" x="383.7812" y="-15.4" font-family="sans-serif" font-size="14.00" fill="#000000"> &#160;Bootstrap</text>
<polygon fill="#fdb462" stroke="transparent" points="457,-10 457,-30 477,-30 477,-10 457,-10"/>
<text text-anchor="start" x="480.6732" y="-15.4" font-family="sans-serif" font-size="14.00" fill="#000000"> &#160;Providers</text>
<polygon fill="#fb8072" stroke="transparent" points="553,-10 553,-30 573,-30 573,-10 553,-10"/>
<text text-anchor="start" x="576.7258" y="-15.4" font-family="sans-serif" font-size="14.00" fill="#000000"> &#160;Exports</text>
<g id="clust1" class="cluster">
<title>cluster_GroupsPageModule</title>
<polygon fill="none" stroke="#000000" stroke-dasharray="1,5" points="8,-70 8,-195 782,-195 782,-70 8,-70"/>
</g>
<g id="clust2" class="cluster">
<title>cluster_GroupsPageModule_declarations</title>
<polygon fill="none" stroke="#000000" points="608,-78 608,-130 774,-130 774,-78 608,-78"/>
</g>
<g id="clust4" class="cluster">
<title>cluster_GroupsPageModule_imports</title>
<polygon fill="none" stroke="#000000" points="16,-78 16,-130 600,-130 600,-78 16,-78"/>
</g>
<!-- GroupsPageComponent -->
<g id="node1" class="node">
<title>GroupsPageComponent</title>
<polygon fill="#ffffb3" stroke="#000000" points="765.7562,-122 616.2438,-122 616.2438,-86 765.7562,-86 765.7562,-122"/>
<text text-anchor="middle" x="691" y="-99.8" font-family="Times,serif" font-size="14.00" fill="#000000">GroupsPageComponent</text>
</g>
<!-- GroupsPageModule -->
<g id="node2" class="node">
<title>GroupsPageModule</title>
<polygon fill="#8dd3c7" stroke="#000000" points="476.9734,-187 473.9734,-191 452.9734,-191 449.9734,-187 349.0266,-187 349.0266,-151 476.9734,-151 476.9734,-187"/>
<text text-anchor="middle" x="413" y="-164.8" font-family="Times,serif" font-size="14.00" fill="#000000">GroupsPageModule</text>
</g>
<!-- GroupsPageComponent&#45;&gt;GroupsPageModule -->
<g id="edge1" class="edge">
<title>GroupsPageComponent&#45;&gt;GroupsPageModule</title>
<path fill="none" stroke="#000000" d="M691,-122.1061C691,-141.3391 691,-169 691,-169 691,-169 487.1279,-169 487.1279,-169"/>
<polygon fill="#000000" stroke="#000000" points="487.1279,-165.5001 477.1279,-169 487.1278,-172.5001 487.1279,-165.5001"/>
</g>
<!-- CommonModule -->
<g id="node3" class="node">
<title>CommonModule</title>
<polygon fill="#8dd3c7" stroke="#000000" points="591.6681,-122 588.6681,-126 567.6681,-126 564.6681,-122 480.3319,-122 480.3319,-86 591.6681,-86 591.6681,-122"/>
<text text-anchor="middle" x="536" y="-99.8" font-family="Times,serif" font-size="14.00" fill="#000000">CommonModule</text>
</g>
<!-- CommonModule&#45;&gt;GroupsPageModule -->
<g id="edge2" class="edge">
<title>CommonModule&#45;&gt;GroupsPageModule</title>
<path fill="none" stroke="#000000" d="M480.2674,-104C473.8797,-104 469.5989,-104 469.5989,-104 469.5989,-104 469.5989,-140.8939 469.5989,-140.8939"/>
<polygon fill="#000000" stroke="#000000" points="466.099,-140.8938 469.5989,-150.8939 473.099,-140.8939 466.099,-140.8938"/>
</g>
<!-- SharedModule -->
<g id="node4" class="node">
<title>SharedModule</title>
<polygon fill="#8dd3c7" stroke="#000000" points="462.4231,-122 459.4231,-126 438.4231,-126 435.4231,-122 363.5769,-122 363.5769,-86 462.4231,-86 462.4231,-122"/>
<text text-anchor="middle" x="413" y="-99.8" font-family="Times,serif" font-size="14.00" fill="#000000">SharedModule</text>
</g>
<!-- SharedModule&#45;&gt;GroupsPageModule -->
<g id="edge3" class="edge">
<title>SharedModule&#45;&gt;GroupsPageModule</title>
<path fill="none" stroke="#000000" d="M413,-122.1061C413,-122.1061 413,-140.991 413,-140.991"/>
<polygon fill="#000000" stroke="#000000" points="409.5001,-140.9909 413,-150.991 416.5001,-140.991 409.5001,-140.9909"/>
</g>
<!-- GroupsListModule -->
<g id="node5" class="node">
<title>GroupsListModule</title>
<polygon fill="#8dd3c7" stroke="#000000" points="346.0409,-122 343.0409,-126 322.0409,-126 319.0409,-122 223.9591,-122 223.9591,-86 346.0409,-86 346.0409,-122"/>
<text text-anchor="middle" x="285" y="-99.8" font-family="Times,serif" font-size="14.00" fill="#000000">GroupsListModule</text>
</g>
<!-- GroupsListModule&#45;&gt;GroupsPageModule -->
<g id="edge4" class="edge">
<title>GroupsListModule&#45;&gt;GroupsPageModule</title>
<path fill="none" stroke="#000000" d="M346.1711,-104C352.3471,-104 356.4011,-104 356.4011,-104 356.4011,-104 356.4011,-140.8939 356.4011,-140.8939"/>
<polygon fill="#000000" stroke="#000000" points="352.9012,-140.8938 356.4011,-150.8939 359.9012,-140.8939 352.9012,-140.8938"/>
</g>
<!-- RouterModule.forChild(args) -->
<g id="node6" class="node">
<title>RouterModule.forChild(args)</title>
<polygon fill="#8dd3c7" stroke="#000000" points="205.7323,-122 202.7323,-126 181.7323,-126 178.7323,-122 24.2677,-122 24.2677,-86 205.7323,-86 205.7323,-122"/>
<text text-anchor="middle" x="115" y="-99.8" font-family="Times,serif" font-size="14.00" fill="#000000">RouterModule.forChild(args)</text>
</g>
<!-- RouterModule.forChild(args)&#45;&gt;GroupsPageModule -->
<g id="edge5" class="edge">
<title>RouterModule.forChild(args)&#45;&gt;GroupsPageModule</title>
<path fill="none" stroke="#000000" d="M115,-122.1061C115,-141.3391 115,-169 115,-169 115,-169 338.7053,-169 338.7053,-169"/>
<polygon fill="#000000" stroke="#000000" points="338.7054,-172.5001 348.7053,-169 338.7053,-165.5001 338.7054,-172.5001"/>
</g>
</g>
</svg>
