<?xml version="1.0" encoding="UTF-8" standalone="no"?>
<!DOCTYPE svg PUBLIC "-//W3C//DTD SVG 1.1//EN"
 "http://www.w3.org/Graphics/SVG/1.1/DTD/svg11.dtd">
<!-- Generated by graphviz version 2.40.1 (20161225.0304)
 -->
<!-- Title: dependencies Pages: 1 -->
<svg width="1328pt" height="284pt"
 viewBox="0.00 0.00 1328.00 284.00" xmlns="http://www.w3.org/2000/svg" xmlns:xlink="http://www.w3.org/1999/xlink">
<g id="graph0" class="graph" transform="scale(1 1) rotate(0) translate(4 280)">
<title>dependencies</title>
<polygon fill="#ffffff" stroke="transparent" points="-4,4 -4,-280 1324,-280 1324,4 -4,4"/>
<text text-anchor="start" x="639.0091" y="-42.4" font-family="sans-serif" font-weight="bold" font-size="14.00" fill="#000000">Legend</text>
<polygon fill="#ffffb3" stroke="transparent" points="426,-10 426,-30 446,-30 446,-10 426,-10"/>
<text text-anchor="start" x="449.629" y="-15.4" font-family="sans-serif" font-size="14.00" fill="#000000"> &#160;Declarations</text>
<polygon fill="#8dd3c7" stroke="transparent" points="539,-10 539,-30 559,-30 559,-10 539,-10"/>
<text text-anchor="start" x="562.7251" y="-15.4" font-family="sans-serif" font-size="14.00" fill="#000000"> &#160;Module</text>
<polygon fill="#80b1d3" stroke="transparent" points="625,-10 625,-30 645,-30 645,-10 625,-10"/>
<text text-anchor="start" x="648.7812" y="-15.4" font-family="sans-serif" font-size="14.00" fill="#000000"> &#160;Bootstrap</text>
<polygon fill="#fdb462" stroke="transparent" points="722,-10 722,-30 742,-30 742,-10 722,-10"/>
<text text-anchor="start" x="745.6732" y="-15.4" font-family="sans-serif" font-size="14.00" fill="#000000"> &#160;Providers</text>
<polygon fill="#fb8072" stroke="transparent" points="818,-10 818,-30 838,-30 838,-10 818,-10"/>
<text text-anchor="start" x="841.7258" y="-15.4" font-family="sans-serif" font-size="14.00" fill="#000000"> &#160;Exports</text>
<g id="clust1" class="cluster">
<title>cluster_ProfilePanelModule</title>
<polygon fill="none" stroke="#000000" stroke-dasharray="1,5" points="8,-70 8,-268 1312,-268 1312,-70 8,-70"/>
</g>
<g id="clust2" class="cluster">
<title>cluster_ProfilePanelModule_declarations</title>
<polygon fill="none" stroke="#000000" points="1138,-78 1138,-130 1304,-130 1304,-78 1138,-78"/>
</g>
<g id="clust4" class="cluster">
<title>cluster_ProfilePanelModule_imports</title>
<polygon fill="none" stroke="#000000" points="16,-78 16,-130 1130,-130 1130,-78 16,-78"/>
</g>
<g id="clust5" class="cluster">
<title>cluster_ProfilePanelModule_exports</title>
<polygon fill="none" stroke="#000000" points="585,-208 585,-260 755,-260 755,-208 585,-208"/>
</g>
<!-- ProfilePanelComponent -->
<g id="node1" class="node">
<title>ProfilePanelComponent</title>
<polygon fill="#ffffb3" stroke="#000000" points="1296.0351,-122 1145.9649,-122 1145.9649,-86 1296.0351,-86 1296.0351,-122"/>
<text text-anchor="middle" x="1221" y="-99.8" font-family="Times,serif" font-size="14.00" fill="#000000">ProfilePanelComponent</text>
</g>
<!-- ProfilePanelModule -->
<g id="node2" class="node">
<title>ProfilePanelModule</title>
<polygon fill="#8dd3c7" stroke="#000000" points="734.252,-187 731.252,-191 710.252,-191 707.252,-187 605.748,-187 605.748,-151 734.252,-151 734.252,-187"/>
<text text-anchor="middle" x="670" y="-164.8" font-family="Times,serif" font-size="14.00" fill="#000000">ProfilePanelModule</text>
</g>
<!-- ProfilePanelComponent&#45;&gt;ProfilePanelModule -->
<g id="edge1" class="edge">
<title>ProfilePanelComponent&#45;&gt;ProfilePanelModule</title>
<path fill="none" stroke="#000000" d="M1221,-122.0109C1221,-144.4852 1221,-180 1221,-180 1221,-180 744.2851,-180 744.2851,-180"/>
<polygon fill="#000000" stroke="#000000" points="744.2851,-176.5001 734.2851,-180 744.285,-183.5001 744.2851,-176.5001"/>
</g>
<!-- ProfilePanelComponent  -->
<g id="node11" class="node">
<title>ProfilePanelComponent </title>
<polygon fill="#fb8072" stroke="#000000" points="747.0344,-252 592.9656,-252 592.9656,-216 747.0344,-216 747.0344,-252"/>
<text text-anchor="middle" x="670" y="-229.8" font-family="Times,serif" font-size="14.00" fill="#000000">ProfilePanelComponent </text>
</g>
<!-- ProfilePanelModule&#45;&gt;ProfilePanelComponent  -->
<g id="edge10" class="edge">
<title>ProfilePanelModule&#45;&gt;ProfilePanelComponent </title>
<path fill="none" stroke="#000000" stroke-dasharray="5,2" d="M670,-187.1061C670,-187.1061 670,-205.991 670,-205.991"/>
<polygon fill="#000000" stroke="#000000" points="666.5001,-205.9909 670,-215.991 673.5001,-205.991 666.5001,-205.9909"/>
</g>
<!-- CommonModule -->
<g id="node3" class="node">
<title>CommonModule</title>
<polygon fill="#8dd3c7" stroke="#000000" points="1121.6681,-122 1118.6681,-126 1097.6681,-126 1094.6681,-122 1010.3319,-122 1010.3319,-86 1121.6681,-86 1121.6681,-122"/>
<text text-anchor="middle" x="1066" y="-99.8" font-family="Times,serif" font-size="14.00" fill="#000000">CommonModule</text>
</g>
<!-- CommonModule&#45;&gt;ProfilePanelModule -->
<g id="edge2" class="edge">
<title>CommonModule&#45;&gt;ProfilePanelModule</title>
<path fill="none" stroke="#000000" d="M1066,-122.1289C1066,-142.5724 1066,-173 1066,-173 1066,-173 744.5056,-173 744.5056,-173"/>
<polygon fill="#000000" stroke="#000000" points="744.5056,-169.5001 734.5056,-173 744.5056,-176.5001 744.5056,-169.5001"/>
</g>
<!-- IonicModule -->
<g id="node4" class="node">
<title>IonicModule</title>
<polygon fill="#8dd3c7" stroke="#000000" points="992.3162,-122 989.3162,-126 968.3162,-126 965.3162,-122 903.6838,-122 903.6838,-86 992.3162,-86 992.3162,-122"/>
<text text-anchor="middle" x="948" y="-99.8" font-family="Times,serif" font-size="14.00" fill="#000000">IonicModule</text>
</g>
<!-- IonicModule&#45;&gt;ProfilePanelModule -->
<g id="edge3" class="edge">
<title>IonicModule&#45;&gt;ProfilePanelModule</title>
<path fill="none" stroke="#000000" d="M948,-122.2667C948,-140.5552 948,-166 948,-166 948,-166 744.4775,-166 744.4775,-166"/>
<polygon fill="#000000" stroke="#000000" points="744.4776,-162.5001 734.4775,-166 744.4775,-169.5001 744.4776,-162.5001"/>
</g>
<!-- FormGroupModule -->
<g id="node5" class="node">
<title>FormGroupModule</title>
<polygon fill="#8dd3c7" stroke="#000000" points="885.6513,-122 882.6513,-126 861.6513,-126 858.6513,-122 760.3487,-122 760.3487,-86 885.6513,-86 885.6513,-122"/>
<text text-anchor="middle" x="823" y="-99.8" font-family="Times,serif" font-size="14.00" fill="#000000">FormGroupModule</text>
</g>
<!-- FormGroupModule&#45;&gt;ProfilePanelModule -->
<g id="edge4" class="edge">
<title>FormGroupModule&#45;&gt;ProfilePanelModule</title>
<path fill="none" stroke="#000000" d="M823,-122.0091C823,-138.0494 823,-159 823,-159 823,-159 744.4423,-159 744.4423,-159"/>
<polygon fill="#000000" stroke="#000000" points="744.4424,-155.5001 734.4423,-159 744.4423,-162.5001 744.4424,-155.5001"/>
</g>
<!-- ReactiveFormsModule -->
<g id="node6" class="node">
<title>ReactiveFormsModule</title>
<polygon fill="#8dd3c7" stroke="#000000" points="742.3047,-122 739.3047,-126 718.3047,-126 715.3047,-122 597.6953,-122 597.6953,-86 742.3047,-86 742.3047,-122"/>
<text text-anchor="middle" x="670" y="-99.8" font-family="Times,serif" font-size="14.00" fill="#000000">ReactiveFormsModule</text>
</g>
<!-- ReactiveFormsModule&#45;&gt;ProfilePanelModule -->
<g id="edge5" class="edge">
<title>ReactiveFormsModule&#45;&gt;ProfilePanelModule</title>
<path fill="none" stroke="#000000" d="M670,-122.1061C670,-122.1061 670,-140.991 670,-140.991"/>
<polygon fill="#000000" stroke="#000000" points="666.5001,-140.9909 670,-150.991 673.5001,-140.991 666.5001,-140.9909"/>
</g>
<!-- TranslateModule.forChild() -->
<g id="node7" class="node">
<title>TranslateModule.forChild()</title>
<polygon fill="#8dd3c7" stroke="#000000" points="579.8928,-122 576.8928,-126 555.8928,-126 552.8928,-122 408.1072,-122 408.1072,-86 579.8928,-86 579.8928,-122"/>
<text text-anchor="middle" x="494" y="-99.8" font-family="Times,serif" font-size="14.00" fill="#000000">TranslateModule.forChild()</text>
</g>
<!-- TranslateModule.forChild()&#45;&gt;ProfilePanelModule -->
<g id="edge6" class="edge">
<title>TranslateModule.forChild()&#45;&gt;ProfilePanelModule</title>
<path fill="none" stroke="#000000" d="M494,-122.0091C494,-138.0494 494,-159 494,-159 494,-159 595.4635,-159 595.4635,-159"/>
<polygon fill="#000000" stroke="#000000" points="595.4635,-162.5001 605.4635,-159 595.4634,-155.5001 595.4635,-162.5001"/>
</g>
<!-- DirectivesModule -->
<g id="node8" class="node">
<title>DirectivesModule</title>
<polygon fill="#8dd3c7" stroke="#000000" points="390.5772,-122 387.5772,-126 366.5772,-126 363.5772,-122 273.4228,-122 273.4228,-86 390.5772,-86 390.5772,-122"/>
<text text-anchor="middle" x="332" y="-99.8" font-family="Times,serif" font-size="14.00" fill="#000000">DirectivesModule</text>
</g>
<!-- DirectivesModule&#45;&gt;ProfilePanelModule -->
<g id="edge7" class="edge">
<title>DirectivesModule&#45;&gt;ProfilePanelModule</title>
<path fill="none" stroke="#000000" d="M332,-122.2667C332,-140.5552 332,-166 332,-166 332,-166 595.6292,-166 595.6292,-166"/>
<polygon fill="#000000" stroke="#000000" points="595.6292,-169.5001 605.6292,-166 595.6292,-162.5001 595.6292,-169.5001"/>
</g>
<!-- PipesModule -->
<g id="node9" class="node">
<title>PipesModule</title>
<polygon fill="#8dd3c7" stroke="#000000" points="255.8823,-122 252.8823,-126 231.8823,-126 228.8823,-122 166.1177,-122 166.1177,-86 255.8823,-86 255.8823,-122"/>
<text text-anchor="middle" x="211" y="-99.8" font-family="Times,serif" font-size="14.00" fill="#000000">PipesModule</text>
</g>
<!-- PipesModule&#45;&gt;ProfilePanelModule -->
<g id="edge8" class="edge">
<title>PipesModule&#45;&gt;ProfilePanelModule</title>
<path fill="none" stroke="#000000" d="M211,-122.1289C211,-142.5724 211,-173 211,-173 211,-173 595.6947,-173 595.6947,-173"/>
<polygon fill="#000000" stroke="#000000" points="595.6948,-176.5001 605.6947,-173 595.6947,-169.5001 595.6948,-176.5001"/>
</g>
<!-- SelectInputModule -->
<g id="node10" class="node">
<title>SelectInputModule</title>
<polygon fill="#8dd3c7" stroke="#000000" points="147.809,-122 144.809,-126 123.809,-126 120.809,-122 24.191,-122 24.191,-86 147.809,-86 147.809,-122"/>
<text text-anchor="middle" x="86" y="-99.8" font-family="Times,serif" font-size="14.00" fill="#000000">SelectInputModule</text>
</g>
<!-- SelectInputModule&#45;&gt;ProfilePanelModule -->
<g id="edge9" class="edge">
<title>SelectInputModule&#45;&gt;ProfilePanelModule</title>
<path fill="none" stroke="#000000" d="M86,-122.0109C86,-144.4852 86,-180 86,-180 86,-180 595.5511,-180 595.5511,-180"/>
<polygon fill="#000000" stroke="#000000" points="595.5511,-183.5001 605.5511,-180 595.551,-176.5001 595.5511,-183.5001"/>
</g>
</g>
</svg>
