<?xml version="1.0" encoding="UTF-8" standalone="no"?>
<!DOCTYPE svg PUBLIC "-//W3C//DTD SVG 1.1//EN"
 "http://www.w3.org/Graphics/SVG/1.1/DTD/svg11.dtd">
<!-- Generated by graphviz version 2.40.1 (20161225.0304)
 -->
<!-- Title: dependencies Pages: 1 -->
<svg width="1471pt" height="284pt"
 viewBox="0.00 0.00 1471.00 284.00" xmlns="http://www.w3.org/2000/svg" xmlns:xlink="http://www.w3.org/1999/xlink">
<g id="graph0" class="graph" transform="scale(1 1) rotate(0) translate(4 280)">
<title>dependencies</title>
<polygon fill="#ffffff" stroke="transparent" points="-4,4 -4,-280 1467,-280 1467,4 -4,4"/>
<text text-anchor="start" x="710.5091" y="-42.4" font-family="sans-serif" font-weight="bold" font-size="14.00" fill="#000000">Legend</text>
<polygon fill="#ffffb3" stroke="transparent" points="497.5,-10 497.5,-30 517.5,-30 517.5,-10 497.5,-10"/>
<text text-anchor="start" x="521.129" y="-15.4" font-family="sans-serif" font-size="14.00" fill="#000000"> &#160;Declarations</text>
<polygon fill="#8dd3c7" stroke="transparent" points="610.5,-10 610.5,-30 630.5,-30 630.5,-10 610.5,-10"/>
<text text-anchor="start" x="634.2251" y="-15.4" font-family="sans-serif" font-size="14.00" fill="#000000"> &#160;Module</text>
<polygon fill="#80b1d3" stroke="transparent" points="696.5,-10 696.5,-30 716.5,-30 716.5,-10 696.5,-10"/>
<text text-anchor="start" x="720.2812" y="-15.4" font-family="sans-serif" font-size="14.00" fill="#000000"> &#160;Bootstrap</text>
<polygon fill="#fdb462" stroke="transparent" points="793.5,-10 793.5,-30 813.5,-30 813.5,-10 793.5,-10"/>
<text text-anchor="start" x="817.1732" y="-15.4" font-family="sans-serif" font-size="14.00" fill="#000000"> &#160;Providers</text>
<polygon fill="#fb8072" stroke="transparent" points="889.5,-10 889.5,-30 909.5,-30 909.5,-10 889.5,-10"/>
<text text-anchor="start" x="913.2258" y="-15.4" font-family="sans-serif" font-size="14.00" fill="#000000"> &#160;Exports</text>
<g id="clust1" class="cluster">
<title>cluster_ProfilePanelModule</title>
<polygon fill="none" stroke="#000000" stroke-dasharray="1,5" points="8,-70 8,-268 1455,-268 1455,-70 8,-70"/>
</g>
<g id="clust2" class="cluster">
<title>cluster_ProfilePanelModule_declarations</title>
<polygon fill="none" stroke="#000000" points="1281,-78 1281,-130 1447,-130 1447,-78 1281,-78"/>
</g>
<g id="clust4" class="cluster">
<title>cluster_ProfilePanelModule_imports</title>
<polygon fill="none" stroke="#000000" points="16,-78 16,-130 1273,-130 1273,-78 16,-78"/>
</g>
<g id="clust5" class="cluster">
<title>cluster_ProfilePanelModule_exports</title>
<polygon fill="none" stroke="#000000" points="640,-208 640,-260 810,-260 810,-208 640,-208"/>
</g>
<!-- ProfilePanelComponent -->
<g id="node1" class="node">
<title>ProfilePanelComponent</title>
<polygon fill="#ffffb3" stroke="#000000" points="1439.0351,-122 1288.9649,-122 1288.9649,-86 1439.0351,-86 1439.0351,-122"/>
<text text-anchor="middle" x="1364" y="-99.8" font-family="Times,serif" font-size="14.00" fill="#000000">ProfilePanelComponent</text>
</g>
<!-- ProfilePanelModule -->
<g id="node2" class="node">
<title>ProfilePanelModule</title>
<polygon fill="#8dd3c7" stroke="#000000" points="789.252,-187 786.252,-191 765.252,-191 762.252,-187 660.748,-187 660.748,-151 789.252,-151 789.252,-187"/>
<text text-anchor="middle" x="725" y="-164.8" font-family="Times,serif" font-size="14.00" fill="#000000">ProfilePanelModule</text>
</g>
<!-- ProfilePanelComponent&#45;&gt;ProfilePanelModule -->
<g id="edge1" class="edge">
<title>ProfilePanelComponent&#45;&gt;ProfilePanelModule</title>
<path fill="none" stroke="#000000" d="M1364,-122.0109C1364,-144.4852 1364,-180 1364,-180 1364,-180 799.4911,-180 799.4911,-180"/>
<polygon fill="#000000" stroke="#000000" points="799.4911,-176.5001 789.4911,-180 799.491,-183.5001 799.4911,-176.5001"/>
</g>
<!-- ProfilePanelComponent  -->
<g id="node12" class="node">
<title>ProfilePanelComponent </title>
<polygon fill="#fb8072" stroke="#000000" points="802.0344,-252 647.9656,-252 647.9656,-216 802.0344,-216 802.0344,-252"/>
<text text-anchor="middle" x="725" y="-229.8" font-family="Times,serif" font-size="14.00" fill="#000000">ProfilePanelComponent </text>
</g>
<!-- ProfilePanelModule&#45;&gt;ProfilePanelComponent  -->
<g id="edge11" class="edge">
<title>ProfilePanelModule&#45;&gt;ProfilePanelComponent </title>
<path fill="none" stroke="#000000" stroke-dasharray="5,2" d="M725,-187.1061C725,-187.1061 725,-205.991 725,-205.991"/>
<polygon fill="#000000" stroke="#000000" points="721.5001,-205.9909 725,-215.991 728.5001,-205.991 721.5001,-205.9909"/>
</g>
<!-- CommonModule -->
<g id="node3" class="node">
<title>CommonModule</title>
<polygon fill="#8dd3c7" stroke="#000000" points="1264.6681,-122 1261.6681,-126 1240.6681,-126 1237.6681,-122 1153.3319,-122 1153.3319,-86 1264.6681,-86 1264.6681,-122"/>
<text text-anchor="middle" x="1209" y="-99.8" font-family="Times,serif" font-size="14.00" fill="#000000">CommonModule</text>
</g>
<!-- CommonModule&#45;&gt;ProfilePanelModule -->
<g id="edge2" class="edge">
<title>CommonModule&#45;&gt;ProfilePanelModule</title>
<path fill="none" stroke="#000000" d="M1209,-122.1289C1209,-142.5724 1209,-173 1209,-173 1209,-173 799.2715,-173 799.2715,-173"/>
<polygon fill="#000000" stroke="#000000" points="799.2715,-169.5001 789.2715,-173 799.2714,-176.5001 799.2715,-169.5001"/>
</g>
<!-- IonicModule -->
<g id="node4" class="node">
<title>IonicModule</title>
<polygon fill="#8dd3c7" stroke="#000000" points="1135.3162,-122 1132.3162,-126 1111.3162,-126 1108.3162,-122 1046.6838,-122 1046.6838,-86 1135.3162,-86 1135.3162,-122"/>
<text text-anchor="middle" x="1091" y="-99.8" font-family="Times,serif" font-size="14.00" fill="#000000">IonicModule</text>
</g>
<!-- IonicModule&#45;&gt;ProfilePanelModule -->
<g id="edge3" class="edge">
<title>IonicModule&#45;&gt;ProfilePanelModule</title>
<path fill="none" stroke="#000000" d="M1091,-122.2667C1091,-140.5552 1091,-166 1091,-166 1091,-166 799.591,-166 799.591,-166"/>
<polygon fill="#000000" stroke="#000000" points="799.591,-162.5001 789.591,-166 799.5909,-169.5001 799.591,-162.5001"/>
</g>
<!-- FormGroupModule -->
<g id="node5" class="node">
<title>FormGroupModule</title>
<polygon fill="#8dd3c7" stroke="#000000" points="1028.6513,-122 1025.6513,-126 1004.6513,-126 1001.6513,-122 903.3487,-122 903.3487,-86 1028.6513,-86 1028.6513,-122"/>
<text text-anchor="middle" x="966" y="-99.8" font-family="Times,serif" font-size="14.00" fill="#000000">FormGroupModule</text>
</g>
<!-- FormGroupModule&#45;&gt;ProfilePanelModule -->
<g id="edge4" class="edge">
<title>FormGroupModule&#45;&gt;ProfilePanelModule</title>
<path fill="none" stroke="#000000" d="M966,-122.0091C966,-138.0494 966,-159 966,-159 966,-159 799.267,-159 799.267,-159"/>
<polygon fill="#000000" stroke="#000000" points="799.267,-155.5001 789.267,-159 799.267,-162.5001 799.267,-155.5001"/>
</g>
<!-- ReactiveFormsModule -->
<g id="node6" class="node">
<title>ReactiveFormsModule</title>
<polygon fill="#8dd3c7" stroke="#000000" points="885.3047,-122 882.3047,-126 861.3047,-126 858.3047,-122 740.6953,-122 740.6953,-86 885.3047,-86 885.3047,-122"/>
<text text-anchor="middle" x="813" y="-99.8" font-family="Times,serif" font-size="14.00" fill="#000000">ReactiveFormsModule</text>
</g>
<!-- ReactiveFormsModule&#45;&gt;ProfilePanelModule -->
<g id="edge5" class="edge">
<title>ReactiveFormsModule&#45;&gt;ProfilePanelModule</title>
<path fill="none" stroke="#000000" d="M765.1119,-122.1061C765.1119,-122.1061 765.1119,-140.991 765.1119,-140.991"/>
<polygon fill="#000000" stroke="#000000" points="761.6119,-140.9909 765.1119,-150.991 768.6119,-140.991 761.6119,-140.9909"/>
</g>
<!-- TranslateModule.forChild() -->
<g id="node7" class="node">
<title>TranslateModule.forChild()</title>
<polygon fill="#8dd3c7" stroke="#000000" points="722.8928,-122 719.8928,-126 698.8928,-126 695.8928,-122 551.1072,-122 551.1072,-86 722.8928,-86 722.8928,-122"/>
<text text-anchor="middle" x="637" y="-99.8" font-family="Times,serif" font-size="14.00" fill="#000000">TranslateModule.forChild()</text>
</g>
<!-- TranslateModule.forChild()&#45;&gt;ProfilePanelModule -->
<g id="edge6" class="edge">
<title>TranslateModule.forChild()&#45;&gt;ProfilePanelModule</title>
<path fill="none" stroke="#000000" d="M691.7853,-122.1061C691.7853,-122.1061 691.7853,-140.991 691.7853,-140.991"/>
<polygon fill="#000000" stroke="#000000" points="688.2853,-140.9909 691.7853,-150.991 695.2853,-140.991 688.2853,-140.9909"/>
</g>
<!-- DirectivesModule -->
<g id="node8" class="node">
<title>DirectivesModule</title>
<polygon fill="#8dd3c7" stroke="#000000" points="533.5772,-122 530.5772,-126 509.5772,-126 506.5772,-122 416.4228,-122 416.4228,-86 533.5772,-86 533.5772,-122"/>
<text text-anchor="middle" x="475" y="-99.8" font-family="Times,serif" font-size="14.00" fill="#000000">DirectivesModule</text>
</g>
<!-- DirectivesModule&#45;&gt;ProfilePanelModule -->
<g id="edge7" class="edge">
<title>DirectivesModule&#45;&gt;ProfilePanelModule</title>
<path fill="none" stroke="#000000" d="M475,-122.0091C475,-138.0494 475,-159 475,-159 475,-159 650.6188,-159 650.6188,-159"/>
<polygon fill="#000000" stroke="#000000" points="650.6188,-162.5001 660.6188,-159 650.6188,-155.5001 650.6188,-162.5001"/>
</g>
<!-- PipesModule -->
<g id="node9" class="node">
<title>PipesModule</title>
<polygon fill="#8dd3c7" stroke="#000000" points="398.8823,-122 395.8823,-126 374.8823,-126 371.8823,-122 309.1177,-122 309.1177,-86 398.8823,-86 398.8823,-122"/>
<text text-anchor="middle" x="354" y="-99.8" font-family="Times,serif" font-size="14.00" fill="#000000">PipesModule</text>
</g>
<!-- PipesModule&#45;&gt;ProfilePanelModule -->
<g id="edge8" class="edge">
<title>PipesModule&#45;&gt;ProfilePanelModule</title>
<path fill="none" stroke="#000000" d="M354,-122.2667C354,-140.5552 354,-166 354,-166 354,-166 650.3767,-166 650.3767,-166"/>
<polygon fill="#000000" stroke="#000000" points="650.3768,-169.5001 660.3767,-166 650.3767,-162.5001 650.3768,-169.5001"/>
</g>
<!-- SelectInputModule -->
<g id="node10" class="node">
<title>SelectInputModule</title>
<polygon fill="#8dd3c7" stroke="#000000" points="290.809,-122 287.809,-126 266.809,-126 263.809,-122 167.191,-122 167.191,-86 290.809,-86 290.809,-122"/>
<text text-anchor="middle" x="229" y="-99.8" font-family="Times,serif" font-size="14.00" fill="#000000">SelectInputModule</text>
</g>
<!-- SelectInputModule&#45;&gt;ProfilePanelModule -->
<g id="edge9" class="edge">
<title>SelectInputModule&#45;&gt;ProfilePanelModule</title>
<path fill="none" stroke="#000000" d="M229,-122.1289C229,-142.5724 229,-173 229,-173 229,-173 650.6652,-173 650.6652,-173"/>
<polygon fill="#000000" stroke="#000000" points="650.6652,-176.5001 660.6652,-173 650.6651,-169.5001 650.6652,-176.5001"/>
</g>
<!-- NgxBindIOModule -->
<g id="node11" class="node">
<title>NgxBindIOModule</title>
<polygon fill="#8dd3c7" stroke="#000000" points="149.6513,-122 146.6513,-126 125.6513,-126 122.6513,-122 24.3487,-122 24.3487,-86 149.6513,-86 149.6513,-122"/>
<text text-anchor="middle" x="87" y="-99.8" font-family="Times,serif" font-size="14.00" fill="#000000">NgxBindIOModule</text>
</g>
<!-- NgxBindIOModule&#45;&gt;ProfilePanelModule -->
<g id="edge10" class="edge">
<title>NgxBindIOModule&#45;&gt;ProfilePanelModule</title>
<path fill="none" stroke="#000000" d="M87,-122.0109C87,-144.4852 87,-180 87,-180 87,-180 650.6098,-180 650.6098,-180"/>
<polygon fill="#000000" stroke="#000000" points="650.6099,-183.5001 660.6098,-180 650.6098,-176.5001 650.6099,-183.5001"/>
</g>
</g>
</svg>
