<?xml version="1.0" encoding="UTF-8" standalone="no"?>
<!DOCTYPE svg PUBLIC "-//W3C//DTD SVG 1.1//EN"
 "http://www.w3.org/Graphics/SVG/1.1/DTD/svg11.dtd">
<!-- Generated by graphviz version 2.40.1 (20161225.0304)
 -->
<!-- Title: dependencies Pages: 1 -->
<svg width="938pt" height="211pt"
 viewBox="0.00 0.00 938.00 211.00" xmlns="http://www.w3.org/2000/svg" xmlns:xlink="http://www.w3.org/1999/xlink">
<g id="graph0" class="graph" transform="scale(1 1) rotate(0) translate(4 207)">
<title>dependencies</title>
<polygon fill="#ffffff" stroke="transparent" points="-4,4 -4,-207 934,-207 934,4 -4,4"/>
<text text-anchor="start" x="444.0091" y="-42.4" font-family="sans-serif" font-weight="bold" font-size="14.00" fill="#000000">Legend</text>
<polygon fill="#ffffb3" stroke="transparent" points="231,-10 231,-30 251,-30 251,-10 231,-10"/>
<text text-anchor="start" x="254.629" y="-15.4" font-family="sans-serif" font-size="14.00" fill="#000000"> &#160;Declarations</text>
<polygon fill="#8dd3c7" stroke="transparent" points="344,-10 344,-30 364,-30 364,-10 344,-10"/>
<text text-anchor="start" x="367.7251" y="-15.4" font-family="sans-serif" font-size="14.00" fill="#000000"> &#160;Module</text>
<polygon fill="#80b1d3" stroke="transparent" points="430,-10 430,-30 450,-30 450,-10 430,-10"/>
<text text-anchor="start" x="453.7812" y="-15.4" font-family="sans-serif" font-size="14.00" fill="#000000"> &#160;Bootstrap</text>
<polygon fill="#fdb462" stroke="transparent" points="527,-10 527,-30 547,-30 547,-10 527,-10"/>
<text text-anchor="start" x="550.6732" y="-15.4" font-family="sans-serif" font-size="14.00" fill="#000000"> &#160;Providers</text>
<polygon fill="#fb8072" stroke="transparent" points="623,-10 623,-30 643,-30 643,-10 623,-10"/>
<text text-anchor="start" x="646.7258" y="-15.4" font-family="sans-serif" font-size="14.00" fill="#000000"> &#160;Exports</text>
<g id="clust1" class="cluster">
<title>cluster_HomePageModule</title>
<polygon fill="none" stroke="#000000" stroke-dasharray="1,5" points="8,-70 8,-195 922,-195 922,-70 8,-70"/>
</g>
<g id="clust2" class="cluster">
<title>cluster_HomePageModule_declarations</title>
<polygon fill="none" stroke="#000000" points="756,-78 756,-130 914,-130 914,-78 756,-78"/>
</g>
<g id="clust4" class="cluster">
<title>cluster_HomePageModule_imports</title>
<polygon fill="none" stroke="#000000" points="16,-78 16,-130 748,-130 748,-78 16,-78"/>
</g>
<!-- HomePageComponent -->
<g id="node1" class="node">
<title>HomePageComponent</title>
<polygon fill="#ffffb3" stroke="#000000" points="906.2562,-122 763.7438,-122 763.7438,-86 906.2562,-86 906.2562,-122"/>
<text text-anchor="middle" x="835" y="-99.8" font-family="Times,serif" font-size="14.00" fill="#000000">HomePageComponent</text>
</g>
<!-- HomePageModule -->
<g id="node2" class="node">
<title>HomePageModule</title>
<polygon fill="#8dd3c7" stroke="#000000" points="572.4734,-187 569.4734,-191 548.4734,-191 545.4734,-187 451.5266,-187 451.5266,-151 572.4734,-151 572.4734,-187"/>
<text text-anchor="middle" x="512" y="-164.8" font-family="Times,serif" font-size="14.00" fill="#000000">HomePageModule</text>
</g>
<!-- HomePageComponent&#45;&gt;HomePageModule -->
<g id="edge1" class="edge">
<title>HomePageComponent&#45;&gt;HomePageModule</title>
<path fill="none" stroke="#000000" d="M835,-122.2843C835,-143.3211 835,-175 835,-175 835,-175 582.7538,-175 582.7538,-175"/>
<polygon fill="#000000" stroke="#000000" points="582.7539,-171.5001 572.7538,-175 582.7538,-178.5001 582.7539,-171.5001"/>
</g>
<!-- CommonModule -->
<g id="node3" class="node">
<title>CommonModule</title>
<polygon fill="#8dd3c7" stroke="#000000" points="739.6681,-122 736.6681,-126 715.6681,-126 712.6681,-122 628.3319,-122 628.3319,-86 739.6681,-86 739.6681,-122"/>
<text text-anchor="middle" x="684" y="-99.8" font-family="Times,serif" font-size="14.00" fill="#000000">CommonModule</text>
</g>
<!-- CommonModule&#45;&gt;HomePageModule -->
<g id="edge2" class="edge">
<title>CommonModule&#45;&gt;HomePageModule</title>
<path fill="none" stroke="#000000" d="M684,-122.0225C684,-139.3734 684,-163 684,-163 684,-163 582.6408,-163 582.6408,-163"/>
<polygon fill="#000000" stroke="#000000" points="582.6408,-159.5001 572.6408,-163 582.6407,-166.5001 582.6408,-159.5001"/>
</g>
<!-- IonicModule -->
<g id="node4" class="node">
<title>IonicModule</title>
<polygon fill="#8dd3c7" stroke="#000000" points="610.3162,-122 607.3162,-126 586.3162,-126 583.3162,-122 521.6838,-122 521.6838,-86 610.3162,-86 610.3162,-122"/>
<text text-anchor="middle" x="566" y="-99.8" font-family="Times,serif" font-size="14.00" fill="#000000">IonicModule</text>
</g>
<!-- IonicModule&#45;&gt;HomePageModule -->
<g id="edge3" class="edge">
<title>IonicModule&#45;&gt;HomePageModule</title>
<path fill="none" stroke="#000000" d="M547.1645,-122.1061C547.1645,-122.1061 547.1645,-140.991 547.1645,-140.991"/>
<polygon fill="#000000" stroke="#000000" points="543.6645,-140.9909 547.1645,-150.991 550.6645,-140.991 543.6645,-140.9909"/>
</g>
<!-- PipesModule -->
<g id="node5" class="node">
<title>PipesModule</title>
<polygon fill="#8dd3c7" stroke="#000000" points="503.8823,-122 500.8823,-126 479.8823,-126 476.8823,-122 414.1177,-122 414.1177,-86 503.8823,-86 503.8823,-122"/>
<text text-anchor="middle" x="459" y="-99.8" font-family="Times,serif" font-size="14.00" fill="#000000">PipesModule</text>
</g>
<!-- PipesModule&#45;&gt;HomePageModule -->
<g id="edge4" class="edge">
<title>PipesModule&#45;&gt;HomePageModule</title>
<path fill="none" stroke="#000000" d="M477.7272,-122.1061C477.7272,-122.1061 477.7272,-140.991 477.7272,-140.991"/>
<polygon fill="#000000" stroke="#000000" points="474.2273,-140.9909 477.7272,-150.991 481.2273,-140.991 474.2273,-140.9909"/>
</g>
<!-- TranslateModule.forChild() -->
<g id="node6" class="node">
<title>TranslateModule.forChild()</title>
<polygon fill="#8dd3c7" stroke="#000000" points="395.8928,-122 392.8928,-126 371.8928,-126 368.8928,-122 224.1072,-122 224.1072,-86 395.8928,-86 395.8928,-122"/>
<text text-anchor="middle" x="310" y="-99.8" font-family="Times,serif" font-size="14.00" fill="#000000">TranslateModule.forChild()</text>
</g>
<!-- TranslateModule.forChild()&#45;&gt;HomePageModule -->
<g id="edge5" class="edge">
<title>TranslateModule.forChild()&#45;&gt;HomePageModule</title>
<path fill="none" stroke="#000000" d="M310,-122.0225C310,-139.3734 310,-163 310,-163 310,-163 441.3933,-163 441.3933,-163"/>
<polygon fill="#000000" stroke="#000000" points="441.3934,-166.5001 451.3933,-163 441.3933,-159.5001 441.3934,-166.5001"/>
</g>
<!-- RouterModule.forChild(args) -->
<g id="node7" class="node">
<title>RouterModule.forChild(args)</title>
<polygon fill="#8dd3c7" stroke="#000000" points="205.7323,-122 202.7323,-126 181.7323,-126 178.7323,-122 24.2677,-122 24.2677,-86 205.7323,-86 205.7323,-122"/>
<text text-anchor="middle" x="115" y="-99.8" font-family="Times,serif" font-size="14.00" fill="#000000">RouterModule.forChild(args)</text>
</g>
<!-- RouterModule.forChild(args)&#45;&gt;HomePageModule -->
<g id="edge6" class="edge">
<title>RouterModule.forChild(args)&#45;&gt;HomePageModule</title>
<path fill="none" stroke="#000000" d="M115,-122.2843C115,-143.3211 115,-175 115,-175 115,-175 441.2721,-175 441.2721,-175"/>
<polygon fill="#000000" stroke="#000000" points="441.2721,-178.5001 451.2721,-175 441.2721,-171.5001 441.2721,-178.5001"/>
</g>
</g>
</svg>
