<?xml version="1.0" encoding="UTF-8" standalone="no"?>
<!DOCTYPE svg PUBLIC "-//W3C//DTD SVG 1.1//EN"
 "http://www.w3.org/Graphics/SVG/1.1/DTD/svg11.dtd">
<!-- Generated by graphviz version 2.40.1 (20161225.0304)
 -->
<!-- Title: dependencies Pages: 1 -->
<svg width="801pt" height="211pt"
 viewBox="0.00 0.00 801.00 211.00" xmlns="http://www.w3.org/2000/svg" xmlns:xlink="http://www.w3.org/1999/xlink">
<g id="graph0" class="graph" transform="scale(1 1) rotate(0) translate(4 207)">
<title>dependencies</title>
<polygon fill="#ffffff" stroke="transparent" points="-4,4 -4,-207 797,-207 797,4 -4,4"/>
<text text-anchor="start" x="375.5091" y="-42.4" font-family="sans-serif" font-weight="bold" font-size="14.00" fill="#000000">Legend</text>
<polygon fill="#ffffb3" stroke="transparent" points="162.5,-10 162.5,-30 182.5,-30 182.5,-10 162.5,-10"/>
<text text-anchor="start" x="186.129" y="-15.4" font-family="sans-serif" font-size="14.00" fill="#000000"> &#160;Declarations</text>
<polygon fill="#8dd3c7" stroke="transparent" points="275.5,-10 275.5,-30 295.5,-30 295.5,-10 275.5,-10"/>
<text text-anchor="start" x="299.2251" y="-15.4" font-family="sans-serif" font-size="14.00" fill="#000000"> &#160;Module</text>
<polygon fill="#80b1d3" stroke="transparent" points="361.5,-10 361.5,-30 381.5,-30 381.5,-10 361.5,-10"/>
<text text-anchor="start" x="385.2812" y="-15.4" font-family="sans-serif" font-size="14.00" fill="#000000"> &#160;Bootstrap</text>
<polygon fill="#fdb462" stroke="transparent" points="458.5,-10 458.5,-30 478.5,-30 478.5,-10 458.5,-10"/>
<text text-anchor="start" x="482.1732" y="-15.4" font-family="sans-serif" font-size="14.00" fill="#000000"> &#160;Providers</text>
<polygon fill="#fb8072" stroke="transparent" points="554.5,-10 554.5,-30 574.5,-30 574.5,-10 554.5,-10"/>
<text text-anchor="start" x="578.2258" y="-15.4" font-family="sans-serif" font-size="14.00" fill="#000000"> &#160;Exports</text>
<g id="clust1" class="cluster">
<title>cluster_ProfilePageModule</title>
<polygon fill="none" stroke="#000000" stroke-dasharray="1,5" points="8,-70 8,-195 785,-195 785,-70 8,-70"/>
</g>
<g id="clust2" class="cluster">
<title>cluster_ProfilePageModule_declarations</title>
<polygon fill="none" stroke="#000000" points="615,-78 615,-130 777,-130 777,-78 615,-78"/>
</g>
<g id="clust4" class="cluster">
<title>cluster_ProfilePageModule_imports</title>
<polygon fill="none" stroke="#000000" points="16,-78 16,-130 607,-130 607,-78 16,-78"/>
</g>
<!-- ProfilePageComponent -->
<g id="node1" class="node">
<title>ProfilePageComponent</title>
<polygon fill="#ffffb3" stroke="#000000" points="769.1442,-122 622.8558,-122 622.8558,-86 769.1442,-86 769.1442,-122"/>
<text text-anchor="middle" x="696" y="-99.8" font-family="Times,serif" font-size="14.00" fill="#000000">ProfilePageComponent</text>
</g>
<!-- ProfilePageModule -->
<g id="node2" class="node">
<title>ProfilePageModule</title>
<polygon fill="#8dd3c7" stroke="#000000" points="482.3613,-187 479.3613,-191 458.3613,-191 455.3613,-187 357.6387,-187 357.6387,-151 482.3613,-151 482.3613,-187"/>
<text text-anchor="middle" x="420" y="-164.8" font-family="Times,serif" font-size="14.00" fill="#000000">ProfilePageModule</text>
</g>
<!-- ProfilePageComponent&#45;&gt;ProfilePageModule -->
<g id="edge1" class="edge">
<title>ProfilePageComponent&#45;&gt;ProfilePageModule</title>
<path fill="none" stroke="#000000" d="M696,-122.1061C696,-141.3391 696,-169 696,-169 696,-169 492.6287,-169 492.6287,-169"/>
<polygon fill="#000000" stroke="#000000" points="492.6287,-165.5001 482.6287,-169 492.6286,-172.5001 492.6287,-165.5001"/>
</g>
<!-- CommonModule -->
<g id="node3" class="node">
<title>CommonModule</title>
<polygon fill="#8dd3c7" stroke="#000000" points="598.6681,-122 595.6681,-126 574.6681,-126 571.6681,-122 487.3319,-122 487.3319,-86 598.6681,-86 598.6681,-122"/>
<text text-anchor="middle" x="543" y="-99.8" font-family="Times,serif" font-size="14.00" fill="#000000">CommonModule</text>
</g>
<!-- CommonModule&#45;&gt;ProfilePageModule -->
<g id="edge2" class="edge">
<title>CommonModule&#45;&gt;ProfilePageModule</title>
<path fill="none" stroke="#000000" d="M487.2169,-104C480.4224,-104 475.8209,-104 475.8209,-104 475.8209,-104 475.8209,-140.8939 475.8209,-140.8939"/>
<polygon fill="#000000" stroke="#000000" points="472.3209,-140.8938 475.8209,-150.8939 479.3209,-140.8939 472.3209,-140.8938"/>
</g>
<!-- SharedModule -->
<g id="node4" class="node">
<title>SharedModule</title>
<polygon fill="#8dd3c7" stroke="#000000" points="469.4231,-122 466.4231,-126 445.4231,-126 442.4231,-122 370.5769,-122 370.5769,-86 469.4231,-86 469.4231,-122"/>
<text text-anchor="middle" x="420" y="-99.8" font-family="Times,serif" font-size="14.00" fill="#000000">SharedModule</text>
</g>
<!-- SharedModule&#45;&gt;ProfilePageModule -->
<g id="edge3" class="edge">
<title>SharedModule&#45;&gt;ProfilePageModule</title>
<path fill="none" stroke="#000000" d="M420,-122.1061C420,-122.1061 420,-140.991 420,-140.991"/>
<polygon fill="#000000" stroke="#000000" points="416.5001,-140.9909 420,-150.991 423.5001,-140.991 416.5001,-140.9909"/>
</g>
<!-- ProfilePanelModule -->
<g id="node5" class="node">
<title>ProfilePanelModule</title>
<polygon fill="#8dd3c7" stroke="#000000" points="352.252,-122 349.252,-126 328.252,-126 325.252,-122 223.748,-122 223.748,-86 352.252,-86 352.252,-122"/>
<text text-anchor="middle" x="288" y="-99.8" font-family="Times,serif" font-size="14.00" fill="#000000">ProfilePanelModule</text>
</g>
<!-- ProfilePanelModule&#45;&gt;ProfilePageModule -->
<g id="edge4" class="edge">
<title>ProfilePanelModule&#45;&gt;ProfilePageModule</title>
<path fill="none" stroke="#000000" d="M352.2762,-104C359.418,-104 364.1792,-104 364.1792,-104 364.1792,-104 364.1792,-140.8939 364.1792,-140.8939"/>
<polygon fill="#000000" stroke="#000000" points="360.6792,-140.8938 364.1792,-150.8939 367.6792,-140.8939 360.6792,-140.8938"/>
</g>
<!-- RouterModule.forChild(args) -->
<g id="node6" class="node">
<title>RouterModule.forChild(args)</title>
<polygon fill="#8dd3c7" stroke="#000000" points="205.7323,-122 202.7323,-126 181.7323,-126 178.7323,-122 24.2677,-122 24.2677,-86 205.7323,-86 205.7323,-122"/>
<text text-anchor="middle" x="115" y="-99.8" font-family="Times,serif" font-size="14.00" fill="#000000">RouterModule.forChild(args)</text>
</g>
<!-- RouterModule.forChild(args)&#45;&gt;ProfilePageModule -->
<g id="edge5" class="edge">
<title>RouterModule.forChild(args)&#45;&gt;ProfilePageModule</title>
<path fill="none" stroke="#000000" d="M115,-122.1061C115,-141.3391 115,-169 115,-169 115,-169 347.5427,-169 347.5427,-169"/>
<polygon fill="#000000" stroke="#000000" points="347.5427,-172.5001 357.5427,-169 347.5427,-165.5001 347.5427,-172.5001"/>
</g>
</g>
</svg>
