<?xml version="1.0" encoding="UTF-8" standalone="no"?>
<!DOCTYPE svg PUBLIC "-//W3C//DTD SVG 1.1//EN"
 "http://www.w3.org/Graphics/SVG/1.1/DTD/svg11.dtd">
<!-- Generated by graphviz version 2.40.1 (20161225.0304)
 -->
<!-- Title: dependencies Pages: 1 -->
<svg width="981pt" height="211pt"
 viewBox="0.00 0.00 981.00 211.00" xmlns="http://www.w3.org/2000/svg" xmlns:xlink="http://www.w3.org/1999/xlink">
<g id="graph0" class="graph" transform="scale(1 1) rotate(0) translate(4 207)">
<title>dependencies</title>
<polygon fill="#ffffff" stroke="transparent" points="-4,4 -4,-207 977,-207 977,4 -4,4"/>
<text text-anchor="start" x="465.5091" y="-42.4" font-family="sans-serif" font-weight="bold" font-size="14.00" fill="#000000">Legend</text>
<polygon fill="#ffffb3" stroke="transparent" points="252.5,-10 252.5,-30 272.5,-30 272.5,-10 252.5,-10"/>
<text text-anchor="start" x="276.129" y="-15.4" font-family="sans-serif" font-size="14.00" fill="#000000"> &#160;Declarations</text>
<polygon fill="#8dd3c7" stroke="transparent" points="365.5,-10 365.5,-30 385.5,-30 385.5,-10 365.5,-10"/>
<text text-anchor="start" x="389.2251" y="-15.4" font-family="sans-serif" font-size="14.00" fill="#000000"> &#160;Module</text>
<polygon fill="#80b1d3" stroke="transparent" points="451.5,-10 451.5,-30 471.5,-30 471.5,-10 451.5,-10"/>
<text text-anchor="start" x="475.2812" y="-15.4" font-family="sans-serif" font-size="14.00" fill="#000000"> &#160;Bootstrap</text>
<polygon fill="#fdb462" stroke="transparent" points="548.5,-10 548.5,-30 568.5,-30 568.5,-10 548.5,-10"/>
<text text-anchor="start" x="572.1732" y="-15.4" font-family="sans-serif" font-size="14.00" fill="#000000"> &#160;Providers</text>
<polygon fill="#fb8072" stroke="transparent" points="644.5,-10 644.5,-30 664.5,-30 664.5,-10 644.5,-10"/>
<text text-anchor="start" x="668.2258" y="-15.4" font-family="sans-serif" font-size="14.00" fill="#000000"> &#160;Exports</text>
<g id="clust1" class="cluster">
<title>cluster_ProfilePageModule</title>
<polygon fill="none" stroke="#000000" stroke-dasharray="1,5" points="8,-70 8,-195 965,-195 965,-70 8,-70"/>
</g>
<g id="clust2" class="cluster">
<title>cluster_ProfilePageModule_declarations</title>
<polygon fill="none" stroke="#000000" points="795,-78 795,-130 957,-130 957,-78 795,-78"/>
</g>
<g id="clust4" class="cluster">
<title>cluster_ProfilePageModule_imports</title>
<polygon fill="none" stroke="#000000" points="16,-78 16,-130 787,-130 787,-78 16,-78"/>
</g>
<!-- ProfilePageComponent -->
<g id="node1" class="node">
<title>ProfilePageComponent</title>
<polygon fill="#ffffb3" stroke="#000000" points="949.1442,-122 802.8558,-122 802.8558,-86 949.1442,-86 949.1442,-122"/>
<text text-anchor="middle" x="876" y="-99.8" font-family="Times,serif" font-size="14.00" fill="#000000">ProfilePageComponent</text>
</g>
<!-- ProfilePageModule -->
<g id="node2" class="node">
<title>ProfilePageModule</title>
<polygon fill="#8dd3c7" stroke="#000000" points="603.3613,-187 600.3613,-191 579.3613,-191 576.3613,-187 478.6387,-187 478.6387,-151 603.3613,-151 603.3613,-187"/>
<text text-anchor="middle" x="541" y="-164.8" font-family="Times,serif" font-size="14.00" fill="#000000">ProfilePageModule</text>
</g>
<!-- ProfilePageComponent&#45;&gt;ProfilePageModule -->
<g id="edge1" class="edge">
<title>ProfilePageComponent&#45;&gt;ProfilePageModule</title>
<path fill="none" stroke="#000000" d="M876,-122.2843C876,-143.3211 876,-175 876,-175 876,-175 613.618,-175 613.618,-175"/>
<polygon fill="#000000" stroke="#000000" points="613.618,-171.5001 603.618,-175 613.6179,-178.5001 613.618,-171.5001"/>
</g>
<!-- CommonModule -->
<g id="node3" class="node">
<title>CommonModule</title>
<polygon fill="#8dd3c7" stroke="#000000" points="778.6681,-122 775.6681,-126 754.6681,-126 751.6681,-122 667.3319,-122 667.3319,-86 778.6681,-86 778.6681,-122"/>
<text text-anchor="middle" x="723" y="-99.8" font-family="Times,serif" font-size="14.00" fill="#000000">CommonModule</text>
</g>
<!-- CommonModule&#45;&gt;ProfilePageModule -->
<g id="edge2" class="edge">
<title>CommonModule&#45;&gt;ProfilePageModule</title>
<path fill="none" stroke="#000000" d="M723,-122.0225C723,-139.3734 723,-163 723,-163 723,-163 613.3794,-163 613.3794,-163"/>
<polygon fill="#000000" stroke="#000000" points="613.3795,-159.5001 603.3794,-163 613.3794,-166.5001 613.3795,-159.5001"/>
</g>
<!-- IonicModule -->
<g id="node4" class="node">
<title>IonicModule</title>
<polygon fill="#8dd3c7" stroke="#000000" points="649.3162,-122 646.3162,-126 625.3162,-126 622.3162,-122 560.6838,-122 560.6838,-86 649.3162,-86 649.3162,-122"/>
<text text-anchor="middle" x="605" y="-99.8" font-family="Times,serif" font-size="14.00" fill="#000000">IonicModule</text>
</g>
<!-- IonicModule&#45;&gt;ProfilePageModule -->
<g id="edge3" class="edge">
<title>IonicModule&#45;&gt;ProfilePageModule</title>
<path fill="none" stroke="#000000" d="M582.1364,-122.1061C582.1364,-122.1061 582.1364,-140.991 582.1364,-140.991"/>
<polygon fill="#000000" stroke="#000000" points="578.6365,-140.9909 582.1364,-150.991 585.6365,-140.991 578.6365,-140.9909"/>
</g>
<!-- ProfilePanelModule -->
<g id="node5" class="node">
<title>ProfilePanelModule</title>
<polygon fill="#8dd3c7" stroke="#000000" points="542.252,-122 539.252,-126 518.252,-126 515.252,-122 413.748,-122 413.748,-86 542.252,-86 542.252,-122"/>
<text text-anchor="middle" x="478" y="-99.8" font-family="Times,serif" font-size="14.00" fill="#000000">ProfilePanelModule</text>
</g>
<!-- ProfilePanelModule&#45;&gt;ProfilePageModule -->
<g id="edge4" class="edge">
<title>ProfilePanelModule&#45;&gt;ProfilePageModule</title>
<path fill="none" stroke="#000000" d="M510.4727,-122.1061C510.4727,-122.1061 510.4727,-140.991 510.4727,-140.991"/>
<polygon fill="#000000" stroke="#000000" points="506.9727,-140.9909 510.4727,-150.991 513.9727,-140.991 506.9727,-140.9909"/>
</g>
<!-- TranslateModule.forChild() -->
<g id="node6" class="node">
<title>TranslateModule.forChild()</title>
<polygon fill="#8dd3c7" stroke="#000000" points="395.8928,-122 392.8928,-126 371.8928,-126 368.8928,-122 224.1072,-122 224.1072,-86 395.8928,-86 395.8928,-122"/>
<text text-anchor="middle" x="310" y="-99.8" font-family="Times,serif" font-size="14.00" fill="#000000">TranslateModule.forChild()</text>
</g>
<!-- TranslateModule.forChild()&#45;&gt;ProfilePageModule -->
<g id="edge5" class="edge">
<title>TranslateModule.forChild()&#45;&gt;ProfilePageModule</title>
<path fill="none" stroke="#000000" d="M310,-122.0225C310,-139.3734 310,-163 310,-163 310,-163 468.4881,-163 468.4881,-163"/>
<polygon fill="#000000" stroke="#000000" points="468.4881,-166.5001 478.4881,-163 468.488,-159.5001 468.4881,-166.5001"/>
</g>
<!-- RouterModule.forChild(args) -->
<g id="node7" class="node">
<title>RouterModule.forChild(args)</title>
<polygon fill="#8dd3c7" stroke="#000000" points="205.7323,-122 202.7323,-126 181.7323,-126 178.7323,-122 24.2677,-122 24.2677,-86 205.7323,-86 205.7323,-122"/>
<text text-anchor="middle" x="115" y="-99.8" font-family="Times,serif" font-size="14.00" fill="#000000">RouterModule.forChild(args)</text>
</g>
<!-- RouterModule.forChild(args)&#45;&gt;ProfilePageModule -->
<g id="edge6" class="edge">
<title>RouterModule.forChild(args)&#45;&gt;ProfilePageModule</title>
<path fill="none" stroke="#000000" d="M115,-122.2843C115,-143.3211 115,-175 115,-175 115,-175 468.5997,-175 468.5997,-175"/>
<polygon fill="#000000" stroke="#000000" points="468.5998,-178.5001 478.5997,-175 468.5997,-171.5001 468.5998,-178.5001"/>
</g>
</g>
</svg>
