<?xml version="1.0" encoding="UTF-8" standalone="no"?>
<!DOCTYPE svg PUBLIC "-//W3C//DTD SVG 1.1//EN"
 "http://www.w3.org/Graphics/SVG/1.1/DTD/svg11.dtd">
<!-- Generated by graphviz version 2.40.1 (20161225.0304)
 -->
<!-- Title: dependencies Pages: 1 -->
<svg width="5830pt" height="284pt"
 viewBox="0.00 0.00 5830.00 284.00" xmlns="http://www.w3.org/2000/svg" xmlns:xlink="http://www.w3.org/1999/xlink">
<g id="graph0" class="graph" transform="scale(1 1) rotate(0) translate(4 280)">
<title>dependencies</title>
<polygon fill="#ffffff" stroke="transparent" points="-4,4 -4,-280 5826,-280 5826,4 -4,4"/>
<text text-anchor="start" x="2890.0091" y="-42.4" font-family="sans-serif" font-weight="bold" font-size="14.00" fill="#000000">Legend</text>
<polygon fill="#ffffb3" stroke="transparent" points="2677,-10 2677,-30 2697,-30 2697,-10 2677,-10"/>
<text text-anchor="start" x="2700.629" y="-15.4" font-family="sans-serif" font-size="14.00" fill="#000000"> &#160;Declarations</text>
<polygon fill="#8dd3c7" stroke="transparent" points="2790,-10 2790,-30 2810,-30 2810,-10 2790,-10"/>
<text text-anchor="start" x="2813.7251" y="-15.4" font-family="sans-serif" font-size="14.00" fill="#000000"> &#160;Module</text>
<polygon fill="#80b1d3" stroke="transparent" points="2876,-10 2876,-30 2896,-30 2896,-10 2876,-10"/>
<text text-anchor="start" x="2899.7812" y="-15.4" font-family="sans-serif" font-size="14.00" fill="#000000"> &#160;Bootstrap</text>
<polygon fill="#fdb462" stroke="transparent" points="2973,-10 2973,-30 2993,-30 2993,-10 2973,-10"/>
<text text-anchor="start" x="2996.6732" y="-15.4" font-family="sans-serif" font-size="14.00" fill="#000000"> &#160;Providers</text>
<polygon fill="#fb8072" stroke="transparent" points="3069,-10 3069,-30 3089,-30 3089,-10 3069,-10"/>
<text text-anchor="start" x="3092.7258" y="-15.4" font-family="sans-serif" font-size="14.00" fill="#000000"> &#160;Exports</text>
<g id="clust1" class="cluster">
<title>cluster_AppModule</title>
<polygon fill="none" stroke="#000000" stroke-dasharray="1,5" points="8,-70 8,-268 5814,-268 5814,-70 8,-70"/>
</g>
<g id="clust2" class="cluster">
<title>cluster_AppModule_declarations</title>
<polygon fill="none" stroke="#000000" points="5684,-78 5684,-130 5806,-130 5806,-78 5684,-78"/>
</g>
<g id="clust4" class="cluster">
<title>cluster_AppModule_imports</title>
<polygon fill="none" stroke="#000000" points="1788,-78 1788,-130 5676,-130 5676,-78 1788,-78"/>
</g>
<g id="clust6" class="cluster">
<title>cluster_AppModule_bootstrap</title>
<polygon fill="none" stroke="#000000" points="3352,-208 3352,-260 3476,-260 3476,-208 3352,-208"/>
</g>
<g id="clust7" class="cluster">
<title>cluster_AppModule_providers</title>
<polygon fill="none" stroke="#000000" points="16,-78 16,-130 1780,-130 1780,-78 16,-78"/>
</g>
<!-- AppComponent -->
<g id="node1" class="node">
<title>AppComponent</title>
<polygon fill="#ffffb3" stroke="#000000" points="5797.9399,-122 5692.0601,-122 5692.0601,-86 5797.9399,-86 5797.9399,-122"/>
<text text-anchor="middle" x="5745" y="-99.8" font-family="Times,serif" font-size="14.00" fill="#000000">AppComponent</text>
</g>
<!-- AppModule -->
<g id="node2" class="node">
<title>AppModule</title>
<polygon fill="#8dd3c7" stroke="#000000" points="3455.6571,-187 3452.6571,-191 3431.6571,-191 3428.6571,-187 3372.3429,-187 3372.3429,-151 3455.6571,-151 3455.6571,-187"/>
<text text-anchor="middle" x="3414" y="-164.8" font-family="Times,serif" font-size="14.00" fill="#000000">AppModule</text>
</g>
<!-- AppComponent&#45;&gt;AppModule -->
<g id="edge1" class="edge">
<title>AppComponent&#45;&gt;AppModule</title>
<path fill="none" stroke="#000000" d="M5745,-122.3802C5745,-146.2785 5745,-185 5745,-185 5745,-185 3465.947,-185 3465.947,-185"/>
<polygon fill="#000000" stroke="#000000" points="3465.9471,-181.5001 3455.947,-185 3465.947,-188.5001 3465.9471,-181.5001"/>
</g>
<!-- AppComponent  -->
<g id="node23" class="node">
<title>AppComponent </title>
<polygon fill="#80b1d3" stroke="#000000" points="3468.439,-252 3359.561,-252 3359.561,-216 3468.439,-216 3468.439,-252"/>
<text text-anchor="middle" x="3414" y="-229.8" font-family="Times,serif" font-size="14.00" fill="#000000">AppComponent </text>
</g>
<!-- AppModule&#45;&gt;AppComponent  -->
<g id="edge22" class="edge">
<title>AppModule&#45;&gt;AppComponent </title>
<path fill="none" stroke="#000000" stroke-dasharray="1,5" d="M3414,-187.1061C3414,-187.1061 3414,-205.991 3414,-205.991"/>
<polygon fill="#000000" stroke="#000000" points="3410.5001,-205.9909 3414,-215.991 3417.5001,-205.991 3410.5001,-205.9909"/>
</g>
<!-- CommonModule -->
<g id="node3" class="node">
<title>CommonModule</title>
<polygon fill="#8dd3c7" stroke="#000000" points="5667.6681,-122 5664.6681,-126 5643.6681,-126 5640.6681,-122 5556.3319,-122 5556.3319,-86 5667.6681,-86 5667.6681,-122"/>
<text text-anchor="middle" x="5612" y="-99.8" font-family="Times,serif" font-size="14.00" fill="#000000">CommonModule</text>
</g>
<!-- CommonModule&#45;&gt;AppModule -->
<g id="edge2" class="edge">
<title>CommonModule&#45;&gt;AppModule</title>
<path fill="none" stroke="#000000" d="M5612,-122.0908C5612,-145.1328 5612,-182 5612,-182 5612,-182 3465.9453,-182 3465.9453,-182"/>
<polygon fill="#000000" stroke="#000000" points="3465.9453,-178.5001 3455.9453,-182 3465.9452,-185.5001 3465.9453,-178.5001"/>
</g>
<!-- HttpClientModule -->
<g id="node4" class="node">
<title>HttpClientModule</title>
<polygon fill="#8dd3c7" stroke="#000000" points="5538.1611,-122 5535.1611,-126 5514.1611,-126 5511.1611,-122 5419.8389,-122 5419.8389,-86 5538.1611,-86 5538.1611,-122"/>
<text text-anchor="middle" x="5479" y="-99.8" font-family="Times,serif" font-size="14.00" fill="#000000">HttpClientModule</text>
</g>
<!-- HttpClientModule&#45;&gt;AppModule -->
<g id="edge3" class="edge">
<title>HttpClientModule&#45;&gt;AppModule</title>
<path fill="none" stroke="#000000" d="M5479,-122.1554C5479,-144.3519 5479,-179 5479,-179 5479,-179 3465.7158,-179 3465.7158,-179"/>
<polygon fill="#000000" stroke="#000000" points="3465.7158,-175.5001 3455.7158,-179 3465.7158,-182.5001 3465.7158,-175.5001"/>
</g>
<!-- SharedModule -->
<g id="node5" class="node">
<title>SharedModule</title>
<polygon fill="#8dd3c7" stroke="#000000" points="5401.4231,-122 5398.4231,-126 5377.4231,-126 5374.4231,-122 5302.5769,-122 5302.5769,-86 5401.4231,-86 5401.4231,-122"/>
<text text-anchor="middle" x="5352" y="-99.8" font-family="Times,serif" font-size="14.00" fill="#000000">SharedModule</text>
</g>
<!-- SharedModule&#45;&gt;AppModule -->
<g id="edge4" class="edge">
<title>SharedModule&#45;&gt;AppModule</title>
<path fill="none" stroke="#000000" d="M5352,-122.1686C5352,-143.498 5352,-176 5352,-176 5352,-176 3465.8262,-176 3465.8262,-176"/>
<polygon fill="#000000" stroke="#000000" points="3465.8262,-172.5001 3455.8262,-176 3465.8262,-179.5001 3465.8262,-172.5001"/>
</g>
<!-- IonicStorageModule.forRoot() -->
<g id="node6" class="node">
<title>IonicStorageModule.forRoot()</title>
<polygon fill="#8dd3c7" stroke="#000000" points="5284.9487,-122 5281.9487,-126 5260.9487,-126 5257.9487,-122 5097.0513,-122 5097.0513,-86 5284.9487,-86 5284.9487,-122"/>
<text text-anchor="middle" x="5191" y="-99.8" font-family="Times,serif" font-size="14.00" fill="#000000">IonicStorageModule.forRoot()</text>
</g>
<!-- IonicStorageModule.forRoot()&#45;&gt;AppModule -->
<g id="edge5" class="edge">
<title>IonicStorageModule.forRoot()&#45;&gt;AppModule</title>
<path fill="none" stroke="#000000" d="M5191,-122.0267C5191,-142.7672 5191,-174 5191,-174 5191,-174 3465.7404,-174 3465.7404,-174"/>
<polygon fill="#000000" stroke="#000000" points="3465.7404,-170.5001 3455.7404,-174 3465.7404,-177.5001 3465.7404,-170.5001"/>
</g>
<!-- TranslateModule.forRoot() -->
<g id="node7" class="node">
<title>TranslateModule.forRoot()</title>
<polygon fill="#8dd3c7" stroke="#000000" points="5079.0022,-122 5076.0022,-126 5055.0022,-126 5052.0022,-122 4910.9978,-122 4910.9978,-86 5079.0022,-86 5079.0022,-122"/>
<text text-anchor="middle" x="4995" y="-99.8" font-family="Times,serif" font-size="14.00" fill="#000000">TranslateModule.forRoot()</text>
</g>
<!-- TranslateModule.forRoot()&#45;&gt;AppModule -->
<g id="edge6" class="edge">
<title>TranslateModule.forRoot()&#45;&gt;AppModule</title>
<path fill="none" stroke="#000000" d="M4995,-122.308C4995,-142.1455 4995,-171 4995,-171 4995,-171 3465.8807,-171 3465.8807,-171"/>
<polygon fill="#000000" stroke="#000000" points="3465.8807,-167.5001 3455.8807,-171 3465.8807,-174.5001 3465.8807,-167.5001"/>
</g>
<!-- BrowserModule.withServerTransition(args) -->
<g id="node8" class="node">
<title>BrowserModule.withServerTransition(args)</title>
<polygon fill="#8dd3c7" stroke="#000000" points="4893.0794,-122 4890.0794,-126 4869.0794,-126 4866.0794,-122 4630.9206,-122 4630.9206,-86 4893.0794,-86 4893.0794,-122"/>
<text text-anchor="middle" x="4762" y="-99.8" font-family="Times,serif" font-size="14.00" fill="#000000">BrowserModule.withServerTransition(args)</text>
</g>
<!-- BrowserModule.withServerTransition(args)&#45;&gt;AppModule -->
<g id="edge7" class="edge">
<title>BrowserModule.withServerTransition(args)&#45;&gt;AppModule</title>
<path fill="none" stroke="#000000" d="M4762,-122.1686C4762,-141.0898 4762,-168 4762,-168 4762,-168 3465.8211,-168 3465.8211,-168"/>
<polygon fill="#000000" stroke="#000000" points="3465.8212,-164.5001 3455.8211,-168 3465.8211,-171.5001 3465.8212,-164.5001"/>
</g>
<!-- TransferHttpCacheModule.forRoot() -->
<g id="node9" class="node">
<title>TransferHttpCacheModule.forRoot()</title>
<polygon fill="#8dd3c7" stroke="#000000" points="4612.6959,-122 4609.6959,-126 4588.6959,-126 4585.6959,-122 4389.3041,-122 4389.3041,-86 4612.6959,-86 4612.6959,-122"/>
<text text-anchor="middle" x="4501" y="-99.8" font-family="Times,serif" font-size="14.00" fill="#000000">TransferHttpCacheModule.forRoot()</text>
</g>
<!-- TransferHttpCacheModule.forRoot()&#45;&gt;AppModule -->
<g id="edge8" class="edge">
<title>TransferHttpCacheModule.forRoot()&#45;&gt;AppModule</title>
<path fill="none" stroke="#000000" d="M4501,-122.302C4501,-140.2699 4501,-165 4501,-165 4501,-165 3465.9456,-165 3465.9456,-165"/>
<polygon fill="#000000" stroke="#000000" points="3465.9457,-161.5001 3455.9456,-165 3465.9456,-168.5001 3465.9457,-161.5001"/>
</g>
<!-- NgxPermissionsModule.forRoot() -->
<g id="node10" class="node">
<title>NgxPermissionsModule.forRoot()</title>
<polygon fill="#8dd3c7" stroke="#000000" points="4371.6896,-122 4368.6896,-126 4347.6896,-126 4344.6896,-122 4164.3104,-122 4164.3104,-86 4371.6896,-86 4371.6896,-122"/>
<text text-anchor="middle" x="4268" y="-99.8" font-family="Times,serif" font-size="14.00" fill="#000000">NgxPermissionsModule.forRoot()</text>
</g>
<!-- NgxPermissionsModule.forRoot()&#45;&gt;AppModule -->
<g id="edge9" class="edge">
<title>NgxPermissionsModule.forRoot()&#45;&gt;AppModule</title>
<path fill="none" stroke="#000000" d="M4268,-122.0225C4268,-139.3734 4268,-163 4268,-163 4268,-163 3465.7683,-163 3465.7683,-163"/>
<polygon fill="#000000" stroke="#000000" points="3465.7683,-159.5001 3455.7683,-163 3465.7683,-166.5001 3465.7683,-159.5001"/>
</g>
<!-- IonicModule.forRoot() -->
<g id="node11" class="node">
<title>IonicModule.forRoot()</title>
<polygon fill="#8dd3c7" stroke="#000000" points="4146.1855,-122 4143.1855,-126 4122.1855,-126 4119.1855,-122 4001.8145,-122 4001.8145,-86 4146.1855,-86 4146.1855,-122"/>
<text text-anchor="middle" x="4074" y="-99.8" font-family="Times,serif" font-size="14.00" fill="#000000">IonicModule.forRoot()</text>
</g>
<!-- IonicModule.forRoot()&#45;&gt;AppModule -->
<g id="edge10" class="edge">
<title>IonicModule.forRoot()&#45;&gt;AppModule</title>
<path fill="none" stroke="#000000" d="M4074,-122.027C4074,-138.3976 4074,-160 4074,-160 4074,-160 3465.7867,-160 3465.7867,-160"/>
<polygon fill="#000000" stroke="#000000" points="3465.7867,-156.5001 3455.7867,-160 3465.7866,-163.5001 3465.7867,-156.5001"/>
</g>
<!-- AuthModule.forRoot(args) -->
<g id="node12" class="node">
<title>AuthModule.forRoot(args)</title>
<polygon fill="#8dd3c7" stroke="#000000" points="3983.7366,-122 3980.7366,-126 3959.7366,-126 3956.7366,-122 3816.2634,-122 3816.2634,-86 3983.7366,-86 3983.7366,-122"/>
<text text-anchor="middle" x="3900" y="-99.8" font-family="Times,serif" font-size="14.00" fill="#000000">AuthModule.forRoot(args)</text>
</g>
<!-- AuthModule.forRoot(args)&#45;&gt;AppModule -->
<g id="edge11" class="edge">
<title>AuthModule.forRoot(args)&#45;&gt;AppModule</title>
<path fill="none" stroke="#000000" d="M3900,-122.2396C3900,-137.5706 3900,-157 3900,-157 3900,-157 3465.8567,-157 3465.8567,-157"/>
<polygon fill="#000000" stroke="#000000" points="3465.8568,-153.5001 3455.8567,-157 3465.8567,-160.5001 3465.8568,-153.5001"/>
</g>
<!-- AccountModule.forRoot(args) -->
<g id="node13" class="node">
<title>AccountModule.forRoot(args)</title>
<polygon fill="#8dd3c7" stroke="#000000" points="3798.1659,-122 3795.1659,-126 3774.1659,-126 3771.1659,-122 3611.8341,-122 3611.8341,-86 3798.1659,-86 3798.1659,-122"/>
<text text-anchor="middle" x="3705" y="-99.8" font-family="Times,serif" font-size="14.00" fill="#000000">AccountModule.forRoot(args)</text>
</g>
<!-- AccountModule.forRoot(args)&#45;&gt;AppModule -->
<g id="edge12" class="edge">
<title>AccountModule.forRoot(args)&#45;&gt;AppModule</title>
<path fill="none" stroke="#000000" d="M3705,-122.0511C3705,-136.373 3705,-154 3705,-154 3705,-154 3465.6932,-154 3465.6932,-154"/>
<polygon fill="#000000" stroke="#000000" points="3465.6932,-150.5001 3455.6932,-154 3465.6932,-157.5001 3465.6932,-150.5001"/>
</g>
<!-- LangModule.forRoot(args) -->
<g id="node14" class="node">
<title>LangModule.forRoot(args)</title>
<polygon fill="#8dd3c7" stroke="#000000" points="3594.0064,-122 3591.0064,-126 3570.0064,-126 3567.0064,-122 3425.9936,-122 3425.9936,-86 3594.0064,-86 3594.0064,-122"/>
<text text-anchor="middle" x="3510" y="-99.8" font-family="Times,serif" font-size="14.00" fill="#000000">LangModule.forRoot(args)</text>
</g>
<!-- LangModule.forRoot(args)&#45;&gt;AppModule -->
<g id="edge13" class="edge">
<title>LangModule.forRoot(args)&#45;&gt;AppModule</title>
<path fill="none" stroke="#000000" d="M3440.9125,-122.1061C3440.9125,-122.1061 3440.9125,-140.991 3440.9125,-140.991"/>
<polygon fill="#000000" stroke="#000000" points="3437.4126,-140.9909 3440.9125,-150.991 3444.4126,-140.991 3437.4126,-140.9909"/>
</g>
<!-- RouterModule.forRoot(args) -->
<g id="node15" class="node">
<title>RouterModule.forRoot(args)</title>
<polygon fill="#8dd3c7" stroke="#000000" points="3407.8419,-122 3404.8419,-126 3383.8419,-126 3380.8419,-122 3230.1581,-122 3230.1581,-86 3407.8419,-86 3407.8419,-122"/>
<text text-anchor="middle" x="3319" y="-99.8" font-family="Times,serif" font-size="14.00" fill="#000000">RouterModule.forRoot(args)</text>
</g>
<!-- RouterModule.forRoot(args)&#45;&gt;AppModule -->
<g id="edge14" class="edge">
<title>RouterModule.forRoot(args)&#45;&gt;AppModule</title>
<path fill="none" stroke="#000000" d="M3389.9213,-122.1061C3389.9213,-122.1061 3389.9213,-140.991 3389.9213,-140.991"/>
<polygon fill="#000000" stroke="#000000" points="3386.4214,-140.9909 3389.9213,-150.991 3393.4214,-140.991 3386.4214,-140.9909"/>
</g>
<!-- MetaModule.forRoot(args) -->
<g id="node16" class="node">
<title>MetaModule.forRoot(args)</title>
<polygon fill="#8dd3c7" stroke="#000000" points="3212.0036,-122 3209.0036,-126 3188.0036,-126 3185.0036,-122 3043.9964,-122 3043.9964,-86 3212.0036,-86 3212.0036,-122"/>
<text text-anchor="middle" x="3128" y="-99.8" font-family="Times,serif" font-size="14.00" fill="#000000">MetaModule.forRoot(args)</text>
</g>
<!-- MetaModule.forRoot(args)&#45;&gt;AppModule -->
<g id="edge15" class="edge">
<title>MetaModule.forRoot(args)&#45;&gt;AppModule</title>
<path fill="none" stroke="#000000" d="M3128,-122.0511C3128,-136.373 3128,-154 3128,-154 3128,-154 3362.1069,-154 3362.1069,-154"/>
<polygon fill="#000000" stroke="#000000" points="3362.1069,-157.5001 3372.1069,-154 3362.1068,-150.5001 3362.1069,-157.5001"/>
</g>
<!-- AuthModalModule.forRoot(args) -->
<g id="node17" class="node">
<title>AuthModalModule.forRoot(args)</title>
<polygon fill="#8dd3c7" stroke="#000000" points="3025.7863,-122 3022.7863,-126 3001.7863,-126 2998.7863,-122 2822.2137,-122 2822.2137,-86 3025.7863,-86 3025.7863,-122"/>
<text text-anchor="middle" x="2924" y="-99.8" font-family="Times,serif" font-size="14.00" fill="#000000">AuthModalModule.forRoot(args)</text>
</g>
<!-- AuthModalModule.forRoot(args)&#45;&gt;AppModule -->
<g id="edge16" class="edge">
<title>AuthModalModule.forRoot(args)&#45;&gt;AppModule</title>
<path fill="none" stroke="#000000" d="M2924,-122.2396C2924,-137.5706 2924,-157 2924,-157 2924,-157 3362.2229,-157 3362.2229,-157"/>
<polygon fill="#000000" stroke="#000000" points="3362.2229,-160.5001 3372.2229,-157 3362.2228,-153.5001 3362.2229,-160.5001"/>
</g>
<!-- NgxBindIOModule.forRoot() -->
<g id="node18" class="node">
<title>NgxBindIOModule.forRoot()</title>
<polygon fill="#8dd3c7" stroke="#000000" points="2804.0204,-122 2801.0204,-126 2780.0204,-126 2777.0204,-122 2621.9796,-122 2621.9796,-86 2804.0204,-86 2804.0204,-122"/>
<text text-anchor="middle" x="2713" y="-99.8" font-family="Times,serif" font-size="14.00" fill="#000000">NgxBindIOModule.forRoot()</text>
</g>
<!-- NgxBindIOModule.forRoot()&#45;&gt;AppModule -->
<g id="edge17" class="edge">
<title>NgxBindIOModule.forRoot()&#45;&gt;AppModule</title>
<path fill="none" stroke="#000000" d="M2713,-122.027C2713,-138.3976 2713,-160 2713,-160 2713,-160 3362.2486,-160 3362.2486,-160"/>
<polygon fill="#000000" stroke="#000000" points="3362.2486,-163.5001 3372.2486,-160 3362.2485,-156.5001 3362.2486,-163.5001"/>
</g>
<!-- UsersListFiltersModalModule.forRoot() -->
<g id="node19" class="node">
<title>UsersListFiltersModalModule.forRoot()</title>
<polygon fill="#8dd3c7" stroke="#000000" points="2603.8928,-122 2600.8928,-126 2579.8928,-126 2576.8928,-122 2362.1072,-122 2362.1072,-86 2603.8928,-86 2603.8928,-122"/>
<text text-anchor="middle" x="2483" y="-99.8" font-family="Times,serif" font-size="14.00" fill="#000000">UsersListFiltersModalModule.forRoot()</text>
</g>
<!-- UsersListFiltersModalModule.forRoot()&#45;&gt;AppModule -->
<g id="edge18" class="edge">
<title>UsersListFiltersModalModule.forRoot()&#45;&gt;AppModule</title>
<path fill="none" stroke="#000000" d="M2483,-122.0225C2483,-139.3734 2483,-163 2483,-163 2483,-163 3362.1882,-163 3362.1882,-163"/>
<polygon fill="#000000" stroke="#000000" points="3362.1882,-166.5001 3372.1882,-163 3362.1882,-159.5001 3362.1882,-166.5001"/>
</g>
<!-- GroupsListFiltersModalModule.forRoot() -->
<g id="node20" class="node">
<title>GroupsListFiltersModalModule.forRoot()</title>
<polygon fill="#8dd3c7" stroke="#000000" points="2343.7337,-122 2340.7337,-126 2319.7337,-126 2316.7337,-122 2092.2663,-122 2092.2663,-86 2343.7337,-86 2343.7337,-122"/>
<text text-anchor="middle" x="2218" y="-99.8" font-family="Times,serif" font-size="14.00" fill="#000000">GroupsListFiltersModalModule.forRoot()</text>
</g>
<!-- GroupsListFiltersModalModule.forRoot()&#45;&gt;AppModule -->
<g id="edge19" class="edge">
<title>GroupsListFiltersModalModule.forRoot()&#45;&gt;AppModule</title>
<path fill="none" stroke="#000000" d="M2218,-122.302C2218,-140.2699 2218,-165 2218,-165 2218,-165 3362.135,-165 3362.135,-165"/>
<polygon fill="#000000" stroke="#000000" points="3362.135,-168.5001 3372.135,-165 3362.135,-161.5001 3362.135,-168.5001"/>
</g>
<!-- RuckenCoreModule -->
<g id="node21" class="node">
<title>RuckenCoreModule</title>
<polygon fill="#8dd3c7" stroke="#000000" points="2074.5283,-122 2071.5283,-126 2050.5283,-126 2047.5283,-122 1945.4717,-122 1945.4717,-86 2074.5283,-86 2074.5283,-122"/>
<text text-anchor="middle" x="2010" y="-99.8" font-family="Times,serif" font-size="14.00" fill="#000000">RuckenCoreModule</text>
</g>
<!-- RuckenCoreModule&#45;&gt;AppModule -->
<g id="edge20" class="edge">
<title>RuckenCoreModule&#45;&gt;AppModule</title>
<path fill="none" stroke="#000000" d="M2010,-122.1686C2010,-141.0898 2010,-168 2010,-168 2010,-168 3361.9811,-168 3361.9811,-168"/>
<polygon fill="#000000" stroke="#000000" points="3361.9811,-171.5001 3371.9811,-168 3361.981,-164.5001 3361.9811,-171.5001"/>
</g>
<!-- RuckenIonicModule -->
<g id="node22" class="node">
<title>RuckenIonicModule</title>
<polygon fill="#8dd3c7" stroke="#000000" points="1927.5814,-122 1924.5814,-126 1903.5814,-126 1900.5814,-122 1796.4186,-122 1796.4186,-86 1927.5814,-86 1927.5814,-122"/>
<text text-anchor="middle" x="1862" y="-99.8" font-family="Times,serif" font-size="14.00" fill="#000000">RuckenIonicModule</text>
</g>
<!-- RuckenIonicModule&#45;&gt;AppModule -->
<g id="edge21" class="edge">
<title>RuckenIonicModule&#45;&gt;AppModule</title>
<path fill="none" stroke="#000000" d="M1862,-122.308C1862,-142.1455 1862,-171 1862,-171 1862,-171 3362.0862,-171 3362.0862,-171"/>
<polygon fill="#000000" stroke="#000000" points="3362.0862,-174.5001 3372.0862,-171 3362.0862,-167.5001 3362.0862,-174.5001"/>
</g>
<!-- StatusBar -->
<g id="node24" class="node">
<title>StatusBar</title>
<ellipse fill="#fdb462" stroke="#000000" cx="1723" cy="-104" rx="48.6694" ry="18"/>
<text text-anchor="middle" x="1723" y="-99.8" font-family="Times,serif" font-size="14.00" fill="#000000">StatusBar</text>
</g>
<!-- StatusBar&#45;&gt;AppModule -->
<g id="edge23" class="edge">
<title>StatusBar&#45;&gt;AppModule</title>
<path fill="none" stroke="#000000" d="M1723,-122.0267C1723,-142.7672 1723,-174 1723,-174 1723,-174 3362.1998,-174 3362.1998,-174"/>
<polygon fill="#000000" stroke="#000000" points="3362.1998,-177.5001 3372.1998,-174 3362.1997,-170.5001 3362.1998,-177.5001"/>
</g>
<!-- SplashScreen -->
<g id="node25" class="node">
<title>SplashScreen</title>
<ellipse fill="#fdb462" stroke="#000000" cx="1593" cy="-104" rx="63.1189" ry="18"/>
<text text-anchor="middle" x="1593" y="-99.8" font-family="Times,serif" font-size="14.00" fill="#000000">SplashScreen</text>
</g>
<!-- SplashScreen&#45;&gt;AppModule -->
<g id="edge24" class="edge">
<title>SplashScreen&#45;&gt;AppModule</title>
<path fill="none" stroke="#000000" d="M1593,-122.1686C1593,-143.498 1593,-176 1593,-176 1593,-176 3362.1071,-176 3362.1071,-176"/>
<polygon fill="#000000" stroke="#000000" points="3362.1071,-179.5001 3372.1071,-176 3362.1071,-172.5001 3362.1071,-179.5001"/>
</g>
<!-- { provide: RouteReuseStrategy, useClass: IonicRouteStrategy } -->
<g id="node26" class="node">
<title>{ provide: RouteReuseStrategy, useClass: IonicRouteStrategy }</title>
<ellipse fill="#fdb462" stroke="#000000" cx="1255" cy="-104" rx="257.2723" ry="18"/>
<text text-anchor="middle" x="1255" y="-99.8" font-family="Times,serif" font-size="14.00" fill="#000000">{ provide: RouteReuseStrategy, useClass: IonicRouteStrategy }</text>
</g>
<!-- { provide: RouteReuseStrategy, useClass: IonicRouteStrategy }&#45;&gt;AppModule -->
<g id="edge25" class="edge">
<title>{ provide: RouteReuseStrategy, useClass: IonicRouteStrategy }&#45;&gt;AppModule</title>
<path fill="none" stroke="#000000" d="M1255,-122.1554C1255,-144.3519 1255,-179 1255,-179 1255,-179 3362.3214,-179 3362.3214,-179"/>
<polygon fill="#000000" stroke="#000000" points="3362.3214,-182.5001 3372.3214,-179 3362.3214,-175.5001 3362.3214,-182.5001"/>
</g>
<!-- { provide: PERMISSIONS_CONFIG_TOKEN, useValue: &#160;} -->
<g id="node27" class="node">
<title>{ provide: PERMISSIONS_CONFIG_TOKEN, useValue: &#160;}</title>
<ellipse fill="#fdb462" stroke="#000000" cx="733" cy="-104" rx="246.8224" ry="18"/>
<text text-anchor="middle" x="733" y="-99.8" font-family="Times,serif" font-size="14.00" fill="#000000">{ provide: PERMISSIONS_CONFIG_TOKEN, useValue: &#160;}</text>
</g>
<!-- { provide: PERMISSIONS_CONFIG_TOKEN, useValue: &#160;}&#45;&gt;AppModule -->
<g id="edge26" class="edge">
<title>{ provide: PERMISSIONS_CONFIG_TOKEN, useValue: &#160;}&#45;&gt;AppModule</title>
<path fill="none" stroke="#000000" d="M733,-122.0908C733,-145.1328 733,-182 733,-182 733,-182 3362.1573,-182 3362.1573,-182"/>
<polygon fill="#000000" stroke="#000000" points="3362.1574,-185.5001 3372.1573,-182 3362.1573,-178.5001 3362.1574,-185.5001"/>
</g>
<!-- { provide: GROUPS_CONFIG_TOKEN, useValue: &#160;} -->
<g id="node28" class="node">
<title>{ provide: GROUPS_CONFIG_TOKEN, useValue: &#160;}</title>
<ellipse fill="#fdb462" stroke="#000000" cx="246" cy="-104" rx="221.9656" ry="18"/>
<text text-anchor="middle" x="246" y="-99.8" font-family="Times,serif" font-size="14.00" fill="#000000">{ provide: GROUPS_CONFIG_TOKEN, useValue: &#160;}</text>
</g>
<!-- { provide: GROUPS_CONFIG_TOKEN, useValue: &#160;}&#45;&gt;AppModule -->
<g id="edge27" class="edge">
<title>{ provide: GROUPS_CONFIG_TOKEN, useValue: &#160;}&#45;&gt;AppModule</title>
<path fill="none" stroke="#000000" d="M246,-122.3802C246,-146.2785 246,-185 246,-185 246,-185 3362.2009,-185 3362.2009,-185"/>
<polygon fill="#000000" stroke="#000000" points="3362.2009,-188.5001 3372.2009,-185 3362.2009,-181.5001 3362.2009,-188.5001"/>
</g>
</g>
</svg>
