<?xml version="1.0" encoding="UTF-8" standalone="no"?>
<!DOCTYPE svg PUBLIC "-//W3C//DTD SVG 1.1//EN"
 "http://www.w3.org/Graphics/SVG/1.1/DTD/svg11.dtd">
<!-- Generated by graphviz version 2.40.1 (20161225.0304)
 -->
<!-- Title: dependencies Pages: 1 -->
<svg width="9704pt" height="284pt"
 viewBox="0.00 0.00 9704.00 284.00" xmlns="http://www.w3.org/2000/svg" xmlns:xlink="http://www.w3.org/1999/xlink">
<g id="graph0" class="graph" transform="scale(1 1) rotate(0) translate(4 280)">
<title>dependencies</title>
<polygon fill="#ffffff" stroke="transparent" points="-4,4 -4,-280 9700,-280 9700,4 -4,4"/>
<text text-anchor="start" x="4827.0091" y="-42.4" font-family="sans-serif" font-weight="bold" font-size="14.00" fill="#000000">Legend</text>
<polygon fill="#ffffb3" stroke="transparent" points="4614,-10 4614,-30 4634,-30 4634,-10 4614,-10"/>
<text text-anchor="start" x="4637.629" y="-15.4" font-family="sans-serif" font-size="14.00" fill="#000000"> &#160;Declarations</text>
<polygon fill="#8dd3c7" stroke="transparent" points="4727,-10 4727,-30 4747,-30 4747,-10 4727,-10"/>
<text text-anchor="start" x="4750.7251" y="-15.4" font-family="sans-serif" font-size="14.00" fill="#000000"> &#160;Module</text>
<polygon fill="#80b1d3" stroke="transparent" points="4813,-10 4813,-30 4833,-30 4833,-10 4813,-10"/>
<text text-anchor="start" x="4836.7812" y="-15.4" font-family="sans-serif" font-size="14.00" fill="#000000"> &#160;Bootstrap</text>
<polygon fill="#fdb462" stroke="transparent" points="4910,-10 4910,-30 4930,-30 4930,-10 4910,-10"/>
<text text-anchor="start" x="4933.6732" y="-15.4" font-family="sans-serif" font-size="14.00" fill="#000000"> &#160;Providers</text>
<polygon fill="#fb8072" stroke="transparent" points="5006,-10 5006,-30 5026,-30 5026,-10 5006,-10"/>
<text text-anchor="start" x="5029.7258" y="-15.4" font-family="sans-serif" font-size="14.00" fill="#000000"> &#160;Exports</text>
<g id="clust1" class="cluster">
<title>cluster_AppModule</title>
<polygon fill="none" stroke="#000000" stroke-dasharray="1,5" points="8,-70 8,-268 9688,-268 9688,-70 8,-70"/>
</g>
<g id="clust2" class="cluster">
<title>cluster_AppModule_declarations</title>
<polygon fill="none" stroke="#000000" points="9558,-78 9558,-130 9680,-130 9680,-78 9558,-78"/>
</g>
<g id="clust4" class="cluster">
<title>cluster_AppModule_imports</title>
<polygon fill="none" stroke="#000000" points="5566,-78 5566,-130 9550,-130 9550,-78 5566,-78"/>
</g>
<g id="clust6" class="cluster">
<title>cluster_AppModule_bootstrap</title>
<polygon fill="none" stroke="#000000" points="6386,-208 6386,-260 6510,-260 6510,-208 6386,-208"/>
</g>
<g id="clust7" class="cluster">
<title>cluster_AppModule_providers</title>
<polygon fill="none" stroke="#000000" points="16,-78 16,-130 5558,-130 5558,-78 16,-78"/>
</g>
<!-- AppComponent -->
<g id="node1" class="node">
<title>AppComponent</title>
<polygon fill="#ffffb3" stroke="#000000" points="9671.9399,-122 9566.0601,-122 9566.0601,-86 9671.9399,-86 9671.9399,-122"/>
<text text-anchor="middle" x="9619" y="-99.8" font-family="Times,serif" font-size="14.00" fill="#000000">AppComponent</text>
</g>
<!-- AppModule -->
<g id="node2" class="node">
<title>AppModule</title>
<polygon fill="#8dd3c7" stroke="#000000" points="6489.6571,-187 6486.6571,-191 6465.6571,-191 6462.6571,-187 6406.3429,-187 6406.3429,-151 6489.6571,-151 6489.6571,-187"/>
<text text-anchor="middle" x="6448" y="-164.8" font-family="Times,serif" font-size="14.00" fill="#000000">AppModule</text>
</g>
<!-- AppComponent&#45;&gt;AppModule -->
<g id="edge1" class="edge">
<title>AppComponent&#45;&gt;AppModule</title>
<path fill="none" stroke="#000000" d="M9619,-122.3802C9619,-146.2785 9619,-185 9619,-185 9619,-185 6499.8387,-185 6499.8387,-185"/>
<polygon fill="#000000" stroke="#000000" points="6499.8387,-181.5001 6489.8387,-185 6499.8387,-188.5001 6499.8387,-181.5001"/>
</g>
<!-- AppComponent  -->
<g id="node24" class="node">
<title>AppComponent </title>
<polygon fill="#80b1d3" stroke="#000000" points="6502.439,-252 6393.561,-252 6393.561,-216 6502.439,-216 6502.439,-252"/>
<text text-anchor="middle" x="6448" y="-229.8" font-family="Times,serif" font-size="14.00" fill="#000000">AppComponent </text>
</g>
<!-- AppModule&#45;&gt;AppComponent  -->
<g id="edge23" class="edge">
<title>AppModule&#45;&gt;AppComponent </title>
<path fill="none" stroke="#000000" stroke-dasharray="1,5" d="M6448,-187.1061C6448,-187.1061 6448,-205.991 6448,-205.991"/>
<polygon fill="#000000" stroke="#000000" points="6444.5001,-205.9909 6448,-215.991 6451.5001,-205.991 6444.5001,-205.9909"/>
</g>
<!-- CommonModule -->
<g id="node3" class="node">
<title>CommonModule</title>
<polygon fill="#8dd3c7" stroke="#000000" points="9541.6681,-122 9538.6681,-126 9517.6681,-126 9514.6681,-122 9430.3319,-122 9430.3319,-86 9541.6681,-86 9541.6681,-122"/>
<text text-anchor="middle" x="9486" y="-99.8" font-family="Times,serif" font-size="14.00" fill="#000000">CommonModule</text>
</g>
<!-- CommonModule&#45;&gt;AppModule -->
<g id="edge2" class="edge">
<title>CommonModule&#45;&gt;AppModule</title>
<path fill="none" stroke="#000000" d="M9486,-122.3228C9486,-145.6602 9486,-183 9486,-183 9486,-183 6499.79,-183 6499.79,-183"/>
<polygon fill="#000000" stroke="#000000" points="6499.79,-179.5001 6489.79,-183 6499.79,-186.5001 6499.79,-179.5001"/>
</g>
<!-- PipesModule -->
<g id="node4" class="node">
<title>PipesModule</title>
<polygon fill="#8dd3c7" stroke="#000000" points="9411.8823,-122 9408.8823,-126 9387.8823,-126 9384.8823,-122 9322.1177,-122 9322.1177,-86 9411.8823,-86 9411.8823,-122"/>
<text text-anchor="middle" x="9367" y="-99.8" font-family="Times,serif" font-size="14.00" fill="#000000">PipesModule</text>
</g>
<!-- PipesModule&#45;&gt;AppModule -->
<g id="edge3" class="edge">
<title>PipesModule&#45;&gt;AppModule</title>
<path fill="none" stroke="#000000" d="M9367,-122.2479C9367,-145.0179 9367,-181 9367,-181 9367,-181 6499.8247,-181 6499.8247,-181"/>
<polygon fill="#000000" stroke="#000000" points="6499.8247,-177.5001 6489.8247,-181 6499.8247,-184.5001 6499.8247,-177.5001"/>
</g>
<!-- HttpClientModule -->
<g id="node5" class="node">
<title>HttpClientModule</title>
<polygon fill="#8dd3c7" stroke="#000000" points="9304.1611,-122 9301.1611,-126 9280.1611,-126 9277.1611,-122 9185.8389,-122 9185.8389,-86 9304.1611,-86 9304.1611,-122"/>
<text text-anchor="middle" x="9245" y="-99.8" font-family="Times,serif" font-size="14.00" fill="#000000">HttpClientModule</text>
</g>
<!-- HttpClientModule&#45;&gt;AppModule -->
<g id="edge4" class="edge">
<title>HttpClientModule&#45;&gt;AppModule</title>
<path fill="none" stroke="#000000" d="M9245,-122.1554C9245,-144.3519 9245,-179 9245,-179 9245,-179 6499.7093,-179 6499.7093,-179"/>
<polygon fill="#000000" stroke="#000000" points="6499.7094,-175.5001 6489.7093,-179 6499.7093,-182.5001 6499.7094,-175.5001"/>
</g>
<!-- NgxRepositoryModule -->
<g id="node6" class="node">
<title>NgxRepositoryModule</title>
<polygon fill="#8dd3c7" stroke="#000000" points="9167.594,-122 9164.594,-126 9143.594,-126 9140.594,-122 9022.406,-122 9022.406,-86 9167.594,-86 9167.594,-122"/>
<text text-anchor="middle" x="9095" y="-99.8" font-family="Times,serif" font-size="14.00" fill="#000000">NgxRepositoryModule</text>
</g>
<!-- NgxRepositoryModule&#45;&gt;AppModule -->
<g id="edge5" class="edge">
<title>NgxRepositoryModule&#45;&gt;AppModule</title>
<path fill="none" stroke="#000000" d="M9095,-122.0449C9095,-143.6623 9095,-177 9095,-177 9095,-177 6499.8449,-177 6499.8449,-177"/>
<polygon fill="#000000" stroke="#000000" points="6499.8449,-173.5001 6489.8449,-177 6499.8448,-180.5001 6499.8449,-173.5001"/>
</g>
<!-- IonicStorageModule.forRoot() -->
<g id="node7" class="node">
<title>IonicStorageModule.forRoot()</title>
<polygon fill="#8dd3c7" stroke="#000000" points="9004.9487,-122 9001.9487,-126 8980.9487,-126 8977.9487,-122 8817.0513,-122 8817.0513,-86 9004.9487,-86 9004.9487,-122"/>
<text text-anchor="middle" x="8911" y="-99.8" font-family="Times,serif" font-size="14.00" fill="#000000">IonicStorageModule.forRoot()</text>
</g>
<!-- IonicStorageModule.forRoot()&#45;&gt;AppModule -->
<g id="edge6" class="edge">
<title>IonicStorageModule.forRoot()&#45;&gt;AppModule</title>
<path fill="none" stroke="#000000" d="M8911,-122.2843C8911,-143.3211 8911,-175 8911,-175 8911,-175 6499.7165,-175 6499.7165,-175"/>
<polygon fill="#000000" stroke="#000000" points="6499.7166,-171.5001 6489.7165,-175 6499.7165,-178.5001 6499.7166,-171.5001"/>
</g>
<!-- TranslateModule.forRoot() -->
<g id="node8" class="node">
<title>TranslateModule.forRoot()</title>
<polygon fill="#8dd3c7" stroke="#000000" points="8799.0022,-122 8796.0022,-126 8775.0022,-126 8772.0022,-122 8630.9978,-122 8630.9978,-86 8799.0022,-86 8799.0022,-122"/>
<text text-anchor="middle" x="8715" y="-99.8" font-family="Times,serif" font-size="14.00" fill="#000000">TranslateModule.forRoot()</text>
</g>
<!-- TranslateModule.forRoot()&#45;&gt;AppModule -->
<g id="edge7" class="edge">
<title>TranslateModule.forRoot()&#45;&gt;AppModule</title>
<path fill="none" stroke="#000000" d="M8715,-122.1289C8715,-142.5724 8715,-173 8715,-173 8715,-173 6499.7739,-173 6499.7739,-173"/>
<polygon fill="#000000" stroke="#000000" points="6499.7739,-169.5001 6489.7739,-173 6499.7738,-176.5001 6499.7739,-169.5001"/>
</g>
<!-- BrowserModule.withServerTransition(args) -->
<g id="node9" class="node">
<title>BrowserModule.withServerTransition(args)</title>
<polygon fill="#8dd3c7" stroke="#000000" points="8613.0794,-122 8610.0794,-126 8589.0794,-126 8586.0794,-122 8350.9206,-122 8350.9206,-86 8613.0794,-86 8613.0794,-122"/>
<text text-anchor="middle" x="8482" y="-99.8" font-family="Times,serif" font-size="14.00" fill="#000000">BrowserModule.withServerTransition(args)</text>
</g>
<!-- BrowserModule.withServerTransition(args)&#45;&gt;AppModule -->
<g id="edge8" class="edge">
<title>BrowserModule.withServerTransition(args)&#45;&gt;AppModule</title>
<path fill="none" stroke="#000000" d="M8482,-122.308C8482,-142.1455 8482,-171 8482,-171 8482,-171 6500.0161,-171 6500.0161,-171"/>
<polygon fill="#000000" stroke="#000000" points="6500.0161,-167.5001 6490.0161,-171 6500.0161,-174.5001 6500.0161,-167.5001"/>
</g>
<!-- TransferHttpCacheModule.forRoot() -->
<g id="node10" class="node">
<title>TransferHttpCacheModule.forRoot()</title>
<polygon fill="#8dd3c7" stroke="#000000" points="8332.6959,-122 8329.6959,-126 8308.6959,-126 8305.6959,-122 8109.3041,-122 8109.3041,-86 8332.6959,-86 8332.6959,-122"/>
<text text-anchor="middle" x="8221" y="-99.8" font-family="Times,serif" font-size="14.00" fill="#000000">TransferHttpCacheModule.forRoot()</text>
</g>
<!-- TransferHttpCacheModule.forRoot()&#45;&gt;AppModule -->
<g id="edge9" class="edge">
<title>TransferHttpCacheModule.forRoot()&#45;&gt;AppModule</title>
<path fill="none" stroke="#000000" d="M8221,-122.1061C8221,-141.3391 8221,-169 8221,-169 8221,-169 6500.0785,-169 6500.0785,-169"/>
<polygon fill="#000000" stroke="#000000" points="6500.0785,-165.5001 6490.0785,-169 6500.0784,-172.5001 6500.0785,-165.5001"/>
</g>
<!-- NgxPermissionsModule.forRoot() -->
<g id="node11" class="node">
<title>NgxPermissionsModule.forRoot()</title>
<polygon fill="#8dd3c7" stroke="#000000" points="8091.6896,-122 8088.6896,-126 8067.6896,-126 8064.6896,-122 7884.3104,-122 7884.3104,-86 8091.6896,-86 8091.6896,-122"/>
<text text-anchor="middle" x="7988" y="-99.8" font-family="Times,serif" font-size="14.00" fill="#000000">NgxPermissionsModule.forRoot()</text>
</g>
<!-- NgxPermissionsModule.forRoot()&#45;&gt;AppModule -->
<g id="edge10" class="edge">
<title>NgxPermissionsModule.forRoot()&#45;&gt;AppModule</title>
<path fill="none" stroke="#000000" d="M7988,-122.2222C7988,-140.8285 7988,-167 7988,-167 7988,-167 6499.99,-167 6499.99,-167"/>
<polygon fill="#000000" stroke="#000000" points="6499.99,-163.5001 6489.99,-167 6499.9899,-170.5001 6499.99,-163.5001"/>
</g>
<!-- IonicModule.forRoot() -->
<g id="node12" class="node">
<title>IonicModule.forRoot()</title>
<polygon fill="#8dd3c7" stroke="#000000" points="7866.1855,-122 7863.1855,-126 7842.1855,-126 7839.1855,-122 7721.8145,-122 7721.8145,-86 7866.1855,-86 7866.1855,-122"/>
<text text-anchor="middle" x="7794" y="-99.8" font-family="Times,serif" font-size="14.00" fill="#000000">IonicModule.forRoot()</text>
</g>
<!-- IonicModule.forRoot()&#45;&gt;AppModule -->
<g id="edge11" class="edge">
<title>IonicModule.forRoot()&#45;&gt;AppModule</title>
<path fill="none" stroke="#000000" d="M7794,-122.302C7794,-140.2699 7794,-165 7794,-165 7794,-165 6499.7591,-165 6499.7591,-165"/>
<polygon fill="#000000" stroke="#000000" points="6499.7591,-161.5001 6489.7591,-165 6499.759,-168.5001 6499.7591,-161.5001"/>
</g>
<!-- AuthModule.forRoot(args) -->
<g id="node13" class="node">
<title>AuthModule.forRoot(args)</title>
<polygon fill="#8dd3c7" stroke="#000000" points="7703.7366,-122 7700.7366,-126 7679.7366,-126 7676.7366,-122 7536.2634,-122 7536.2634,-86 7703.7366,-86 7703.7366,-122"/>
<text text-anchor="middle" x="7620" y="-99.8" font-family="Times,serif" font-size="14.00" fill="#000000">AuthModule.forRoot(args)</text>
</g>
<!-- AuthModule.forRoot(args)&#45;&gt;AppModule -->
<g id="edge12" class="edge">
<title>AuthModule.forRoot(args)&#45;&gt;AppModule</title>
<path fill="none" stroke="#000000" d="M7620,-122.0225C7620,-139.3734 7620,-163 7620,-163 7620,-163 6499.7121,-163 6499.7121,-163"/>
<polygon fill="#000000" stroke="#000000" points="6499.7121,-159.5001 6489.7121,-163 6499.7121,-166.5001 6499.7121,-159.5001"/>
</g>
<!-- AccountModule.forRoot(args) -->
<g id="node14" class="node">
<title>AccountModule.forRoot(args)</title>
<polygon fill="#8dd3c7" stroke="#000000" points="7518.1659,-122 7515.1659,-126 7494.1659,-126 7491.1659,-122 7331.8341,-122 7331.8341,-86 7518.1659,-86 7518.1659,-122"/>
<text text-anchor="middle" x="7425" y="-99.8" font-family="Times,serif" font-size="14.00" fill="#000000">AccountModule.forRoot(args)</text>
</g>
<!-- AccountModule.forRoot(args)&#45;&gt;AppModule -->
<g id="edge13" class="edge">
<title>AccountModule.forRoot(args)&#45;&gt;AppModule</title>
<path fill="none" stroke="#000000" d="M7425,-122.0352C7425,-138.7344 7425,-161 7425,-161 7425,-161 6499.6679,-161 6499.6679,-161"/>
<polygon fill="#000000" stroke="#000000" points="6499.668,-157.5001 6489.6679,-161 6499.6679,-164.5001 6499.668,-157.5001"/>
</g>
<!-- LangModule.forRoot(args) -->
<g id="node15" class="node">
<title>LangModule.forRoot(args)</title>
<polygon fill="#8dd3c7" stroke="#000000" points="7314.0064,-122 7311.0064,-126 7290.0064,-126 7287.0064,-122 7145.9936,-122 7145.9936,-86 7314.0064,-86 7314.0064,-122"/>
<text text-anchor="middle" x="7230" y="-99.8" font-family="Times,serif" font-size="14.00" fill="#000000">LangModule.forRoot(args)</text>
</g>
<!-- LangModule.forRoot(args)&#45;&gt;AppModule -->
<g id="edge14" class="edge">
<title>LangModule.forRoot(args)&#45;&gt;AppModule</title>
<path fill="none" stroke="#000000" d="M7230,-122.0091C7230,-138.0494 7230,-159 7230,-159 7230,-159 6499.7673,-159 6499.7673,-159"/>
<polygon fill="#000000" stroke="#000000" points="6499.7673,-155.5001 6489.7673,-159 6499.7672,-162.5001 6499.7673,-155.5001"/>
</g>
<!-- RouterModule.forRoot(args) -->
<g id="node16" class="node">
<title>RouterModule.forRoot(args)</title>
<polygon fill="#8dd3c7" stroke="#000000" points="7127.8419,-122 7124.8419,-126 7103.8419,-126 7100.8419,-122 6950.1581,-122 6950.1581,-86 7127.8419,-86 7127.8419,-122"/>
<text text-anchor="middle" x="7039" y="-99.8" font-family="Times,serif" font-size="14.00" fill="#000000">RouterModule.forRoot(args)</text>
</g>
<!-- RouterModule.forRoot(args)&#45;&gt;AppModule -->
<g id="edge15" class="edge">
<title>RouterModule.forRoot(args)&#45;&gt;AppModule</title>
<path fill="none" stroke="#000000" d="M7039,-122.2396C7039,-137.5706 7039,-157 7039,-157 7039,-157 6500.0295,-157 6500.0295,-157"/>
<polygon fill="#000000" stroke="#000000" points="6500.0295,-153.5001 6490.0295,-157 6500.0294,-160.5001 6500.0295,-153.5001"/>
</g>
<!-- MetaModule.forRoot(args) -->
<g id="node17" class="node">
<title>MetaModule.forRoot(args)</title>
<polygon fill="#8dd3c7" stroke="#000000" points="6932.0036,-122 6929.0036,-126 6908.0036,-126 6905.0036,-122 6763.9964,-122 6763.9964,-86 6932.0036,-86 6932.0036,-122"/>
<text text-anchor="middle" x="6848" y="-99.8" font-family="Times,serif" font-size="14.00" fill="#000000">MetaModule.forRoot(args)</text>
</g>
<!-- MetaModule.forRoot(args)&#45;&gt;AppModule -->
<g id="edge16" class="edge">
<title>MetaModule.forRoot(args)&#45;&gt;AppModule</title>
<path fill="none" stroke="#000000" d="M6848,-122.1243C6848,-136.7832 6848,-155 6848,-155 6848,-155 6499.675,-155 6499.675,-155"/>
<polygon fill="#000000" stroke="#000000" points="6499.6751,-151.5001 6489.675,-155 6499.675,-158.5001 6499.6751,-151.5001"/>
</g>
<!-- AuthModalModule.forRoot(args) -->
<g id="node18" class="node">
<title>AuthModalModule.forRoot(args)</title>
<polygon fill="#8dd3c7" stroke="#000000" points="6745.7863,-122 6742.7863,-126 6721.7863,-126 6718.7863,-122 6542.2137,-122 6542.2137,-86 6745.7863,-86 6745.7863,-122"/>
<text text-anchor="middle" x="6644" y="-99.8" font-family="Times,serif" font-size="14.00" fill="#000000">AuthModalModule.forRoot(args)</text>
</g>
<!-- AuthModalModule.forRoot(args)&#45;&gt;AppModule -->
<g id="edge17" class="edge">
<title>AuthModalModule.forRoot(args)&#45;&gt;AppModule</title>
<path fill="none" stroke="#000000" d="M6644,-122.2458C6644,-136.1772 6644,-153 6644,-153 6644,-153 6500.0469,-153 6500.0469,-153"/>
<polygon fill="#000000" stroke="#000000" points="6500.047,-149.5001 6490.0469,-153 6500.0469,-156.5001 6500.047,-149.5001"/>
</g>
<!-- IonicAuthModalModule -->
<g id="node19" class="node">
<title>IonicAuthModalModule</title>
<polygon fill="#8dd3c7" stroke="#000000" points="6524.3627,-122 6521.3627,-126 6500.3627,-126 6497.3627,-122 6371.6373,-122 6371.6373,-86 6524.3627,-86 6524.3627,-122"/>
<text text-anchor="middle" x="6448" y="-99.8" font-family="Times,serif" font-size="14.00" fill="#000000">IonicAuthModalModule</text>
</g>
<!-- IonicAuthModalModule&#45;&gt;AppModule -->
<g id="edge18" class="edge">
<title>IonicAuthModalModule&#45;&gt;AppModule</title>
<path fill="none" stroke="#000000" d="M6448,-122.1061C6448,-122.1061 6448,-140.991 6448,-140.991"/>
<polygon fill="#000000" stroke="#000000" points="6444.5001,-140.9909 6448,-150.991 6451.5001,-140.991 6444.5001,-140.9909"/>
</g>
<!-- NavbarModule -->
<g id="node20" class="node">
<title>NavbarModule</title>
<polygon fill="#8dd3c7" stroke="#000000" points="6353.2465,-122 6350.2465,-126 6329.2465,-126 6326.2465,-122 6252.7535,-122 6252.7535,-86 6353.2465,-86 6353.2465,-122"/>
<text text-anchor="middle" x="6303" y="-99.8" font-family="Times,serif" font-size="14.00" fill="#000000">NavbarModule</text>
</g>
<!-- NavbarModule&#45;&gt;AppModule -->
<g id="edge19" class="edge">
<title>NavbarModule&#45;&gt;AppModule</title>
<path fill="none" stroke="#000000" d="M6303,-122.2458C6303,-136.1772 6303,-153 6303,-153 6303,-153 6396.06,-153 6396.06,-153"/>
<polygon fill="#000000" stroke="#000000" points="6396.06,-156.5001 6406.06,-153 6396.06,-149.5001 6396.06,-156.5001"/>
</g>
<!-- IonicModalsModule -->
<g id="node21" class="node">
<title>IonicModalsModule</title>
<polygon fill="#8dd3c7" stroke="#000000" points="6234.3104,-122 6231.3104,-126 6210.3104,-126 6207.3104,-122 6103.6896,-122 6103.6896,-86 6234.3104,-86 6234.3104,-122"/>
<text text-anchor="middle" x="6169" y="-99.8" font-family="Times,serif" font-size="14.00" fill="#000000">IonicModalsModule</text>
</g>
<!-- IonicModalsModule&#45;&gt;AppModule -->
<g id="edge20" class="edge">
<title>IonicModalsModule&#45;&gt;AppModule</title>
<path fill="none" stroke="#000000" d="M6169,-122.1243C6169,-136.7832 6169,-155 6169,-155 6169,-155 6396.2309,-155 6396.2309,-155"/>
<polygon fill="#000000" stroke="#000000" points="6396.2309,-158.5001 6406.2309,-155 6396.2308,-151.5001 6396.2309,-158.5001"/>
</g>
<!-- UsersListFiltersModalModule.forRoot() -->
<g id="node22" class="node">
<title>UsersListFiltersModalModule.forRoot()</title>
<polygon fill="#8dd3c7" stroke="#000000" points="6085.8928,-122 6082.8928,-126 6061.8928,-126 6058.8928,-122 5844.1072,-122 5844.1072,-86 6085.8928,-86 6085.8928,-122"/>
<text text-anchor="middle" x="5965" y="-99.8" font-family="Times,serif" font-size="14.00" fill="#000000">UsersListFiltersModalModule.forRoot()</text>
</g>
<!-- UsersListFiltersModalModule.forRoot()&#45;&gt;AppModule -->
<g id="edge21" class="edge">
<title>UsersListFiltersModalModule.forRoot()&#45;&gt;AppModule</title>
<path fill="none" stroke="#000000" d="M5965,-122.2396C5965,-137.5706 5965,-157 5965,-157 5965,-157 6395.9819,-157 6395.9819,-157"/>
<polygon fill="#000000" stroke="#000000" points="6395.9819,-160.5001 6405.9819,-157 6395.9818,-153.5001 6395.9819,-160.5001"/>
</g>
<!-- GroupsListFiltersModalModule.forRoot() -->
<g id="node23" class="node">
<title>GroupsListFiltersModalModule.forRoot()</title>
<polygon fill="#8dd3c7" stroke="#000000" points="5825.7337,-122 5822.7337,-126 5801.7337,-126 5798.7337,-122 5574.2663,-122 5574.2663,-86 5825.7337,-86 5825.7337,-122"/>
<text text-anchor="middle" x="5700" y="-99.8" font-family="Times,serif" font-size="14.00" fill="#000000">GroupsListFiltersModalModule.forRoot()</text>
</g>
<!-- GroupsListFiltersModalModule.forRoot()&#45;&gt;AppModule -->
<g id="edge22" class="edge">
<title>GroupsListFiltersModalModule.forRoot()&#45;&gt;AppModule</title>
<path fill="none" stroke="#000000" d="M5700,-122.0091C5700,-138.0494 5700,-159 5700,-159 5700,-159 6396.1815,-159 6396.1815,-159"/>
<polygon fill="#000000" stroke="#000000" points="6396.1815,-162.5001 6406.1815,-159 6396.1814,-155.5001 6396.1815,-162.5001"/>
</g>
<!-- { provide: CONTENT_TYPES_CONFIG_TOKEN, useValue: &#160;} -->
<g id="node25" class="node">
<title>{ provide: CONTENT_TYPES_CONFIG_TOKEN, useValue: &#160;}</title>
<ellipse fill="#fdb462" stroke="#000000" cx="5287" cy="-104" rx="263.0597" ry="18"/>
<text text-anchor="middle" x="5287" y="-99.8" font-family="Times,serif" font-size="14.00" fill="#000000">{ provide: CONTENT_TYPES_CONFIG_TOKEN, useValue: &#160;}</text>
</g>
<!-- { provide: CONTENT_TYPES_CONFIG_TOKEN, useValue: &#160;}&#45;&gt;AppModule -->
<g id="edge24" class="edge">
<title>{ provide: CONTENT_TYPES_CONFIG_TOKEN, useValue: &#160;}&#45;&gt;AppModule</title>
<path fill="none" stroke="#000000" d="M5287,-122.0352C5287,-138.7344 5287,-161 5287,-161 5287,-161 6396.3371,-161 6396.3371,-161"/>
<polygon fill="#000000" stroke="#000000" points="6396.3371,-164.5001 6406.3371,-161 6396.3371,-157.5001 6396.3371,-164.5001"/>
</g>
<!-- { provide: PERMISSIONS_CONFIG_TOKEN, useValue: &#160;} -->
<g id="node26" class="node">
<title>{ provide: PERMISSIONS_CONFIG_TOKEN, useValue: &#160;}</title>
<ellipse fill="#fdb462" stroke="#000000" cx="4759" cy="-104" rx="246.8224" ry="18"/>
<text text-anchor="middle" x="4759" y="-99.8" font-family="Times,serif" font-size="14.00" fill="#000000">{ provide: PERMISSIONS_CONFIG_TOKEN, useValue: &#160;}</text>
</g>
<!-- { provide: PERMISSIONS_CONFIG_TOKEN, useValue: &#160;}&#45;&gt;AppModule -->
<g id="edge25" class="edge">
<title>{ provide: PERMISSIONS_CONFIG_TOKEN, useValue: &#160;}&#45;&gt;AppModule</title>
<path fill="none" stroke="#000000" d="M4759,-122.0225C4759,-139.3734 4759,-163 4759,-163 4759,-163 6396.2492,-163 6396.2492,-163"/>
<polygon fill="#000000" stroke="#000000" points="6396.2492,-166.5001 6406.2492,-163 6396.2492,-159.5001 6396.2492,-166.5001"/>
</g>
<!-- { provide: USERS_CONFIG_TOKEN, useValue: &#160;} -->
<g id="node27" class="node">
<title>{ provide: USERS_CONFIG_TOKEN, useValue: &#160;}</title>
<ellipse fill="#fdb462" stroke="#000000" cx="4280" cy="-104" rx="213.8791" ry="18"/>
<text text-anchor="middle" x="4280" y="-99.8" font-family="Times,serif" font-size="14.00" fill="#000000">{ provide: USERS_CONFIG_TOKEN, useValue: &#160;}</text>
</g>
<!-- { provide: USERS_CONFIG_TOKEN, useValue: &#160;}&#45;&gt;AppModule -->
<g id="edge26" class="edge">
<title>{ provide: USERS_CONFIG_TOKEN, useValue: &#160;}&#45;&gt;AppModule</title>
<path fill="none" stroke="#000000" d="M4280,-122.302C4280,-140.2699 4280,-165 4280,-165 4280,-165 6396.1476,-165 6396.1476,-165"/>
<polygon fill="#000000" stroke="#000000" points="6396.1477,-168.5001 6406.1476,-165 6396.1476,-161.5001 6396.1477,-168.5001"/>
</g>
<!-- { provide: GROUPS_CONFIG_TOKEN, useValue: &#160;} -->
<g id="node28" class="node">
<title>{ provide: GROUPS_CONFIG_TOKEN, useValue: &#160;}</title>
<ellipse fill="#fdb462" stroke="#000000" cx="3826" cy="-104" rx="221.9656" ry="18"/>
<text text-anchor="middle" x="3826" y="-99.8" font-family="Times,serif" font-size="14.00" fill="#000000">{ provide: GROUPS_CONFIG_TOKEN, useValue: &#160;}</text>
</g>
<!-- { provide: GROUPS_CONFIG_TOKEN, useValue: &#160;}&#45;&gt;AppModule -->
<g id="edge27" class="edge">
<title>{ provide: GROUPS_CONFIG_TOKEN, useValue: &#160;}&#45;&gt;AppModule</title>
<path fill="none" stroke="#000000" d="M3826,-122.2222C3826,-140.8285 3826,-167 3826,-167 3826,-167 6396.2852,-167 6396.2852,-167"/>
<polygon fill="#000000" stroke="#000000" points="6396.2853,-170.5001 6406.2852,-167 6396.2852,-163.5001 6396.2853,-170.5001"/>
</g>
<!-- { provide: STORAGE_CONFIG_TOKEN, useClass: BrowserStorage } -->
<g id="node29" class="node">
<title>{ provide: STORAGE_CONFIG_TOKEN, useClass: BrowserStorage }</title>
<ellipse fill="#fdb462" stroke="#000000" cx="3298" cy="-104" rx="288.4746" ry="18"/>
<text text-anchor="middle" x="3298" y="-99.8" font-family="Times,serif" font-size="14.00" fill="#000000">{ provide: STORAGE_CONFIG_TOKEN, useClass: BrowserStorage }</text>
</g>
<!-- { provide: STORAGE_CONFIG_TOKEN, useClass: BrowserStorage }&#45;&gt;AppModule -->
<g id="edge28" class="edge">
<title>{ provide: STORAGE_CONFIG_TOKEN, useClass: BrowserStorage }&#45;&gt;AppModule</title>
<path fill="none" stroke="#000000" d="M3298,-122.1061C3298,-141.3391 3298,-169 3298,-169 3298,-169 6396.146,-169 6396.146,-169"/>
<polygon fill="#000000" stroke="#000000" points="6396.146,-172.5001 6406.146,-169 6396.1459,-165.5001 6396.146,-172.5001"/>
</g>
<!-- { provide: &#39;ORIGIN_URL&#39;, useValue: &#160;} -->
<g id="node30" class="node">
<title>{ provide: &#39;ORIGIN_URL&#39;, useValue: &#160;}</title>
<ellipse fill="#fdb462" stroke="#000000" cx="2822" cy="-104" rx="169.8754" ry="18"/>
<text text-anchor="middle" x="2822" y="-99.8" font-family="Times,serif" font-size="14.00" fill="#000000">{ provide: &#39;ORIGIN_URL&#39;, useValue: &#160;}</text>
</g>
<!-- { provide: &#39;ORIGIN_URL&#39;, useValue: &#160;}&#45;&gt;AppModule -->
<g id="edge29" class="edge">
<title>{ provide: &#39;ORIGIN_URL&#39;, useValue: &#160;}&#45;&gt;AppModule</title>
<path fill="none" stroke="#000000" d="M2822,-122.308C2822,-142.1455 2822,-171 2822,-171 2822,-171 6396.3396,-171 6396.3396,-171"/>
<polygon fill="#000000" stroke="#000000" points="6396.3396,-174.5001 6406.3396,-171 6396.3395,-167.5001 6396.3396,-174.5001"/>
</g>
<!-- { provide: APP_INITIALIZER, useFactory: initializeApp, multi: , deps: [TokenService, LangService, UsersListFiltersModalService, GroupsListFiltersModalService] } -->
<g id="node31" class="node">
<title>{ provide: APP_INITIALIZER, useFactory: initializeApp, multi: , deps: [TokenService, LangService, UsersListFiltersModalService, GroupsListFiltersModalService] }</title>
<ellipse fill="#fdb462" stroke="#000000" cx="1973" cy="-104" rx="661.4927" ry="18"/>
<text text-anchor="middle" x="1973" y="-99.8" font-family="Times,serif" font-size="14.00" fill="#000000">{ provide: APP_INITIALIZER, useFactory: initializeApp, multi: , deps: [TokenService, LangService, UsersListFiltersModalService, GroupsListFiltersModalService] }</text>
</g>
<!-- { provide: APP_INITIALIZER, useFactory: initializeApp, multi: , deps: [TokenService, LangService, UsersListFiltersModalService, GroupsListFiltersModalService] }&#45;&gt;AppModule -->
<g id="edge30" class="edge">
<title>{ provide: APP_INITIALIZER, useFactory: initializeApp, multi: , deps: [TokenService, LangService, UsersListFiltersModalService, GroupsListFiltersModalService] }&#45;&gt;AppModule</title>
<path fill="none" stroke="#000000" d="M2634.6811,-104C2640.1991,-104 2643.1543,-104 2643.1543,-104 2643.1543,-104 2643.1543,-173 2643.1543,-173 2643.1543,-173 6396.2442,-173 6396.2442,-173"/>
<polygon fill="#000000" stroke="#000000" points="6396.2442,-176.5001 6406.2442,-173 6396.2441,-169.5001 6396.2442,-176.5001"/>
</g>
<!-- StatusBar -->
<g id="node32" class="node">
<title>StatusBar</title>
<ellipse fill="#fdb462" stroke="#000000" cx="1245" cy="-104" rx="48.6694" ry="18"/>
<text text-anchor="middle" x="1245" y="-99.8" font-family="Times,serif" font-size="14.00" fill="#000000">StatusBar</text>
</g>
<!-- StatusBar&#45;&gt;AppModule -->
<g id="edge31" class="edge">
<title>StatusBar&#45;&gt;AppModule</title>
<path fill="none" stroke="#000000" d="M1245,-122.2843C1245,-143.3211 1245,-175 1245,-175 1245,-175 6396.1187,-175 6396.1187,-175"/>
<polygon fill="#000000" stroke="#000000" points="6396.1188,-178.5001 6406.1187,-175 6396.1187,-171.5001 6396.1188,-178.5001"/>
</g>
<!-- SplashScreen -->
<g id="node33" class="node">
<title>SplashScreen</title>
<ellipse fill="#fdb462" stroke="#000000" cx="1115" cy="-104" rx="63.1189" ry="18"/>
<text text-anchor="middle" x="1115" y="-99.8" font-family="Times,serif" font-size="14.00" fill="#000000">SplashScreen</text>
</g>
<!-- SplashScreen&#45;&gt;AppModule -->
<g id="edge32" class="edge">
<title>SplashScreen&#45;&gt;AppModule</title>
<path fill="none" stroke="#000000" d="M1115,-122.0449C1115,-143.6623 1115,-177 1115,-177 1115,-177 6396.2353,-177 6396.2353,-177"/>
<polygon fill="#000000" stroke="#000000" points="6396.2354,-180.5001 6406.2353,-177 6396.2353,-173.5001 6396.2354,-180.5001"/>
</g>
<!-- { provide: RouteReuseStrategy, useClass: IonicRouteStrategy } -->
<g id="node34" class="node">
<title>{ provide: RouteReuseStrategy, useClass: IonicRouteStrategy }</title>
<ellipse fill="#fdb462" stroke="#000000" cx="777" cy="-104" rx="257.2723" ry="18"/>
<text text-anchor="middle" x="777" y="-99.8" font-family="Times,serif" font-size="14.00" fill="#000000">{ provide: RouteReuseStrategy, useClass: IonicRouteStrategy }</text>
</g>
<!-- { provide: RouteReuseStrategy, useClass: IonicRouteStrategy }&#45;&gt;AppModule -->
<g id="edge33" class="edge">
<title>{ provide: RouteReuseStrategy, useClass: IonicRouteStrategy }&#45;&gt;AppModule</title>
<path fill="none" stroke="#000000" d="M777,-122.1554C777,-144.3519 777,-179 777,-179 777,-179 6396.0127,-179 6396.0127,-179"/>
<polygon fill="#000000" stroke="#000000" points="6396.0128,-182.5001 6406.0127,-179 6396.0127,-175.5001 6396.0128,-182.5001"/>
</g>
<!-- CookieService -->
<g id="node35" class="node">
<title>CookieService</title>
<ellipse fill="#fdb462" stroke="#000000" cx="434" cy="-104" rx="67.776" ry="18"/>
<text text-anchor="middle" x="434" y="-99.8" font-family="Times,serif" font-size="14.00" fill="#000000">CookieService</text>
</g>
<!-- CookieService&#45;&gt;AppModule -->
<g id="edge34" class="edge">
<title>CookieService&#45;&gt;AppModule</title>
<path fill="none" stroke="#000000" d="M434,-122.2479C434,-145.0179 434,-181 434,-181 434,-181 6395.9746,-181 6395.9746,-181"/>
<polygon fill="#000000" stroke="#000000" points="6395.9747,-184.5001 6405.9746,-181 6395.9746,-177.5001 6395.9747,-184.5001"/>
</g>
<!-- ErrorsExtractor -->
<g id="node36" class="node">
<title>ErrorsExtractor</title>
<ellipse fill="#fdb462" stroke="#000000" cx="277" cy="-104" rx="71.1823" ry="18"/>
<text text-anchor="middle" x="277" y="-99.8" font-family="Times,serif" font-size="14.00" fill="#000000">ErrorsExtractor</text>
</g>
<!-- ErrorsExtractor&#45;&gt;AppModule -->
<g id="edge35" class="edge">
<title>ErrorsExtractor&#45;&gt;AppModule</title>
<path fill="none" stroke="#000000" d="M277,-122.3228C277,-145.6602 277,-183 277,-183 277,-183 6396.134,-183 6396.134,-183"/>
<polygon fill="#000000" stroke="#000000" points="6396.1341,-186.5001 6406.134,-183 6396.134,-179.5001 6396.1341,-186.5001"/>
</g>
<!-- PermissionsGuard -->
<g id="node37" class="node">
<title>PermissionsGuard</title>
<ellipse fill="#fdb462" stroke="#000000" cx="106" cy="-104" rx="81.6789" ry="18"/>
<text text-anchor="middle" x="106" y="-99.8" font-family="Times,serif" font-size="14.00" fill="#000000">PermissionsGuard</text>
</g>
<!-- PermissionsGuard&#45;&gt;AppModule -->
<g id="edge36" class="edge">
<title>PermissionsGuard&#45;&gt;AppModule</title>
<path fill="none" stroke="#000000" d="M106,-122.3802C106,-146.2785 106,-185 106,-185 106,-185 6396.2468,-185 6396.2468,-185"/>
<polygon fill="#000000" stroke="#000000" points="6396.2469,-188.5001 6406.2468,-185 6396.2468,-181.5001 6396.2469,-188.5001"/>
</g>
</g>
</svg>
