<?xml version="1.0" encoding="UTF-8" standalone="no"?>
<!DOCTYPE svg PUBLIC "-//W3C//DTD SVG 1.1//EN"
 "http://www.w3.org/Graphics/SVG/1.1/DTD/svg11.dtd">
<!-- Generated by graphviz version 2.40.1 (20161225.0304)
 -->
<!-- Title: dependencies Pages: 1 -->
<svg width="6093pt" height="284pt"
 viewBox="0.00 0.00 6093.00 284.00" xmlns="http://www.w3.org/2000/svg" xmlns:xlink="http://www.w3.org/1999/xlink">
<g id="graph0" class="graph" transform="scale(1 1) rotate(0) translate(4 280)">
<title>dependencies</title>
<polygon fill="#ffffff" stroke="transparent" points="-4,4 -4,-280 6089,-280 6089,4 -4,4"/>
<text text-anchor="start" x="3021.5091" y="-42.4" font-family="sans-serif" font-weight="bold" font-size="14.00" fill="#000000">Legend</text>
<polygon fill="#ffffb3" stroke="transparent" points="2808.5,-10 2808.5,-30 2828.5,-30 2828.5,-10 2808.5,-10"/>
<text text-anchor="start" x="2832.129" y="-15.4" font-family="sans-serif" font-size="14.00" fill="#000000"> &#160;Declarations</text>
<polygon fill="#8dd3c7" stroke="transparent" points="2921.5,-10 2921.5,-30 2941.5,-30 2941.5,-10 2921.5,-10"/>
<text text-anchor="start" x="2945.2251" y="-15.4" font-family="sans-serif" font-size="14.00" fill="#000000"> &#160;Module</text>
<polygon fill="#80b1d3" stroke="transparent" points="3007.5,-10 3007.5,-30 3027.5,-30 3027.5,-10 3007.5,-10"/>
<text text-anchor="start" x="3031.2812" y="-15.4" font-family="sans-serif" font-size="14.00" fill="#000000"> &#160;Bootstrap</text>
<polygon fill="#fdb462" stroke="transparent" points="3104.5,-10 3104.5,-30 3124.5,-30 3124.5,-10 3104.5,-10"/>
<text text-anchor="start" x="3128.1732" y="-15.4" font-family="sans-serif" font-size="14.00" fill="#000000"> &#160;Providers</text>
<polygon fill="#fb8072" stroke="transparent" points="3200.5,-10 3200.5,-30 3220.5,-30 3220.5,-10 3200.5,-10"/>
<text text-anchor="start" x="3224.2258" y="-15.4" font-family="sans-serif" font-size="14.00" fill="#000000"> &#160;Exports</text>
<g id="clust1" class="cluster">
<title>cluster_AppModule</title>
<polygon fill="none" stroke="#000000" stroke-dasharray="1,5" points="8,-70 8,-268 6077,-268 6077,-70 8,-70"/>
</g>
<g id="clust2" class="cluster">
<title>cluster_AppModule_declarations</title>
<polygon fill="none" stroke="#000000" points="5947,-78 5947,-130 6069,-130 6069,-78 5947,-78"/>
</g>
<g id="clust4" class="cluster">
<title>cluster_AppModule_imports</title>
<polygon fill="none" stroke="#000000" points="1788,-78 1788,-130 5939,-130 5939,-78 1788,-78"/>
</g>
<g id="clust6" class="cluster">
<title>cluster_AppModule_bootstrap</title>
<polygon fill="none" stroke="#000000" points="3448,-208 3448,-260 3572,-260 3572,-208 3448,-208"/>
</g>
<g id="clust7" class="cluster">
<title>cluster_AppModule_providers</title>
<polygon fill="none" stroke="#000000" points="16,-78 16,-130 1780,-130 1780,-78 16,-78"/>
</g>
<!-- AppComponent -->
<g id="node1" class="node">
<title>AppComponent</title>
<polygon fill="#ffffb3" stroke="#000000" points="6060.9399,-122 5955.0601,-122 5955.0601,-86 6060.9399,-86 6060.9399,-122"/>
<text text-anchor="middle" x="6008" y="-99.8" font-family="Times,serif" font-size="14.00" fill="#000000">AppComponent</text>
</g>
<!-- AppModule -->
<g id="node2" class="node">
<title>AppModule</title>
<polygon fill="#8dd3c7" stroke="#000000" points="3551.6571,-187 3548.6571,-191 3527.6571,-191 3524.6571,-187 3468.3429,-187 3468.3429,-151 3551.6571,-151 3551.6571,-187"/>
<text text-anchor="middle" x="3510" y="-164.8" font-family="Times,serif" font-size="14.00" fill="#000000">AppModule</text>
</g>
<!-- AppComponent&#45;&gt;AppModule -->
<g id="edge1" class="edge">
<title>AppComponent&#45;&gt;AppModule</title>
<path fill="none" stroke="#000000" d="M6008,-122.3802C6008,-146.2785 6008,-185 6008,-185 6008,-185 3561.7898,-185 3561.7898,-185"/>
<polygon fill="#000000" stroke="#000000" points="3561.7898,-181.5001 3551.7898,-185 3561.7898,-188.5001 3561.7898,-181.5001"/>
</g>
<!-- AppComponent  -->
<g id="node24" class="node">
<title>AppComponent </title>
<polygon fill="#80b1d3" stroke="#000000" points="3564.439,-252 3455.561,-252 3455.561,-216 3564.439,-216 3564.439,-252"/>
<text text-anchor="middle" x="3510" y="-229.8" font-family="Times,serif" font-size="14.00" fill="#000000">AppComponent </text>
</g>
<!-- AppModule&#45;&gt;AppComponent  -->
<g id="edge23" class="edge">
<title>AppModule&#45;&gt;AppComponent </title>
<path fill="none" stroke="#000000" stroke-dasharray="1,5" d="M3510,-187.1061C3510,-187.1061 3510,-205.991 3510,-205.991"/>
<polygon fill="#000000" stroke="#000000" points="3506.5001,-205.9909 3510,-215.991 3513.5001,-205.991 3506.5001,-205.9909"/>
</g>
<!-- CommonModule -->
<g id="node3" class="node">
<title>CommonModule</title>
<polygon fill="#8dd3c7" stroke="#000000" points="5930.6681,-122 5927.6681,-126 5906.6681,-126 5903.6681,-122 5819.3319,-122 5819.3319,-86 5930.6681,-86 5930.6681,-122"/>
<text text-anchor="middle" x="5875" y="-99.8" font-family="Times,serif" font-size="14.00" fill="#000000">CommonModule</text>
</g>
<!-- CommonModule&#45;&gt;AppModule -->
<g id="edge2" class="edge">
<title>CommonModule&#45;&gt;AppModule</title>
<path fill="none" stroke="#000000" d="M5875,-122.0908C5875,-145.1328 5875,-182 5875,-182 5875,-182 3561.8007,-182 3561.8007,-182"/>
<polygon fill="#000000" stroke="#000000" points="3561.8008,-178.5001 3551.8007,-182 3561.8007,-185.5001 3561.8008,-178.5001"/>
</g>
<!-- HttpClientModule -->
<g id="node4" class="node">
<title>HttpClientModule</title>
<polygon fill="#8dd3c7" stroke="#000000" points="5801.1611,-122 5798.1611,-126 5777.1611,-126 5774.1611,-122 5682.8389,-122 5682.8389,-86 5801.1611,-86 5801.1611,-122"/>
<text text-anchor="middle" x="5742" y="-99.8" font-family="Times,serif" font-size="14.00" fill="#000000">HttpClientModule</text>
</g>
<!-- HttpClientModule&#45;&gt;AppModule -->
<g id="edge3" class="edge">
<title>HttpClientModule&#45;&gt;AppModule</title>
<path fill="none" stroke="#000000" d="M5742,-122.0109C5742,-144.4852 5742,-180 5742,-180 5742,-180 3562.103,-180 3562.103,-180"/>
<polygon fill="#000000" stroke="#000000" points="3562.1031,-176.5001 3552.103,-180 3562.103,-183.5001 3562.1031,-176.5001"/>
</g>
<!-- NgxRemoteConfigModule.forRoot(args) -->
<g id="node5" class="node">
<title>NgxRemoteConfigModule.forRoot(args)</title>
<polygon fill="#8dd3c7" stroke="#000000" points="5664.7807,-122 5661.7807,-126 5640.7807,-126 5637.7807,-122 5419.2193,-122 5419.2193,-86 5664.7807,-86 5664.7807,-122"/>
<text text-anchor="middle" x="5542" y="-99.8" font-family="Times,serif" font-size="14.00" fill="#000000">NgxRemoteConfigModule.forRoot(args)</text>
</g>
<!-- NgxRemoteConfigModule.forRoot(args)&#45;&gt;AppModule -->
<g id="edge4" class="edge">
<title>NgxRemoteConfigModule.forRoot(args)&#45;&gt;AppModule</title>
<path fill="none" stroke="#000000" d="M5542,-122.0449C5542,-143.6623 5542,-177 5542,-177 5542,-177 3561.9748,-177 3561.9748,-177"/>
<polygon fill="#000000" stroke="#000000" points="3561.9748,-173.5001 3551.9748,-177 3561.9747,-180.5001 3561.9748,-173.5001"/>
</g>
<!-- SharedModule -->
<g id="node6" class="node">
<title>SharedModule</title>
<polygon fill="#8dd3c7" stroke="#000000" points="5401.4231,-122 5398.4231,-126 5377.4231,-126 5374.4231,-122 5302.5769,-122 5302.5769,-86 5401.4231,-86 5401.4231,-122"/>
<text text-anchor="middle" x="5352" y="-99.8" font-family="Times,serif" font-size="14.00" fill="#000000">SharedModule</text>
</g>
<!-- SharedModule&#45;&gt;AppModule -->
<g id="edge5" class="edge">
<title>SharedModule&#45;&gt;AppModule</title>
<path fill="none" stroke="#000000" d="M5352,-122.2843C5352,-143.3211 5352,-175 5352,-175 5352,-175 3561.9336,-175 3561.9336,-175"/>
<polygon fill="#000000" stroke="#000000" points="3561.9337,-171.5001 3551.9336,-175 3561.9336,-178.5001 3561.9337,-171.5001"/>
</g>
<!-- IonicStorageModule.forRoot() -->
<g id="node7" class="node">
<title>IonicStorageModule.forRoot()</title>
<polygon fill="#8dd3c7" stroke="#000000" points="5284.9487,-122 5281.9487,-126 5260.9487,-126 5257.9487,-122 5097.0513,-122 5097.0513,-86 5284.9487,-86 5284.9487,-122"/>
<text text-anchor="middle" x="5191" y="-99.8" font-family="Times,serif" font-size="14.00" fill="#000000">IonicStorageModule.forRoot()</text>
</g>
<!-- IonicStorageModule.forRoot()&#45;&gt;AppModule -->
<g id="edge6" class="edge">
<title>IonicStorageModule.forRoot()&#45;&gt;AppModule</title>
<path fill="none" stroke="#000000" d="M5191,-122.2228C5191,-142.3652 5191,-172 5191,-172 5191,-172 3561.9724,-172 3561.9724,-172"/>
<polygon fill="#000000" stroke="#000000" points="3561.9725,-168.5001 3551.9724,-172 3561.9724,-175.5001 3561.9725,-168.5001"/>
</g>
<!-- TranslateModule.forRoot() -->
<g id="node8" class="node">
<title>TranslateModule.forRoot()</title>
<polygon fill="#8dd3c7" stroke="#000000" points="5079.0022,-122 5076.0022,-126 5055.0022,-126 5052.0022,-122 4910.9978,-122 4910.9978,-86 5079.0022,-86 5079.0022,-122"/>
<text text-anchor="middle" x="4995" y="-99.8" font-family="Times,serif" font-size="14.00" fill="#000000">TranslateModule.forRoot()</text>
</g>
<!-- TranslateModule.forRoot()&#45;&gt;AppModule -->
<g id="edge7" class="edge">
<title>TranslateModule.forRoot()&#45;&gt;AppModule</title>
<path fill="none" stroke="#000000" d="M4995,-122.1061C4995,-141.3391 4995,-169 4995,-169 4995,-169 3561.6583,-169 3561.6583,-169"/>
<polygon fill="#000000" stroke="#000000" points="3561.6584,-165.5001 3551.6583,-169 3561.6583,-172.5001 3561.6584,-165.5001"/>
</g>
<!-- BrowserModule.withServerTransition(args) -->
<g id="node9" class="node">
<title>BrowserModule.withServerTransition(args)</title>
<polygon fill="#8dd3c7" stroke="#000000" points="4893.0794,-122 4890.0794,-126 4869.0794,-126 4866.0794,-122 4630.9206,-122 4630.9206,-86 4893.0794,-86 4893.0794,-122"/>
<text text-anchor="middle" x="4762" y="-99.8" font-family="Times,serif" font-size="14.00" fill="#000000">BrowserModule.withServerTransition(args)</text>
</g>
<!-- BrowserModule.withServerTransition(args)&#45;&gt;AppModule -->
<g id="edge8" class="edge">
<title>BrowserModule.withServerTransition(args)&#45;&gt;AppModule</title>
<path fill="none" stroke="#000000" d="M4762,-122.2222C4762,-140.8285 4762,-167 4762,-167 4762,-167 3562.0143,-167 3562.0143,-167"/>
<polygon fill="#000000" stroke="#000000" points="3562.0143,-163.5001 3552.0143,-167 3562.0142,-170.5001 3562.0143,-163.5001"/>
</g>
<!-- TransferHttpCacheModule.forRoot() -->
<g id="node10" class="node">
<title>TransferHttpCacheModule.forRoot()</title>
<polygon fill="#8dd3c7" stroke="#000000" points="4612.6959,-122 4609.6959,-126 4588.6959,-126 4585.6959,-122 4389.3041,-122 4389.3041,-86 4612.6959,-86 4612.6959,-122"/>
<text text-anchor="middle" x="4501" y="-99.8" font-family="Times,serif" font-size="14.00" fill="#000000">TransferHttpCacheModule.forRoot()</text>
</g>
<!-- TransferHttpCacheModule.forRoot()&#45;&gt;AppModule -->
<g id="edge9" class="edge">
<title>TransferHttpCacheModule.forRoot()&#45;&gt;AppModule</title>
<path fill="none" stroke="#000000" d="M4501,-122.002C4501,-139.6754 4501,-164 4501,-164 4501,-164 3561.9491,-164 3561.9491,-164"/>
<polygon fill="#000000" stroke="#000000" points="3561.9491,-160.5001 3551.9491,-164 3561.949,-167.5001 3561.9491,-160.5001"/>
</g>
<!-- NgxPermissionsModule.forRoot() -->
<g id="node11" class="node">
<title>NgxPermissionsModule.forRoot()</title>
<polygon fill="#8dd3c7" stroke="#000000" points="4371.6896,-122 4368.6896,-126 4347.6896,-126 4344.6896,-122 4164.3104,-122 4164.3104,-86 4371.6896,-86 4371.6896,-122"/>
<text text-anchor="middle" x="4268" y="-99.8" font-family="Times,serif" font-size="14.00" fill="#000000">NgxPermissionsModule.forRoot()</text>
</g>
<!-- NgxPermissionsModule.forRoot()&#45;&gt;AppModule -->
<g id="edge10" class="edge">
<title>NgxPermissionsModule.forRoot()&#45;&gt;AppModule</title>
<path fill="none" stroke="#000000" d="M4268,-122.0336C4268,-139.0597 4268,-162 4268,-162 4268,-162 3561.8331,-162 3561.8331,-162"/>
<polygon fill="#000000" stroke="#000000" points="3561.8331,-158.5001 3551.8331,-162 3561.833,-165.5001 3561.8331,-158.5001"/>
</g>
<!-- IonicModule.forRoot() -->
<g id="node12" class="node">
<title>IonicModule.forRoot()</title>
<polygon fill="#8dd3c7" stroke="#000000" points="4146.1855,-122 4143.1855,-126 4122.1855,-126 4119.1855,-122 4001.8145,-122 4001.8145,-86 4146.1855,-86 4146.1855,-122"/>
<text text-anchor="middle" x="4074" y="-99.8" font-family="Times,serif" font-size="14.00" fill="#000000">IonicModule.forRoot()</text>
</g>
<!-- IonicModule.forRoot()&#45;&gt;AppModule -->
<g id="edge11" class="edge">
<title>IonicModule.forRoot()&#45;&gt;AppModule</title>
<path fill="none" stroke="#000000" d="M4074,-122.0091C4074,-138.0494 4074,-159 4074,-159 4074,-159 3561.9309,-159 3561.9309,-159"/>
<polygon fill="#000000" stroke="#000000" points="3561.9309,-155.5001 3551.9309,-159 3561.9309,-162.5001 3561.9309,-155.5001"/>
</g>
<!-- AuthModule.forRoot(args) -->
<g id="node13" class="node">
<title>AuthModule.forRoot(args)</title>
<polygon fill="#8dd3c7" stroke="#000000" points="3983.7366,-122 3980.7366,-126 3959.7366,-126 3956.7366,-122 3816.2634,-122 3816.2634,-86 3983.7366,-86 3983.7366,-122"/>
<text text-anchor="middle" x="3900" y="-99.8" font-family="Times,serif" font-size="14.00" fill="#000000">AuthModule.forRoot(args)</text>
</g>
<!-- AuthModule.forRoot(args)&#45;&gt;AppModule -->
<g id="edge12" class="edge">
<title>AuthModule.forRoot(args)&#45;&gt;AppModule</title>
<path fill="none" stroke="#000000" d="M3900,-122.2396C3900,-137.5706 3900,-157 3900,-157 3900,-157 3561.7368,-157 3561.7368,-157"/>
<polygon fill="#000000" stroke="#000000" points="3561.7369,-153.5001 3551.7368,-157 3561.7368,-160.5001 3561.7369,-153.5001"/>
</g>
<!-- AccountModule.forRoot(args) -->
<g id="node14" class="node">
<title>AccountModule.forRoot(args)</title>
<polygon fill="#8dd3c7" stroke="#000000" points="3798.1659,-122 3795.1659,-126 3774.1659,-126 3771.1659,-122 3611.8341,-122 3611.8341,-86 3798.1659,-86 3798.1659,-122"/>
<text text-anchor="middle" x="3705" y="-99.8" font-family="Times,serif" font-size="14.00" fill="#000000">AccountModule.forRoot(args)</text>
</g>
<!-- AccountModule.forRoot(args)&#45;&gt;AppModule -->
<g id="edge13" class="edge">
<title>AccountModule.forRoot(args)&#45;&gt;AppModule</title>
<path fill="none" stroke="#000000" d="M3705,-122.0511C3705,-136.373 3705,-154 3705,-154 3705,-154 3561.8324,-154 3561.8324,-154"/>
<polygon fill="#000000" stroke="#000000" points="3561.8324,-150.5001 3551.8324,-154 3561.8324,-157.5001 3561.8324,-150.5001"/>
</g>
<!-- LangModule.forRoot(args) -->
<g id="node15" class="node">
<title>LangModule.forRoot(args)</title>
<polygon fill="#8dd3c7" stroke="#000000" points="3594.0064,-122 3591.0064,-126 3570.0064,-126 3567.0064,-122 3425.9936,-122 3425.9936,-86 3594.0064,-86 3594.0064,-122"/>
<text text-anchor="middle" x="3510" y="-99.8" font-family="Times,serif" font-size="14.00" fill="#000000">LangModule.forRoot(args)</text>
</g>
<!-- LangModule.forRoot(args)&#45;&gt;AppModule -->
<g id="edge14" class="edge">
<title>LangModule.forRoot(args)&#45;&gt;AppModule</title>
<path fill="none" stroke="#000000" d="M3510,-122.1061C3510,-122.1061 3510,-140.991 3510,-140.991"/>
<polygon fill="#000000" stroke="#000000" points="3506.5001,-140.9909 3510,-150.991 3513.5001,-140.991 3506.5001,-140.9909"/>
</g>
<!-- RouterModule.forRoot(args) -->
<g id="node16" class="node">
<title>RouterModule.forRoot(args)</title>
<polygon fill="#8dd3c7" stroke="#000000" points="3407.8419,-122 3404.8419,-126 3383.8419,-126 3380.8419,-122 3230.1581,-122 3230.1581,-86 3407.8419,-86 3407.8419,-122"/>
<text text-anchor="middle" x="3319" y="-99.8" font-family="Times,serif" font-size="14.00" fill="#000000">RouterModule.forRoot(args)</text>
</g>
<!-- RouterModule.forRoot(args)&#45;&gt;AppModule -->
<g id="edge15" class="edge">
<title>RouterModule.forRoot(args)&#45;&gt;AppModule</title>
<path fill="none" stroke="#000000" d="M3319,-122.0511C3319,-136.373 3319,-154 3319,-154 3319,-154 3458.0842,-154 3458.0842,-154"/>
<polygon fill="#000000" stroke="#000000" points="3458.0843,-157.5001 3468.0842,-154 3458.0842,-150.5001 3458.0843,-157.5001"/>
</g>
<!-- MetaModule.forRoot(args) -->
<g id="node17" class="node">
<title>MetaModule.forRoot(args)</title>
<polygon fill="#8dd3c7" stroke="#000000" points="3212.0036,-122 3209.0036,-126 3188.0036,-126 3185.0036,-122 3043.9964,-122 3043.9964,-86 3212.0036,-86 3212.0036,-122"/>
<text text-anchor="middle" x="3128" y="-99.8" font-family="Times,serif" font-size="14.00" fill="#000000">MetaModule.forRoot(args)</text>
</g>
<!-- MetaModule.forRoot(args)&#45;&gt;AppModule -->
<g id="edge16" class="edge">
<title>MetaModule.forRoot(args)&#45;&gt;AppModule</title>
<path fill="none" stroke="#000000" d="M3128,-122.2396C3128,-137.5706 3128,-157 3128,-157 3128,-157 3458.0266,-157 3458.0266,-157"/>
<polygon fill="#000000" stroke="#000000" points="3458.0266,-160.5001 3468.0266,-157 3458.0266,-153.5001 3458.0266,-160.5001"/>
</g>
<!-- AuthModalModule.forRoot(args) -->
<g id="node18" class="node">
<title>AuthModalModule.forRoot(args)</title>
<polygon fill="#8dd3c7" stroke="#000000" points="3025.7863,-122 3022.7863,-126 3001.7863,-126 2998.7863,-122 2822.2137,-122 2822.2137,-86 3025.7863,-86 3025.7863,-122"/>
<text text-anchor="middle" x="2924" y="-99.8" font-family="Times,serif" font-size="14.00" fill="#000000">AuthModalModule.forRoot(args)</text>
</g>
<!-- AuthModalModule.forRoot(args)&#45;&gt;AppModule -->
<g id="edge17" class="edge">
<title>AuthModalModule.forRoot(args)&#45;&gt;AppModule</title>
<path fill="none" stroke="#000000" d="M2924,-122.0091C2924,-138.0494 2924,-159 2924,-159 2924,-159 3458.3261,-159 3458.3261,-159"/>
<polygon fill="#000000" stroke="#000000" points="3458.3261,-162.5001 3468.3261,-159 3458.3261,-155.5001 3458.3261,-162.5001"/>
</g>
<!-- NgxBindIOModule.forRoot() -->
<g id="node19" class="node">
<title>NgxBindIOModule.forRoot()</title>
<polygon fill="#8dd3c7" stroke="#000000" points="2804.0204,-122 2801.0204,-126 2780.0204,-126 2777.0204,-122 2621.9796,-122 2621.9796,-86 2804.0204,-86 2804.0204,-122"/>
<text text-anchor="middle" x="2713" y="-99.8" font-family="Times,serif" font-size="14.00" fill="#000000">NgxBindIOModule.forRoot()</text>
</g>
<!-- NgxBindIOModule.forRoot()&#45;&gt;AppModule -->
<g id="edge18" class="edge">
<title>NgxBindIOModule.forRoot()&#45;&gt;AppModule</title>
<path fill="none" stroke="#000000" d="M2713,-122.0336C2713,-139.0597 2713,-162 2713,-162 2713,-162 3458.272,-162 3458.272,-162"/>
<polygon fill="#000000" stroke="#000000" points="3458.272,-165.5001 3468.272,-162 3458.2719,-158.5001 3458.272,-165.5001"/>
</g>
<!-- UsersListFiltersModalModule.forRoot() -->
<g id="node20" class="node">
<title>UsersListFiltersModalModule.forRoot()</title>
<polygon fill="#8dd3c7" stroke="#000000" points="2603.8928,-122 2600.8928,-126 2579.8928,-126 2576.8928,-122 2362.1072,-122 2362.1072,-86 2603.8928,-86 2603.8928,-122"/>
<text text-anchor="middle" x="2483" y="-99.8" font-family="Times,serif" font-size="14.00" fill="#000000">UsersListFiltersModalModule.forRoot()</text>
</g>
<!-- UsersListFiltersModalModule.forRoot()&#45;&gt;AppModule -->
<g id="edge19" class="edge">
<title>UsersListFiltersModalModule.forRoot()&#45;&gt;AppModule</title>
<path fill="none" stroke="#000000" d="M2483,-122.002C2483,-139.6754 2483,-164 2483,-164 2483,-164 3458.1476,-164 3458.1476,-164"/>
<polygon fill="#000000" stroke="#000000" points="3458.1477,-167.5001 3468.1476,-164 3458.1476,-160.5001 3458.1477,-167.5001"/>
</g>
<!-- GroupsListFiltersModalModule.forRoot() -->
<g id="node21" class="node">
<title>GroupsListFiltersModalModule.forRoot()</title>
<polygon fill="#8dd3c7" stroke="#000000" points="2343.7337,-122 2340.7337,-126 2319.7337,-126 2316.7337,-122 2092.2663,-122 2092.2663,-86 2343.7337,-86 2343.7337,-122"/>
<text text-anchor="middle" x="2218" y="-99.8" font-family="Times,serif" font-size="14.00" fill="#000000">GroupsListFiltersModalModule.forRoot()</text>
</g>
<!-- GroupsListFiltersModalModule.forRoot()&#45;&gt;AppModule -->
<g id="edge20" class="edge">
<title>GroupsListFiltersModalModule.forRoot()&#45;&gt;AppModule</title>
<path fill="none" stroke="#000000" d="M2218,-122.2222C2218,-140.8285 2218,-167 2218,-167 2218,-167 3458.1125,-167 3458.1125,-167"/>
<polygon fill="#000000" stroke="#000000" points="3458.1125,-170.5001 3468.1125,-167 3458.1125,-163.5001 3458.1125,-170.5001"/>
</g>
<!-- RuckenCoreModule -->
<g id="node22" class="node">
<title>RuckenCoreModule</title>
<polygon fill="#8dd3c7" stroke="#000000" points="2074.5283,-122 2071.5283,-126 2050.5283,-126 2047.5283,-122 1945.4717,-122 1945.4717,-86 2074.5283,-86 2074.5283,-122"/>
<text text-anchor="middle" x="2010" y="-99.8" font-family="Times,serif" font-size="14.00" fill="#000000">RuckenCoreModule</text>
</g>
<!-- RuckenCoreModule&#45;&gt;AppModule -->
<g id="edge21" class="edge">
<title>RuckenCoreModule&#45;&gt;AppModule</title>
<path fill="none" stroke="#000000" d="M2010,-122.1061C2010,-141.3391 2010,-169 2010,-169 2010,-169 3458.3159,-169 3458.3159,-169"/>
<polygon fill="#000000" stroke="#000000" points="3458.3159,-172.5001 3468.3159,-169 3458.3158,-165.5001 3458.3159,-172.5001"/>
</g>
<!-- RuckenIonicModule -->
<g id="node23" class="node">
<title>RuckenIonicModule</title>
<polygon fill="#8dd3c7" stroke="#000000" points="1927.5814,-122 1924.5814,-126 1903.5814,-126 1900.5814,-122 1796.4186,-122 1796.4186,-86 1927.5814,-86 1927.5814,-122"/>
<text text-anchor="middle" x="1862" y="-99.8" font-family="Times,serif" font-size="14.00" fill="#000000">RuckenIonicModule</text>
</g>
<!-- RuckenIonicModule&#45;&gt;AppModule -->
<g id="edge22" class="edge">
<title>RuckenIonicModule&#45;&gt;AppModule</title>
<path fill="none" stroke="#000000" d="M1862,-122.2228C1862,-142.3652 1862,-172 1862,-172 1862,-172 3458.0235,-172 3458.0235,-172"/>
<polygon fill="#000000" stroke="#000000" points="3458.0235,-175.5001 3468.0235,-172 3458.0234,-168.5001 3458.0235,-175.5001"/>
</g>
<!-- StatusBar -->
<g id="node25" class="node">
<title>StatusBar</title>
<ellipse fill="#fdb462" stroke="#000000" cx="1723" cy="-104" rx="48.6694" ry="18"/>
<text text-anchor="middle" x="1723" y="-99.8" font-family="Times,serif" font-size="14.00" fill="#000000">StatusBar</text>
</g>
<!-- StatusBar&#45;&gt;AppModule -->
<g id="edge24" class="edge">
<title>StatusBar&#45;&gt;AppModule</title>
<path fill="none" stroke="#000000" d="M1723,-122.2843C1723,-143.3211 1723,-175 1723,-175 1723,-175 3458.0247,-175 3458.0247,-175"/>
<polygon fill="#000000" stroke="#000000" points="3458.0247,-178.5001 3468.0247,-175 3458.0247,-171.5001 3458.0247,-178.5001"/>
</g>
<!-- SplashScreen -->
<g id="node26" class="node">
<title>SplashScreen</title>
<ellipse fill="#fdb462" stroke="#000000" cx="1593" cy="-104" rx="63.1189" ry="18"/>
<text text-anchor="middle" x="1593" y="-99.8" font-family="Times,serif" font-size="14.00" fill="#000000">SplashScreen</text>
</g>
<!-- SplashScreen&#45;&gt;AppModule -->
<g id="edge25" class="edge">
<title>SplashScreen&#45;&gt;AppModule</title>
<path fill="none" stroke="#000000" d="M1593,-122.0449C1593,-143.6623 1593,-177 1593,-177 1593,-177 3458.1779,-177 3458.1779,-177"/>
<polygon fill="#000000" stroke="#000000" points="3458.178,-180.5001 3468.1779,-177 3458.1779,-173.5001 3458.178,-180.5001"/>
</g>
<!-- { provide: RouteReuseStrategy, useClass: IonicRouteStrategy } -->
<g id="node27" class="node">
<title>{ provide: RouteReuseStrategy, useClass: IonicRouteStrategy }</title>
<ellipse fill="#fdb462" stroke="#000000" cx="1255" cy="-104" rx="257.2723" ry="18"/>
<text text-anchor="middle" x="1255" y="-99.8" font-family="Times,serif" font-size="14.00" fill="#000000">{ provide: RouteReuseStrategy, useClass: IonicRouteStrategy }</text>
</g>
<!-- { provide: RouteReuseStrategy, useClass: IonicRouteStrategy }&#45;&gt;AppModule -->
<g id="edge26" class="edge">
<title>{ provide: RouteReuseStrategy, useClass: IonicRouteStrategy }&#45;&gt;AppModule</title>
<path fill="none" stroke="#000000" d="M1255,-122.0109C1255,-144.4852 1255,-180 1255,-180 1255,-180 3457.9565,-180 3457.9565,-180"/>
<polygon fill="#000000" stroke="#000000" points="3457.9566,-183.5001 3467.9565,-180 3457.9565,-176.5001 3457.9566,-183.5001"/>
</g>
<!-- { provide: PERMISSIONS_CONFIG_TOKEN, useValue: &#160;} -->
<g id="node28" class="node">
<title>{ provide: PERMISSIONS_CONFIG_TOKEN, useValue: &#160;}</title>
<ellipse fill="#fdb462" stroke="#000000" cx="733" cy="-104" rx="246.8224" ry="18"/>
<text text-anchor="middle" x="733" y="-99.8" font-family="Times,serif" font-size="14.00" fill="#000000">{ provide: PERMISSIONS_CONFIG_TOKEN, useValue: &#160;}</text>
</g>
<!-- { provide: PERMISSIONS_CONFIG_TOKEN, useValue: &#160;}&#45;&gt;AppModule -->
<g id="edge27" class="edge">
<title>{ provide: PERMISSIONS_CONFIG_TOKEN, useValue: &#160;}&#45;&gt;AppModule</title>
<path fill="none" stroke="#000000" d="M733,-122.0908C733,-145.1328 733,-182 733,-182 733,-182 3458.3157,-182 3458.3157,-182"/>
<polygon fill="#000000" stroke="#000000" points="3458.3158,-185.5001 3468.3157,-182 3458.3157,-178.5001 3458.3158,-185.5001"/>
</g>
<!-- { provide: GROUPS_CONFIG_TOKEN, useValue: &#160;} -->
<g id="node29" class="node">
<title>{ provide: GROUPS_CONFIG_TOKEN, useValue: &#160;}</title>
<ellipse fill="#fdb462" stroke="#000000" cx="246" cy="-104" rx="221.9656" ry="18"/>
<text text-anchor="middle" x="246" y="-99.8" font-family="Times,serif" font-size="14.00" fill="#000000">{ provide: GROUPS_CONFIG_TOKEN, useValue: &#160;}</text>
</g>
<!-- { provide: GROUPS_CONFIG_TOKEN, useValue: &#160;}&#45;&gt;AppModule -->
<g id="edge28" class="edge">
<title>{ provide: GROUPS_CONFIG_TOKEN, useValue: &#160;}&#45;&gt;AppModule</title>
<path fill="none" stroke="#000000" d="M246,-122.3802C246,-146.2785 246,-185 246,-185 246,-185 3458.1361,-185 3458.1361,-185"/>
<polygon fill="#000000" stroke="#000000" points="3458.1361,-188.5001 3468.1361,-185 3458.1361,-181.5001 3458.1361,-188.5001"/>
</g>
</g>
</svg>
