<?xml version="1.0" encoding="UTF-8" standalone="no"?>
<!DOCTYPE svg PUBLIC "-//W3C//DTD SVG 1.1//EN"
 "http://www.w3.org/Graphics/SVG/1.1/DTD/svg11.dtd">
<!-- Generated by graphviz version 2.40.1 (20161225.0304)
 -->
<!-- Title: dependencies Pages: 1 -->
<svg width="9904pt" height="284pt"
 viewBox="0.00 0.00 9904.00 284.00" xmlns="http://www.w3.org/2000/svg" xmlns:xlink="http://www.w3.org/1999/xlink">
<g id="graph0" class="graph" transform="scale(1 1) rotate(0) translate(4 280)">
<title>dependencies</title>
<polygon fill="#ffffff" stroke="transparent" points="-4,4 -4,-280 9900,-280 9900,4 -4,4"/>
<text text-anchor="start" x="4927.0091" y="-42.4" font-family="sans-serif" font-weight="bold" font-size="14.00" fill="#000000">Legend</text>
<polygon fill="#ffffb3" stroke="transparent" points="4714,-10 4714,-30 4734,-30 4734,-10 4714,-10"/>
<text text-anchor="start" x="4737.629" y="-15.4" font-family="sans-serif" font-size="14.00" fill="#000000"> &#160;Declarations</text>
<polygon fill="#8dd3c7" stroke="transparent" points="4827,-10 4827,-30 4847,-30 4847,-10 4827,-10"/>
<text text-anchor="start" x="4850.7251" y="-15.4" font-family="sans-serif" font-size="14.00" fill="#000000"> &#160;Module</text>
<polygon fill="#80b1d3" stroke="transparent" points="4913,-10 4913,-30 4933,-30 4933,-10 4913,-10"/>
<text text-anchor="start" x="4936.7812" y="-15.4" font-family="sans-serif" font-size="14.00" fill="#000000"> &#160;Bootstrap</text>
<polygon fill="#fdb462" stroke="transparent" points="5010,-10 5010,-30 5030,-30 5030,-10 5010,-10"/>
<text text-anchor="start" x="5033.6732" y="-15.4" font-family="sans-serif" font-size="14.00" fill="#000000"> &#160;Providers</text>
<polygon fill="#fb8072" stroke="transparent" points="5106,-10 5106,-30 5126,-30 5126,-10 5106,-10"/>
<text text-anchor="start" x="5129.7258" y="-15.4" font-family="sans-serif" font-size="14.00" fill="#000000"> &#160;Exports</text>
<g id="clust1" class="cluster">
<title>cluster_AppModule</title>
<polygon fill="none" stroke="#000000" stroke-dasharray="1,5" points="8,-70 8,-268 9888,-268 9888,-70 8,-70"/>
</g>
<g id="clust2" class="cluster">
<title>cluster_AppModule_declarations</title>
<polygon fill="none" stroke="#000000" points="9758,-78 9758,-130 9880,-130 9880,-78 9758,-78"/>
</g>
<g id="clust4" class="cluster">
<title>cluster_AppModule_imports</title>
<polygon fill="none" stroke="#000000" points="5566,-78 5566,-130 9750,-130 9750,-78 5566,-78"/>
</g>
<g id="clust6" class="cluster">
<title>cluster_AppModule_bootstrap</title>
<polygon fill="none" stroke="#000000" points="6513,-208 6513,-260 6637,-260 6637,-208 6513,-208"/>
</g>
<g id="clust7" class="cluster">
<title>cluster_AppModule_providers</title>
<polygon fill="none" stroke="#000000" points="16,-78 16,-130 5558,-130 5558,-78 16,-78"/>
</g>
<!-- AppComponent -->
<g id="node1" class="node">
<title>AppComponent</title>
<polygon fill="#ffffb3" stroke="#000000" points="9871.9399,-122 9766.0601,-122 9766.0601,-86 9871.9399,-86 9871.9399,-122"/>
<text text-anchor="middle" x="9819" y="-99.8" font-family="Times,serif" font-size="14.00" fill="#000000">AppComponent</text>
</g>
<!-- AppModule -->
<g id="node2" class="node">
<title>AppModule</title>
<polygon fill="#8dd3c7" stroke="#000000" points="6616.6571,-187 6613.6571,-191 6592.6571,-191 6589.6571,-187 6533.3429,-187 6533.3429,-151 6616.6571,-151 6616.6571,-187"/>
<text text-anchor="middle" x="6575" y="-164.8" font-family="Times,serif" font-size="14.00" fill="#000000">AppModule</text>
</g>
<!-- AppComponent&#45;&gt;AppModule -->
<g id="edge1" class="edge">
<title>AppComponent&#45;&gt;AppModule</title>
<path fill="none" stroke="#000000" d="M9819,-122.3802C9819,-146.2785 9819,-185 9819,-185 9819,-185 6626.9045,-185 6626.9045,-185"/>
<polygon fill="#000000" stroke="#000000" points="6626.9045,-181.5001 6616.9045,-185 6626.9044,-188.5001 6626.9045,-181.5001"/>
</g>
<!-- AppComponent  -->
<g id="node25" class="node">
<title>AppComponent </title>
<polygon fill="#80b1d3" stroke="#000000" points="6629.439,-252 6520.561,-252 6520.561,-216 6629.439,-216 6629.439,-252"/>
<text text-anchor="middle" x="6575" y="-229.8" font-family="Times,serif" font-size="14.00" fill="#000000">AppComponent </text>
</g>
<!-- AppModule&#45;&gt;AppComponent  -->
<g id="edge24" class="edge">
<title>AppModule&#45;&gt;AppComponent </title>
<path fill="none" stroke="#000000" stroke-dasharray="1,5" d="M6575,-187.1061C6575,-187.1061 6575,-205.991 6575,-205.991"/>
<polygon fill="#000000" stroke="#000000" points="6571.5001,-205.9909 6575,-215.991 6578.5001,-205.991 6571.5001,-205.9909"/>
</g>
<!-- CommonModule -->
<g id="node3" class="node">
<title>CommonModule</title>
<polygon fill="#8dd3c7" stroke="#000000" points="9741.6681,-122 9738.6681,-126 9717.6681,-126 9714.6681,-122 9630.3319,-122 9630.3319,-86 9741.6681,-86 9741.6681,-122"/>
<text text-anchor="middle" x="9686" y="-99.8" font-family="Times,serif" font-size="14.00" fill="#000000">CommonModule</text>
</g>
<!-- CommonModule&#45;&gt;AppModule -->
<g id="edge2" class="edge">
<title>CommonModule&#45;&gt;AppModule</title>
<path fill="none" stroke="#000000" d="M9686,-122.3228C9686,-145.6602 9686,-183 9686,-183 9686,-183 6626.9163,-183 6626.9163,-183"/>
<polygon fill="#000000" stroke="#000000" points="6626.9163,-179.5001 6616.9163,-183 6626.9162,-186.5001 6626.9163,-179.5001"/>
</g>
<!-- PipesModule -->
<g id="node4" class="node">
<title>PipesModule</title>
<polygon fill="#8dd3c7" stroke="#000000" points="9611.8823,-122 9608.8823,-126 9587.8823,-126 9584.8823,-122 9522.1177,-122 9522.1177,-86 9611.8823,-86 9611.8823,-122"/>
<text text-anchor="middle" x="9567" y="-99.8" font-family="Times,serif" font-size="14.00" fill="#000000">PipesModule</text>
</g>
<!-- PipesModule&#45;&gt;AppModule -->
<g id="edge3" class="edge">
<title>PipesModule&#45;&gt;AppModule</title>
<path fill="none" stroke="#000000" d="M9567,-122.2479C9567,-145.0179 9567,-181 9567,-181 9567,-181 6626.7247,-181 6626.7247,-181"/>
<polygon fill="#000000" stroke="#000000" points="6626.7247,-177.5001 6616.7247,-181 6626.7247,-184.5001 6626.7247,-177.5001"/>
</g>
<!-- HttpClientModule -->
<g id="node5" class="node">
<title>HttpClientModule</title>
<polygon fill="#8dd3c7" stroke="#000000" points="9504.1611,-122 9501.1611,-126 9480.1611,-126 9477.1611,-122 9385.8389,-122 9385.8389,-86 9504.1611,-86 9504.1611,-122"/>
<text text-anchor="middle" x="9445" y="-99.8" font-family="Times,serif" font-size="14.00" fill="#000000">HttpClientModule</text>
</g>
<!-- HttpClientModule&#45;&gt;AppModule -->
<g id="edge4" class="edge">
<title>HttpClientModule&#45;&gt;AppModule</title>
<path fill="none" stroke="#000000" d="M9445,-122.1554C9445,-144.3519 9445,-179 9445,-179 9445,-179 6626.6775,-179 6626.6775,-179"/>
<polygon fill="#000000" stroke="#000000" points="6626.6776,-175.5001 6616.6775,-179 6626.6775,-182.5001 6626.6776,-175.5001"/>
</g>
<!-- NgxRepositoryModule -->
<g id="node6" class="node">
<title>NgxRepositoryModule</title>
<polygon fill="#8dd3c7" stroke="#000000" points="9367.594,-122 9364.594,-126 9343.594,-126 9340.594,-122 9222.406,-122 9222.406,-86 9367.594,-86 9367.594,-122"/>
<text text-anchor="middle" x="9295" y="-99.8" font-family="Times,serif" font-size="14.00" fill="#000000">NgxRepositoryModule</text>
</g>
<!-- NgxRepositoryModule&#45;&gt;AppModule -->
<g id="edge5" class="edge">
<title>NgxRepositoryModule&#45;&gt;AppModule</title>
<path fill="none" stroke="#000000" d="M9295,-122.0449C9295,-143.6623 9295,-177 9295,-177 9295,-177 6626.9071,-177 6626.9071,-177"/>
<polygon fill="#000000" stroke="#000000" points="6626.9072,-173.5001 6616.9071,-177 6626.9071,-180.5001 6626.9072,-173.5001"/>
</g>
<!-- IonicStorageModule.forRoot() -->
<g id="node7" class="node">
<title>IonicStorageModule.forRoot()</title>
<polygon fill="#8dd3c7" stroke="#000000" points="9204.9487,-122 9201.9487,-126 9180.9487,-126 9177.9487,-122 9017.0513,-122 9017.0513,-86 9204.9487,-86 9204.9487,-122"/>
<text text-anchor="middle" x="9111" y="-99.8" font-family="Times,serif" font-size="14.00" fill="#000000">IonicStorageModule.forRoot()</text>
</g>
<!-- IonicStorageModule.forRoot()&#45;&gt;AppModule -->
<g id="edge6" class="edge">
<title>IonicStorageModule.forRoot()&#45;&gt;AppModule</title>
<path fill="none" stroke="#000000" d="M9111,-122.2843C9111,-143.3211 9111,-175 9111,-175 9111,-175 6626.9012,-175 6626.9012,-175"/>
<polygon fill="#000000" stroke="#000000" points="6626.9012,-171.5001 6616.9012,-175 6626.9011,-178.5001 6626.9012,-171.5001"/>
</g>
<!-- TranslateModule.forRoot() -->
<g id="node8" class="node">
<title>TranslateModule.forRoot()</title>
<polygon fill="#8dd3c7" stroke="#000000" points="8999.0022,-122 8996.0022,-126 8975.0022,-126 8972.0022,-122 8830.9978,-122 8830.9978,-86 8999.0022,-86 8999.0022,-122"/>
<text text-anchor="middle" x="8915" y="-99.8" font-family="Times,serif" font-size="14.00" fill="#000000">TranslateModule.forRoot()</text>
</g>
<!-- TranslateModule.forRoot()&#45;&gt;AppModule -->
<g id="edge7" class="edge">
<title>TranslateModule.forRoot()&#45;&gt;AppModule</title>
<path fill="none" stroke="#000000" d="M8915,-122.1289C8915,-142.5724 8915,-173 8915,-173 8915,-173 6626.8583,-173 6626.8583,-173"/>
<polygon fill="#000000" stroke="#000000" points="6626.8583,-169.5001 6616.8583,-173 6626.8582,-176.5001 6626.8583,-169.5001"/>
</g>
<!-- BrowserModule.withServerTransition(args) -->
<g id="node9" class="node">
<title>BrowserModule.withServerTransition(args)</title>
<polygon fill="#8dd3c7" stroke="#000000" points="8813.0794,-122 8810.0794,-126 8789.0794,-126 8786.0794,-122 8550.9206,-122 8550.9206,-86 8813.0794,-86 8813.0794,-122"/>
<text text-anchor="middle" x="8682" y="-99.8" font-family="Times,serif" font-size="14.00" fill="#000000">BrowserModule.withServerTransition(args)</text>
</g>
<!-- BrowserModule.withServerTransition(args)&#45;&gt;AppModule -->
<g id="edge8" class="edge">
<title>BrowserModule.withServerTransition(args)&#45;&gt;AppModule</title>
<path fill="none" stroke="#000000" d="M8682,-122.308C8682,-142.1455 8682,-171 8682,-171 8682,-171 6627.0881,-171 6627.0881,-171"/>
<polygon fill="#000000" stroke="#000000" points="6627.0882,-167.5001 6617.0881,-171 6627.0881,-174.5001 6627.0882,-167.5001"/>
</g>
<!-- TransferHttpCacheModule.forRoot() -->
<g id="node10" class="node">
<title>TransferHttpCacheModule.forRoot()</title>
<polygon fill="#8dd3c7" stroke="#000000" points="8532.6959,-122 8529.6959,-126 8508.6959,-126 8505.6959,-122 8309.3041,-122 8309.3041,-86 8532.6959,-86 8532.6959,-122"/>
<text text-anchor="middle" x="8421" y="-99.8" font-family="Times,serif" font-size="14.00" fill="#000000">TransferHttpCacheModule.forRoot()</text>
</g>
<!-- TransferHttpCacheModule.forRoot()&#45;&gt;AppModule -->
<g id="edge9" class="edge">
<title>TransferHttpCacheModule.forRoot()&#45;&gt;AppModule</title>
<path fill="none" stroke="#000000" d="M8421,-122.1061C8421,-141.3391 8421,-169 8421,-169 8421,-169 6627.0247,-169 6627.0247,-169"/>
<polygon fill="#000000" stroke="#000000" points="6627.0247,-165.5001 6617.0247,-169 6627.0247,-172.5001 6627.0247,-165.5001"/>
</g>
<!-- NgxPermissionsModule.forRoot() -->
<g id="node11" class="node">
<title>NgxPermissionsModule.forRoot()</title>
<polygon fill="#8dd3c7" stroke="#000000" points="8291.6896,-122 8288.6896,-126 8267.6896,-126 8264.6896,-122 8084.3104,-122 8084.3104,-86 8291.6896,-86 8291.6896,-122"/>
<text text-anchor="middle" x="8188" y="-99.8" font-family="Times,serif" font-size="14.00" fill="#000000">NgxPermissionsModule.forRoot()</text>
</g>
<!-- NgxPermissionsModule.forRoot()&#45;&gt;AppModule -->
<g id="edge10" class="edge">
<title>NgxPermissionsModule.forRoot()&#45;&gt;AppModule</title>
<path fill="none" stroke="#000000" d="M8188,-122.2222C8188,-140.8285 8188,-167 8188,-167 8188,-167 6626.903,-167 6626.903,-167"/>
<polygon fill="#000000" stroke="#000000" points="6626.903,-163.5001 6616.903,-167 6626.9029,-170.5001 6626.903,-163.5001"/>
</g>
<!-- IonicModule.forRoot() -->
<g id="node12" class="node">
<title>IonicModule.forRoot()</title>
<polygon fill="#8dd3c7" stroke="#000000" points="8066.1855,-122 8063.1855,-126 8042.1855,-126 8039.1855,-122 7921.8145,-122 7921.8145,-86 8066.1855,-86 8066.1855,-122"/>
<text text-anchor="middle" x="7994" y="-99.8" font-family="Times,serif" font-size="14.00" fill="#000000">IonicModule.forRoot()</text>
</g>
<!-- IonicModule.forRoot()&#45;&gt;AppModule -->
<g id="edge11" class="edge">
<title>IonicModule.forRoot()&#45;&gt;AppModule</title>
<path fill="none" stroke="#000000" d="M7994,-122.302C7994,-140.2699 7994,-165 7994,-165 7994,-165 6626.6995,-165 6626.6995,-165"/>
<polygon fill="#000000" stroke="#000000" points="6626.6995,-161.5001 6616.6995,-165 6626.6995,-168.5001 6626.6995,-161.5001"/>
</g>
<!-- AuthModule.forRoot(args) -->
<g id="node13" class="node">
<title>AuthModule.forRoot(args)</title>
<polygon fill="#8dd3c7" stroke="#000000" points="7903.7366,-122 7900.7366,-126 7879.7366,-126 7876.7366,-122 7736.2634,-122 7736.2634,-86 7903.7366,-86 7903.7366,-122"/>
<text text-anchor="middle" x="7820" y="-99.8" font-family="Times,serif" font-size="14.00" fill="#000000">AuthModule.forRoot(args)</text>
</g>
<!-- AuthModule.forRoot(args)&#45;&gt;AppModule -->
<g id="edge12" class="edge">
<title>AuthModule.forRoot(args)&#45;&gt;AppModule</title>
<path fill="none" stroke="#000000" d="M7820,-122.0225C7820,-139.3734 7820,-163 7820,-163 7820,-163 6626.7794,-163 6626.7794,-163"/>
<polygon fill="#000000" stroke="#000000" points="6626.7794,-159.5001 6616.7794,-163 6626.7793,-166.5001 6626.7794,-159.5001"/>
</g>
<!-- AccountModule.forRoot(args) -->
<g id="node14" class="node">
<title>AccountModule.forRoot(args)</title>
<polygon fill="#8dd3c7" stroke="#000000" points="7718.1659,-122 7715.1659,-126 7694.1659,-126 7691.1659,-122 7531.8341,-122 7531.8341,-86 7718.1659,-86 7718.1659,-122"/>
<text text-anchor="middle" x="7625" y="-99.8" font-family="Times,serif" font-size="14.00" fill="#000000">AccountModule.forRoot(args)</text>
</g>
<!-- AccountModule.forRoot(args)&#45;&gt;AppModule -->
<g id="edge13" class="edge">
<title>AccountModule.forRoot(args)&#45;&gt;AppModule</title>
<path fill="none" stroke="#000000" d="M7625,-122.0352C7625,-138.7344 7625,-161 7625,-161 7625,-161 6626.8092,-161 6626.8092,-161"/>
<polygon fill="#000000" stroke="#000000" points="6626.8092,-157.5001 6616.8092,-161 6626.8092,-164.5001 6626.8092,-157.5001"/>
</g>
<!-- LangModule.forRoot(args) -->
<g id="node15" class="node">
<title>LangModule.forRoot(args)</title>
<polygon fill="#8dd3c7" stroke="#000000" points="7514.0064,-122 7511.0064,-126 7490.0064,-126 7487.0064,-122 7345.9936,-122 7345.9936,-86 7514.0064,-86 7514.0064,-122"/>
<text text-anchor="middle" x="7430" y="-99.8" font-family="Times,serif" font-size="14.00" fill="#000000">LangModule.forRoot(args)</text>
</g>
<!-- LangModule.forRoot(args)&#45;&gt;AppModule -->
<g id="edge14" class="edge">
<title>LangModule.forRoot(args)&#45;&gt;AppModule</title>
<path fill="none" stroke="#000000" d="M7430,-122.0091C7430,-138.0494 7430,-159 7430,-159 7430,-159 6626.8172,-159 6626.8172,-159"/>
<polygon fill="#000000" stroke="#000000" points="6626.8172,-155.5001 6616.8172,-159 6626.8172,-162.5001 6626.8172,-155.5001"/>
</g>
<!-- RouterModule.forRoot(args) -->
<g id="node16" class="node">
<title>RouterModule.forRoot(args)</title>
<polygon fill="#8dd3c7" stroke="#000000" points="7327.8419,-122 7324.8419,-126 7303.8419,-126 7300.8419,-122 7150.1581,-122 7150.1581,-86 7327.8419,-86 7327.8419,-122"/>
<text text-anchor="middle" x="7239" y="-99.8" font-family="Times,serif" font-size="14.00" fill="#000000">RouterModule.forRoot(args)</text>
</g>
<!-- RouterModule.forRoot(args)&#45;&gt;AppModule -->
<g id="edge15" class="edge">
<title>RouterModule.forRoot(args)&#45;&gt;AppModule</title>
<path fill="none" stroke="#000000" d="M7239,-122.2396C7239,-137.5706 7239,-157 7239,-157 7239,-157 6626.7877,-157 6626.7877,-157"/>
<polygon fill="#000000" stroke="#000000" points="6626.7877,-153.5001 6616.7877,-157 6626.7877,-160.5001 6626.7877,-153.5001"/>
</g>
<!-- MetaModule.forRoot(args) -->
<g id="node17" class="node">
<title>MetaModule.forRoot(args)</title>
<polygon fill="#8dd3c7" stroke="#000000" points="7132.0036,-122 7129.0036,-126 7108.0036,-126 7105.0036,-122 6963.9964,-122 6963.9964,-86 7132.0036,-86 7132.0036,-122"/>
<text text-anchor="middle" x="7048" y="-99.8" font-family="Times,serif" font-size="14.00" fill="#000000">MetaModule.forRoot(args)</text>
</g>
<!-- MetaModule.forRoot(args)&#45;&gt;AppModule -->
<g id="edge16" class="edge">
<title>MetaModule.forRoot(args)&#45;&gt;AppModule</title>
<path fill="none" stroke="#000000" d="M7048,-122.1243C7048,-136.7832 7048,-155 7048,-155 7048,-155 6626.9756,-155 6626.9756,-155"/>
<polygon fill="#000000" stroke="#000000" points="6626.9756,-151.5001 6616.9756,-155 6626.9756,-158.5001 6626.9756,-151.5001"/>
</g>
<!-- AuthModalModule.forRoot(args) -->
<g id="node18" class="node">
<title>AuthModalModule.forRoot(args)</title>
<polygon fill="#8dd3c7" stroke="#000000" points="6945.7863,-122 6942.7863,-126 6921.7863,-126 6918.7863,-122 6742.2137,-122 6742.2137,-86 6945.7863,-86 6945.7863,-122"/>
<text text-anchor="middle" x="6844" y="-99.8" font-family="Times,serif" font-size="14.00" fill="#000000">AuthModalModule.forRoot(args)</text>
</g>
<!-- AuthModalModule.forRoot(args)&#45;&gt;AppModule -->
<g id="edge17" class="edge">
<title>AuthModalModule.forRoot(args)&#45;&gt;AppModule</title>
<path fill="none" stroke="#000000" d="M6844,-122.2458C6844,-136.1772 6844,-153 6844,-153 6844,-153 6626.7361,-153 6626.7361,-153"/>
<polygon fill="#000000" stroke="#000000" points="6626.7361,-149.5001 6616.7361,-153 6626.7361,-156.5001 6626.7361,-149.5001"/>
</g>
<!-- IonicAuthModalModule -->
<g id="node19" class="node">
<title>IonicAuthModalModule</title>
<polygon fill="#8dd3c7" stroke="#000000" points="6724.3627,-122 6721.3627,-126 6700.3627,-126 6697.3627,-122 6571.6373,-122 6571.6373,-86 6724.3627,-86 6724.3627,-122"/>
<text text-anchor="middle" x="6648" y="-99.8" font-family="Times,serif" font-size="14.00" fill="#000000">IonicAuthModalModule</text>
</g>
<!-- IonicAuthModalModule&#45;&gt;AppModule -->
<g id="edge18" class="edge">
<title>IonicAuthModalModule&#45;&gt;AppModule</title>
<path fill="none" stroke="#000000" d="M6594.1985,-122.1061C6594.1985,-122.1061 6594.1985,-140.991 6594.1985,-140.991"/>
<polygon fill="#000000" stroke="#000000" points="6590.6985,-140.9909 6594.1985,-150.991 6597.6985,-140.991 6590.6985,-140.9909"/>
</g>
<!-- NavbarModule -->
<g id="node20" class="node">
<title>NavbarModule</title>
<polygon fill="#8dd3c7" stroke="#000000" points="6553.2465,-122 6550.2465,-126 6529.2465,-126 6526.2465,-122 6452.7535,-122 6452.7535,-86 6553.2465,-86 6553.2465,-122"/>
<text text-anchor="middle" x="6503" y="-99.8" font-family="Times,serif" font-size="14.00" fill="#000000">NavbarModule</text>
</g>
<!-- NavbarModule&#45;&gt;AppModule -->
<g id="edge19" class="edge">
<title>NavbarModule&#45;&gt;AppModule</title>
<path fill="none" stroke="#000000" d="M6543.2725,-122.1061C6543.2725,-122.1061 6543.2725,-140.991 6543.2725,-140.991"/>
<polygon fill="#000000" stroke="#000000" points="6539.7725,-140.9909 6543.2725,-150.991 6546.7725,-140.991 6539.7725,-140.9909"/>
</g>
<!-- IonicModalsModule -->
<g id="node21" class="node">
<title>IonicModalsModule</title>
<polygon fill="#8dd3c7" stroke="#000000" points="6434.3104,-122 6431.3104,-126 6410.3104,-126 6407.3104,-122 6303.6896,-122 6303.6896,-86 6434.3104,-86 6434.3104,-122"/>
<text text-anchor="middle" x="6369" y="-99.8" font-family="Times,serif" font-size="14.00" fill="#000000">IonicModalsModule</text>
</g>
<!-- IonicModalsModule&#45;&gt;AppModule -->
<g id="edge20" class="edge">
<title>IonicModalsModule&#45;&gt;AppModule</title>
<path fill="none" stroke="#000000" d="M6369,-122.2458C6369,-136.1772 6369,-153 6369,-153 6369,-153 6523.3128,-153 6523.3128,-153"/>
<polygon fill="#000000" stroke="#000000" points="6523.3129,-156.5001 6533.3128,-153 6523.3128,-149.5001 6523.3129,-156.5001"/>
</g>
<!-- UsersListFiltersModalModule.forRoot() -->
<g id="node22" class="node">
<title>UsersListFiltersModalModule.forRoot()</title>
<polygon fill="#8dd3c7" stroke="#000000" points="6285.8928,-122 6282.8928,-126 6261.8928,-126 6258.8928,-122 6044.1072,-122 6044.1072,-86 6285.8928,-86 6285.8928,-122"/>
<text text-anchor="middle" x="6165" y="-99.8" font-family="Times,serif" font-size="14.00" fill="#000000">UsersListFiltersModalModule.forRoot()</text>
</g>
<!-- UsersListFiltersModalModule.forRoot()&#45;&gt;AppModule -->
<g id="edge21" class="edge">
<title>UsersListFiltersModalModule.forRoot()&#45;&gt;AppModule</title>
<path fill="none" stroke="#000000" d="M6165,-122.1243C6165,-136.7832 6165,-155 6165,-155 6165,-155 6523.0496,-155 6523.0496,-155"/>
<polygon fill="#000000" stroke="#000000" points="6523.0496,-158.5001 6533.0496,-155 6523.0496,-151.5001 6523.0496,-158.5001"/>
</g>
<!-- GroupsListFiltersModalModule.forRoot() -->
<g id="node23" class="node">
<title>GroupsListFiltersModalModule.forRoot()</title>
<polygon fill="#8dd3c7" stroke="#000000" points="6025.7337,-122 6022.7337,-126 6001.7337,-126 5998.7337,-122 5774.2663,-122 5774.2663,-86 6025.7337,-86 6025.7337,-122"/>
<text text-anchor="middle" x="5900" y="-99.8" font-family="Times,serif" font-size="14.00" fill="#000000">GroupsListFiltersModalModule.forRoot()</text>
</g>
<!-- GroupsListFiltersModalModule.forRoot()&#45;&gt;AppModule -->
<g id="edge22" class="edge">
<title>GroupsListFiltersModalModule.forRoot()&#45;&gt;AppModule</title>
<path fill="none" stroke="#000000" d="M5900,-122.2396C5900,-137.5706 5900,-157 5900,-157 5900,-157 6523.2851,-157 6523.2851,-157"/>
<polygon fill="#000000" stroke="#000000" points="6523.2852,-160.5001 6533.2851,-157 6523.2851,-153.5001 6523.2852,-160.5001"/>
</g>
<!-- NgxBindIOModule.forRoot() -->
<g id="node24" class="node">
<title>NgxBindIOModule.forRoot()</title>
<polygon fill="#8dd3c7" stroke="#000000" points="5756.0204,-122 5753.0204,-126 5732.0204,-126 5729.0204,-122 5573.9796,-122 5573.9796,-86 5756.0204,-86 5756.0204,-122"/>
<text text-anchor="middle" x="5665" y="-99.8" font-family="Times,serif" font-size="14.00" fill="#000000">NgxBindIOModule.forRoot()</text>
</g>
<!-- NgxBindIOModule.forRoot()&#45;&gt;AppModule -->
<g id="edge23" class="edge">
<title>NgxBindIOModule.forRoot()&#45;&gt;AppModule</title>
<path fill="none" stroke="#000000" d="M5665,-122.0091C5665,-138.0494 5665,-159 5665,-159 5665,-159 6523.2347,-159 6523.2347,-159"/>
<polygon fill="#000000" stroke="#000000" points="6523.2347,-162.5001 6533.2347,-159 6523.2347,-155.5001 6523.2347,-162.5001"/>
</g>
<!-- { provide: CONTENT_TYPES_CONFIG_TOKEN, useValue: &#160;} -->
<g id="node26" class="node">
<title>{ provide: CONTENT_TYPES_CONFIG_TOKEN, useValue: &#160;}</title>
<ellipse fill="#fdb462" stroke="#000000" cx="5287" cy="-104" rx="263.0597" ry="18"/>
<text text-anchor="middle" x="5287" y="-99.8" font-family="Times,serif" font-size="14.00" fill="#000000">{ provide: CONTENT_TYPES_CONFIG_TOKEN, useValue: &#160;}</text>
</g>
<!-- { provide: CONTENT_TYPES_CONFIG_TOKEN, useValue: &#160;}&#45;&gt;AppModule -->
<g id="edge25" class="edge">
<title>{ provide: CONTENT_TYPES_CONFIG_TOKEN, useValue: &#160;}&#45;&gt;AppModule</title>
<path fill="none" stroke="#000000" d="M5287,-122.0352C5287,-138.7344 5287,-161 5287,-161 5287,-161 6523.2422,-161 6523.2422,-161"/>
<polygon fill="#000000" stroke="#000000" points="6523.2422,-164.5001 6533.2422,-161 6523.2421,-157.5001 6523.2422,-164.5001"/>
</g>
<!-- { provide: PERMISSIONS_CONFIG_TOKEN, useValue: &#160;} -->
<g id="node27" class="node">
<title>{ provide: PERMISSIONS_CONFIG_TOKEN, useValue: &#160;}</title>
<ellipse fill="#fdb462" stroke="#000000" cx="4759" cy="-104" rx="246.8224" ry="18"/>
<text text-anchor="middle" x="4759" y="-99.8" font-family="Times,serif" font-size="14.00" fill="#000000">{ provide: PERMISSIONS_CONFIG_TOKEN, useValue: &#160;}</text>
</g>
<!-- { provide: PERMISSIONS_CONFIG_TOKEN, useValue: &#160;}&#45;&gt;AppModule -->
<g id="edge26" class="edge">
<title>{ provide: PERMISSIONS_CONFIG_TOKEN, useValue: &#160;}&#45;&gt;AppModule</title>
<path fill="none" stroke="#000000" d="M4759,-122.0225C4759,-139.3734 4759,-163 4759,-163 4759,-163 6523.2221,-163 6523.2221,-163"/>
<polygon fill="#000000" stroke="#000000" points="6523.2222,-166.5001 6533.2221,-163 6523.2221,-159.5001 6523.2222,-166.5001"/>
</g>
<!-- { provide: USERS_CONFIG_TOKEN, useValue: &#160;} -->
<g id="node28" class="node">
<title>{ provide: USERS_CONFIG_TOKEN, useValue: &#160;}</title>
<ellipse fill="#fdb462" stroke="#000000" cx="4280" cy="-104" rx="213.8791" ry="18"/>
<text text-anchor="middle" x="4280" y="-99.8" font-family="Times,serif" font-size="14.00" fill="#000000">{ provide: USERS_CONFIG_TOKEN, useValue: &#160;}</text>
</g>
<!-- { provide: USERS_CONFIG_TOKEN, useValue: &#160;}&#45;&gt;AppModule -->
<g id="edge27" class="edge">
<title>{ provide: USERS_CONFIG_TOKEN, useValue: &#160;}&#45;&gt;AppModule</title>
<path fill="none" stroke="#000000" d="M4280,-122.302C4280,-140.2699 4280,-165 4280,-165 4280,-165 6523.2069,-165 6523.2069,-165"/>
<polygon fill="#000000" stroke="#000000" points="6523.2069,-168.5001 6533.2069,-165 6523.2068,-161.5001 6523.2069,-168.5001"/>
</g>
<!-- { provide: GROUPS_CONFIG_TOKEN, useValue: &#160;} -->
<g id="node29" class="node">
<title>{ provide: GROUPS_CONFIG_TOKEN, useValue: &#160;}</title>
<ellipse fill="#fdb462" stroke="#000000" cx="3826" cy="-104" rx="221.9656" ry="18"/>
<text text-anchor="middle" x="3826" y="-99.8" font-family="Times,serif" font-size="14.00" fill="#000000">{ provide: GROUPS_CONFIG_TOKEN, useValue: &#160;}</text>
</g>
<!-- { provide: GROUPS_CONFIG_TOKEN, useValue: &#160;}&#45;&gt;AppModule -->
<g id="edge28" class="edge">
<title>{ provide: GROUPS_CONFIG_TOKEN, useValue: &#160;}&#45;&gt;AppModule</title>
<path fill="none" stroke="#000000" d="M3826,-122.2222C3826,-140.8285 3826,-167 3826,-167 3826,-167 6523.1927,-167 6523.1927,-167"/>
<polygon fill="#000000" stroke="#000000" points="6523.1928,-170.5001 6533.1927,-167 6523.1927,-163.5001 6523.1928,-170.5001"/>
</g>
<!-- { provide: STORAGE_CONFIG_TOKEN, useClass: BrowserStorage } -->
<g id="node30" class="node">
<title>{ provide: STORAGE_CONFIG_TOKEN, useClass: BrowserStorage }</title>
<ellipse fill="#fdb462" stroke="#000000" cx="3298" cy="-104" rx="288.4746" ry="18"/>
<text text-anchor="middle" x="3298" y="-99.8" font-family="Times,serif" font-size="14.00" fill="#000000">{ provide: STORAGE_CONFIG_TOKEN, useClass: BrowserStorage }</text>
</g>
<!-- { provide: STORAGE_CONFIG_TOKEN, useClass: BrowserStorage }&#45;&gt;AppModule -->
<g id="edge29" class="edge">
<title>{ provide: STORAGE_CONFIG_TOKEN, useClass: BrowserStorage }&#45;&gt;AppModule</title>
<path fill="none" stroke="#000000" d="M3298,-122.1061C3298,-141.3391 3298,-169 3298,-169 3298,-169 6523.2685,-169 6523.2685,-169"/>
<polygon fill="#000000" stroke="#000000" points="6523.2685,-172.5001 6533.2685,-169 6523.2685,-165.5001 6523.2685,-172.5001"/>
</g>
<!-- { provide: &#39;ORIGIN_URL&#39;, useValue: &#160;} -->
<g id="node31" class="node">
<title>{ provide: &#39;ORIGIN_URL&#39;, useValue: &#160;}</title>
<ellipse fill="#fdb462" stroke="#000000" cx="2822" cy="-104" rx="169.8754" ry="18"/>
<text text-anchor="middle" x="2822" y="-99.8" font-family="Times,serif" font-size="14.00" fill="#000000">{ provide: &#39;ORIGIN_URL&#39;, useValue: &#160;}</text>
</g>
<!-- { provide: &#39;ORIGIN_URL&#39;, useValue: &#160;}&#45;&gt;AppModule -->
<g id="edge30" class="edge">
<title>{ provide: &#39;ORIGIN_URL&#39;, useValue: &#160;}&#45;&gt;AppModule</title>
<path fill="none" stroke="#000000" d="M2822,-122.308C2822,-142.1455 2822,-171 2822,-171 2822,-171 6523.1736,-171 6523.1736,-171"/>
<polygon fill="#000000" stroke="#000000" points="6523.1736,-174.5001 6533.1736,-171 6523.1736,-167.5001 6523.1736,-174.5001"/>
</g>
<!-- { provide: APP_INITIALIZER, useFactory: initializeApp, multi: , deps: [TokenService, LangService, UsersListFiltersModalService, GroupsListFiltersModalService] } -->
<g id="node32" class="node">
<title>{ provide: APP_INITIALIZER, useFactory: initializeApp, multi: , deps: [TokenService, LangService, UsersListFiltersModalService, GroupsListFiltersModalService] }</title>
<ellipse fill="#fdb462" stroke="#000000" cx="1973" cy="-104" rx="661.4927" ry="18"/>
<text text-anchor="middle" x="1973" y="-99.8" font-family="Times,serif" font-size="14.00" fill="#000000">{ provide: APP_INITIALIZER, useFactory: initializeApp, multi: , deps: [TokenService, LangService, UsersListFiltersModalService, GroupsListFiltersModalService] }</text>
</g>
<!-- { provide: APP_INITIALIZER, useFactory: initializeApp, multi: , deps: [TokenService, LangService, UsersListFiltersModalService, GroupsListFiltersModalService] }&#45;&gt;AppModule -->
<g id="edge31" class="edge">
<title>{ provide: APP_INITIALIZER, useFactory: initializeApp, multi: , deps: [TokenService, LangService, UsersListFiltersModalService, GroupsListFiltersModalService] }&#45;&gt;AppModule</title>
<path fill="none" stroke="#000000" d="M2634.6811,-104C2640.1991,-104 2643.1543,-104 2643.1543,-104 2643.1543,-104 2643.1543,-173 2643.1543,-173 2643.1543,-173 6523.1757,-173 6523.1757,-173"/>
<polygon fill="#000000" stroke="#000000" points="6523.1757,-176.5001 6533.1757,-173 6523.1756,-169.5001 6523.1757,-176.5001"/>
</g>
<!-- StatusBar -->
<g id="node33" class="node">
<title>StatusBar</title>
<ellipse fill="#fdb462" stroke="#000000" cx="1245" cy="-104" rx="48.6694" ry="18"/>
<text text-anchor="middle" x="1245" y="-99.8" font-family="Times,serif" font-size="14.00" fill="#000000">StatusBar</text>
</g>
<!-- StatusBar&#45;&gt;AppModule -->
<g id="edge32" class="edge">
<title>StatusBar&#45;&gt;AppModule</title>
<path fill="none" stroke="#000000" d="M1245,-122.2843C1245,-143.3211 1245,-175 1245,-175 1245,-175 6523.2588,-175 6523.2588,-175"/>
<polygon fill="#000000" stroke="#000000" points="6523.2589,-178.5001 6533.2588,-175 6523.2588,-171.5001 6523.2589,-178.5001"/>
</g>
<!-- SplashScreen -->
<g id="node34" class="node">
<title>SplashScreen</title>
<ellipse fill="#fdb462" stroke="#000000" cx="1115" cy="-104" rx="63.1189" ry="18"/>
<text text-anchor="middle" x="1115" y="-99.8" font-family="Times,serif" font-size="14.00" fill="#000000">SplashScreen</text>
</g>
<!-- SplashScreen&#45;&gt;AppModule -->
<g id="edge33" class="edge">
<title>SplashScreen&#45;&gt;AppModule</title>
<path fill="none" stroke="#000000" d="M1115,-122.0449C1115,-143.6623 1115,-177 1115,-177 1115,-177 6523.0258,-177 6523.0258,-177"/>
<polygon fill="#000000" stroke="#000000" points="6523.0259,-180.5001 6533.0258,-177 6523.0258,-173.5001 6523.0259,-180.5001"/>
</g>
<!-- { provide: RouteReuseStrategy, useClass: IonicRouteStrategy } -->
<g id="node35" class="node">
<title>{ provide: RouteReuseStrategy, useClass: IonicRouteStrategy }</title>
<ellipse fill="#fdb462" stroke="#000000" cx="777" cy="-104" rx="257.2723" ry="18"/>
<text text-anchor="middle" x="777" y="-99.8" font-family="Times,serif" font-size="14.00" fill="#000000">{ provide: RouteReuseStrategy, useClass: IonicRouteStrategy }</text>
</g>
<!-- { provide: RouteReuseStrategy, useClass: IonicRouteStrategy }&#45;&gt;AppModule -->
<g id="edge34" class="edge">
<title>{ provide: RouteReuseStrategy, useClass: IonicRouteStrategy }&#45;&gt;AppModule</title>
<path fill="none" stroke="#000000" d="M777,-122.1554C777,-144.3519 777,-179 777,-179 777,-179 6523.2866,-179 6523.2866,-179"/>
<polygon fill="#000000" stroke="#000000" points="6523.2867,-182.5001 6533.2866,-179 6523.2866,-175.5001 6523.2867,-182.5001"/>
</g>
<!-- CookieService -->
<g id="node36" class="node">
<title>CookieService</title>
<ellipse fill="#fdb462" stroke="#000000" cx="434" cy="-104" rx="67.776" ry="18"/>
<text text-anchor="middle" x="434" y="-99.8" font-family="Times,serif" font-size="14.00" fill="#000000">CookieService</text>
</g>
<!-- CookieService&#45;&gt;AppModule -->
<g id="edge35" class="edge">
<title>CookieService&#45;&gt;AppModule</title>
<path fill="none" stroke="#000000" d="M434,-122.2479C434,-145.0179 434,-181 434,-181 434,-181 6523.3376,-181 6523.3376,-181"/>
<polygon fill="#000000" stroke="#000000" points="6523.3376,-184.5001 6533.3376,-181 6523.3375,-177.5001 6523.3376,-184.5001"/>
</g>
<!-- ErrorsExtractor -->
<g id="node37" class="node">
<title>ErrorsExtractor</title>
<ellipse fill="#fdb462" stroke="#000000" cx="277" cy="-104" rx="71.1823" ry="18"/>
<text text-anchor="middle" x="277" y="-99.8" font-family="Times,serif" font-size="14.00" fill="#000000">ErrorsExtractor</text>
</g>
<!-- ErrorsExtractor&#45;&gt;AppModule -->
<g id="edge36" class="edge">
<title>ErrorsExtractor&#45;&gt;AppModule</title>
<path fill="none" stroke="#000000" d="M277,-122.3228C277,-145.6602 277,-183 277,-183 277,-183 6523.1172,-183 6523.1172,-183"/>
<polygon fill="#000000" stroke="#000000" points="6523.1172,-186.5001 6533.1172,-183 6523.1171,-179.5001 6523.1172,-186.5001"/>
</g>
<!-- PermissionsGuard -->
<g id="node38" class="node">
<title>PermissionsGuard</title>
<ellipse fill="#fdb462" stroke="#000000" cx="106" cy="-104" rx="81.6789" ry="18"/>
<text text-anchor="middle" x="106" y="-99.8" font-family="Times,serif" font-size="14.00" fill="#000000">PermissionsGuard</text>
</g>
<!-- PermissionsGuard&#45;&gt;AppModule -->
<g id="edge37" class="edge">
<title>PermissionsGuard&#45;&gt;AppModule</title>
<path fill="none" stroke="#000000" d="M106,-122.3802C106,-146.2785 106,-185 106,-185 106,-185 6523.2658,-185 6523.2658,-185"/>
<polygon fill="#000000" stroke="#000000" points="6523.2659,-188.5001 6533.2658,-185 6523.2658,-181.5001 6523.2659,-188.5001"/>
</g>
</g>
</svg>
