<?xml version="1.0" encoding="UTF-8" standalone="no"?>
<!DOCTYPE svg PUBLIC "-//W3C//DTD SVG 1.1//EN"
 "http://www.w3.org/Graphics/SVG/1.1/DTD/svg11.dtd">
<!-- Generated by graphviz version 2.40.1 (20161225.0304)
 -->
<!-- Title: dependencies Pages: 1 -->
<svg width="792pt" height="284pt"
 viewBox="0.00 0.00 792.00 284.00" xmlns="http://www.w3.org/2000/svg" xmlns:xlink="http://www.w3.org/1999/xlink">
<g id="graph0" class="graph" transform="scale(1 1) rotate(0) translate(4 280)">
<title>dependencies</title>
<polygon fill="#ffffff" stroke="transparent" points="-4,4 -4,-280 788,-280 788,4 -4,4"/>
<text text-anchor="start" x="371.0091" y="-42.4" font-family="sans-serif" font-weight="bold" font-size="14.00" fill="#000000">Legend</text>
<polygon fill="#ffffb3" stroke="transparent" points="158,-10 158,-30 178,-30 178,-10 158,-10"/>
<text text-anchor="start" x="181.629" y="-15.4" font-family="sans-serif" font-size="14.00" fill="#000000"> &#160;Declarations</text>
<polygon fill="#8dd3c7" stroke="transparent" points="271,-10 271,-30 291,-30 291,-10 271,-10"/>
<text text-anchor="start" x="294.7251" y="-15.4" font-family="sans-serif" font-size="14.00" fill="#000000"> &#160;Module</text>
<polygon fill="#80b1d3" stroke="transparent" points="357,-10 357,-30 377,-30 377,-10 357,-10"/>
<text text-anchor="start" x="380.7812" y="-15.4" font-family="sans-serif" font-size="14.00" fill="#000000"> &#160;Bootstrap</text>
<polygon fill="#fdb462" stroke="transparent" points="454,-10 454,-30 474,-30 474,-10 454,-10"/>
<text text-anchor="start" x="477.6732" y="-15.4" font-family="sans-serif" font-size="14.00" fill="#000000"> &#160;Providers</text>
<polygon fill="#fb8072" stroke="transparent" points="550,-10 550,-30 570,-30 570,-10 550,-10"/>
<text text-anchor="start" x="573.7258" y="-15.4" font-family="sans-serif" font-size="14.00" fill="#000000"> &#160;Exports</text>
<g id="clust1" class="cluster">
<title>cluster_SharedModule</title>
<polygon fill="none" stroke="#000000" stroke-dasharray="1,5" points="8,-70 8,-268 776,-268 776,-70 8,-70"/>
</g>
<g id="clust3" class="cluster">
<title>cluster_SharedModule_imports</title>
<polygon fill="none" stroke="#000000" points="16,-78 16,-130 768,-130 768,-78 16,-78"/>
</g>
<g id="clust4" class="cluster">
<title>cluster_SharedModule_exports</title>
<polygon fill="none" stroke="#000000" points="96,-208 96,-260 748,-260 748,-208 96,-208"/>
</g>
<!-- CommonModule -->
<g id="node1" class="node">
<title>CommonModule</title>
<polygon fill="#8dd3c7" stroke="#000000" points="759.6681,-122 756.6681,-126 735.6681,-126 732.6681,-122 648.3319,-122 648.3319,-86 759.6681,-86 759.6681,-122"/>
<text text-anchor="middle" x="704" y="-99.8" font-family="Times,serif" font-size="14.00" fill="#000000">CommonModule</text>
</g>
<!-- SharedModule -->
<g id="node6" class="node">
<title>SharedModule</title>
<polygon fill="#8dd3c7" stroke="#000000" points="470.4231,-187 467.4231,-191 446.4231,-191 443.4231,-187 371.5769,-187 371.5769,-151 470.4231,-151 470.4231,-187"/>
<text text-anchor="middle" x="421" y="-164.8" font-family="Times,serif" font-size="14.00" fill="#000000">SharedModule</text>
</g>
<!-- CommonModule&#45;&gt;SharedModule -->
<g id="edge1" class="edge">
<title>CommonModule&#45;&gt;SharedModule</title>
<path fill="none" stroke="#000000" d="M693.875,-122.2667C693.875,-140.5552 693.875,-166 693.875,-166 693.875,-166 480.4156,-166 480.4156,-166"/>
<polygon fill="#000000" stroke="#000000" points="480.4156,-162.5001 470.4156,-166 480.4156,-169.5001 480.4156,-162.5001"/>
</g>
<!-- PipesModule -->
<g id="node2" class="node">
<title>PipesModule</title>
<polygon fill="#8dd3c7" stroke="#000000" points="629.8823,-122 626.8823,-126 605.8823,-126 602.8823,-122 540.1177,-122 540.1177,-86 629.8823,-86 629.8823,-122"/>
<text text-anchor="middle" x="585" y="-99.8" font-family="Times,serif" font-size="14.00" fill="#000000">PipesModule</text>
</g>
<!-- PipesModule&#45;&gt;SharedModule -->
<g id="edge2" class="edge">
<title>PipesModule&#45;&gt;SharedModule</title>
<path fill="none" stroke="#000000" d="M573.375,-122.0091C573.375,-138.0494 573.375,-159 573.375,-159 573.375,-159 480.4718,-159 480.4718,-159"/>
<polygon fill="#000000" stroke="#000000" points="480.4718,-155.5001 470.4718,-159 480.4718,-162.5001 480.4718,-155.5001"/>
</g>
<!-- NgxRepositoryModule.forRoot() -->
<g id="node3" class="node">
<title>NgxRepositoryModule.forRoot()</title>
<polygon fill="#8dd3c7" stroke="#000000" points="521.9641,-122 518.9641,-126 497.9641,-126 494.9641,-122 320.0359,-122 320.0359,-86 521.9641,-86 521.9641,-122"/>
<text text-anchor="middle" x="421" y="-99.8" font-family="Times,serif" font-size="14.00" fill="#000000">NgxRepositoryModule.forRoot()</text>
</g>
<!-- NgxRepositoryModule.forRoot()&#45;&gt;SharedModule -->
<g id="edge3" class="edge">
<title>NgxRepositoryModule.forRoot()&#45;&gt;SharedModule</title>
<path fill="none" stroke="#000000" d="M421,-122.1061C421,-122.1061 421,-140.991 421,-140.991"/>
<polygon fill="#000000" stroke="#000000" points="417.5001,-140.9909 421,-150.991 424.5001,-140.991 417.5001,-140.9909"/>
</g>
<!-- TranslateModule.forChild() -->
<g id="node4" class="node">
<title>TranslateModule.forChild()</title>
<polygon fill="#8dd3c7" stroke="#000000" points="301.8928,-122 298.8928,-126 277.8928,-126 274.8928,-122 130.1072,-122 130.1072,-86 301.8928,-86 301.8928,-122"/>
<text text-anchor="middle" x="216" y="-99.8" font-family="Times,serif" font-size="14.00" fill="#000000">TranslateModule.forChild()</text>
</g>
<!-- TranslateModule.forChild()&#45;&gt;SharedModule -->
<g id="edge4" class="edge">
<title>TranslateModule.forChild()&#45;&gt;SharedModule</title>
<path fill="none" stroke="#000000" d="M257.6901,-122.0091C257.6901,-138.0494 257.6901,-159 257.6901,-159 257.6901,-159 361.5584,-159 361.5584,-159"/>
<polygon fill="#000000" stroke="#000000" points="361.5585,-162.5001 371.5584,-159 361.5584,-155.5001 361.5585,-162.5001"/>
</g>
<!-- IonicModule -->
<g id="node5" class="node">
<title>IonicModule</title>
<polygon fill="#8dd3c7" stroke="#000000" points="112.3162,-122 109.3162,-126 88.3162,-126 85.3162,-122 23.6838,-122 23.6838,-86 112.3162,-86 112.3162,-122"/>
<text text-anchor="middle" x="68" y="-99.8" font-family="Times,serif" font-size="14.00" fill="#000000">IonicModule</text>
</g>
<!-- IonicModule&#45;&gt;SharedModule -->
<g id="edge5" class="edge">
<title>IonicModule&#45;&gt;SharedModule</title>
<path fill="none" stroke="#000000" d="M108.125,-122.2667C108.125,-140.5552 108.125,-166 108.125,-166 108.125,-166 361.7691,-166 361.7691,-166"/>
<polygon fill="#000000" stroke="#000000" points="361.7691,-169.5001 371.7691,-166 361.7691,-162.5001 361.7691,-169.5001"/>
</g>
<!-- CommonModule  -->
<g id="node7" class="node">
<title>CommonModule </title>
<polygon fill="#fb8072" stroke="#000000" points="739.6677,-252 624.3323,-252 624.3323,-216 739.6677,-216 739.6677,-252"/>
<text text-anchor="middle" x="682" y="-229.8" font-family="Times,serif" font-size="14.00" fill="#000000">CommonModule </text>
</g>
<!-- SharedModule&#45;&gt;CommonModule  -->
<g id="edge6" class="edge">
<title>SharedModule&#45;&gt;CommonModule </title>
<path fill="none" stroke="#000000" stroke-dasharray="5,2" d="M470.4797,-173C534.8147,-173 639.0537,-173 639.0537,-173 639.0537,-173 639.0537,-205.698 639.0537,-205.698"/>
<polygon fill="#000000" stroke="#000000" points="635.5537,-205.698 639.0537,-215.698 642.5537,-205.698 635.5537,-205.698"/>
</g>
<!-- PipesModule  -->
<g id="node8" class="node">
<title>PipesModule </title>
<polygon fill="#fb8072" stroke="#000000" points="606.883,-252 513.117,-252 513.117,-216 606.883,-216 606.883,-252"/>
<text text-anchor="middle" x="560" y="-229.8" font-family="Times,serif" font-size="14.00" fill="#000000">PipesModule </text>
</g>
<!-- SharedModule&#45;&gt;PipesModule  -->
<g id="edge7" class="edge">
<title>SharedModule&#45;&gt;PipesModule </title>
<path fill="none" stroke="#000000" stroke-dasharray="5,2" d="M470.3912,-180C494.1384,-180 517.5204,-180 517.5204,-180 517.5204,-180 517.5204,-205.7181 517.5204,-205.7181"/>
<polygon fill="#000000" stroke="#000000" points="514.0204,-205.718 517.5204,-215.7181 521.0204,-205.7181 514.0204,-205.718"/>
</g>
<!-- NgxRepositoryModule  -->
<g id="node9" class="node">
<title>NgxRepositoryModule </title>
<polygon fill="#fb8072" stroke="#000000" points="495.0946,-252 346.9054,-252 346.9054,-216 495.0946,-216 495.0946,-252"/>
<text text-anchor="middle" x="421" y="-229.8" font-family="Times,serif" font-size="14.00" fill="#000000">NgxRepositoryModule </text>
</g>
<!-- SharedModule&#45;&gt;NgxRepositoryModule  -->
<g id="edge8" class="edge">
<title>SharedModule&#45;&gt;NgxRepositoryModule </title>
<path fill="none" stroke="#000000" stroke-dasharray="5,2" d="M421,-187.1061C421,-187.1061 421,-205.991 421,-205.991"/>
<polygon fill="#000000" stroke="#000000" points="417.5001,-205.9909 421,-215.991 424.5001,-205.991 417.5001,-205.9909"/>
</g>
<!-- TranslateModule  -->
<g id="node10" class="node">
<title>TranslateModule </title>
<polygon fill="#fb8072" stroke="#000000" points="328.6327,-252 213.3673,-252 213.3673,-216 328.6327,-216 328.6327,-252"/>
<text text-anchor="middle" x="271" y="-229.8" font-family="Times,serif" font-size="14.00" fill="#000000">TranslateModule </text>
</g>
<!-- SharedModule&#45;&gt;TranslateModule  -->
<g id="edge9" class="edge">
<title>SharedModule&#45;&gt;TranslateModule </title>
<path fill="none" stroke="#000000" stroke-dasharray="5,2" d="M371.5769,-180C347.8143,-180 324.4172,-180 324.4172,-180 324.4172,-180 324.4172,-205.7181 324.4172,-205.7181"/>
<polygon fill="#000000" stroke="#000000" points="320.9173,-205.718 324.4172,-215.7181 327.9173,-205.7181 320.9173,-205.718"/>
</g>
<!-- IonicModule  -->
<g id="node11" class="node">
<title>IonicModule </title>
<polygon fill="#fb8072" stroke="#000000" points="195.8158,-252 104.1842,-252 104.1842,-216 195.8158,-216 195.8158,-252"/>
<text text-anchor="middle" x="150" y="-229.8" font-family="Times,serif" font-size="14.00" fill="#000000">IonicModule </text>
</g>
<!-- SharedModule&#45;&gt;IonicModule  -->
<g id="edge10" class="edge">
<title>SharedModule&#45;&gt;IonicModule </title>
<path fill="none" stroke="#000000" stroke-dasharray="5,2" d="M371.5566,-173C296.6363,-173 162.9807,-173 162.9807,-173 162.9807,-173 162.9807,-205.698 162.9807,-205.698"/>
<polygon fill="#000000" stroke="#000000" points="159.4808,-205.698 162.9807,-215.698 166.4808,-205.698 159.4808,-205.698"/>
</g>
</g>
</svg>
