<?xml version="1.0" encoding="UTF-8" standalone="no"?>
<!DOCTYPE svg PUBLIC "-//W3C//DTD SVG 1.1//EN"
 "http://www.w3.org/Graphics/SVG/1.1/DTD/svg11.dtd">
<!-- Generated by graphviz version 2.40.1 (20161225.0304)
 -->
<!-- Title: dependencies Pages: 1 -->
<svg width="1517pt" height="284pt"
 viewBox="0.00 0.00 1517.00 284.00" xmlns="http://www.w3.org/2000/svg" xmlns:xlink="http://www.w3.org/1999/xlink">
<g id="graph0" class="graph" transform="scale(1 1) rotate(0) translate(4 280)">
<title>dependencies</title>
<polygon fill="#ffffff" stroke="transparent" points="-4,4 -4,-280 1513,-280 1513,4 -4,4"/>
<text text-anchor="start" x="733.5091" y="-42.4" font-family="sans-serif" font-weight="bold" font-size="14.00" fill="#000000">Legend</text>
<polygon fill="#ffffb3" stroke="transparent" points="520.5,-10 520.5,-30 540.5,-30 540.5,-10 520.5,-10"/>
<text text-anchor="start" x="544.129" y="-15.4" font-family="sans-serif" font-size="14.00" fill="#000000"> &#160;Declarations</text>
<polygon fill="#8dd3c7" stroke="transparent" points="633.5,-10 633.5,-30 653.5,-30 653.5,-10 633.5,-10"/>
<text text-anchor="start" x="657.2251" y="-15.4" font-family="sans-serif" font-size="14.00" fill="#000000"> &#160;Module</text>
<polygon fill="#80b1d3" stroke="transparent" points="719.5,-10 719.5,-30 739.5,-30 739.5,-10 719.5,-10"/>
<text text-anchor="start" x="743.2812" y="-15.4" font-family="sans-serif" font-size="14.00" fill="#000000"> &#160;Bootstrap</text>
<polygon fill="#fdb462" stroke="transparent" points="816.5,-10 816.5,-30 836.5,-30 836.5,-10 816.5,-10"/>
<text text-anchor="start" x="840.1732" y="-15.4" font-family="sans-serif" font-size="14.00" fill="#000000"> &#160;Providers</text>
<polygon fill="#fb8072" stroke="transparent" points="912.5,-10 912.5,-30 932.5,-30 932.5,-10 912.5,-10"/>
<text text-anchor="start" x="936.2258" y="-15.4" font-family="sans-serif" font-size="14.00" fill="#000000"> &#160;Exports</text>
<g id="clust1" class="cluster">
<title>cluster_GroupModalModule</title>
<polygon fill="none" stroke="#000000" stroke-dasharray="1,5" points="8,-70 8,-268 1501,-268 1501,-70 8,-70"/>
</g>
<g id="clust2" class="cluster">
<title>cluster_GroupModalModule_declarations</title>
<polygon fill="none" stroke="#000000" points="1323,-78 1323,-130 1493,-130 1493,-78 1323,-78"/>
</g>
<g id="clust4" class="cluster">
<title>cluster_GroupModalModule_imports</title>
<polygon fill="none" stroke="#000000" points="16,-78 16,-130 1315,-130 1315,-78 16,-78"/>
</g>
<g id="clust5" class="cluster">
<title>cluster_GroupModalModule_exports</title>
<polygon fill="none" stroke="#000000" points="614,-208 614,-260 935,-260 935,-208 614,-208"/>
</g>
<!-- GroupModalComponent -->
<g id="node1" class="node">
<title>GroupModalComponent</title>
<polygon fill="#ffffb3" stroke="#000000" points="1484.6498,-122 1331.3502,-122 1331.3502,-86 1484.6498,-86 1484.6498,-122"/>
<text text-anchor="middle" x="1408" y="-99.8" font-family="Times,serif" font-size="14.00" fill="#000000">GroupModalComponent</text>
</g>
<!-- GroupModalModule -->
<g id="node2" class="node">
<title>GroupModalModule</title>
<polygon fill="#8dd3c7" stroke="#000000" points="832.8669,-187 829.8669,-191 808.8669,-191 805.8669,-187 701.1331,-187 701.1331,-151 832.8669,-151 832.8669,-187"/>
<text text-anchor="middle" x="767" y="-164.8" font-family="Times,serif" font-size="14.00" fill="#000000">GroupModalModule</text>
</g>
<!-- GroupModalComponent&#45;&gt;GroupModalModule -->
<g id="edge1" class="edge">
<title>GroupModalComponent&#45;&gt;GroupModalModule</title>
<path fill="none" stroke="#000000" d="M1408,-122.0109C1408,-144.4852 1408,-180 1408,-180 1408,-180 842.8846,-180 842.8846,-180"/>
<polygon fill="#000000" stroke="#000000" points="842.8847,-176.5001 832.8846,-180 842.8846,-183.5001 842.8847,-176.5001"/>
</g>
<!-- GroupModalComponent  -->
<g id="node12" class="node">
<title>GroupModalComponent </title>
<polygon fill="#fb8072" stroke="#000000" points="926.6495,-252 769.3505,-252 769.3505,-216 926.6495,-216 926.6495,-252"/>
<text text-anchor="middle" x="848" y="-229.8" font-family="Times,serif" font-size="14.00" fill="#000000">GroupModalComponent </text>
</g>
<!-- GroupModalModule&#45;&gt;GroupModalComponent  -->
<g id="edge11" class="edge">
<title>GroupModalModule&#45;&gt;GroupModalComponent </title>
<path fill="none" stroke="#000000" stroke-dasharray="5,2" d="M801.1794,-187.1061C801.1794,-187.1061 801.1794,-205.991 801.1794,-205.991"/>
<polygon fill="#000000" stroke="#000000" points="797.6794,-205.9909 801.1794,-215.991 804.6794,-205.991 797.6794,-205.9909"/>
</g>
<!-- FormGroupModule  -->
<g id="node13" class="node">
<title>FormGroupModule </title>
<polygon fill="#fb8072" stroke="#000000" points="751.6509,-252 622.3491,-252 622.3491,-216 751.6509,-216 751.6509,-252"/>
<text text-anchor="middle" x="687" y="-229.8" font-family="Times,serif" font-size="14.00" fill="#000000">FormGroupModule </text>
</g>
<!-- GroupModalModule&#45;&gt;FormGroupModule  -->
<g id="edge12" class="edge">
<title>GroupModalModule&#45;&gt;FormGroupModule </title>
<path fill="none" stroke="#000000" stroke-dasharray="5,2" d="M726.321,-187.1061C726.321,-187.1061 726.321,-205.991 726.321,-205.991"/>
<polygon fill="#000000" stroke="#000000" points="722.8211,-205.9909 726.321,-215.991 729.8211,-205.991 722.8211,-205.9909"/>
</g>
<!-- CommonModule -->
<g id="node3" class="node">
<title>CommonModule</title>
<polygon fill="#8dd3c7" stroke="#000000" points="1306.6681,-122 1303.6681,-126 1282.6681,-126 1279.6681,-122 1195.3319,-122 1195.3319,-86 1306.6681,-86 1306.6681,-122"/>
<text text-anchor="middle" x="1251" y="-99.8" font-family="Times,serif" font-size="14.00" fill="#000000">CommonModule</text>
</g>
<!-- CommonModule&#45;&gt;GroupModalModule -->
<g id="edge2" class="edge">
<title>CommonModule&#45;&gt;GroupModalModule</title>
<path fill="none" stroke="#000000" d="M1251,-122.1289C1251,-142.5724 1251,-173 1251,-173 1251,-173 843.0305,-173 843.0305,-173"/>
<polygon fill="#000000" stroke="#000000" points="843.0305,-169.5001 833.0305,-173 843.0305,-176.5001 843.0305,-169.5001"/>
</g>
<!-- IonicModule -->
<g id="node4" class="node">
<title>IonicModule</title>
<polygon fill="#8dd3c7" stroke="#000000" points="1177.3162,-122 1174.3162,-126 1153.3162,-126 1150.3162,-122 1088.6838,-122 1088.6838,-86 1177.3162,-86 1177.3162,-122"/>
<text text-anchor="middle" x="1133" y="-99.8" font-family="Times,serif" font-size="14.00" fill="#000000">IonicModule</text>
</g>
<!-- IonicModule&#45;&gt;GroupModalModule -->
<g id="edge3" class="edge">
<title>IonicModule&#45;&gt;GroupModalModule</title>
<path fill="none" stroke="#000000" d="M1133,-122.2667C1133,-140.5552 1133,-166 1133,-166 1133,-166 843.2798,-166 843.2798,-166"/>
<polygon fill="#000000" stroke="#000000" points="843.2799,-162.5001 833.2798,-166 843.2798,-169.5001 843.2799,-162.5001"/>
</g>
<!-- FormGroupModule -->
<g id="node5" class="node">
<title>FormGroupModule</title>
<polygon fill="#8dd3c7" stroke="#000000" points="1070.6513,-122 1067.6513,-126 1046.6513,-126 1043.6513,-122 945.3487,-122 945.3487,-86 1070.6513,-86 1070.6513,-122"/>
<text text-anchor="middle" x="1008" y="-99.8" font-family="Times,serif" font-size="14.00" fill="#000000">FormGroupModule</text>
</g>
<!-- FormGroupModule&#45;&gt;GroupModalModule -->
<g id="edge4" class="edge">
<title>FormGroupModule&#45;&gt;GroupModalModule</title>
<path fill="none" stroke="#000000" d="M1008,-122.0091C1008,-138.0494 1008,-159 1008,-159 1008,-159 843.1731,-159 843.1731,-159"/>
<polygon fill="#000000" stroke="#000000" points="843.1731,-155.5001 833.1731,-159 843.173,-162.5001 843.1731,-155.5001"/>
</g>
<!-- ReactiveFormsModule -->
<g id="node6" class="node">
<title>ReactiveFormsModule</title>
<polygon fill="#8dd3c7" stroke="#000000" points="927.3047,-122 924.3047,-126 903.3047,-126 900.3047,-122 782.6953,-122 782.6953,-86 927.3047,-86 927.3047,-122"/>
<text text-anchor="middle" x="855" y="-99.8" font-family="Times,serif" font-size="14.00" fill="#000000">ReactiveFormsModule</text>
</g>
<!-- ReactiveFormsModule&#45;&gt;GroupModalModule -->
<g id="edge5" class="edge">
<title>ReactiveFormsModule&#45;&gt;GroupModalModule</title>
<path fill="none" stroke="#000000" d="M807.8906,-122.1061C807.8906,-122.1061 807.8906,-140.991 807.8906,-140.991"/>
<polygon fill="#000000" stroke="#000000" points="804.3907,-140.9909 807.8906,-150.991 811.3907,-140.991 804.3907,-140.9909"/>
</g>
<!-- TranslateModule.forChild() -->
<g id="node7" class="node">
<title>TranslateModule.forChild()</title>
<polygon fill="#8dd3c7" stroke="#000000" points="764.8928,-122 761.8928,-126 740.8928,-126 737.8928,-122 593.1072,-122 593.1072,-86 764.8928,-86 764.8928,-122"/>
<text text-anchor="middle" x="679" y="-99.8" font-family="Times,serif" font-size="14.00" fill="#000000">TranslateModule.forChild()</text>
</g>
<!-- TranslateModule.forChild()&#45;&gt;GroupModalModule -->
<g id="edge6" class="edge">
<title>TranslateModule.forChild()&#45;&gt;GroupModalModule</title>
<path fill="none" stroke="#000000" d="M733.0065,-122.1061C733.0065,-122.1061 733.0065,-140.991 733.0065,-140.991"/>
<polygon fill="#000000" stroke="#000000" points="729.5066,-140.9909 733.0065,-150.991 736.5066,-140.991 729.5066,-140.9909"/>
</g>
<!-- DirectivesModule -->
<g id="node8" class="node">
<title>DirectivesModule</title>
<polygon fill="#8dd3c7" stroke="#000000" points="575.5772,-122 572.5772,-126 551.5772,-126 548.5772,-122 458.4228,-122 458.4228,-86 575.5772,-86 575.5772,-122"/>
<text text-anchor="middle" x="517" y="-99.8" font-family="Times,serif" font-size="14.00" fill="#000000">DirectivesModule</text>
</g>
<!-- DirectivesModule&#45;&gt;GroupModalModule -->
<g id="edge7" class="edge">
<title>DirectivesModule&#45;&gt;GroupModalModule</title>
<path fill="none" stroke="#000000" d="M517,-122.0091C517,-138.0494 517,-159 517,-159 517,-159 690.9884,-159 690.9884,-159"/>
<polygon fill="#000000" stroke="#000000" points="690.9885,-162.5001 700.9884,-159 690.9884,-155.5001 690.9885,-162.5001"/>
</g>
<!-- PipesModule -->
<g id="node9" class="node">
<title>PipesModule</title>
<polygon fill="#8dd3c7" stroke="#000000" points="440.8823,-122 437.8823,-126 416.8823,-126 413.8823,-122 351.1177,-122 351.1177,-86 440.8823,-86 440.8823,-122"/>
<text text-anchor="middle" x="396" y="-99.8" font-family="Times,serif" font-size="14.00" fill="#000000">PipesModule</text>
</g>
<!-- PipesModule&#45;&gt;GroupModalModule -->
<g id="edge8" class="edge">
<title>PipesModule&#45;&gt;GroupModalModule</title>
<path fill="none" stroke="#000000" d="M396,-122.2667C396,-140.5552 396,-166 396,-166 396,-166 691.1001,-166 691.1001,-166"/>
<polygon fill="#000000" stroke="#000000" points="691.1002,-169.5001 701.1001,-166 691.1001,-162.5001 691.1002,-169.5001"/>
</g>
<!-- PromptFormModalModule -->
<g id="node10" class="node">
<title>PromptFormModalModule</title>
<polygon fill="#8dd3c7" stroke="#000000" points="332.6581,-122 329.6581,-126 308.6581,-126 305.6581,-122 165.3419,-122 165.3419,-86 332.6581,-86 332.6581,-122"/>
<text text-anchor="middle" x="249" y="-99.8" font-family="Times,serif" font-size="14.00" fill="#000000">PromptFormModalModule</text>
</g>
<!-- PromptFormModalModule&#45;&gt;GroupModalModule -->
<g id="edge9" class="edge">
<title>PromptFormModalModule&#45;&gt;GroupModalModule</title>
<path fill="none" stroke="#000000" d="M249,-122.1289C249,-142.5724 249,-173 249,-173 249,-173 691.1321,-173 691.1321,-173"/>
<polygon fill="#000000" stroke="#000000" points="691.1321,-176.5001 701.1321,-173 691.132,-169.5001 691.1321,-176.5001"/>
</g>
<!-- SelectInputModule -->
<g id="node11" class="node">
<title>SelectInputModule</title>
<polygon fill="#8dd3c7" stroke="#000000" points="147.809,-122 144.809,-126 123.809,-126 120.809,-122 24.191,-122 24.191,-86 147.809,-86 147.809,-122"/>
<text text-anchor="middle" x="86" y="-99.8" font-family="Times,serif" font-size="14.00" fill="#000000">SelectInputModule</text>
</g>
<!-- SelectInputModule&#45;&gt;GroupModalModule -->
<g id="edge10" class="edge">
<title>SelectInputModule&#45;&gt;GroupModalModule</title>
<path fill="none" stroke="#000000" d="M86,-122.0109C86,-144.4852 86,-180 86,-180 86,-180 691.0841,-180 691.0841,-180"/>
<polygon fill="#000000" stroke="#000000" points="691.0841,-183.5001 701.0841,-180 691.0841,-176.5001 691.0841,-183.5001"/>
</g>
</g>
</svg>
