<?xml version="1.0" encoding="UTF-8" standalone="no"?>
<!DOCTYPE svg PUBLIC "-//W3C//DTD SVG 1.1//EN"
 "http://www.w3.org/Graphics/SVG/1.1/DTD/svg11.dtd">
<!-- Generated by graphviz version 2.40.1 (20161225.0304)
 -->
<!-- Title: dependencies Pages: 1 -->
<svg width="1176pt" height="284pt"
 viewBox="0.00 0.00 1176.00 284.00" xmlns="http://www.w3.org/2000/svg" xmlns:xlink="http://www.w3.org/1999/xlink">
<g id="graph0" class="graph" transform="scale(1 1) rotate(0) translate(4 280)">
<title>dependencies</title>
<polygon fill="#ffffff" stroke="transparent" points="-4,4 -4,-280 1172,-280 1172,4 -4,4"/>
<text text-anchor="start" x="563.0091" y="-42.4" font-family="sans-serif" font-weight="bold" font-size="14.00" fill="#000000">Legend</text>
<polygon fill="#ffffb3" stroke="transparent" points="350,-10 350,-30 370,-30 370,-10 350,-10"/>
<text text-anchor="start" x="373.629" y="-15.4" font-family="sans-serif" font-size="14.00" fill="#000000"> &#160;Declarations</text>
<polygon fill="#8dd3c7" stroke="transparent" points="463,-10 463,-30 483,-30 483,-10 463,-10"/>
<text text-anchor="start" x="486.7251" y="-15.4" font-family="sans-serif" font-size="14.00" fill="#000000"> &#160;Module</text>
<polygon fill="#80b1d3" stroke="transparent" points="549,-10 549,-30 569,-30 569,-10 549,-10"/>
<text text-anchor="start" x="572.7812" y="-15.4" font-family="sans-serif" font-size="14.00" fill="#000000"> &#160;Bootstrap</text>
<polygon fill="#fdb462" stroke="transparent" points="646,-10 646,-30 666,-30 666,-10 646,-10"/>
<text text-anchor="start" x="669.6732" y="-15.4" font-family="sans-serif" font-size="14.00" fill="#000000"> &#160;Providers</text>
<polygon fill="#fb8072" stroke="transparent" points="742,-10 742,-30 762,-30 762,-10 742,-10"/>
<text text-anchor="start" x="765.7258" y="-15.4" font-family="sans-serif" font-size="14.00" fill="#000000"> &#160;Exports</text>
<g id="clust1" class="cluster">
<title>cluster_IonicModalsModule</title>
<polygon fill="none" stroke="#000000" stroke-dasharray="1,5" points="8,-70 8,-268 1160,-268 1160,-70 8,-70"/>
</g>
<g id="clust3" class="cluster">
<title>cluster_IonicModalsModule_imports</title>
<polygon fill="none" stroke="#000000" points="714,-78 714,-130 1152,-130 1152,-78 714,-78"/>
</g>
<g id="clust4" class="cluster">
<title>cluster_IonicModalsModule_exports</title>
<polygon fill="none" stroke="#000000" points="747,-208 747,-260 869,-260 869,-208 747,-208"/>
</g>
<g id="clust6" class="cluster">
<title>cluster_IonicModalsModule_providers</title>
<polygon fill="none" stroke="#000000" points="16,-78 16,-130 706,-130 706,-78 16,-78"/>
</g>
<!-- CommonModule -->
<g id="node1" class="node">
<title>CommonModule</title>
<polygon fill="#8dd3c7" stroke="#000000" points="1143.6681,-122 1140.6681,-126 1119.6681,-126 1116.6681,-122 1032.3319,-122 1032.3319,-86 1143.6681,-86 1143.6681,-122"/>
<text text-anchor="middle" x="1088" y="-99.8" font-family="Times,serif" font-size="14.00" fill="#000000">CommonModule</text>
</g>
<!-- IonicModalsModule -->
<g id="node4" class="node">
<title>IonicModalsModule</title>
<polygon fill="#8dd3c7" stroke="#000000" points="873.3104,-187 870.3104,-191 849.3104,-191 846.3104,-187 742.6896,-187 742.6896,-151 873.3104,-151 873.3104,-187"/>
<text text-anchor="middle" x="808" y="-164.8" font-family="Times,serif" font-size="14.00" fill="#000000">IonicModalsModule</text>
</g>
<!-- CommonModule&#45;&gt;IonicModalsModule -->
<g id="edge1" class="edge">
<title>CommonModule&#45;&gt;IonicModalsModule</title>
<path fill="none" stroke="#000000" d="M1088,-122.2843C1088,-143.3211 1088,-175 1088,-175 1088,-175 883.2942,-175 883.2942,-175"/>
<polygon fill="#000000" stroke="#000000" points="883.2942,-171.5001 873.2942,-175 883.2941,-178.5001 883.2942,-171.5001"/>
</g>
<!-- ModalsModule -->
<g id="node2" class="node">
<title>ModalsModule</title>
<polygon fill="#8dd3c7" stroke="#000000" points="1013.5452,-122 1010.5452,-126 989.5452,-126 986.5452,-122 912.4548,-122 912.4548,-86 1013.5452,-86 1013.5452,-122"/>
<text text-anchor="middle" x="963" y="-99.8" font-family="Times,serif" font-size="14.00" fill="#000000">ModalsModule</text>
</g>
<!-- ModalsModule&#45;&gt;IonicModalsModule -->
<g id="edge2" class="edge">
<title>ModalsModule&#45;&gt;IonicModalsModule</title>
<path fill="none" stroke="#000000" d="M963,-122.0225C963,-139.3734 963,-163 963,-163 963,-163 883.2847,-163 883.2847,-163"/>
<polygon fill="#000000" stroke="#000000" points="883.2848,-159.5001 873.2847,-163 883.2847,-166.5001 883.2848,-159.5001"/>
</g>
<!-- TranslateModule.forChild() -->
<g id="node3" class="node">
<title>TranslateModule.forChild()</title>
<polygon fill="#8dd3c7" stroke="#000000" points="893.8928,-122 890.8928,-126 869.8928,-126 866.8928,-122 722.1072,-122 722.1072,-86 893.8928,-86 893.8928,-122"/>
<text text-anchor="middle" x="808" y="-99.8" font-family="Times,serif" font-size="14.00" fill="#000000">TranslateModule.forChild()</text>
</g>
<!-- TranslateModule.forChild()&#45;&gt;IonicModalsModule -->
<g id="edge3" class="edge">
<title>TranslateModule.forChild()&#45;&gt;IonicModalsModule</title>
<path fill="none" stroke="#000000" d="M808,-122.1061C808,-122.1061 808,-140.991 808,-140.991"/>
<polygon fill="#000000" stroke="#000000" points="804.5001,-140.9909 808,-150.991 811.5001,-140.991 804.5001,-140.9909"/>
</g>
<!-- ModalsModule  -->
<g id="node5" class="node">
<title>ModalsModule </title>
<polygon fill="#fb8072" stroke="#000000" points="860.5442,-252 755.4558,-252 755.4558,-216 860.5442,-216 860.5442,-252"/>
<text text-anchor="middle" x="808" y="-229.8" font-family="Times,serif" font-size="14.00" fill="#000000">ModalsModule </text>
</g>
<!-- IonicModalsModule&#45;&gt;ModalsModule  -->
<g id="edge4" class="edge">
<title>IonicModalsModule&#45;&gt;ModalsModule </title>
<path fill="none" stroke="#000000" stroke-dasharray="5,2" d="M808,-187.1061C808,-187.1061 808,-205.991 808,-205.991"/>
<polygon fill="#000000" stroke="#000000" points="804.5001,-205.9909 808,-215.991 811.5001,-205.991 804.5001,-205.9909"/>
</g>
<!-- IonicModalsService -->
<g id="node6" class="node">
<title>IonicModalsService</title>
<ellipse fill="#fdb462" stroke="#000000" cx="609" cy="-104" rx="88.6024" ry="18"/>
<text text-anchor="middle" x="609" y="-99.8" font-family="Times,serif" font-size="14.00" fill="#000000">IonicModalsService</text>
</g>
<!-- IonicModalsService&#45;&gt;IonicModalsModule -->
<g id="edge5" class="edge">
<title>IonicModalsService&#45;&gt;IonicModalsModule</title>
<path fill="none" stroke="#000000" d="M609,-122.0225C609,-139.3734 609,-163 609,-163 609,-163 732.84,-163 732.84,-163"/>
<polygon fill="#000000" stroke="#000000" points="732.84,-166.5001 742.84,-163 732.8399,-159.5001 732.84,-166.5001"/>
</g>
<!-- { provide: ModalsService, useClass: IonicModalsService } -->
<g id="node7" class="node">
<title>{ provide: ModalsService, useClass: IonicModalsService }</title>
<ellipse fill="#fdb462" stroke="#000000" cx="263" cy="-104" rx="239.273" ry="18"/>
<text text-anchor="middle" x="263" y="-99.8" font-family="Times,serif" font-size="14.00" fill="#000000">{ provide: ModalsService, useClass: IonicModalsService }</text>
</g>
<!-- { provide: ModalsService, useClass: IonicModalsService }&#45;&gt;IonicModalsModule -->
<g id="edge6" class="edge">
<title>{ provide: ModalsService, useClass: IonicModalsService }&#45;&gt;IonicModalsModule</title>
<path fill="none" stroke="#000000" d="M263,-122.2843C263,-143.3211 263,-175 263,-175 263,-175 732.8016,-175 732.8016,-175"/>
<polygon fill="#000000" stroke="#000000" points="732.8016,-178.5001 742.8016,-175 732.8016,-171.5001 732.8016,-178.5001"/>
</g>
</g>
</svg>
