<?xml version="1.0" encoding="UTF-8" standalone="no"?>
<!DOCTYPE svg PUBLIC "-//W3C//DTD SVG 1.1//EN"
 "http://www.w3.org/Graphics/SVG/1.1/DTD/svg11.dtd">
<!-- Generated by graphviz version 2.40.1 (20161225.0304)
 -->
<!-- Title: dependencies Pages: 1 -->
<svg width="1273pt" height="284pt"
 viewBox="0.00 0.00 1273.00 284.00" xmlns="http://www.w3.org/2000/svg" xmlns:xlink="http://www.w3.org/1999/xlink">
<g id="graph0" class="graph" transform="scale(1 1) rotate(0) translate(4 280)">
<title>dependencies</title>
<polygon fill="#ffffff" stroke="transparent" points="-4,4 -4,-280 1269,-280 1269,4 -4,4"/>
<text text-anchor="start" x="611.5091" y="-42.4" font-family="sans-serif" font-weight="bold" font-size="14.00" fill="#000000">Legend</text>
<polygon fill="#ffffb3" stroke="transparent" points="398.5,-10 398.5,-30 418.5,-30 418.5,-10 398.5,-10"/>
<text text-anchor="start" x="422.129" y="-15.4" font-family="sans-serif" font-size="14.00" fill="#000000"> &#160;Declarations</text>
<polygon fill="#8dd3c7" stroke="transparent" points="511.5,-10 511.5,-30 531.5,-30 531.5,-10 511.5,-10"/>
<text text-anchor="start" x="535.2251" y="-15.4" font-family="sans-serif" font-size="14.00" fill="#000000"> &#160;Module</text>
<polygon fill="#80b1d3" stroke="transparent" points="597.5,-10 597.5,-30 617.5,-30 617.5,-10 597.5,-10"/>
<text text-anchor="start" x="621.2812" y="-15.4" font-family="sans-serif" font-size="14.00" fill="#000000"> &#160;Bootstrap</text>
<polygon fill="#fdb462" stroke="transparent" points="694.5,-10 694.5,-30 714.5,-30 714.5,-10 694.5,-10"/>
<text text-anchor="start" x="718.1732" y="-15.4" font-family="sans-serif" font-size="14.00" fill="#000000"> &#160;Providers</text>
<polygon fill="#fb8072" stroke="transparent" points="790.5,-10 790.5,-30 810.5,-30 810.5,-10 790.5,-10"/>
<text text-anchor="start" x="814.2258" y="-15.4" font-family="sans-serif" font-size="14.00" fill="#000000"> &#160;Exports</text>
<g id="clust1" class="cluster">
<title>cluster_EntityListModule</title>
<polygon fill="none" stroke="#000000" stroke-dasharray="1,5" points="8,-70 8,-268 1257,-268 1257,-70 8,-70"/>
</g>
<g id="clust2" class="cluster">
<title>cluster_EntityListModule_declarations</title>
<polygon fill="none" stroke="#000000" points="1095,-78 1095,-130 1249,-130 1249,-78 1095,-78"/>
</g>
<g id="clust4" class="cluster">
<title>cluster_EntityListModule_imports</title>
<polygon fill="none" stroke="#000000" points="16,-78 16,-130 1087,-130 1087,-78 16,-78"/>
</g>
<g id="clust5" class="cluster">
<title>cluster_EntityListModule_exports</title>
<polygon fill="none" stroke="#000000" points="366,-208 366,-260 917,-260 917,-208 366,-208"/>
</g>
<!-- EntityListComponent -->
<g id="node1" class="node">
<title>EntityListComponent</title>
<polygon fill="#ffffb3" stroke="#000000" points="1240.8356,-122 1103.1644,-122 1103.1644,-86 1240.8356,-86 1240.8356,-122"/>
<text text-anchor="middle" x="1172" y="-99.8" font-family="Times,serif" font-size="14.00" fill="#000000">EntityListComponent</text>
</g>
<!-- EntityListModule -->
<g id="node2" class="node">
<title>EntityListModule</title>
<polygon fill="#8dd3c7" stroke="#000000" points="687.5535,-187 684.5535,-191 663.5535,-191 660.5535,-187 572.4465,-187 572.4465,-151 687.5535,-151 687.5535,-187"/>
<text text-anchor="middle" x="630" y="-164.8" font-family="Times,serif" font-size="14.00" fill="#000000">EntityListModule</text>
</g>
<!-- EntityListComponent&#45;&gt;EntityListModule -->
<g id="edge1" class="edge">
<title>EntityListComponent&#45;&gt;EntityListModule</title>
<path fill="none" stroke="#000000" d="M1172,-122.1289C1172,-142.5724 1172,-173 1172,-173 1172,-173 697.7467,-173 697.7467,-173"/>
<polygon fill="#000000" stroke="#000000" points="697.7467,-169.5001 687.7467,-173 697.7467,-176.5001 697.7467,-169.5001"/>
</g>
<!-- EntityListComponent  -->
<g id="node11" class="node">
<title>EntityListComponent </title>
<polygon fill="#fb8072" stroke="#000000" points="909.3353,-252 768.6647,-252 768.6647,-216 909.3353,-216 909.3353,-252"/>
<text text-anchor="middle" x="839" y="-229.8" font-family="Times,serif" font-size="14.00" fill="#000000">EntityListComponent </text>
</g>
<!-- EntityListModule&#45;&gt;EntityListComponent  -->
<g id="edge10" class="edge">
<title>EntityListModule&#45;&gt;EntityListComponent </title>
<path fill="none" stroke="#000000" stroke-dasharray="5,2" d="M687.8753,-180C737.9498,-180 802.3673,-180 802.3673,-180 802.3673,-180 802.3673,-205.7181 802.3673,-205.7181"/>
<polygon fill="#000000" stroke="#000000" points="798.8674,-205.718 802.3673,-215.7181 805.8674,-205.7181 798.8674,-205.718"/>
</g>
<!-- FormsModule  -->
<g id="node12" class="node">
<title>FormsModule </title>
<polygon fill="#fb8072" stroke="#000000" points="750.3283,-252 651.6717,-252 651.6717,-216 750.3283,-216 750.3283,-252"/>
<text text-anchor="middle" x="701" y="-229.8" font-family="Times,serif" font-size="14.00" fill="#000000">FormsModule </text>
</g>
<!-- EntityListModule&#45;&gt;FormsModule  -->
<g id="edge11" class="edge">
<title>EntityListModule&#45;&gt;FormsModule </title>
<path fill="none" stroke="#000000" stroke-dasharray="5,2" d="M669.6811,-187.1061C669.6811,-187.1061 669.6811,-205.991 669.6811,-205.991"/>
<polygon fill="#000000" stroke="#000000" points="666.1812,-205.9909 669.6811,-215.991 673.1812,-205.991 666.1812,-205.9909"/>
</g>
<!-- ReactiveFormsModule  -->
<g id="node13" class="node">
<title>ReactiveFormsModule </title>
<polygon fill="#fb8072" stroke="#000000" points="633.8045,-252 486.1955,-252 486.1955,-216 633.8045,-216 633.8045,-252"/>
<text text-anchor="middle" x="560" y="-229.8" font-family="Times,serif" font-size="14.00" fill="#000000">ReactiveFormsModule </text>
</g>
<!-- EntityListModule&#45;&gt;ReactiveFormsModule  -->
<g id="edge12" class="edge">
<title>EntityListModule&#45;&gt;ReactiveFormsModule </title>
<path fill="none" stroke="#000000" stroke-dasharray="5,2" d="M603.063,-187.1061C603.063,-187.1061 603.063,-205.991 603.063,-205.991"/>
<polygon fill="#000000" stroke="#000000" points="599.563,-205.9909 603.063,-215.991 606.563,-205.991 599.563,-205.9909"/>
</g>
<!-- PipesModule  -->
<g id="node14" class="node">
<title>PipesModule </title>
<polygon fill="#fb8072" stroke="#000000" points="467.883,-252 374.117,-252 374.117,-216 467.883,-216 467.883,-252"/>
<text text-anchor="middle" x="421" y="-229.8" font-family="Times,serif" font-size="14.00" fill="#000000">PipesModule </text>
</g>
<!-- EntityListModule&#45;&gt;PipesModule  -->
<g id="edge13" class="edge">
<title>EntityListModule&#45;&gt;PipesModule </title>
<path fill="none" stroke="#000000" stroke-dasharray="5,2" d="M571.9665,-180C520.2772,-180 452.7646,-180 452.7646,-180 452.7646,-180 452.7646,-205.7181 452.7646,-205.7181"/>
<polygon fill="#000000" stroke="#000000" points="449.2646,-205.718 452.7646,-215.7181 456.2646,-205.7181 449.2646,-205.718"/>
</g>
<!-- CommonModule -->
<g id="node3" class="node">
<title>CommonModule</title>
<polygon fill="#8dd3c7" stroke="#000000" points="1078.6681,-122 1075.6681,-126 1054.6681,-126 1051.6681,-122 967.3319,-122 967.3319,-86 1078.6681,-86 1078.6681,-122"/>
<text text-anchor="middle" x="1023" y="-99.8" font-family="Times,serif" font-size="14.00" fill="#000000">CommonModule</text>
</g>
<!-- CommonModule&#45;&gt;EntityListModule -->
<g id="edge2" class="edge">
<title>CommonModule&#45;&gt;EntityListModule</title>
<path fill="none" stroke="#000000" d="M1023,-122.2667C1023,-140.5552 1023,-166 1023,-166 1023,-166 697.5665,-166 697.5665,-166"/>
<polygon fill="#000000" stroke="#000000" points="697.5665,-162.5001 687.5665,-166 697.5664,-169.5001 697.5665,-162.5001"/>
</g>
<!-- FormsModule -->
<g id="node4" class="node">
<title>FormsModule</title>
<polygon fill="#8dd3c7" stroke="#000000" points="949.8288,-122 946.8288,-126 925.8288,-126 922.8288,-122 854.1712,-122 854.1712,-86 949.8288,-86 949.8288,-122"/>
<text text-anchor="middle" x="902" y="-99.8" font-family="Times,serif" font-size="14.00" fill="#000000">FormsModule</text>
</g>
<!-- FormsModule&#45;&gt;EntityListModule -->
<g id="edge3" class="edge">
<title>FormsModule&#45;&gt;EntityListModule</title>
<path fill="none" stroke="#000000" d="M881.8768,-122.0091C881.8768,-138.0494 881.8768,-159 881.8768,-159 881.8768,-159 697.7856,-159 697.7856,-159"/>
<polygon fill="#000000" stroke="#000000" points="697.7856,-155.5001 687.7856,-159 697.7856,-162.5001 697.7856,-155.5001"/>
</g>
<!-- ReactiveFormsModule -->
<g id="node5" class="node">
<title>ReactiveFormsModule</title>
<polygon fill="#8dd3c7" stroke="#000000" points="836.3047,-122 833.3047,-126 812.3047,-126 809.3047,-122 691.6953,-122 691.6953,-86 836.3047,-86 836.3047,-122"/>
<text text-anchor="middle" x="764" y="-99.8" font-family="Times,serif" font-size="14.00" fill="#000000">ReactiveFormsModule</text>
</g>
<!-- ReactiveFormsModule&#45;&gt;EntityListModule -->
<g id="edge4" class="edge">
<title>ReactiveFormsModule&#45;&gt;EntityListModule</title>
<path fill="none" stroke="#000000" d="M691.8222,-104C685.2292,-104 680.9671,-104 680.9671,-104 680.9671,-104 680.9671,-140.8939 680.9671,-140.8939"/>
<polygon fill="#000000" stroke="#000000" points="677.4671,-140.8938 680.9671,-150.8939 684.4671,-140.8939 677.4671,-140.8938"/>
</g>
<!-- IonicModule -->
<g id="node6" class="node">
<title>IonicModule</title>
<polygon fill="#8dd3c7" stroke="#000000" points="674.3162,-122 671.3162,-126 650.3162,-126 647.3162,-122 585.6838,-122 585.6838,-86 674.3162,-86 674.3162,-122"/>
<text text-anchor="middle" x="630" y="-99.8" font-family="Times,serif" font-size="14.00" fill="#000000">IonicModule</text>
</g>
<!-- IonicModule&#45;&gt;EntityListModule -->
<g id="edge5" class="edge">
<title>IonicModule&#45;&gt;EntityListModule</title>
<path fill="none" stroke="#000000" d="M630,-122.1061C630,-122.1061 630,-140.991 630,-140.991"/>
<polygon fill="#000000" stroke="#000000" points="626.5001,-140.9909 630,-150.991 633.5001,-140.991 626.5001,-140.9909"/>
</g>
<!-- EntityModalModule -->
<g id="node7" class="node">
<title>EntityModalModule</title>
<polygon fill="#8dd3c7" stroke="#000000" points="568.3244,-122 565.3244,-126 544.3244,-126 541.3244,-122 437.6756,-122 437.6756,-86 568.3244,-86 568.3244,-122"/>
<text text-anchor="middle" x="503" y="-99.8" font-family="Times,serif" font-size="14.00" fill="#000000">EntityModalModule</text>
</g>
<!-- EntityModalModule&#45;&gt;EntityListModule -->
<g id="edge6" class="edge">
<title>EntityModalModule&#45;&gt;EntityListModule</title>
<path fill="none" stroke="#000000" d="M568.4609,-104C574.8563,-104 579.033,-104 579.033,-104 579.033,-104 579.033,-140.8939 579.033,-140.8939"/>
<polygon fill="#000000" stroke="#000000" points="575.533,-140.8938 579.033,-150.8939 582.533,-140.8939 575.533,-140.8938"/>
</g>
<!-- TranslateModule.forChild() -->
<g id="node8" class="node">
<title>TranslateModule.forChild()</title>
<polygon fill="#8dd3c7" stroke="#000000" points="419.8928,-122 416.8928,-126 395.8928,-126 392.8928,-122 248.1072,-122 248.1072,-86 419.8928,-86 419.8928,-122"/>
<text text-anchor="middle" x="334" y="-99.8" font-family="Times,serif" font-size="14.00" fill="#000000">TranslateModule.forChild()</text>
</g>
<!-- TranslateModule.forChild()&#45;&gt;EntityListModule -->
<g id="edge7" class="edge">
<title>TranslateModule.forChild()&#45;&gt;EntityListModule</title>
<path fill="none" stroke="#000000" d="M397.1277,-122.0091C397.1277,-138.0494 397.1277,-159 397.1277,-159 397.1277,-159 562.436,-159 562.436,-159"/>
<polygon fill="#000000" stroke="#000000" points="562.4361,-162.5001 572.436,-159 562.436,-155.5001 562.4361,-162.5001"/>
</g>
<!-- PipesModule -->
<g id="node9" class="node">
<title>PipesModule</title>
<polygon fill="#8dd3c7" stroke="#000000" points="229.8823,-122 226.8823,-126 205.8823,-126 202.8823,-122 140.1177,-122 140.1177,-86 229.8823,-86 229.8823,-122"/>
<text text-anchor="middle" x="185" y="-99.8" font-family="Times,serif" font-size="14.00" fill="#000000">PipesModule</text>
</g>
<!-- PipesModule&#45;&gt;EntityListModule -->
<g id="edge8" class="edge">
<title>PipesModule&#45;&gt;EntityListModule</title>
<path fill="none" stroke="#000000" d="M185,-122.2667C185,-140.5552 185,-166 185,-166 185,-166 562.2802,-166 562.2802,-166"/>
<polygon fill="#000000" stroke="#000000" points="562.2803,-169.5001 572.2802,-166 562.2802,-162.5001 562.2803,-169.5001"/>
</g>
<!-- RouterModule -->
<g id="node10" class="node">
<title>RouterModule</title>
<polygon fill="#8dd3c7" stroke="#000000" points="121.6528,-122 118.6528,-126 97.6528,-126 94.6528,-122 24.3472,-122 24.3472,-86 121.6528,-86 121.6528,-122"/>
<text text-anchor="middle" x="73" y="-99.8" font-family="Times,serif" font-size="14.00" fill="#000000">RouterModule</text>
</g>
<!-- RouterModule&#45;&gt;EntityListModule -->
<g id="edge9" class="edge">
<title>RouterModule&#45;&gt;EntityListModule</title>
<path fill="none" stroke="#000000" d="M73,-122.1289C73,-142.5724 73,-173 73,-173 73,-173 562.2286,-173 562.2286,-173"/>
<polygon fill="#000000" stroke="#000000" points="562.2286,-176.5001 572.2286,-173 562.2285,-169.5001 562.2286,-176.5001"/>
</g>
</g>
</svg>
