<?xml version="1.0" encoding="UTF-8" standalone="no"?>
<!DOCTYPE svg PUBLIC "-//W3C//DTD SVG 1.1//EN"
 "http://www.w3.org/Graphics/SVG/1.1/DTD/svg11.dtd">
<!-- Generated by graphviz version 2.40.1 (20161225.0304)
 -->
<!-- Title: dependencies Pages: 1 -->
<svg width="960pt" height="211pt"
 viewBox="0.00 0.00 960.00 211.00" xmlns="http://www.w3.org/2000/svg" xmlns:xlink="http://www.w3.org/1999/xlink">
<g id="graph0" class="graph" transform="scale(1 1) rotate(0) translate(4 207)">
<title>dependencies</title>
<polygon fill="#ffffff" stroke="transparent" points="-4,4 -4,-207 956,-207 956,4 -4,4"/>
<text text-anchor="start" x="455.0091" y="-42.4" font-family="sans-serif" font-weight="bold" font-size="14.00" fill="#000000">Legend</text>
<polygon fill="#ffffb3" stroke="transparent" points="242,-10 242,-30 262,-30 262,-10 242,-10"/>
<text text-anchor="start" x="265.629" y="-15.4" font-family="sans-serif" font-size="14.00" fill="#000000"> &#160;Declarations</text>
<polygon fill="#8dd3c7" stroke="transparent" points="355,-10 355,-30 375,-30 375,-10 355,-10"/>
<text text-anchor="start" x="378.7251" y="-15.4" font-family="sans-serif" font-size="14.00" fill="#000000"> &#160;Module</text>
<polygon fill="#80b1d3" stroke="transparent" points="441,-10 441,-30 461,-30 461,-10 441,-10"/>
<text text-anchor="start" x="464.7812" y="-15.4" font-family="sans-serif" font-size="14.00" fill="#000000"> &#160;Bootstrap</text>
<polygon fill="#fdb462" stroke="transparent" points="538,-10 538,-30 558,-30 558,-10 538,-10"/>
<text text-anchor="start" x="561.6732" y="-15.4" font-family="sans-serif" font-size="14.00" fill="#000000"> &#160;Providers</text>
<polygon fill="#fb8072" stroke="transparent" points="634,-10 634,-30 654,-30 654,-10 634,-10"/>
<text text-anchor="start" x="657.7258" y="-15.4" font-family="sans-serif" font-size="14.00" fill="#000000"> &#160;Exports</text>
<g id="clust1" class="cluster">
<title>cluster_UsersPageModule</title>
<polygon fill="none" stroke="#000000" stroke-dasharray="1,5" points="8,-70 8,-195 944,-195 944,-70 8,-70"/>
</g>
<g id="clust2" class="cluster">
<title>cluster_UsersPageModule_declarations</title>
<polygon fill="none" stroke="#000000" points="780,-78 780,-130 936,-130 936,-78 780,-78"/>
</g>
<g id="clust4" class="cluster">
<title>cluster_UsersPageModule_imports</title>
<polygon fill="none" stroke="#000000" points="16,-78 16,-130 772,-130 772,-78 16,-78"/>
</g>
<!-- UsersPageComponent -->
<g id="node1" class="node">
<title>UsersPageComponent</title>
<polygon fill="#ffffb3" stroke="#000000" points="928.4158,-122 787.5842,-122 787.5842,-86 928.4158,-86 928.4158,-122"/>
<text text-anchor="middle" x="858" y="-99.8" font-family="Times,serif" font-size="14.00" fill="#000000">UsersPageComponent</text>
</g>
<!-- UsersPageModule -->
<g id="node2" class="node">
<title>UsersPageModule</title>
<polygon fill="#8dd3c7" stroke="#000000" points="589.1332,-187 586.1332,-191 565.1332,-191 562.1332,-187 470.8668,-187 470.8668,-151 589.1332,-151 589.1332,-187"/>
<text text-anchor="middle" x="530" y="-164.8" font-family="Times,serif" font-size="14.00" fill="#000000">UsersPageModule</text>
</g>
<!-- UsersPageComponent&#45;&gt;UsersPageModule -->
<g id="edge1" class="edge">
<title>UsersPageComponent&#45;&gt;UsersPageModule</title>
<path fill="none" stroke="#000000" d="M858,-122.2843C858,-143.3211 858,-175 858,-175 858,-175 599.3983,-175 599.3983,-175"/>
<polygon fill="#000000" stroke="#000000" points="599.3984,-171.5001 589.3983,-175 599.3983,-178.5001 599.3984,-171.5001"/>
</g>
<!-- CommonModule -->
<g id="node3" class="node">
<title>CommonModule</title>
<polygon fill="#8dd3c7" stroke="#000000" points="763.6681,-122 760.6681,-126 739.6681,-126 736.6681,-122 652.3319,-122 652.3319,-86 763.6681,-86 763.6681,-122"/>
<text text-anchor="middle" x="708" y="-99.8" font-family="Times,serif" font-size="14.00" fill="#000000">CommonModule</text>
</g>
<!-- CommonModule&#45;&gt;UsersPageModule -->
<g id="edge2" class="edge">
<title>CommonModule&#45;&gt;UsersPageModule</title>
<path fill="none" stroke="#000000" d="M708,-122.0225C708,-139.3734 708,-163 708,-163 708,-163 599.2714,-163 599.2714,-163"/>
<polygon fill="#000000" stroke="#000000" points="599.2715,-159.5001 589.2714,-163 599.2714,-166.5001 599.2715,-159.5001"/>
</g>
<!-- IonicModule -->
<g id="node4" class="node">
<title>IonicModule</title>
<polygon fill="#8dd3c7" stroke="#000000" points="634.3162,-122 631.3162,-126 610.3162,-126 607.3162,-122 545.6838,-122 545.6838,-86 634.3162,-86 634.3162,-122"/>
<text text-anchor="middle" x="590" y="-99.8" font-family="Times,serif" font-size="14.00" fill="#000000">IonicModule</text>
</g>
<!-- IonicModule&#45;&gt;UsersPageModule -->
<g id="edge3" class="edge">
<title>IonicModule&#45;&gt;UsersPageModule</title>
<path fill="none" stroke="#000000" d="M567.5793,-122.1061C567.5793,-122.1061 567.5793,-140.991 567.5793,-140.991"/>
<polygon fill="#000000" stroke="#000000" points="564.0793,-140.9909 567.5793,-150.991 571.0793,-140.991 564.0793,-140.9909"/>
</g>
<!-- UsersListModule -->
<g id="node5" class="node">
<title>UsersListModule</title>
<polygon fill="#8dd3c7" stroke="#000000" points="527.6994,-122 524.6994,-126 503.6994,-126 500.6994,-122 414.3006,-122 414.3006,-86 527.6994,-86 527.6994,-122"/>
<text text-anchor="middle" x="471" y="-99.8" font-family="Times,serif" font-size="14.00" fill="#000000">UsersListModule</text>
</g>
<!-- UsersListModule&#45;&gt;UsersPageModule -->
<g id="edge4" class="edge">
<title>UsersListModule&#45;&gt;UsersPageModule</title>
<path fill="none" stroke="#000000" d="M499.1417,-122.1061C499.1417,-122.1061 499.1417,-140.991 499.1417,-140.991"/>
<polygon fill="#000000" stroke="#000000" points="495.6417,-140.9909 499.1417,-150.991 502.6417,-140.991 495.6417,-140.9909"/>
</g>
<!-- TranslateModule.forChild() -->
<g id="node6" class="node">
<title>TranslateModule.forChild()</title>
<polygon fill="#8dd3c7" stroke="#000000" points="395.8928,-122 392.8928,-126 371.8928,-126 368.8928,-122 224.1072,-122 224.1072,-86 395.8928,-86 395.8928,-122"/>
<text text-anchor="middle" x="310" y="-99.8" font-family="Times,serif" font-size="14.00" fill="#000000">TranslateModule.forChild()</text>
</g>
<!-- TranslateModule.forChild()&#45;&gt;UsersPageModule -->
<g id="edge5" class="edge">
<title>TranslateModule.forChild()&#45;&gt;UsersPageModule</title>
<path fill="none" stroke="#000000" d="M310,-122.0225C310,-139.3734 310,-163 310,-163 310,-163 460.7546,-163 460.7546,-163"/>
<polygon fill="#000000" stroke="#000000" points="460.7547,-166.5001 470.7546,-163 460.7546,-159.5001 460.7547,-166.5001"/>
</g>
<!-- RouterModule.forChild(args) -->
<g id="node7" class="node">
<title>RouterModule.forChild(args)</title>
<polygon fill="#8dd3c7" stroke="#000000" points="205.7323,-122 202.7323,-126 181.7323,-126 178.7323,-122 24.2677,-122 24.2677,-86 205.7323,-86 205.7323,-122"/>
<text text-anchor="middle" x="115" y="-99.8" font-family="Times,serif" font-size="14.00" fill="#000000">RouterModule.forChild(args)</text>
</g>
<!-- RouterModule.forChild(args)&#45;&gt;UsersPageModule -->
<g id="edge6" class="edge">
<title>RouterModule.forChild(args)&#45;&gt;UsersPageModule</title>
<path fill="none" stroke="#000000" d="M115,-122.2843C115,-143.3211 115,-175 115,-175 115,-175 460.5406,-175 460.5406,-175"/>
<polygon fill="#000000" stroke="#000000" points="460.5407,-178.5001 470.5406,-175 460.5406,-171.5001 460.5407,-178.5001"/>
</g>
</g>
</svg>
