<?xml version="1.0" encoding="UTF-8" standalone="no"?>
<!DOCTYPE svg PUBLIC "-//W3C//DTD SVG 1.1//EN"
 "http://www.w3.org/Graphics/SVG/1.1/DTD/svg11.dtd">
<!-- Generated by graphviz version 2.40.1 (20161225.0304)
 -->
<!-- Title: dependencies Pages: 1 -->
<svg width="1579pt" height="284pt"
 viewBox="0.00 0.00 1579.00 284.00" xmlns="http://www.w3.org/2000/svg" xmlns:xlink="http://www.w3.org/1999/xlink">
<g id="graph0" class="graph" transform="scale(1 1) rotate(0) translate(4 280)">
<title>dependencies</title>
<polygon fill="#ffffff" stroke="transparent" points="-4,4 -4,-280 1575,-280 1575,4 -4,4"/>
<text text-anchor="start" x="764.5091" y="-42.4" font-family="sans-serif" font-weight="bold" font-size="14.00" fill="#000000">Legend</text>
<polygon fill="#ffffb3" stroke="transparent" points="551.5,-10 551.5,-30 571.5,-30 571.5,-10 551.5,-10"/>
<text text-anchor="start" x="575.129" y="-15.4" font-family="sans-serif" font-size="14.00" fill="#000000"> &#160;Declarations</text>
<polygon fill="#8dd3c7" stroke="transparent" points="664.5,-10 664.5,-30 684.5,-30 684.5,-10 664.5,-10"/>
<text text-anchor="start" x="688.2251" y="-15.4" font-family="sans-serif" font-size="14.00" fill="#000000"> &#160;Module</text>
<polygon fill="#80b1d3" stroke="transparent" points="750.5,-10 750.5,-30 770.5,-30 770.5,-10 750.5,-10"/>
<text text-anchor="start" x="774.2812" y="-15.4" font-family="sans-serif" font-size="14.00" fill="#000000"> &#160;Bootstrap</text>
<polygon fill="#fdb462" stroke="transparent" points="847.5,-10 847.5,-30 867.5,-30 867.5,-10 847.5,-10"/>
<text text-anchor="start" x="871.1732" y="-15.4" font-family="sans-serif" font-size="14.00" fill="#000000"> &#160;Providers</text>
<polygon fill="#fb8072" stroke="transparent" points="943.5,-10 943.5,-30 963.5,-30 963.5,-10 943.5,-10"/>
<text text-anchor="start" x="967.2258" y="-15.4" font-family="sans-serif" font-size="14.00" fill="#000000"> &#160;Exports</text>
<g id="clust1" class="cluster">
<title>cluster_GroupsListFiltersModalModule</title>
<polygon fill="none" stroke="#000000" stroke-dasharray="1,5" points="8,-70 8,-268 1563,-268 1563,-70 8,-70"/>
</g>
<g id="clust2" class="cluster">
<title>cluster_GroupsListFiltersModalModule_declarations</title>
<polygon fill="none" stroke="#000000" points="1323,-78 1323,-130 1555,-130 1555,-78 1323,-78"/>
</g>
<g id="clust4" class="cluster">
<title>cluster_GroupsListFiltersModalModule_imports</title>
<polygon fill="none" stroke="#000000" points="16,-78 16,-130 1315,-130 1315,-78 16,-78"/>
</g>
<g id="clust5" class="cluster">
<title>cluster_GroupsListFiltersModalModule_exports</title>
<polygon fill="none" stroke="#000000" points="597,-208 597,-260 981,-260 981,-208 597,-208"/>
</g>
<!-- GroupsListFiltersModalComponent -->
<g id="node1" class="node">
<title>GroupsListFiltersModalComponent</title>
<polygon fill="#ffffb3" stroke="#000000" points="1547.1469,-122 1330.8531,-122 1330.8531,-86 1547.1469,-86 1547.1469,-122"/>
<text text-anchor="middle" x="1439" y="-99.8" font-family="Times,serif" font-size="14.00" fill="#000000">GroupsListFiltersModalComponent</text>
</g>
<!-- GroupsListFiltersModalModule -->
<g id="node2" class="node">
<title>GroupsListFiltersModalModule</title>
<polygon fill="#8dd3c7" stroke="#000000" points="864.364,-187 861.364,-191 840.364,-191 837.364,-187 669.636,-187 669.636,-151 864.364,-151 864.364,-187"/>
<text text-anchor="middle" x="767" y="-164.8" font-family="Times,serif" font-size="14.00" fill="#000000">GroupsListFiltersModalModule</text>
</g>
<!-- GroupsListFiltersModalComponent&#45;&gt;GroupsListFiltersModalModule -->
<g id="edge1" class="edge">
<title>GroupsListFiltersModalComponent&#45;&gt;GroupsListFiltersModalModule</title>
<path fill="none" stroke="#000000" d="M1439,-122.0109C1439,-144.4852 1439,-180 1439,-180 1439,-180 874.7146,-180 874.7146,-180"/>
<polygon fill="#000000" stroke="#000000" points="874.7146,-176.5001 864.7146,-180 874.7145,-183.5001 874.7146,-176.5001"/>
</g>
<!-- GroupsListFiltersModalComponent  -->
<g id="node12" class="node">
<title>GroupsListFiltersModalComponent </title>
<polygon fill="#fb8072" stroke="#000000" points="973.1466,-252 752.8534,-252 752.8534,-216 973.1466,-216 973.1466,-252"/>
<text text-anchor="middle" x="863" y="-229.8" font-family="Times,serif" font-size="14.00" fill="#000000">GroupsListFiltersModalComponent </text>
</g>
<!-- GroupsListFiltersModalModule&#45;&gt;GroupsListFiltersModalComponent  -->
<g id="edge11" class="edge">
<title>GroupsListFiltersModalModule&#45;&gt;GroupsListFiltersModalComponent </title>
<path fill="none" stroke="#000000" stroke-dasharray="5,2" d="M808.6794,-187.1061C808.6794,-187.1061 808.6794,-205.991 808.6794,-205.991"/>
<polygon fill="#000000" stroke="#000000" points="805.1794,-205.9909 808.6794,-215.991 812.1794,-205.991 805.1794,-205.9909"/>
</g>
<!-- FormGroupModule  -->
<g id="node13" class="node">
<title>FormGroupModule </title>
<polygon fill="#fb8072" stroke="#000000" points="734.6509,-252 605.3491,-252 605.3491,-216 734.6509,-216 734.6509,-252"/>
<text text-anchor="middle" x="670" y="-229.8" font-family="Times,serif" font-size="14.00" fill="#000000">FormGroupModule </text>
</g>
<!-- GroupsListFiltersModalModule&#45;&gt;FormGroupModule  -->
<g id="edge12" class="edge">
<title>GroupsListFiltersModalModule&#45;&gt;FormGroupModule </title>
<path fill="none" stroke="#000000" stroke-dasharray="5,2" d="M702.0717,-187.1061C702.0717,-187.1061 702.0717,-205.991 702.0717,-205.991"/>
<polygon fill="#000000" stroke="#000000" points="698.5718,-205.9909 702.0717,-215.991 705.5718,-205.991 698.5718,-205.9909"/>
</g>
<!-- CommonModule -->
<g id="node3" class="node">
<title>CommonModule</title>
<polygon fill="#8dd3c7" stroke="#000000" points="1306.6681,-122 1303.6681,-126 1282.6681,-126 1279.6681,-122 1195.3319,-122 1195.3319,-86 1306.6681,-86 1306.6681,-122"/>
<text text-anchor="middle" x="1251" y="-99.8" font-family="Times,serif" font-size="14.00" fill="#000000">CommonModule</text>
</g>
<!-- CommonModule&#45;&gt;GroupsListFiltersModalModule -->
<g id="edge2" class="edge">
<title>CommonModule&#45;&gt;GroupsListFiltersModalModule</title>
<path fill="none" stroke="#000000" d="M1251,-122.1289C1251,-142.5724 1251,-173 1251,-173 1251,-173 874.6534,-173 874.6534,-173"/>
<polygon fill="#000000" stroke="#000000" points="874.6534,-169.5001 864.6534,-173 874.6533,-176.5001 874.6534,-169.5001"/>
</g>
<!-- IonicModule -->
<g id="node4" class="node">
<title>IonicModule</title>
<polygon fill="#8dd3c7" stroke="#000000" points="1177.3162,-122 1174.3162,-126 1153.3162,-126 1150.3162,-122 1088.6838,-122 1088.6838,-86 1177.3162,-86 1177.3162,-122"/>
<text text-anchor="middle" x="1133" y="-99.8" font-family="Times,serif" font-size="14.00" fill="#000000">IonicModule</text>
</g>
<!-- IonicModule&#45;&gt;GroupsListFiltersModalModule -->
<g id="edge3" class="edge">
<title>IonicModule&#45;&gt;GroupsListFiltersModalModule</title>
<path fill="none" stroke="#000000" d="M1133,-122.2667C1133,-140.5552 1133,-166 1133,-166 1133,-166 874.6005,-166 874.6005,-166"/>
<polygon fill="#000000" stroke="#000000" points="874.6005,-162.5001 864.6005,-166 874.6005,-169.5001 874.6005,-162.5001"/>
</g>
<!-- FormGroupModule -->
<g id="node5" class="node">
<title>FormGroupModule</title>
<polygon fill="#8dd3c7" stroke="#000000" points="1070.6513,-122 1067.6513,-126 1046.6513,-126 1043.6513,-122 945.3487,-122 945.3487,-86 1070.6513,-86 1070.6513,-122"/>
<text text-anchor="middle" x="1008" y="-99.8" font-family="Times,serif" font-size="14.00" fill="#000000">FormGroupModule</text>
</g>
<!-- FormGroupModule&#45;&gt;GroupsListFiltersModalModule -->
<g id="edge4" class="edge">
<title>FormGroupModule&#45;&gt;GroupsListFiltersModalModule</title>
<path fill="none" stroke="#000000" d="M959.124,-122.0091C959.124,-138.0494 959.124,-159 959.124,-159 959.124,-159 874.4691,-159 874.4691,-159"/>
<polygon fill="#000000" stroke="#000000" points="874.4691,-155.5001 864.4691,-159 874.4691,-162.5001 874.4691,-155.5001"/>
</g>
<!-- ReactiveFormsModule -->
<g id="node6" class="node">
<title>ReactiveFormsModule</title>
<polygon fill="#8dd3c7" stroke="#000000" points="927.3047,-122 924.3047,-126 903.3047,-126 900.3047,-122 782.6953,-122 782.6953,-86 927.3047,-86 927.3047,-122"/>
<text text-anchor="middle" x="855" y="-99.8" font-family="Times,serif" font-size="14.00" fill="#000000">ReactiveFormsModule</text>
</g>
<!-- ReactiveFormsModule&#45;&gt;GroupsListFiltersModalModule -->
<g id="edge5" class="edge">
<title>ReactiveFormsModule&#45;&gt;GroupsListFiltersModalModule</title>
<path fill="none" stroke="#000000" d="M823.6399,-122.1061C823.6399,-122.1061 823.6399,-140.991 823.6399,-140.991"/>
<polygon fill="#000000" stroke="#000000" points="820.14,-140.9909 823.6399,-150.991 827.14,-140.991 820.14,-140.9909"/>
</g>
<!-- TranslateModule.forChild() -->
<g id="node7" class="node">
<title>TranslateModule.forChild()</title>
<polygon fill="#8dd3c7" stroke="#000000" points="764.8928,-122 761.8928,-126 740.8928,-126 737.8928,-122 593.1072,-122 593.1072,-86 764.8928,-86 764.8928,-122"/>
<text text-anchor="middle" x="679" y="-99.8" font-family="Times,serif" font-size="14.00" fill="#000000">TranslateModule.forChild()</text>
</g>
<!-- TranslateModule.forChild()&#45;&gt;GroupsListFiltersModalModule -->
<g id="edge6" class="edge">
<title>TranslateModule.forChild()&#45;&gt;GroupsListFiltersModalModule</title>
<path fill="none" stroke="#000000" d="M717.2572,-122.1061C717.2572,-122.1061 717.2572,-140.991 717.2572,-140.991"/>
<polygon fill="#000000" stroke="#000000" points="713.7573,-140.9909 717.2572,-150.991 720.7573,-140.991 713.7573,-140.9909"/>
</g>
<!-- DirectivesModule -->
<g id="node8" class="node">
<title>DirectivesModule</title>
<polygon fill="#8dd3c7" stroke="#000000" points="575.5772,-122 572.5772,-126 551.5772,-126 548.5772,-122 458.4228,-122 458.4228,-86 575.5772,-86 575.5772,-122"/>
<text text-anchor="middle" x="517" y="-99.8" font-family="Times,serif" font-size="14.00" fill="#000000">DirectivesModule</text>
</g>
<!-- DirectivesModule&#45;&gt;GroupsListFiltersModalModule -->
<g id="edge7" class="edge">
<title>DirectivesModule&#45;&gt;GroupsListFiltersModalModule</title>
<path fill="none" stroke="#000000" d="M517,-122.0091C517,-138.0494 517,-159 517,-159 517,-159 659.6276,-159 659.6276,-159"/>
<polygon fill="#000000" stroke="#000000" points="659.6277,-162.5001 669.6276,-159 659.6276,-155.5001 659.6277,-162.5001"/>
</g>
<!-- PipesModule -->
<g id="node9" class="node">
<title>PipesModule</title>
<polygon fill="#8dd3c7" stroke="#000000" points="440.8823,-122 437.8823,-126 416.8823,-126 413.8823,-122 351.1177,-122 351.1177,-86 440.8823,-86 440.8823,-122"/>
<text text-anchor="middle" x="396" y="-99.8" font-family="Times,serif" font-size="14.00" fill="#000000">PipesModule</text>
</g>
<!-- PipesModule&#45;&gt;GroupsListFiltersModalModule -->
<g id="edge8" class="edge">
<title>PipesModule&#45;&gt;GroupsListFiltersModalModule</title>
<path fill="none" stroke="#000000" d="M396,-122.2667C396,-140.5552 396,-166 396,-166 396,-166 659.5241,-166 659.5241,-166"/>
<polygon fill="#000000" stroke="#000000" points="659.5242,-169.5001 669.5241,-166 659.5241,-162.5001 659.5242,-169.5001"/>
</g>
<!-- PromptFormModalModule -->
<g id="node10" class="node">
<title>PromptFormModalModule</title>
<polygon fill="#8dd3c7" stroke="#000000" points="332.6581,-122 329.6581,-126 308.6581,-126 305.6581,-122 165.3419,-122 165.3419,-86 332.6581,-86 332.6581,-122"/>
<text text-anchor="middle" x="249" y="-99.8" font-family="Times,serif" font-size="14.00" fill="#000000">PromptFormModalModule</text>
</g>
<!-- PromptFormModalModule&#45;&gt;GroupsListFiltersModalModule -->
<g id="edge9" class="edge">
<title>PromptFormModalModule&#45;&gt;GroupsListFiltersModalModule</title>
<path fill="none" stroke="#000000" d="M249,-122.1289C249,-142.5724 249,-173 249,-173 249,-173 659.5682,-173 659.5682,-173"/>
<polygon fill="#000000" stroke="#000000" points="659.5682,-176.5001 669.5682,-173 659.5681,-169.5001 659.5682,-176.5001"/>
</g>
<!-- SelectInputModule -->
<g id="node11" class="node">
<title>SelectInputModule</title>
<polygon fill="#8dd3c7" stroke="#000000" points="147.809,-122 144.809,-126 123.809,-126 120.809,-122 24.191,-122 24.191,-86 147.809,-86 147.809,-122"/>
<text text-anchor="middle" x="86" y="-99.8" font-family="Times,serif" font-size="14.00" fill="#000000">SelectInputModule</text>
</g>
<!-- SelectInputModule&#45;&gt;GroupsListFiltersModalModule -->
<g id="edge10" class="edge">
<title>SelectInputModule&#45;&gt;GroupsListFiltersModalModule</title>
<path fill="none" stroke="#000000" d="M86,-122.0109C86,-144.4852 86,-180 86,-180 86,-180 659.4293,-180 659.4293,-180"/>
<polygon fill="#000000" stroke="#000000" points="659.4293,-183.5001 669.4293,-180 659.4293,-176.5001 659.4293,-183.5001"/>
</g>
</g>
</svg>
