<?xml version="1.0" encoding="UTF-8" standalone="no"?>
<!DOCTYPE svg PUBLIC "-//W3C//DTD SVG 1.1//EN"
 "http://www.w3.org/Graphics/SVG/1.1/DTD/svg11.dtd">
<!-- Generated by graphviz version 2.40.1 (20161225.0304)
 -->
<!-- Title: dependencies Pages: 1 -->
<svg width="1206pt" height="284pt"
 viewBox="0.00 0.00 1206.00 284.00" xmlns="http://www.w3.org/2000/svg" xmlns:xlink="http://www.w3.org/1999/xlink">
<g id="graph0" class="graph" transform="scale(1 1) rotate(0) translate(4 280)">
<title>dependencies</title>
<polygon fill="#ffffff" stroke="transparent" points="-4,4 -4,-280 1202,-280 1202,4 -4,4"/>
<text text-anchor="start" x="578.0091" y="-42.4" font-family="sans-serif" font-weight="bold" font-size="14.00" fill="#000000">Legend</text>
<polygon fill="#ffffb3" stroke="transparent" points="365,-10 365,-30 385,-30 385,-10 365,-10"/>
<text text-anchor="start" x="388.629" y="-15.4" font-family="sans-serif" font-size="14.00" fill="#000000"> &#160;Declarations</text>
<polygon fill="#8dd3c7" stroke="transparent" points="478,-10 478,-30 498,-30 498,-10 478,-10"/>
<text text-anchor="start" x="501.7251" y="-15.4" font-family="sans-serif" font-size="14.00" fill="#000000"> &#160;Module</text>
<polygon fill="#80b1d3" stroke="transparent" points="564,-10 564,-30 584,-30 584,-10 564,-10"/>
<text text-anchor="start" x="587.7812" y="-15.4" font-family="sans-serif" font-size="14.00" fill="#000000"> &#160;Bootstrap</text>
<polygon fill="#fdb462" stroke="transparent" points="661,-10 661,-30 681,-30 681,-10 661,-10"/>
<text text-anchor="start" x="684.6732" y="-15.4" font-family="sans-serif" font-size="14.00" fill="#000000"> &#160;Providers</text>
<polygon fill="#fb8072" stroke="transparent" points="757,-10 757,-30 777,-30 777,-10 757,-10"/>
<text text-anchor="start" x="780.7258" y="-15.4" font-family="sans-serif" font-size="14.00" fill="#000000"> &#160;Exports</text>
<g id="clust1" class="cluster">
<title>cluster_PromptFormModalModule</title>
<polygon fill="none" stroke="#000000" stroke-dasharray="1,5" points="8,-70 8,-268 1190,-268 1190,-70 8,-70"/>
</g>
<g id="clust2" class="cluster">
<title>cluster_PromptFormModalModule_declarations</title>
<polygon fill="none" stroke="#000000" points="976,-78 976,-130 1182,-130 1182,-78 976,-78"/>
</g>
<g id="clust4" class="cluster">
<title>cluster_PromptFormModalModule_imports</title>
<polygon fill="none" stroke="#000000" points="16,-78 16,-130 968,-130 968,-78 16,-78"/>
</g>
<g id="clust5" class="cluster">
<title>cluster_PromptFormModalModule_exports</title>
<polygon fill="none" stroke="#000000" points="228,-208 228,-260 977,-260 977,-208 228,-208"/>
</g>
<!-- PromptFormModalComponent -->
<g id="node1" class="node">
<title>PromptFormModalComponent</title>
<polygon fill="#ffffb3" stroke="#000000" points="1173.9409,-122 984.0591,-122 984.0591,-86 1173.9409,-86 1173.9409,-122"/>
<text text-anchor="middle" x="1079" y="-99.8" font-family="Times,serif" font-size="14.00" fill="#000000">PromptFormModalComponent</text>
</g>
<!-- PromptFormModalModule -->
<g id="node2" class="node">
<title>PromptFormModalModule</title>
<polygon fill="#8dd3c7" stroke="#000000" points="627.6581,-187 624.6581,-191 603.6581,-191 600.6581,-187 460.3419,-187 460.3419,-151 627.6581,-151 627.6581,-187"/>
<text text-anchor="middle" x="544" y="-164.8" font-family="Times,serif" font-size="14.00" fill="#000000">PromptFormModalModule</text>
</g>
<!-- PromptFormModalComponent&#45;&gt;PromptFormModalModule -->
<g id="edge1" class="edge">
<title>PromptFormModalComponent&#45;&gt;PromptFormModalModule</title>
<path fill="none" stroke="#000000" d="M1079,-122.1289C1079,-142.5724 1079,-173 1079,-173 1079,-173 637.8878,-173 637.8878,-173"/>
<polygon fill="#000000" stroke="#000000" points="637.8879,-169.5001 627.8878,-173 637.8878,-176.5001 637.8879,-169.5001"/>
</g>
<!-- PromptFormModalComponent  -->
<g id="node10" class="node">
<title>PromptFormModalComponent </title>
<polygon fill="#fb8072" stroke="#000000" points="969.4404,-252 776.5596,-252 776.5596,-216 969.4404,-216 969.4404,-252"/>
<text text-anchor="middle" x="873" y="-229.8" font-family="Times,serif" font-size="14.00" fill="#000000">PromptFormModalComponent </text>
</g>
<!-- PromptFormModalModule&#45;&gt;PromptFormModalComponent  -->
<g id="edge9" class="edge">
<title>PromptFormModalModule&#45;&gt;PromptFormModalComponent </title>
<path fill="none" stroke="#000000" stroke-dasharray="5,2" d="M627.8424,-180C703.6126,-180 803.341,-180 803.341,-180 803.341,-180 803.341,-205.7181 803.341,-205.7181"/>
<polygon fill="#000000" stroke="#000000" points="799.8411,-205.718 803.341,-215.7181 806.8411,-205.7181 799.8411,-205.718"/>
</g>
<!-- ReactiveFormsModule  -->
<g id="node11" class="node">
<title>ReactiveFormsModule </title>
<polygon fill="#fb8072" stroke="#000000" points="758.8045,-252 611.1955,-252 611.1955,-216 758.8045,-216 758.8045,-252"/>
<text text-anchor="middle" x="685" y="-229.8" font-family="Times,serif" font-size="14.00" fill="#000000">ReactiveFormsModule </text>
</g>
<!-- PromptFormModalModule&#45;&gt;ReactiveFormsModule  -->
<g id="edge10" class="edge">
<title>PromptFormModalModule&#45;&gt;ReactiveFormsModule </title>
<path fill="none" stroke="#000000" stroke-dasharray="5,2" d="M619.4634,-187.1061C619.4634,-187.1061 619.4634,-205.991 619.4634,-205.991"/>
<polygon fill="#000000" stroke="#000000" points="615.9634,-205.9909 619.4634,-215.991 622.9634,-205.991 615.9634,-205.9909"/>
</g>
<!-- FormsModule  -->
<g id="node12" class="node">
<title>FormsModule </title>
<polygon fill="#fb8072" stroke="#000000" points="593.3283,-252 494.6717,-252 494.6717,-216 593.3283,-216 593.3283,-252"/>
<text text-anchor="middle" x="544" y="-229.8" font-family="Times,serif" font-size="14.00" fill="#000000">FormsModule </text>
</g>
<!-- PromptFormModalModule&#45;&gt;FormsModule  -->
<g id="edge11" class="edge">
<title>PromptFormModalModule&#45;&gt;FormsModule </title>
<path fill="none" stroke="#000000" stroke-dasharray="5,2" d="M544,-187.1061C544,-187.1061 544,-205.991 544,-205.991"/>
<polygon fill="#000000" stroke="#000000" points="540.5001,-205.9909 544,-215.991 547.5001,-205.991 540.5001,-205.9909"/>
</g>
<!-- PipesModule  -->
<g id="node13" class="node">
<title>PipesModule </title>
<polygon fill="#fb8072" stroke="#000000" points="476.883,-252 383.117,-252 383.117,-216 476.883,-216 476.883,-252"/>
<text text-anchor="middle" x="430" y="-229.8" font-family="Times,serif" font-size="14.00" fill="#000000">PipesModule </text>
</g>
<!-- PromptFormModalModule&#45;&gt;PipesModule  -->
<g id="edge12" class="edge">
<title>PromptFormModalModule&#45;&gt;PipesModule </title>
<path fill="none" stroke="#000000" stroke-dasharray="5,2" d="M468.4311,-187.1061C468.4311,-187.1061 468.4311,-205.991 468.4311,-205.991"/>
<polygon fill="#000000" stroke="#000000" points="464.9312,-205.9909 468.4311,-215.991 471.9312,-205.991 464.9312,-205.9909"/>
</g>
<!-- FormGroupModule  -->
<g id="node14" class="node">
<title>FormGroupModule </title>
<polygon fill="#fb8072" stroke="#000000" points="365.6509,-252 236.3491,-252 236.3491,-216 365.6509,-216 365.6509,-252"/>
<text text-anchor="middle" x="301" y="-229.8" font-family="Times,serif" font-size="14.00" fill="#000000">FormGroupModule </text>
</g>
<!-- PromptFormModalModule&#45;&gt;FormGroupModule  -->
<g id="edge13" class="edge">
<title>PromptFormModalModule&#45;&gt;FormGroupModule </title>
<path fill="none" stroke="#000000" stroke-dasharray="5,2" d="M460.0665,-180C390.8631,-180 304.0196,-180 304.0196,-180 304.0196,-180 304.0196,-205.7181 304.0196,-205.7181"/>
<polygon fill="#000000" stroke="#000000" points="300.5197,-205.718 304.0196,-215.7181 307.5197,-205.7181 300.5197,-205.718"/>
</g>
<!-- CommonModule -->
<g id="node3" class="node">
<title>CommonModule</title>
<polygon fill="#8dd3c7" stroke="#000000" points="959.6681,-122 956.6681,-126 935.6681,-126 932.6681,-122 848.3319,-122 848.3319,-86 959.6681,-86 959.6681,-122"/>
<text text-anchor="middle" x="904" y="-99.8" font-family="Times,serif" font-size="14.00" fill="#000000">CommonModule</text>
</g>
<!-- CommonModule&#45;&gt;PromptFormModalModule -->
<g id="edge2" class="edge">
<title>CommonModule&#45;&gt;PromptFormModalModule</title>
<path fill="none" stroke="#000000" d="M904,-122.2667C904,-140.5552 904,-166 904,-166 904,-166 637.9497,-166 637.9497,-166"/>
<polygon fill="#000000" stroke="#000000" points="637.9497,-162.5001 627.9497,-166 637.9496,-169.5001 637.9497,-162.5001"/>
</g>
<!-- ReactiveFormsModule -->
<g id="node4" class="node">
<title>ReactiveFormsModule</title>
<polygon fill="#8dd3c7" stroke="#000000" points="830.3047,-122 827.3047,-126 806.3047,-126 803.3047,-122 685.6953,-122 685.6953,-86 830.3047,-86 830.3047,-122"/>
<text text-anchor="middle" x="758" y="-99.8" font-family="Times,serif" font-size="14.00" fill="#000000">ReactiveFormsModule</text>
</g>
<!-- ReactiveFormsModule&#45;&gt;PromptFormModalModule -->
<g id="edge3" class="edge">
<title>ReactiveFormsModule&#45;&gt;PromptFormModalModule</title>
<path fill="none" stroke="#000000" d="M722.375,-122.0091C722.375,-138.0494 722.375,-159 722.375,-159 722.375,-159 637.7035,-159 637.7035,-159"/>
<polygon fill="#000000" stroke="#000000" points="637.7035,-155.5001 627.7035,-159 637.7034,-162.5001 637.7035,-155.5001"/>
</g>
<!-- FormsModule -->
<g id="node5" class="node">
<title>FormsModule</title>
<polygon fill="#8dd3c7" stroke="#000000" points="667.8288,-122 664.8288,-126 643.8288,-126 640.8288,-122 572.1712,-122 572.1712,-86 667.8288,-86 667.8288,-122"/>
<text text-anchor="middle" x="620" y="-99.8" font-family="Times,serif" font-size="14.00" fill="#000000">FormsModule</text>
</g>
<!-- FormsModule&#45;&gt;PromptFormModalModule -->
<g id="edge4" class="edge">
<title>FormsModule&#45;&gt;PromptFormModalModule</title>
<path fill="none" stroke="#000000" d="M600.0824,-122.1061C600.0824,-122.1061 600.0824,-140.991 600.0824,-140.991"/>
<polygon fill="#000000" stroke="#000000" points="596.5825,-140.9909 600.0824,-150.991 603.5825,-140.991 596.5825,-140.9909"/>
</g>
<!-- TranslateModule.forChild() -->
<g id="node6" class="node">
<title>TranslateModule.forChild()</title>
<polygon fill="#8dd3c7" stroke="#000000" points="553.8928,-122 550.8928,-126 529.8928,-126 526.8928,-122 382.1072,-122 382.1072,-86 553.8928,-86 553.8928,-122"/>
<text text-anchor="middle" x="468" y="-99.8" font-family="Times,serif" font-size="14.00" fill="#000000">TranslateModule.forChild()</text>
</g>
<!-- TranslateModule.forChild()&#45;&gt;PromptFormModalModule -->
<g id="edge5" class="edge">
<title>TranslateModule.forChild()&#45;&gt;PromptFormModalModule</title>
<path fill="none" stroke="#000000" d="M507.0588,-122.1061C507.0588,-122.1061 507.0588,-140.991 507.0588,-140.991"/>
<polygon fill="#000000" stroke="#000000" points="503.5588,-140.9909 507.0588,-150.991 510.5588,-140.991 503.5588,-140.9909"/>
</g>
<!-- PipesModule -->
<g id="node7" class="node">
<title>PipesModule</title>
<polygon fill="#8dd3c7" stroke="#000000" points="363.8823,-122 360.8823,-126 339.8823,-126 336.8823,-122 274.1177,-122 274.1177,-86 363.8823,-86 363.8823,-122"/>
<text text-anchor="middle" x="319" y="-99.8" font-family="Times,serif" font-size="14.00" fill="#000000">PipesModule</text>
</g>
<!-- PipesModule&#45;&gt;PromptFormModalModule -->
<g id="edge6" class="edge">
<title>PipesModule&#45;&gt;PromptFormModalModule</title>
<path fill="none" stroke="#000000" d="M333.9804,-122.0091C333.9804,-138.0494 333.9804,-159 333.9804,-159 333.9804,-159 450.0892,-159 450.0892,-159"/>
<polygon fill="#000000" stroke="#000000" points="450.0893,-162.5001 460.0892,-159 450.0892,-155.5001 450.0893,-162.5001"/>
</g>
<!-- FormGroupModule -->
<g id="node8" class="node">
<title>FormGroupModule</title>
<polygon fill="#8dd3c7" stroke="#000000" points="255.6513,-122 252.6513,-126 231.6513,-126 228.6513,-122 130.3487,-122 130.3487,-86 255.6513,-86 255.6513,-122"/>
<text text-anchor="middle" x="193" y="-99.8" font-family="Times,serif" font-size="14.00" fill="#000000">FormGroupModule</text>
</g>
<!-- FormGroupModule&#45;&gt;PromptFormModalModule -->
<g id="edge7" class="edge">
<title>FormGroupModule&#45;&gt;PromptFormModalModule</title>
<path fill="none" stroke="#000000" d="M246.125,-122.2667C246.125,-140.5552 246.125,-166 246.125,-166 246.125,-166 450.2325,-166 450.2325,-166"/>
<polygon fill="#000000" stroke="#000000" points="450.2325,-169.5001 460.2325,-166 450.2325,-162.5001 450.2325,-169.5001"/>
</g>
<!-- IonicModule -->
<g id="node9" class="node">
<title>IonicModule</title>
<polygon fill="#8dd3c7" stroke="#000000" points="112.3162,-122 109.3162,-126 88.3162,-126 85.3162,-122 23.6838,-122 23.6838,-86 112.3162,-86 112.3162,-122"/>
<text text-anchor="middle" x="68" y="-99.8" font-family="Times,serif" font-size="14.00" fill="#000000">IonicModule</text>
</g>
<!-- IonicModule&#45;&gt;PromptFormModalModule -->
<g id="edge8" class="edge">
<title>IonicModule&#45;&gt;PromptFormModalModule</title>
<path fill="none" stroke="#000000" d="M68,-122.1289C68,-142.5724 68,-173 68,-173 68,-173 450.2696,-173 450.2696,-173"/>
<polygon fill="#000000" stroke="#000000" points="450.2696,-176.5001 460.2696,-173 450.2696,-169.5001 450.2696,-176.5001"/>
</g>
</g>
</svg>
