<?xml version="1.0" encoding="UTF-8" standalone="no"?>
<!DOCTYPE svg PUBLIC "-//W3C//DTD SVG 1.1//EN"
 "http://www.w3.org/Graphics/SVG/1.1/DTD/svg11.dtd">
<!-- Generated by graphviz version 2.40.1 (20161225.0304)
 -->
<!-- Title: dependencies Pages: 1 -->
<svg width="1248pt" height="284pt"
 viewBox="0.00 0.00 1248.00 284.00" xmlns="http://www.w3.org/2000/svg" xmlns:xlink="http://www.w3.org/1999/xlink">
<g id="graph0" class="graph" transform="scale(1 1) rotate(0) translate(4 280)">
<title>dependencies</title>
<polygon fill="#ffffff" stroke="transparent" points="-4,4 -4,-280 1244,-280 1244,4 -4,4"/>
<text text-anchor="start" x="599.0091" y="-42.4" font-family="sans-serif" font-weight="bold" font-size="14.00" fill="#000000">Legend</text>
<polygon fill="#ffffb3" stroke="transparent" points="386,-10 386,-30 406,-30 406,-10 386,-10"/>
<text text-anchor="start" x="409.629" y="-15.4" font-family="sans-serif" font-size="14.00" fill="#000000"> &#160;Declarations</text>
<polygon fill="#8dd3c7" stroke="transparent" points="499,-10 499,-30 519,-30 519,-10 499,-10"/>
<text text-anchor="start" x="522.7251" y="-15.4" font-family="sans-serif" font-size="14.00" fill="#000000"> &#160;Module</text>
<polygon fill="#80b1d3" stroke="transparent" points="585,-10 585,-30 605,-30 605,-10 585,-10"/>
<text text-anchor="start" x="608.7812" y="-15.4" font-family="sans-serif" font-size="14.00" fill="#000000"> &#160;Bootstrap</text>
<polygon fill="#fdb462" stroke="transparent" points="682,-10 682,-30 702,-30 702,-10 682,-10"/>
<text text-anchor="start" x="705.6732" y="-15.4" font-family="sans-serif" font-size="14.00" fill="#000000"> &#160;Providers</text>
<polygon fill="#fb8072" stroke="transparent" points="778,-10 778,-30 798,-30 798,-10 778,-10"/>
<text text-anchor="start" x="801.7258" y="-15.4" font-family="sans-serif" font-size="14.00" fill="#000000"> &#160;Exports</text>
<g id="clust1" class="cluster">
<title>cluster_UsersListModule</title>
<polygon fill="none" stroke="#000000" stroke-dasharray="1,5" points="8,-70 8,-268 1232,-268 1232,-70 8,-70"/>
</g>
<g id="clust2" class="cluster">
<title>cluster_UsersListModule_declarations</title>
<polygon fill="none" stroke="#000000" points="1074,-78 1074,-130 1224,-130 1224,-78 1074,-78"/>
</g>
<g id="clust4" class="cluster">
<title>cluster_UsersListModule_imports</title>
<polygon fill="none" stroke="#000000" points="16,-78 16,-130 1066,-130 1066,-78 16,-78"/>
</g>
<g id="clust5" class="cluster">
<title>cluster_UsersListModule_exports</title>
<polygon fill="none" stroke="#000000" points="595,-208 595,-260 749,-260 749,-208 595,-208"/>
</g>
<!-- UsersListComponent -->
<g id="node1" class="node">
<title>UsersListComponent</title>
<polygon fill="#ffffb3" stroke="#000000" points="1216.4818,-122 1081.5182,-122 1081.5182,-86 1216.4818,-86 1216.4818,-122"/>
<text text-anchor="middle" x="1149" y="-99.8" font-family="Times,serif" font-size="14.00" fill="#000000">UsersListComponent</text>
</g>
<!-- UsersListModule -->
<g id="node2" class="node">
<title>UsersListModule</title>
<polygon fill="#8dd3c7" stroke="#000000" points="728.6994,-187 725.6994,-191 704.6994,-191 701.6994,-187 615.3006,-187 615.3006,-151 728.6994,-151 728.6994,-187"/>
<text text-anchor="middle" x="672" y="-164.8" font-family="Times,serif" font-size="14.00" fill="#000000">UsersListModule</text>
</g>
<!-- UsersListComponent&#45;&gt;UsersListModule -->
<g id="edge1" class="edge">
<title>UsersListComponent&#45;&gt;UsersListModule</title>
<path fill="none" stroke="#000000" d="M1149,-122.2921C1149,-144.2057 1149,-178 1149,-178 1149,-178 739.0636,-178 739.0636,-178"/>
<polygon fill="#000000" stroke="#000000" points="739.0636,-174.5001 729.0636,-178 739.0635,-181.5001 739.0636,-174.5001"/>
</g>
<!-- UsersListComponent  -->
<g id="node10" class="node">
<title>UsersListComponent </title>
<polygon fill="#fb8072" stroke="#000000" points="741.4826,-252 602.5174,-252 602.5174,-216 741.4826,-216 741.4826,-252"/>
<text text-anchor="middle" x="672" y="-229.8" font-family="Times,serif" font-size="14.00" fill="#000000">UsersListComponent </text>
</g>
<!-- UsersListModule&#45;&gt;UsersListComponent  -->
<g id="edge9" class="edge">
<title>UsersListModule&#45;&gt;UsersListComponent </title>
<path fill="none" stroke="#000000" stroke-dasharray="5,2" d="M672,-187.1061C672,-187.1061 672,-205.991 672,-205.991"/>
<polygon fill="#000000" stroke="#000000" points="668.5001,-205.9909 672,-215.991 675.5001,-205.991 668.5001,-205.9909"/>
</g>
<!-- CommonModule -->
<g id="node3" class="node">
<title>CommonModule</title>
<polygon fill="#8dd3c7" stroke="#000000" points="1057.6681,-122 1054.6681,-126 1033.6681,-126 1030.6681,-122 946.3319,-122 946.3319,-86 1057.6681,-86 1057.6681,-122"/>
<text text-anchor="middle" x="1002" y="-99.8" font-family="Times,serif" font-size="14.00" fill="#000000">CommonModule</text>
</g>
<!-- CommonModule&#45;&gt;UsersListModule -->
<g id="edge2" class="edge">
<title>CommonModule&#45;&gt;UsersListModule</title>
<path fill="none" stroke="#000000" d="M1002,-122.1061C1002,-141.3391 1002,-169 1002,-169 1002,-169 738.729,-169 738.729,-169"/>
<polygon fill="#000000" stroke="#000000" points="738.7291,-165.5001 728.729,-169 738.729,-172.5001 738.7291,-165.5001"/>
</g>
<!-- IonicModule -->
<g id="node4" class="node">
<title>IonicModule</title>
<polygon fill="#8dd3c7" stroke="#000000" points="928.3162,-122 925.3162,-126 904.3162,-126 901.3162,-122 839.6838,-122 839.6838,-86 928.3162,-86 928.3162,-122"/>
<text text-anchor="middle" x="884" y="-99.8" font-family="Times,serif" font-size="14.00" fill="#000000">IonicModule</text>
</g>
<!-- IonicModule&#45;&gt;UsersListModule -->
<g id="edge3" class="edge">
<title>IonicModule&#45;&gt;UsersListModule</title>
<path fill="none" stroke="#000000" d="M884,-122.027C884,-138.3976 884,-160 884,-160 884,-160 738.8121,-160 738.8121,-160"/>
<polygon fill="#000000" stroke="#000000" points="738.8121,-156.5001 728.8121,-160 738.8121,-163.5001 738.8121,-156.5001"/>
</g>
<!-- IonicModalsModule -->
<g id="node5" class="node">
<title>IonicModalsModule</title>
<polygon fill="#8dd3c7" stroke="#000000" points="822.3104,-122 819.3104,-126 798.3104,-126 795.3104,-122 691.6896,-122 691.6896,-86 822.3104,-86 822.3104,-122"/>
<text text-anchor="middle" x="757" y="-99.8" font-family="Times,serif" font-size="14.00" fill="#000000">IonicModalsModule</text>
</g>
<!-- IonicModalsModule&#45;&gt;UsersListModule -->
<g id="edge4" class="edge">
<title>IonicModalsModule&#45;&gt;UsersListModule</title>
<path fill="none" stroke="#000000" d="M710.2223,-122.1061C710.2223,-122.1061 710.2223,-140.991 710.2223,-140.991"/>
<polygon fill="#000000" stroke="#000000" points="706.7224,-140.9909 710.2223,-150.991 713.7224,-140.991 706.7224,-140.9909"/>
</g>
<!-- TranslateModule.forChild() -->
<g id="node6" class="node">
<title>TranslateModule.forChild()</title>
<polygon fill="#8dd3c7" stroke="#000000" points="673.8928,-122 670.8928,-126 649.8928,-126 646.8928,-122 502.1072,-122 502.1072,-86 673.8928,-86 673.8928,-122"/>
<text text-anchor="middle" x="588" y="-99.8" font-family="Times,serif" font-size="14.00" fill="#000000">TranslateModule.forChild()</text>
</g>
<!-- TranslateModule.forChild()&#45;&gt;UsersListModule -->
<g id="edge5" class="edge">
<title>TranslateModule.forChild()&#45;&gt;UsersListModule</title>
<path fill="none" stroke="#000000" d="M644.6734,-122.1061C644.6734,-122.1061 644.6734,-140.991 644.6734,-140.991"/>
<polygon fill="#000000" stroke="#000000" points="641.1735,-140.9909 644.6734,-150.991 648.1735,-140.991 641.1735,-140.9909"/>
</g>
<!-- EntityListModule -->
<g id="node7" class="node">
<title>EntityListModule</title>
<polygon fill="#8dd3c7" stroke="#000000" points="483.5535,-122 480.5535,-126 459.5535,-126 456.5535,-122 368.4465,-122 368.4465,-86 483.5535,-86 483.5535,-122"/>
<text text-anchor="middle" x="426" y="-99.8" font-family="Times,serif" font-size="14.00" fill="#000000">EntityListModule</text>
</g>
<!-- EntityListModule&#45;&gt;UsersListModule -->
<g id="edge6" class="edge">
<title>EntityListModule&#45;&gt;UsersListModule</title>
<path fill="none" stroke="#000000" d="M426,-122.027C426,-138.3976 426,-160 426,-160 426,-160 605.2537,-160 605.2537,-160"/>
<polygon fill="#000000" stroke="#000000" points="605.2538,-163.5001 615.2537,-160 605.2537,-156.5001 605.2538,-163.5001"/>
</g>
<!-- UserModalModule -->
<g id="node8" class="node">
<title>UserModalModule</title>
<polygon fill="#8dd3c7" stroke="#000000" points="350.0269,-122 347.0269,-126 326.0269,-126 323.0269,-122 227.9731,-122 227.9731,-86 350.0269,-86 350.0269,-122"/>
<text text-anchor="middle" x="289" y="-99.8" font-family="Times,serif" font-size="14.00" fill="#000000">UserModalModule</text>
</g>
<!-- UserModalModule&#45;&gt;UsersListModule -->
<g id="edge7" class="edge">
<title>UserModalModule&#45;&gt;UsersListModule</title>
<path fill="none" stroke="#000000" d="M289,-122.1061C289,-141.3391 289,-169 289,-169 289,-169 605.0746,-169 605.0746,-169"/>
<polygon fill="#000000" stroke="#000000" points="605.0746,-172.5001 615.0746,-169 605.0746,-165.5001 605.0746,-172.5001"/>
</g>
<!-- UsersListFiltersModalModule -->
<g id="node9" class="node">
<title>UsersListFiltersModalModule</title>
<polygon fill="#8dd3c7" stroke="#000000" points="209.5238,-122 206.5238,-126 185.5238,-126 182.5238,-122 24.4762,-122 24.4762,-86 209.5238,-86 209.5238,-122"/>
<text text-anchor="middle" x="117" y="-99.8" font-family="Times,serif" font-size="14.00" fill="#000000">UsersListFiltersModalModule</text>
</g>
<!-- UsersListFiltersModalModule&#45;&gt;UsersListModule -->
<g id="edge8" class="edge">
<title>UsersListFiltersModalModule&#45;&gt;UsersListModule</title>
<path fill="none" stroke="#000000" d="M117,-122.2921C117,-144.2057 117,-178 117,-178 117,-178 605.2135,-178 605.2135,-178"/>
<polygon fill="#000000" stroke="#000000" points="605.2135,-181.5001 615.2135,-178 605.2134,-174.5001 605.2135,-181.5001"/>
</g>
</g>
</svg>
