<?xml version="1.0" encoding="UTF-8" standalone="no"?>
<!DOCTYPE svg PUBLIC "-//W3C//DTD SVG 1.1//EN"
 "http://www.w3.org/Graphics/SVG/1.1/DTD/svg11.dtd">
<!-- Generated by graphviz version 2.40.1 (20161225.0304)
 -->
<!-- Title: dependencies Pages: 1 -->
<svg width="1392pt" height="284pt"
 viewBox="0.00 0.00 1392.00 284.00" xmlns="http://www.w3.org/2000/svg" xmlns:xlink="http://www.w3.org/1999/xlink">
<g id="graph0" class="graph" transform="scale(1 1) rotate(0) translate(4 280)">
<title>dependencies</title>
<polygon fill="#ffffff" stroke="transparent" points="-4,4 -4,-280 1388,-280 1388,4 -4,4"/>
<text text-anchor="start" x="671.0091" y="-42.4" font-family="sans-serif" font-weight="bold" font-size="14.00" fill="#000000">Legend</text>
<polygon fill="#ffffb3" stroke="transparent" points="458,-10 458,-30 478,-30 478,-10 458,-10"/>
<text text-anchor="start" x="481.629" y="-15.4" font-family="sans-serif" font-size="14.00" fill="#000000"> &#160;Declarations</text>
<polygon fill="#8dd3c7" stroke="transparent" points="571,-10 571,-30 591,-30 591,-10 571,-10"/>
<text text-anchor="start" x="594.7251" y="-15.4" font-family="sans-serif" font-size="14.00" fill="#000000"> &#160;Module</text>
<polygon fill="#80b1d3" stroke="transparent" points="657,-10 657,-30 677,-30 677,-10 657,-10"/>
<text text-anchor="start" x="680.7812" y="-15.4" font-family="sans-serif" font-size="14.00" fill="#000000"> &#160;Bootstrap</text>
<polygon fill="#fdb462" stroke="transparent" points="754,-10 754,-30 774,-30 774,-10 754,-10"/>
<text text-anchor="start" x="777.6732" y="-15.4" font-family="sans-serif" font-size="14.00" fill="#000000"> &#160;Providers</text>
<polygon fill="#fb8072" stroke="transparent" points="850,-10 850,-30 870,-30 870,-10 850,-10"/>
<text text-anchor="start" x="873.7258" y="-15.4" font-family="sans-serif" font-size="14.00" fill="#000000"> &#160;Exports</text>
<g id="clust1" class="cluster">
<title>cluster_UsersListModule</title>
<polygon fill="none" stroke="#000000" stroke-dasharray="1,5" points="8,-70 8,-268 1376,-268 1376,-70 8,-70"/>
</g>
<g id="clust2" class="cluster">
<title>cluster_UsersListModule_declarations</title>
<polygon fill="none" stroke="#000000" points="1218,-78 1218,-130 1368,-130 1368,-78 1218,-78"/>
</g>
<g id="clust4" class="cluster">
<title>cluster_UsersListModule_imports</title>
<polygon fill="none" stroke="#000000" points="16,-78 16,-130 1210,-130 1210,-78 16,-78"/>
</g>
<g id="clust5" class="cluster">
<title>cluster_UsersListModule_exports</title>
<polygon fill="none" stroke="#000000" points="655,-208 655,-260 809,-260 809,-208 655,-208"/>
</g>
<!-- UsersListComponent -->
<g id="node1" class="node">
<title>UsersListComponent</title>
<polygon fill="#ffffb3" stroke="#000000" points="1360.4818,-122 1225.5182,-122 1225.5182,-86 1360.4818,-86 1360.4818,-122"/>
<text text-anchor="middle" x="1293" y="-99.8" font-family="Times,serif" font-size="14.00" fill="#000000">UsersListComponent</text>
</g>
<!-- UsersListModule -->
<g id="node2" class="node">
<title>UsersListModule</title>
<polygon fill="#8dd3c7" stroke="#000000" points="788.6994,-187 785.6994,-191 764.6994,-191 761.6994,-187 675.3006,-187 675.3006,-151 788.6994,-151 788.6994,-187"/>
<text text-anchor="middle" x="732" y="-164.8" font-family="Times,serif" font-size="14.00" fill="#000000">UsersListModule</text>
</g>
<!-- UsersListComponent&#45;&gt;UsersListModule -->
<g id="edge1" class="edge">
<title>UsersListComponent&#45;&gt;UsersListModule</title>
<path fill="none" stroke="#000000" d="M1293,-122.0109C1293,-144.4852 1293,-180 1293,-180 1293,-180 798.6189,-180 798.6189,-180"/>
<polygon fill="#000000" stroke="#000000" points="798.619,-176.5001 788.6189,-180 798.6189,-183.5001 798.619,-176.5001"/>
</g>
<!-- UsersListComponent  -->
<g id="node11" class="node">
<title>UsersListComponent </title>
<polygon fill="#fb8072" stroke="#000000" points="801.4826,-252 662.5174,-252 662.5174,-216 801.4826,-216 801.4826,-252"/>
<text text-anchor="middle" x="732" y="-229.8" font-family="Times,serif" font-size="14.00" fill="#000000">UsersListComponent </text>
</g>
<!-- UsersListModule&#45;&gt;UsersListComponent  -->
<g id="edge10" class="edge">
<title>UsersListModule&#45;&gt;UsersListComponent </title>
<path fill="none" stroke="#000000" stroke-dasharray="5,2" d="M732,-187.1061C732,-187.1061 732,-205.991 732,-205.991"/>
<polygon fill="#000000" stroke="#000000" points="728.5001,-205.9909 732,-215.991 735.5001,-205.991 728.5001,-205.9909"/>
</g>
<!-- CommonModule -->
<g id="node3" class="node">
<title>CommonModule</title>
<polygon fill="#8dd3c7" stroke="#000000" points="1201.6681,-122 1198.6681,-126 1177.6681,-126 1174.6681,-122 1090.3319,-122 1090.3319,-86 1201.6681,-86 1201.6681,-122"/>
<text text-anchor="middle" x="1146" y="-99.8" font-family="Times,serif" font-size="14.00" fill="#000000">CommonModule</text>
</g>
<!-- CommonModule&#45;&gt;UsersListModule -->
<g id="edge2" class="edge">
<title>CommonModule&#45;&gt;UsersListModule</title>
<path fill="none" stroke="#000000" d="M1146,-122.1289C1146,-142.5724 1146,-173 1146,-173 1146,-173 798.6969,-173 798.6969,-173"/>
<polygon fill="#000000" stroke="#000000" points="798.6969,-169.5001 788.6969,-173 798.6968,-176.5001 798.6969,-169.5001"/>
</g>
<!-- IonicModule -->
<g id="node4" class="node">
<title>IonicModule</title>
<polygon fill="#8dd3c7" stroke="#000000" points="1072.3162,-122 1069.3162,-126 1048.3162,-126 1045.3162,-122 983.6838,-122 983.6838,-86 1072.3162,-86 1072.3162,-122"/>
<text text-anchor="middle" x="1028" y="-99.8" font-family="Times,serif" font-size="14.00" fill="#000000">IonicModule</text>
</g>
<!-- IonicModule&#45;&gt;UsersListModule -->
<g id="edge3" class="edge">
<title>IonicModule&#45;&gt;UsersListModule</title>
<path fill="none" stroke="#000000" d="M1028,-122.2667C1028,-140.5552 1028,-166 1028,-166 1028,-166 798.7215,-166 798.7215,-166"/>
<polygon fill="#000000" stroke="#000000" points="798.7216,-162.5001 788.7215,-166 798.7215,-169.5001 798.7216,-162.5001"/>
</g>
<!-- IonicModalsModule -->
<g id="node5" class="node">
<title>IonicModalsModule</title>
<polygon fill="#8dd3c7" stroke="#000000" points="966.3104,-122 963.3104,-126 942.3104,-126 939.3104,-122 835.6896,-122 835.6896,-86 966.3104,-86 966.3104,-122"/>
<text text-anchor="middle" x="901" y="-99.8" font-family="Times,serif" font-size="14.00" fill="#000000">IonicModalsModule</text>
</g>
<!-- IonicModalsModule&#45;&gt;UsersListModule -->
<g id="edge4" class="edge">
<title>IonicModalsModule&#45;&gt;UsersListModule</title>
<path fill="none" stroke="#000000" d="M901,-122.0091C901,-138.0494 901,-159 901,-159 901,-159 798.7447,-159 798.7447,-159"/>
<polygon fill="#000000" stroke="#000000" points="798.7447,-155.5001 788.7447,-159 798.7447,-162.5001 798.7447,-155.5001"/>
</g>
<!-- TranslateModule.forChild() -->
<g id="node6" class="node">
<title>TranslateModule.forChild()</title>
<polygon fill="#8dd3c7" stroke="#000000" points="817.8928,-122 814.8928,-126 793.8928,-126 790.8928,-122 646.1072,-122 646.1072,-86 817.8928,-86 817.8928,-122"/>
<text text-anchor="middle" x="732" y="-99.8" font-family="Times,serif" font-size="14.00" fill="#000000">TranslateModule.forChild()</text>
</g>
<!-- TranslateModule.forChild()&#45;&gt;UsersListModule -->
<g id="edge5" class="edge">
<title>TranslateModule.forChild()&#45;&gt;UsersListModule</title>
<path fill="none" stroke="#000000" d="M732,-122.1061C732,-122.1061 732,-140.991 732,-140.991"/>
<polygon fill="#000000" stroke="#000000" points="728.5001,-140.9909 732,-150.991 735.5001,-140.991 728.5001,-140.9909"/>
</g>
<!-- EntityListModule -->
<g id="node7" class="node">
<title>EntityListModule</title>
<polygon fill="#8dd3c7" stroke="#000000" points="627.5535,-122 624.5535,-126 603.5535,-126 600.5535,-122 512.4465,-122 512.4465,-86 627.5535,-86 627.5535,-122"/>
<text text-anchor="middle" x="570" y="-99.8" font-family="Times,serif" font-size="14.00" fill="#000000">EntityListModule</text>
</g>
<!-- EntityListModule&#45;&gt;UsersListModule -->
<g id="edge6" class="edge">
<title>EntityListModule&#45;&gt;UsersListModule</title>
<path fill="none" stroke="#000000" d="M570,-122.0091C570,-138.0494 570,-159 570,-159 570,-159 665.3403,-159 665.3403,-159"/>
<polygon fill="#000000" stroke="#000000" points="665.3403,-162.5001 675.3403,-159 665.3402,-155.5001 665.3403,-162.5001"/>
</g>
<!-- UserModalModule -->
<g id="node8" class="node">
<title>UserModalModule</title>
<polygon fill="#8dd3c7" stroke="#000000" points="494.0269,-122 491.0269,-126 470.0269,-126 467.0269,-122 371.9731,-122 371.9731,-86 494.0269,-86 494.0269,-122"/>
<text text-anchor="middle" x="433" y="-99.8" font-family="Times,serif" font-size="14.00" fill="#000000">UserModalModule</text>
</g>
<!-- UserModalModule&#45;&gt;UsersListModule -->
<g id="edge7" class="edge">
<title>UserModalModule&#45;&gt;UsersListModule</title>
<path fill="none" stroke="#000000" d="M433,-122.2667C433,-140.5552 433,-166 433,-166 433,-166 665.0566,-166 665.0566,-166"/>
<polygon fill="#000000" stroke="#000000" points="665.0566,-169.5001 675.0566,-166 665.0566,-162.5001 665.0566,-169.5001"/>
</g>
<!-- UsersListFiltersModalModule -->
<g id="node9" class="node">
<title>UsersListFiltersModalModule</title>
<polygon fill="#8dd3c7" stroke="#000000" points="353.5238,-122 350.5238,-126 329.5238,-126 326.5238,-122 168.4762,-122 168.4762,-86 353.5238,-86 353.5238,-122"/>
<text text-anchor="middle" x="261" y="-99.8" font-family="Times,serif" font-size="14.00" fill="#000000">UsersListFiltersModalModule</text>
</g>
<!-- UsersListFiltersModalModule&#45;&gt;UsersListModule -->
<g id="edge8" class="edge">
<title>UsersListFiltersModalModule&#45;&gt;UsersListModule</title>
<path fill="none" stroke="#000000" d="M261,-122.1289C261,-142.5724 261,-173 261,-173 261,-173 665.1864,-173 665.1864,-173"/>
<polygon fill="#000000" stroke="#000000" points="665.1864,-176.5001 675.1864,-173 665.1864,-169.5001 665.1864,-176.5001"/>
</g>
<!-- NgxBindIOModule -->
<g id="node10" class="node">
<title>NgxBindIOModule</title>
<polygon fill="#8dd3c7" stroke="#000000" points="149.6513,-122 146.6513,-126 125.6513,-126 122.6513,-122 24.3487,-122 24.3487,-86 149.6513,-86 149.6513,-122"/>
<text text-anchor="middle" x="87" y="-99.8" font-family="Times,serif" font-size="14.00" fill="#000000">NgxBindIOModule</text>
</g>
<!-- NgxBindIOModule&#45;&gt;UsersListModule -->
<g id="edge9" class="edge">
<title>NgxBindIOModule&#45;&gt;UsersListModule</title>
<path fill="none" stroke="#000000" d="M87,-122.0109C87,-144.4852 87,-180 87,-180 87,-180 665.3259,-180 665.3259,-180"/>
<polygon fill="#000000" stroke="#000000" points="665.3259,-183.5001 675.3259,-180 665.3258,-176.5001 665.3259,-183.5001"/>
</g>
</g>
</svg>
