<?xml version="1.0" encoding="UTF-8" standalone="no"?>
<!DOCTYPE svg PUBLIC "-//W3C//DTD SVG 1.1//EN"
 "http://www.w3.org/Graphics/SVG/1.1/DTD/svg11.dtd">
<!-- Generated by graphviz version 2.40.1 (20161225.0304)
 -->
<!-- Title: dependencies Pages: 1 -->
<svg width="636pt" height="284pt"
 viewBox="0.00 0.00 636.00 284.00" xmlns="http://www.w3.org/2000/svg" xmlns:xlink="http://www.w3.org/1999/xlink">
<g id="graph0" class="graph" transform="scale(1 1) rotate(0) translate(4 280)">
<title>dependencies</title>
<polygon fill="#ffffff" stroke="transparent" points="-4,4 -4,-280 632,-280 632,4 -4,4"/>
<text text-anchor="start" x="293.0091" y="-42.4" font-family="sans-serif" font-weight="bold" font-size="14.00" fill="#000000">Legend</text>
<polygon fill="#ffffb3" stroke="transparent" points="80,-10 80,-30 100,-30 100,-10 80,-10"/>
<text text-anchor="start" x="103.629" y="-15.4" font-family="sans-serif" font-size="14.00" fill="#000000"> &#160;Declarations</text>
<polygon fill="#8dd3c7" stroke="transparent" points="193,-10 193,-30 213,-30 213,-10 193,-10"/>
<text text-anchor="start" x="216.7251" y="-15.4" font-family="sans-serif" font-size="14.00" fill="#000000"> &#160;Module</text>
<polygon fill="#80b1d3" stroke="transparent" points="279,-10 279,-30 299,-30 299,-10 279,-10"/>
<text text-anchor="start" x="302.7812" y="-15.4" font-family="sans-serif" font-size="14.00" fill="#000000"> &#160;Bootstrap</text>
<polygon fill="#fdb462" stroke="transparent" points="376,-10 376,-30 396,-30 396,-10 376,-10"/>
<text text-anchor="start" x="399.6732" y="-15.4" font-family="sans-serif" font-size="14.00" fill="#000000"> &#160;Providers</text>
<polygon fill="#fb8072" stroke="transparent" points="472,-10 472,-30 492,-30 492,-10 472,-10"/>
<text text-anchor="start" x="495.7258" y="-15.4" font-family="sans-serif" font-size="14.00" fill="#000000"> &#160;Exports</text>
<g id="clust1" class="cluster">
<title>cluster_FormGroupModule</title>
<polygon fill="none" stroke="#000000" stroke-dasharray="1,5" points="8,-70 8,-268 620,-268 620,-70 8,-70"/>
</g>
<g id="clust2" class="cluster">
<title>cluster_FormGroupModule_declarations</title>
<polygon fill="none" stroke="#000000" points="448,-78 448,-130 612,-130 612,-78 448,-78"/>
</g>
<g id="clust4" class="cluster">
<title>cluster_FormGroupModule_imports</title>
<polygon fill="none" stroke="#000000" points="16,-78 16,-130 440,-130 440,-78 16,-78"/>
</g>
<g id="clust5" class="cluster">
<title>cluster_FormGroupModule_exports</title>
<polygon fill="none" stroke="#000000" points="234,-208 234,-260 400,-260 400,-208 234,-208"/>
</g>
<!-- FormGroupComponent -->
<g id="node1" class="node">
<title>FormGroupComponent</title>
<polygon fill="#ffffb3" stroke="#000000" points="603.934,-122 456.066,-122 456.066,-86 603.934,-86 603.934,-122"/>
<text text-anchor="middle" x="530" y="-99.8" font-family="Times,serif" font-size="14.00" fill="#000000">FormGroupComponent</text>
</g>
<!-- FormGroupModule -->
<g id="node2" class="node">
<title>FormGroupModule</title>
<polygon fill="#8dd3c7" stroke="#000000" points="379.6513,-187 376.6513,-191 355.6513,-191 352.6513,-187 254.3487,-187 254.3487,-151 379.6513,-151 379.6513,-187"/>
<text text-anchor="middle" x="317" y="-164.8" font-family="Times,serif" font-size="14.00" fill="#000000">FormGroupModule</text>
</g>
<!-- FormGroupComponent&#45;&gt;FormGroupModule -->
<g id="edge1" class="edge">
<title>FormGroupComponent&#45;&gt;FormGroupModule</title>
<path fill="none" stroke="#000000" d="M530,-122.1061C530,-141.3391 530,-169 530,-169 530,-169 389.755,-169 389.755,-169"/>
<polygon fill="#000000" stroke="#000000" points="389.755,-165.5001 379.755,-169 389.7549,-172.5001 389.755,-165.5001"/>
</g>
<!-- FormGroupComponent  -->
<g id="node6" class="node">
<title>FormGroupComponent </title>
<polygon fill="#fb8072" stroke="#000000" points="392.4334,-252 241.5666,-252 241.5666,-216 392.4334,-216 392.4334,-252"/>
<text text-anchor="middle" x="317" y="-229.8" font-family="Times,serif" font-size="14.00" fill="#000000">FormGroupComponent </text>
</g>
<!-- FormGroupModule&#45;&gt;FormGroupComponent  -->
<g id="edge5" class="edge">
<title>FormGroupModule&#45;&gt;FormGroupComponent </title>
<path fill="none" stroke="#000000" stroke-dasharray="5,2" d="M317,-187.1061C317,-187.1061 317,-205.991 317,-205.991"/>
<polygon fill="#000000" stroke="#000000" points="313.5001,-205.9909 317,-215.991 320.5001,-205.991 313.5001,-205.9909"/>
</g>
<!-- CommonModule -->
<g id="node3" class="node">
<title>CommonModule</title>
<polygon fill="#8dd3c7" stroke="#000000" points="431.6681,-122 428.6681,-126 407.6681,-126 404.6681,-122 320.3319,-122 320.3319,-86 431.6681,-86 431.6681,-122"/>
<text text-anchor="middle" x="376" y="-99.8" font-family="Times,serif" font-size="14.00" fill="#000000">CommonModule</text>
</g>
<!-- CommonModule&#45;&gt;FormGroupModule -->
<g id="edge2" class="edge">
<title>CommonModule&#45;&gt;FormGroupModule</title>
<path fill="none" stroke="#000000" d="M349.9958,-122.1061C349.9958,-122.1061 349.9958,-140.991 349.9958,-140.991"/>
<polygon fill="#000000" stroke="#000000" points="346.4959,-140.9909 349.9958,-150.991 353.4959,-140.991 346.4959,-140.9909"/>
</g>
<!-- IonicModule -->
<g id="node4" class="node">
<title>IonicModule</title>
<polygon fill="#8dd3c7" stroke="#000000" points="302.3162,-122 299.3162,-126 278.3162,-126 275.3162,-122 213.6838,-122 213.6838,-86 302.3162,-86 302.3162,-122"/>
<text text-anchor="middle" x="258" y="-99.8" font-family="Times,serif" font-size="14.00" fill="#000000">IonicModule</text>
</g>
<!-- IonicModule&#45;&gt;FormGroupModule -->
<g id="edge3" class="edge">
<title>IonicModule&#45;&gt;FormGroupModule</title>
<path fill="none" stroke="#000000" d="M278.1662,-122.1061C278.1662,-122.1061 278.1662,-140.991 278.1662,-140.991"/>
<polygon fill="#000000" stroke="#000000" points="274.6663,-140.9909 278.1662,-150.991 281.6663,-140.991 274.6663,-140.9909"/>
</g>
<!-- TranslateModule.forChild() -->
<g id="node5" class="node">
<title>TranslateModule.forChild()</title>
<polygon fill="#8dd3c7" stroke="#000000" points="195.8928,-122 192.8928,-126 171.8928,-126 168.8928,-122 24.1072,-122 24.1072,-86 195.8928,-86 195.8928,-122"/>
<text text-anchor="middle" x="110" y="-99.8" font-family="Times,serif" font-size="14.00" fill="#000000">TranslateModule.forChild()</text>
</g>
<!-- TranslateModule.forChild()&#45;&gt;FormGroupModule -->
<g id="edge4" class="edge">
<title>TranslateModule.forChild()&#45;&gt;FormGroupModule</title>
<path fill="none" stroke="#000000" d="M110,-122.1061C110,-141.3391 110,-169 110,-169 110,-169 244.3314,-169 244.3314,-169"/>
<polygon fill="#000000" stroke="#000000" points="244.3315,-172.5001 254.3314,-169 244.3314,-165.5001 244.3315,-172.5001"/>
</g>
</g>
</svg>
