<?xml version="1.0" encoding="UTF-8" standalone="no"?>
<!DOCTYPE svg PUBLIC "-//W3C//DTD SVG 1.1//EN"
 "http://www.w3.org/Graphics/SVG/1.1/DTD/svg11.dtd">
<!-- Generated by graphviz version 2.40.1 (20161225.0304)
 -->
<!-- Title: dependencies Pages: 1 -->
<svg width="1752pt" height="284pt"
 viewBox="0.00 0.00 1752.00 284.00" xmlns="http://www.w3.org/2000/svg" xmlns:xlink="http://www.w3.org/1999/xlink">
<g id="graph0" class="graph" transform="scale(1 1) rotate(0) translate(4 280)">
<title>dependencies</title>
<polygon fill="#ffffff" stroke="transparent" points="-4,4 -4,-280 1748,-280 1748,4 -4,4"/>
<text text-anchor="start" x="851.0091" y="-42.4" font-family="sans-serif" font-weight="bold" font-size="14.00" fill="#000000">Legend</text>
<polygon fill="#ffffb3" stroke="transparent" points="638,-10 638,-30 658,-30 658,-10 638,-10"/>
<text text-anchor="start" x="661.629" y="-15.4" font-family="sans-serif" font-size="14.00" fill="#000000"> &#160;Declarations</text>
<polygon fill="#8dd3c7" stroke="transparent" points="751,-10 751,-30 771,-30 771,-10 751,-10"/>
<text text-anchor="start" x="774.7251" y="-15.4" font-family="sans-serif" font-size="14.00" fill="#000000"> &#160;Module</text>
<polygon fill="#80b1d3" stroke="transparent" points="837,-10 837,-30 857,-30 857,-10 837,-10"/>
<text text-anchor="start" x="860.7812" y="-15.4" font-family="sans-serif" font-size="14.00" fill="#000000"> &#160;Bootstrap</text>
<polygon fill="#fdb462" stroke="transparent" points="934,-10 934,-30 954,-30 954,-10 934,-10"/>
<text text-anchor="start" x="957.6732" y="-15.4" font-family="sans-serif" font-size="14.00" fill="#000000"> &#160;Providers</text>
<polygon fill="#fb8072" stroke="transparent" points="1030,-10 1030,-30 1050,-30 1050,-10 1030,-10"/>
<text text-anchor="start" x="1053.7258" y="-15.4" font-family="sans-serif" font-size="14.00" fill="#000000"> &#160;Exports</text>
<g id="clust1" class="cluster">
<title>cluster_RuckenIonicModule</title>
<polygon fill="none" stroke="#000000" stroke-dasharray="1,5" points="8,-70 8,-268 1736,-268 1736,-70 8,-70"/>
</g>
<g id="clust3" class="cluster">
<title>cluster_RuckenIonicModule_imports</title>
<polygon fill="none" stroke="#000000" points="1162,-78 1162,-130 1728,-130 1728,-78 1162,-78"/>
</g>
<g id="clust4" class="cluster">
<title>cluster_RuckenIonicModule_exports</title>
<polygon fill="none" stroke="#000000" points="827,-208 827,-260 1273,-260 1273,-208 827,-208"/>
</g>
<g id="clust6" class="cluster">
<title>cluster_RuckenIonicModule_providers</title>
<polygon fill="none" stroke="#000000" points="16,-78 16,-130 1154,-130 1154,-78 16,-78"/>
</g>
<!-- CommonModule -->
<g id="node1" class="node">
<title>CommonModule</title>
<polygon fill="#8dd3c7" stroke="#000000" points="1719.6681,-122 1716.6681,-126 1695.6681,-126 1692.6681,-122 1608.3319,-122 1608.3319,-86 1719.6681,-86 1719.6681,-122"/>
<text text-anchor="middle" x="1664" y="-99.8" font-family="Times,serif" font-size="14.00" fill="#000000">CommonModule</text>
</g>
<!-- RuckenIonicModule -->
<g id="node5" class="node">
<title>RuckenIonicModule</title>
<polygon fill="#8dd3c7" stroke="#000000" points="1104.5814,-187 1101.5814,-191 1080.5814,-191 1077.5814,-187 973.4186,-187 973.4186,-151 1104.5814,-151 1104.5814,-187"/>
<text text-anchor="middle" x="1039" y="-164.8" font-family="Times,serif" font-size="14.00" fill="#000000">RuckenIonicModule</text>
</g>
<!-- CommonModule&#45;&gt;RuckenIonicModule -->
<g id="edge1" class="edge">
<title>CommonModule&#45;&gt;RuckenIonicModule</title>
<path fill="none" stroke="#000000" d="M1664,-122.0109C1664,-144.4852 1664,-180 1664,-180 1664,-180 1114.7047,-180 1114.7047,-180"/>
<polygon fill="#000000" stroke="#000000" points="1114.7047,-176.5001 1104.7047,-180 1114.7046,-183.5001 1114.7047,-176.5001"/>
</g>
<!-- IonicAuthModalModule -->
<g id="node2" class="node">
<title>IonicAuthModalModule</title>
<polygon fill="#8dd3c7" stroke="#000000" points="1590.3627,-122 1587.3627,-126 1566.3627,-126 1563.3627,-122 1437.6373,-122 1437.6373,-86 1590.3627,-86 1590.3627,-122"/>
<text text-anchor="middle" x="1514" y="-99.8" font-family="Times,serif" font-size="14.00" fill="#000000">IonicAuthModalModule</text>
</g>
<!-- IonicAuthModalModule&#45;&gt;RuckenIonicModule -->
<g id="edge2" class="edge">
<title>IonicAuthModalModule&#45;&gt;RuckenIonicModule</title>
<path fill="none" stroke="#000000" d="M1514,-122.1289C1514,-142.5724 1514,-173 1514,-173 1514,-173 1114.548,-173 1114.548,-173"/>
<polygon fill="#000000" stroke="#000000" points="1114.548,-169.5001 1104.548,-173 1114.548,-176.5001 1114.548,-169.5001"/>
</g>
<!-- NavbarModule -->
<g id="node3" class="node">
<title>NavbarModule</title>
<polygon fill="#8dd3c7" stroke="#000000" points="1419.2465,-122 1416.2465,-126 1395.2465,-126 1392.2465,-122 1318.7535,-122 1318.7535,-86 1419.2465,-86 1419.2465,-122"/>
<text text-anchor="middle" x="1369" y="-99.8" font-family="Times,serif" font-size="14.00" fill="#000000">NavbarModule</text>
</g>
<!-- NavbarModule&#45;&gt;RuckenIonicModule -->
<g id="edge3" class="edge">
<title>NavbarModule&#45;&gt;RuckenIonicModule</title>
<path fill="none" stroke="#000000" d="M1369,-122.2667C1369,-140.5552 1369,-166 1369,-166 1369,-166 1114.5919,-166 1114.5919,-166"/>
<polygon fill="#000000" stroke="#000000" points="1114.592,-162.5001 1104.5919,-166 1114.5919,-169.5001 1114.592,-162.5001"/>
</g>
<!-- IonicModalsModule -->
<g id="node4" class="node">
<title>IonicModalsModule</title>
<polygon fill="#8dd3c7" stroke="#000000" points="1300.3104,-122 1297.3104,-126 1276.3104,-126 1273.3104,-122 1169.6896,-122 1169.6896,-86 1300.3104,-86 1300.3104,-122"/>
<text text-anchor="middle" x="1235" y="-99.8" font-family="Times,serif" font-size="14.00" fill="#000000">IonicModalsModule</text>
</g>
<!-- IonicModalsModule&#45;&gt;RuckenIonicModule -->
<g id="edge4" class="edge">
<title>IonicModalsModule&#45;&gt;RuckenIonicModule</title>
<path fill="none" stroke="#000000" d="M1217.5132,-122.0091C1217.5132,-138.0494 1217.5132,-159 1217.5132,-159 1217.5132,-159 1114.7112,-159 1114.7112,-159"/>
<polygon fill="#000000" stroke="#000000" points="1114.7112,-155.5001 1104.7112,-159 1114.7112,-162.5001 1114.7112,-155.5001"/>
</g>
<!-- IonicAuthModalModule  -->
<g id="node6" class="node">
<title>IonicAuthModalModule </title>
<polygon fill="#fb8072" stroke="#000000" points="1265.363,-252 1108.637,-252 1108.637,-216 1265.363,-216 1265.363,-252"/>
<text text-anchor="middle" x="1187" y="-229.8" font-family="Times,serif" font-size="14.00" fill="#000000">IonicAuthModalModule </text>
</g>
<!-- RuckenIonicModule&#45;&gt;IonicAuthModalModule  -->
<g id="edge5" class="edge">
<title>RuckenIonicModule&#45;&gt;IonicAuthModalModule </title>
<path fill="none" stroke="#000000" stroke-dasharray="5,2" d="M1097.8319,-187.1061C1097.8319,-206.3391 1097.8319,-234 1097.8319,-234 1097.8319,-234 1098.9253,-234 1098.9253,-234"/>
<polygon fill="#000000" stroke="#000000" points="1098.7657,-237.5001 1108.7657,-234 1098.7656,-230.5001 1098.7657,-237.5001"/>
</g>
<!-- NavbarModule  -->
<g id="node7" class="node">
<title>NavbarModule </title>
<polygon fill="#fb8072" stroke="#000000" points="1091.2465,-252 986.7535,-252 986.7535,-216 1091.2465,-216 1091.2465,-252"/>
<text text-anchor="middle" x="1039" y="-229.8" font-family="Times,serif" font-size="14.00" fill="#000000">NavbarModule </text>
</g>
<!-- RuckenIonicModule&#45;&gt;NavbarModule  -->
<g id="edge6" class="edge">
<title>RuckenIonicModule&#45;&gt;NavbarModule </title>
<path fill="none" stroke="#000000" stroke-dasharray="5,2" d="M1039,-187.1061C1039,-187.1061 1039,-205.991 1039,-205.991"/>
<polygon fill="#000000" stroke="#000000" points="1035.5001,-205.9909 1039,-215.991 1042.5001,-205.991 1035.5001,-205.9909"/>
</g>
<!-- IonicModalsModule  -->
<g id="node8" class="node">
<title>IonicModalsModule </title>
<polygon fill="#fb8072" stroke="#000000" points="968.8101,-252 835.1899,-252 835.1899,-216 968.8101,-216 968.8101,-252"/>
<text text-anchor="middle" x="902" y="-229.8" font-family="Times,serif" font-size="14.00" fill="#000000">IonicModalsModule </text>
</g>
<!-- RuckenIonicModule&#45;&gt;IonicModalsModule  -->
<g id="edge7" class="edge">
<title>RuckenIonicModule&#45;&gt;IonicModalsModule </title>
<path fill="none" stroke="#000000" stroke-dasharray="5,2" d="M980.1681,-187.1061C980.1681,-206.3391 980.1681,-234 980.1681,-234 980.1681,-234 978.9685,-234 978.9685,-234"/>
<polygon fill="#000000" stroke="#000000" points="978.9686,-230.5001 968.9685,-234 978.9685,-237.5001 978.9686,-230.5001"/>
</g>
<!-- { provide: LANGUAGES_ITEM_CONFIG_TOKEN, useValue: , multi: &#160;} -->
<g id="node9" class="node">
<title>{ provide: LANGUAGES_ITEM_CONFIG_TOKEN, useValue: , multi: &#160;}</title>
<ellipse fill="#fdb462" stroke="#000000" cx="844" cy="-104" rx="301.7628" ry="18"/>
<text text-anchor="middle" x="844" y="-99.8" font-family="Times,serif" font-size="14.00" fill="#000000">{ provide: LANGUAGES_ITEM_CONFIG_TOKEN, useValue: , multi: &#160;}</text>
</g>
<!-- { provide: LANGUAGES_ITEM_CONFIG_TOKEN, useValue: , multi: &#160;}&#45;&gt;RuckenIonicModule -->
<g id="edge8" class="edge">
<title>{ provide: LANGUAGES_ITEM_CONFIG_TOKEN, useValue: , multi: &#160;}&#45;&gt;RuckenIonicModule</title>
<path fill="none" stroke="#000000" d="M1060.8469,-116.5327C1060.8469,-116.5327 1060.8469,-140.8507 1060.8469,-140.8507"/>
<polygon fill="#000000" stroke="#000000" points="1057.347,-140.8506 1060.8469,-150.8507 1064.347,-140.8507 1057.347,-140.8506"/>
</g>
<!-- { provide: LANGUAGES_ITEM_CONFIG_TOKEN, useValue: , multi: &#160;}&#45;&gt;RuckenIonicModule -->
<g id="edge9" class="edge">
<title>{ provide: LANGUAGES_ITEM_CONFIG_TOKEN, useValue: , multi: &#160;}&#45;&gt;RuckenIonicModule</title>
<path fill="none" stroke="#000000" d="M1017.1531,-118.7495C1017.1531,-118.7495 1017.1531,-140.5882 1017.1531,-140.5882"/>
<polygon fill="#000000" stroke="#000000" points="1013.6532,-140.5881 1017.1531,-150.5882 1020.6532,-140.5882 1013.6532,-140.5881"/>
</g>
<!-- ...ENTITIES_PROVIDERS -->
<g id="node10" class="node">
<title>...ENTITIES_PROVIDERS</title>
<ellipse fill="#fdb462" stroke="#000000" cx="405" cy="-104" rx="119.24" ry="18"/>
<text text-anchor="middle" x="405" y="-99.8" font-family="Times,serif" font-size="14.00" fill="#000000">...ENTITIES_PROVIDERS</text>
</g>
<!-- ...ENTITIES_PROVIDERS&#45;&gt;RuckenIonicModule -->
<g id="edge10" class="edge">
<title>...ENTITIES_PROVIDERS&#45;&gt;RuckenIonicModule</title>
<path fill="none" stroke="#000000" d="M405,-122.0225C405,-139.3734 405,-163 405,-163 405,-163 963.2422,-163 963.2422,-163"/>
<polygon fill="#000000" stroke="#000000" points="963.2422,-166.5001 973.2422,-163 963.2422,-159.5001 963.2422,-166.5001"/>
</g>
<!-- ...SERVICES_PROVIDERS -->
<g id="node11" class="node">
<title>...SERVICES_PROVIDERS</title>
<ellipse fill="#fdb462" stroke="#000000" cx="146" cy="-104" rx="122.2102" ry="18"/>
<text text-anchor="middle" x="146" y="-99.8" font-family="Times,serif" font-size="14.00" fill="#000000">...SERVICES_PROVIDERS</text>
</g>
<!-- ...SERVICES_PROVIDERS&#45;&gt;RuckenIonicModule -->
<g id="edge11" class="edge">
<title>...SERVICES_PROVIDERS&#45;&gt;RuckenIonicModule</title>
<path fill="none" stroke="#000000" d="M146,-122.2843C146,-143.3211 146,-175 146,-175 146,-175 963.3356,-175 963.3356,-175"/>
<polygon fill="#000000" stroke="#000000" points="963.3356,-178.5001 973.3356,-175 963.3355,-171.5001 963.3356,-178.5001"/>
</g>
</g>
</svg>
