<?xml version="1.0" encoding="UTF-8" standalone="no"?>
<!DOCTYPE svg PUBLIC "-//W3C//DTD SVG 1.1//EN"
 "http://www.w3.org/Graphics/SVG/1.1/DTD/svg11.dtd">
<!-- Generated by graphviz version 2.40.1 (20161225.0304)
 -->
<!-- Title: dependencies Pages: 1 -->
<svg width="2514pt" height="284pt"
 viewBox="0.00 0.00 2514.00 284.00" xmlns="http://www.w3.org/2000/svg" xmlns:xlink="http://www.w3.org/1999/xlink">
<g id="graph0" class="graph" transform="scale(1 1) rotate(0) translate(4 280)">
<title>dependencies</title>
<polygon fill="#ffffff" stroke="transparent" points="-4,4 -4,-280 2510,-280 2510,4 -4,4"/>
<text text-anchor="start" x="1232.0091" y="-42.4" font-family="sans-serif" font-weight="bold" font-size="14.00" fill="#000000">Legend</text>
<polygon fill="#ffffb3" stroke="transparent" points="1019,-10 1019,-30 1039,-30 1039,-10 1019,-10"/>
<text text-anchor="start" x="1042.629" y="-15.4" font-family="sans-serif" font-size="14.00" fill="#000000"> &#160;Declarations</text>
<polygon fill="#8dd3c7" stroke="transparent" points="1132,-10 1132,-30 1152,-30 1152,-10 1132,-10"/>
<text text-anchor="start" x="1155.7251" y="-15.4" font-family="sans-serif" font-size="14.00" fill="#000000"> &#160;Module</text>
<polygon fill="#80b1d3" stroke="transparent" points="1218,-10 1218,-30 1238,-30 1238,-10 1218,-10"/>
<text text-anchor="start" x="1241.7812" y="-15.4" font-family="sans-serif" font-size="14.00" fill="#000000"> &#160;Bootstrap</text>
<polygon fill="#fdb462" stroke="transparent" points="1315,-10 1315,-30 1335,-30 1335,-10 1315,-10"/>
<text text-anchor="start" x="1338.6732" y="-15.4" font-family="sans-serif" font-size="14.00" fill="#000000"> &#160;Providers</text>
<polygon fill="#fb8072" stroke="transparent" points="1411,-10 1411,-30 1431,-30 1431,-10 1411,-10"/>
<text text-anchor="start" x="1434.7258" y="-15.4" font-family="sans-serif" font-size="14.00" fill="#000000"> &#160;Exports</text>
<g id="clust1" class="cluster">
<title>cluster_RuckenIonicModule</title>
<polygon fill="none" stroke="#000000" stroke-dasharray="1,5" points="8,-70 8,-268 2498,-268 2498,-70 8,-70"/>
</g>
<g id="clust3" class="cluster">
<title>cluster_RuckenIonicModule_imports</title>
<polygon fill="none" stroke="#000000" points="1924,-78 1924,-130 2490,-130 2490,-78 1924,-78"/>
</g>
<g id="clust4" class="cluster">
<title>cluster_RuckenIonicModule_exports</title>
<polygon fill="none" stroke="#000000" points="1470,-208 1470,-260 1916,-260 1916,-208 1470,-208"/>
</g>
<g id="clust6" class="cluster">
<title>cluster_RuckenIonicModule_providers</title>
<polygon fill="none" stroke="#000000" points="16,-78 16,-130 1916,-130 1916,-78 16,-78"/>
</g>
<!-- CommonModule -->
<g id="node1" class="node">
<title>CommonModule</title>
<polygon fill="#8dd3c7" stroke="#000000" points="2481.6681,-122 2478.6681,-126 2457.6681,-126 2454.6681,-122 2370.3319,-122 2370.3319,-86 2481.6681,-86 2481.6681,-122"/>
<text text-anchor="middle" x="2426" y="-99.8" font-family="Times,serif" font-size="14.00" fill="#000000">CommonModule</text>
</g>
<!-- RuckenIonicModule -->
<g id="node5" class="node">
<title>RuckenIonicModule</title>
<polygon fill="#8dd3c7" stroke="#000000" points="1747.5814,-187 1744.5814,-191 1723.5814,-191 1720.5814,-187 1616.4186,-187 1616.4186,-151 1747.5814,-151 1747.5814,-187"/>
<text text-anchor="middle" x="1682" y="-164.8" font-family="Times,serif" font-size="14.00" fill="#000000">RuckenIonicModule</text>
</g>
<!-- CommonModule&#45;&gt;RuckenIonicModule -->
<g id="edge1" class="edge">
<title>CommonModule&#45;&gt;RuckenIonicModule</title>
<path fill="none" stroke="#000000" d="M2426,-122.2479C2426,-145.0179 2426,-181 2426,-181 2426,-181 1757.6987,-181 1757.6987,-181"/>
<polygon fill="#000000" stroke="#000000" points="1757.6987,-177.5001 1747.6987,-181 1757.6986,-184.5001 1757.6987,-177.5001"/>
</g>
<!-- IonicAuthModalModule -->
<g id="node2" class="node">
<title>IonicAuthModalModule</title>
<polygon fill="#8dd3c7" stroke="#000000" points="2352.3627,-122 2349.3627,-126 2328.3627,-126 2325.3627,-122 2199.6373,-122 2199.6373,-86 2352.3627,-86 2352.3627,-122"/>
<text text-anchor="middle" x="2276" y="-99.8" font-family="Times,serif" font-size="14.00" fill="#000000">IonicAuthModalModule</text>
</g>
<!-- IonicAuthModalModule&#45;&gt;RuckenIonicModule -->
<g id="edge2" class="edge">
<title>IonicAuthModalModule&#45;&gt;RuckenIonicModule</title>
<path fill="none" stroke="#000000" d="M2276,-122.2843C2276,-143.3211 2276,-175 2276,-175 2276,-175 1757.5525,-175 1757.5525,-175"/>
<polygon fill="#000000" stroke="#000000" points="1757.5525,-171.5001 1747.5525,-175 1757.5525,-178.5001 1757.5525,-171.5001"/>
</g>
<!-- NavbarModule -->
<g id="node3" class="node">
<title>NavbarModule</title>
<polygon fill="#8dd3c7" stroke="#000000" points="2181.2465,-122 2178.2465,-126 2157.2465,-126 2154.2465,-122 2080.7535,-122 2080.7535,-86 2181.2465,-86 2181.2465,-122"/>
<text text-anchor="middle" x="2131" y="-99.8" font-family="Times,serif" font-size="14.00" fill="#000000">NavbarModule</text>
</g>
<!-- NavbarModule&#45;&gt;RuckenIonicModule -->
<g id="edge3" class="edge">
<title>NavbarModule&#45;&gt;RuckenIonicModule</title>
<path fill="none" stroke="#000000" d="M2131,-122.1061C2131,-141.3391 2131,-169 2131,-169 2131,-169 1757.7693,-169 1757.7693,-169"/>
<polygon fill="#000000" stroke="#000000" points="1757.7693,-165.5001 1747.7693,-169 1757.7693,-172.5001 1757.7693,-165.5001"/>
</g>
<!-- IonicModalsModule -->
<g id="node4" class="node">
<title>IonicModalsModule</title>
<polygon fill="#8dd3c7" stroke="#000000" points="2062.3104,-122 2059.3104,-126 2038.3104,-126 2035.3104,-122 1931.6896,-122 1931.6896,-86 2062.3104,-86 2062.3104,-122"/>
<text text-anchor="middle" x="1997" y="-99.8" font-family="Times,serif" font-size="14.00" fill="#000000">IonicModalsModule</text>
</g>
<!-- IonicModalsModule&#45;&gt;RuckenIonicModule -->
<g id="edge4" class="edge">
<title>IonicModalsModule&#45;&gt;RuckenIonicModule</title>
<path fill="none" stroke="#000000" d="M1997,-122.0225C1997,-139.3734 1997,-163 1997,-163 1997,-163 1757.6509,-163 1757.6509,-163"/>
<polygon fill="#000000" stroke="#000000" points="1757.6509,-159.5001 1747.6509,-163 1757.6509,-166.5001 1757.6509,-159.5001"/>
</g>
<!-- IonicAuthModalModule  -->
<g id="node6" class="node">
<title>IonicAuthModalModule </title>
<polygon fill="#fb8072" stroke="#000000" points="1908.363,-252 1751.637,-252 1751.637,-216 1908.363,-216 1908.363,-252"/>
<text text-anchor="middle" x="1830" y="-229.8" font-family="Times,serif" font-size="14.00" fill="#000000">IonicAuthModalModule </text>
</g>
<!-- RuckenIonicModule&#45;&gt;IonicAuthModalModule  -->
<g id="edge5" class="edge">
<title>RuckenIonicModule&#45;&gt;IonicAuthModalModule </title>
<path fill="none" stroke="#000000" stroke-dasharray="5,2" d="M1740.8319,-187.1061C1740.8319,-206.3391 1740.8319,-234 1740.8319,-234 1740.8319,-234 1741.9253,-234 1741.9253,-234"/>
<polygon fill="#000000" stroke="#000000" points="1741.7657,-237.5001 1751.7657,-234 1741.7656,-230.5001 1741.7657,-237.5001"/>
</g>
<!-- NavbarModule  -->
<g id="node7" class="node">
<title>NavbarModule </title>
<polygon fill="#fb8072" stroke="#000000" points="1734.2465,-252 1629.7535,-252 1629.7535,-216 1734.2465,-216 1734.2465,-252"/>
<text text-anchor="middle" x="1682" y="-229.8" font-family="Times,serif" font-size="14.00" fill="#000000">NavbarModule </text>
</g>
<!-- RuckenIonicModule&#45;&gt;NavbarModule  -->
<g id="edge6" class="edge">
<title>RuckenIonicModule&#45;&gt;NavbarModule </title>
<path fill="none" stroke="#000000" stroke-dasharray="5,2" d="M1682,-187.1061C1682,-187.1061 1682,-205.991 1682,-205.991"/>
<polygon fill="#000000" stroke="#000000" points="1678.5001,-205.9909 1682,-215.991 1685.5001,-205.991 1678.5001,-205.9909"/>
</g>
<!-- IonicModalsModule  -->
<g id="node8" class="node">
<title>IonicModalsModule </title>
<polygon fill="#fb8072" stroke="#000000" points="1611.8101,-252 1478.1899,-252 1478.1899,-216 1611.8101,-216 1611.8101,-252"/>
<text text-anchor="middle" x="1545" y="-229.8" font-family="Times,serif" font-size="14.00" fill="#000000">IonicModalsModule </text>
</g>
<!-- RuckenIonicModule&#45;&gt;IonicModalsModule  -->
<g id="edge7" class="edge">
<title>RuckenIonicModule&#45;&gt;IonicModalsModule </title>
<path fill="none" stroke="#000000" stroke-dasharray="5,2" d="M1623.1681,-187.1061C1623.1681,-206.3391 1623.1681,-234 1623.1681,-234 1623.1681,-234 1621.9685,-234 1621.9685,-234"/>
<polygon fill="#000000" stroke="#000000" points="1621.9686,-230.5001 1611.9685,-234 1621.9685,-237.5001 1621.9686,-230.5001"/>
</g>
<!-- HTTP -->
<g id="node9" class="node">
<title>HTTP</title>
<ellipse fill="#fdb462" stroke="#000000" cx="1873" cy="-104" rx="35.3509" ry="18"/>
<text text-anchor="middle" x="1873" y="-99.8" font-family="Times,serif" font-size="14.00" fill="#000000">HTTP</text>
</g>
<!-- HTTP&#45;&gt;RuckenIonicModule -->
<g id="edge8" class="edge">
<title>HTTP&#45;&gt;RuckenIonicModule</title>
<path fill="none" stroke="#000000" d="M1873,-122.2396C1873,-137.5706 1873,-157 1873,-157 1873,-157 1757.7314,-157 1757.7314,-157"/>
<polygon fill="#000000" stroke="#000000" points="1757.7314,-153.5001 1747.7314,-157 1757.7313,-160.5001 1757.7314,-153.5001"/>
</g>
<!-- { provide: NgxRemoteConfigService, useClass: NgxRemoteConfigIonicService } -->
<g id="node10" class="node">
<title>{ provide: NgxRemoteConfigService, useClass: NgxRemoteConfigIonicService }</title>
<ellipse fill="#fdb462" stroke="#000000" cx="1492" cy="-104" rx="328.3663" ry="18"/>
<text text-anchor="middle" x="1492" y="-99.8" font-family="Times,serif" font-size="14.00" fill="#000000">{ provide: NgxRemoteConfigService, useClass: NgxRemoteConfigIonicService }</text>
</g>
<!-- { provide: NgxRemoteConfigService, useClass: NgxRemoteConfigIonicService }&#45;&gt;RuckenIonicModule -->
<g id="edge9" class="edge">
<title>{ provide: NgxRemoteConfigService, useClass: NgxRemoteConfigIonicService }&#45;&gt;RuckenIonicModule</title>
<path fill="none" stroke="#000000" d="M1682,-118.7495C1682,-118.7495 1682,-140.5882 1682,-140.5882"/>
<polygon fill="#000000" stroke="#000000" points="1678.5001,-140.5881 1682,-150.5882 1685.5001,-140.5882 1678.5001,-140.5881"/>
</g>
<!-- { provide: LANGUAGES_ITEM_CONFIG_TOKEN, useValue: , multi: &#160;} -->
<g id="node11" class="node">
<title>{ provide: LANGUAGES_ITEM_CONFIG_TOKEN, useValue: , multi: &#160;}</title>
<ellipse fill="#fdb462" stroke="#000000" cx="844" cy="-104" rx="301.7628" ry="18"/>
<text text-anchor="middle" x="844" y="-99.8" font-family="Times,serif" font-size="14.00" fill="#000000">{ provide: LANGUAGES_ITEM_CONFIG_TOKEN, useValue: , multi: &#160;}</text>
</g>
<!-- { provide: LANGUAGES_ITEM_CONFIG_TOKEN, useValue: , multi: &#160;}&#45;&gt;RuckenIonicModule -->
<g id="edge10" class="edge">
<title>{ provide: LANGUAGES_ITEM_CONFIG_TOKEN, useValue: , multi: &#160;}&#45;&gt;RuckenIonicModule</title>
<path fill="none" stroke="#000000" d="M944.5438,-121.1009C944.5438,-137.2462 944.5438,-159 944.5438,-159 944.5438,-159 1606.2315,-159 1606.2315,-159"/>
<polygon fill="#000000" stroke="#000000" points="1606.2315,-162.5001 1616.2315,-159 1606.2315,-155.5001 1606.2315,-162.5001"/>
</g>
<!-- { provide: LANGUAGES_ITEM_CONFIG_TOKEN, useValue: , multi: &#160;}&#45;&gt;RuckenIonicModule -->
<g id="edge11" class="edge">
<title>{ provide: LANGUAGES_ITEM_CONFIG_TOKEN, useValue: , multi: &#160;}&#45;&gt;RuckenIonicModule</title>
<path fill="none" stroke="#000000" d="M743.4562,-121.2705C743.4562,-139.6158 743.4562,-166 743.4562,-166 743.4562,-166 1606.3765,-166 1606.3765,-166"/>
<polygon fill="#000000" stroke="#000000" points="1606.3765,-169.5001 1616.3765,-166 1606.3764,-162.5001 1606.3765,-169.5001"/>
</g>
<!-- ...ENTITIES_PROVIDERS -->
<g id="node12" class="node">
<title>...ENTITIES_PROVIDERS</title>
<ellipse fill="#fdb462" stroke="#000000" cx="405" cy="-104" rx="119.24" ry="18"/>
<text text-anchor="middle" x="405" y="-99.8" font-family="Times,serif" font-size="14.00" fill="#000000">...ENTITIES_PROVIDERS</text>
</g>
<!-- ...ENTITIES_PROVIDERS&#45;&gt;RuckenIonicModule -->
<g id="edge12" class="edge">
<title>...ENTITIES_PROVIDERS&#45;&gt;RuckenIonicModule</title>
<path fill="none" stroke="#000000" d="M405,-122.1289C405,-142.5724 405,-173 405,-173 405,-173 1606.032,-173 1606.032,-173"/>
<polygon fill="#000000" stroke="#000000" points="1606.032,-176.5001 1616.032,-173 1606.0319,-169.5001 1606.032,-176.5001"/>
</g>
<!-- ...SERVICES_PROVIDERS -->
<g id="node13" class="node">
<title>...SERVICES_PROVIDERS</title>
<ellipse fill="#fdb462" stroke="#000000" cx="146" cy="-104" rx="122.2102" ry="18"/>
<text text-anchor="middle" x="146" y="-99.8" font-family="Times,serif" font-size="14.00" fill="#000000">...SERVICES_PROVIDERS</text>
</g>
<!-- ...SERVICES_PROVIDERS&#45;&gt;RuckenIonicModule -->
<g id="edge13" class="edge">
<title>...SERVICES_PROVIDERS&#45;&gt;RuckenIonicModule</title>
<path fill="none" stroke="#000000" d="M146,-122.0109C146,-144.4852 146,-180 146,-180 146,-180 1606,-180 1606,-180"/>
<polygon fill="#000000" stroke="#000000" points="1606,-183.5001 1616,-180 1606,-176.5001 1606,-183.5001"/>
</g>
</g>
</svg>
