<?xml version="1.0" encoding="UTF-8" standalone="no"?>
<!DOCTYPE svg PUBLIC "-//W3C//DTD SVG 1.1//EN"
 "http://www.w3.org/Graphics/SVG/1.1/DTD/svg11.dtd">
<!-- Generated by graphviz version 2.40.1 (20161225.0304)
 -->
<!-- Title: dependencies Pages: 1 -->
<svg width="1571pt" height="284pt"
 viewBox="0.00 0.00 1571.00 284.00" xmlns="http://www.w3.org/2000/svg" xmlns:xlink="http://www.w3.org/1999/xlink">
<g id="graph0" class="graph" transform="scale(1 1) rotate(0) translate(4 280)">
<title>dependencies</title>
<polygon fill="#ffffff" stroke="transparent" points="-4,4 -4,-280 1567,-280 1567,4 -4,4"/>
<text text-anchor="start" x="760.5091" y="-42.4" font-family="sans-serif" font-weight="bold" font-size="14.00" fill="#000000">Legend</text>
<polygon fill="#ffffb3" stroke="transparent" points="547.5,-10 547.5,-30 567.5,-30 567.5,-10 547.5,-10"/>
<text text-anchor="start" x="571.129" y="-15.4" font-family="sans-serif" font-size="14.00" fill="#000000"> &#160;Declarations</text>
<polygon fill="#8dd3c7" stroke="transparent" points="660.5,-10 660.5,-30 680.5,-30 680.5,-10 660.5,-10"/>
<text text-anchor="start" x="684.2251" y="-15.4" font-family="sans-serif" font-size="14.00" fill="#000000"> &#160;Module</text>
<polygon fill="#80b1d3" stroke="transparent" points="746.5,-10 746.5,-30 766.5,-30 766.5,-10 746.5,-10"/>
<text text-anchor="start" x="770.2812" y="-15.4" font-family="sans-serif" font-size="14.00" fill="#000000"> &#160;Bootstrap</text>
<polygon fill="#fdb462" stroke="transparent" points="843.5,-10 843.5,-30 863.5,-30 863.5,-10 843.5,-10"/>
<text text-anchor="start" x="867.1732" y="-15.4" font-family="sans-serif" font-size="14.00" fill="#000000"> &#160;Providers</text>
<polygon fill="#fb8072" stroke="transparent" points="939.5,-10 939.5,-30 959.5,-30 959.5,-10 939.5,-10"/>
<text text-anchor="start" x="963.2258" y="-15.4" font-family="sans-serif" font-size="14.00" fill="#000000"> &#160;Exports</text>
<g id="clust1" class="cluster">
<title>cluster_UsersListFiltersModalModule</title>
<polygon fill="none" stroke="#000000" stroke-dasharray="1,5" points="8,-70 8,-268 1555,-268 1555,-70 8,-70"/>
</g>
<g id="clust2" class="cluster">
<title>cluster_UsersListFiltersModalModule_declarations</title>
<polygon fill="none" stroke="#000000" points="1323,-78 1323,-130 1547,-130 1547,-78 1323,-78"/>
</g>
<g id="clust4" class="cluster">
<title>cluster_UsersListFiltersModalModule_imports</title>
<polygon fill="none" stroke="#000000" points="16,-78 16,-130 1315,-130 1315,-78 16,-78"/>
</g>
<g id="clust5" class="cluster">
<title>cluster_UsersListFiltersModalModule_exports</title>
<polygon fill="none" stroke="#000000" points="600,-208 600,-260 974,-260 974,-208 600,-208"/>
</g>
<!-- UsersListFiltersModalComponent -->
<g id="node1" class="node">
<title>UsersListFiltersModalComponent</title>
<polygon fill="#ffffb3" stroke="#000000" points="1538.806,-122 1331.194,-122 1331.194,-86 1538.806,-86 1538.806,-122"/>
<text text-anchor="middle" x="1435" y="-99.8" font-family="Times,serif" font-size="14.00" fill="#000000">UsersListFiltersModalComponent</text>
</g>
<!-- UsersListFiltersModalModule -->
<g id="node2" class="node">
<title>UsersListFiltersModalModule</title>
<polygon fill="#8dd3c7" stroke="#000000" points="859.5238,-187 856.5238,-191 835.5238,-191 832.5238,-187 674.4762,-187 674.4762,-151 859.5238,-151 859.5238,-187"/>
<text text-anchor="middle" x="767" y="-164.8" font-family="Times,serif" font-size="14.00" fill="#000000">UsersListFiltersModalModule</text>
</g>
<!-- UsersListFiltersModalComponent&#45;&gt;UsersListFiltersModalModule -->
<g id="edge1" class="edge">
<title>UsersListFiltersModalComponent&#45;&gt;UsersListFiltersModalModule</title>
<path fill="none" stroke="#000000" d="M1435,-122.0109C1435,-144.4852 1435,-180 1435,-180 1435,-180 869.5316,-180 869.5316,-180"/>
<polygon fill="#000000" stroke="#000000" points="869.5317,-176.5001 859.5316,-180 869.5316,-183.5001 869.5317,-176.5001"/>
</g>
<!-- UsersListFiltersModalComponent  -->
<g id="node12" class="node">
<title>UsersListFiltersModalComponent </title>
<polygon fill="#fb8072" stroke="#000000" points="966.3059,-252 755.6941,-252 755.6941,-216 966.3059,-216 966.3059,-252"/>
<text text-anchor="middle" x="861" y="-229.8" font-family="Times,serif" font-size="14.00" fill="#000000">UsersListFiltersModalComponent </text>
</g>
<!-- UsersListFiltersModalModule&#45;&gt;UsersListFiltersModalComponent  -->
<g id="edge11" class="edge">
<title>UsersListFiltersModalModule&#45;&gt;UsersListFiltersModalComponent </title>
<path fill="none" stroke="#000000" stroke-dasharray="5,2" d="M807.6793,-187.1061C807.6793,-187.1061 807.6793,-205.991 807.6793,-205.991"/>
<polygon fill="#000000" stroke="#000000" points="804.1794,-205.9909 807.6793,-215.991 811.1794,-205.991 804.1794,-205.9909"/>
</g>
<!-- FormGroupModule  -->
<g id="node13" class="node">
<title>FormGroupModule </title>
<polygon fill="#fb8072" stroke="#000000" points="737.6509,-252 608.3491,-252 608.3491,-216 737.6509,-216 737.6509,-252"/>
<text text-anchor="middle" x="673" y="-229.8" font-family="Times,serif" font-size="14.00" fill="#000000">FormGroupModule </text>
</g>
<!-- UsersListFiltersModalModule&#45;&gt;FormGroupModule  -->
<g id="edge12" class="edge">
<title>UsersListFiltersModalModule&#45;&gt;FormGroupModule </title>
<path fill="none" stroke="#000000" stroke-dasharray="5,2" d="M705.9069,-187.1061C705.9069,-187.1061 705.9069,-205.991 705.9069,-205.991"/>
<polygon fill="#000000" stroke="#000000" points="702.407,-205.9909 705.9069,-215.991 709.407,-205.991 702.407,-205.9909"/>
</g>
<!-- CommonModule -->
<g id="node3" class="node">
<title>CommonModule</title>
<polygon fill="#8dd3c7" stroke="#000000" points="1306.6681,-122 1303.6681,-126 1282.6681,-126 1279.6681,-122 1195.3319,-122 1195.3319,-86 1306.6681,-86 1306.6681,-122"/>
<text text-anchor="middle" x="1251" y="-99.8" font-family="Times,serif" font-size="14.00" fill="#000000">CommonModule</text>
</g>
<!-- CommonModule&#45;&gt;UsersListFiltersModalModule -->
<g id="edge2" class="edge">
<title>CommonModule&#45;&gt;UsersListFiltersModalModule</title>
<path fill="none" stroke="#000000" d="M1251,-122.1289C1251,-142.5724 1251,-173 1251,-173 1251,-173 869.7474,-173 869.7474,-173"/>
<polygon fill="#000000" stroke="#000000" points="869.7474,-169.5001 859.7474,-173 869.7474,-176.5001 869.7474,-169.5001"/>
</g>
<!-- IonicModule -->
<g id="node4" class="node">
<title>IonicModule</title>
<polygon fill="#8dd3c7" stroke="#000000" points="1177.3162,-122 1174.3162,-126 1153.3162,-126 1150.3162,-122 1088.6838,-122 1088.6838,-86 1177.3162,-86 1177.3162,-122"/>
<text text-anchor="middle" x="1133" y="-99.8" font-family="Times,serif" font-size="14.00" fill="#000000">IonicModule</text>
</g>
<!-- IonicModule&#45;&gt;UsersListFiltersModalModule -->
<g id="edge3" class="edge">
<title>IonicModule&#45;&gt;UsersListFiltersModalModule</title>
<path fill="none" stroke="#000000" d="M1133,-122.2667C1133,-140.5552 1133,-166 1133,-166 1133,-166 869.8304,-166 869.8304,-166"/>
<polygon fill="#000000" stroke="#000000" points="869.8304,-162.5001 859.8304,-166 869.8304,-169.5001 869.8304,-162.5001"/>
</g>
<!-- FormGroupModule -->
<g id="node5" class="node">
<title>FormGroupModule</title>
<polygon fill="#8dd3c7" stroke="#000000" points="1070.6513,-122 1067.6513,-126 1046.6513,-126 1043.6513,-122 945.3487,-122 945.3487,-86 1070.6513,-86 1070.6513,-122"/>
<text text-anchor="middle" x="1008" y="-99.8" font-family="Times,serif" font-size="14.00" fill="#000000">FormGroupModule</text>
</g>
<!-- FormGroupModule&#45;&gt;UsersListFiltersModalModule -->
<g id="edge4" class="edge">
<title>FormGroupModule&#45;&gt;UsersListFiltersModalModule</title>
<path fill="none" stroke="#000000" d="M955.7888,-122.0091C955.7888,-138.0494 955.7888,-159 955.7888,-159 955.7888,-159 869.7352,-159 869.7352,-159"/>
<polygon fill="#000000" stroke="#000000" points="869.7352,-155.5001 859.7352,-159 869.7351,-162.5001 869.7352,-155.5001"/>
</g>
<!-- ReactiveFormsModule -->
<g id="node6" class="node">
<title>ReactiveFormsModule</title>
<polygon fill="#8dd3c7" stroke="#000000" points="927.3047,-122 924.3047,-126 903.3047,-126 900.3047,-122 782.6953,-122 782.6953,-86 927.3047,-86 927.3047,-122"/>
<text text-anchor="middle" x="855" y="-99.8" font-family="Times,serif" font-size="14.00" fill="#000000">ReactiveFormsModule</text>
</g>
<!-- ReactiveFormsModule&#45;&gt;UsersListFiltersModalModule -->
<g id="edge5" class="edge">
<title>ReactiveFormsModule&#45;&gt;UsersListFiltersModalModule</title>
<path fill="none" stroke="#000000" d="M821.3047,-122.1061C821.3047,-122.1061 821.3047,-140.991 821.3047,-140.991"/>
<polygon fill="#000000" stroke="#000000" points="817.8048,-140.9909 821.3047,-150.991 824.8048,-140.991 817.8048,-140.9909"/>
</g>
<!-- TranslateModule.forChild() -->
<g id="node7" class="node">
<title>TranslateModule.forChild()</title>
<polygon fill="#8dd3c7" stroke="#000000" points="764.8928,-122 761.8928,-126 740.8928,-126 737.8928,-122 593.1072,-122 593.1072,-86 764.8928,-86 764.8928,-122"/>
<text text-anchor="middle" x="679" y="-99.8" font-family="Times,serif" font-size="14.00" fill="#000000">TranslateModule.forChild()</text>
</g>
<!-- TranslateModule.forChild()&#45;&gt;UsersListFiltersModalModule -->
<g id="edge6" class="edge">
<title>TranslateModule.forChild()&#45;&gt;UsersListFiltersModalModule</title>
<path fill="none" stroke="#000000" d="M719.5924,-122.1061C719.5924,-122.1061 719.5924,-140.991 719.5924,-140.991"/>
<polygon fill="#000000" stroke="#000000" points="716.0925,-140.9909 719.5924,-150.991 723.0925,-140.991 716.0925,-140.9909"/>
</g>
<!-- DirectivesModule -->
<g id="node8" class="node">
<title>DirectivesModule</title>
<polygon fill="#8dd3c7" stroke="#000000" points="575.5772,-122 572.5772,-126 551.5772,-126 548.5772,-122 458.4228,-122 458.4228,-86 575.5772,-86 575.5772,-122"/>
<text text-anchor="middle" x="517" y="-99.8" font-family="Times,serif" font-size="14.00" fill="#000000">DirectivesModule</text>
</g>
<!-- DirectivesModule&#45;&gt;UsersListFiltersModalModule -->
<g id="edge7" class="edge">
<title>DirectivesModule&#45;&gt;UsersListFiltersModalModule</title>
<path fill="none" stroke="#000000" d="M517,-122.0091C517,-138.0494 517,-159 517,-159 517,-159 664.2645,-159 664.2645,-159"/>
<polygon fill="#000000" stroke="#000000" points="664.2645,-162.5001 674.2645,-159 664.2645,-155.5001 664.2645,-162.5001"/>
</g>
<!-- PipesModule -->
<g id="node9" class="node">
<title>PipesModule</title>
<polygon fill="#8dd3c7" stroke="#000000" points="440.8823,-122 437.8823,-126 416.8823,-126 413.8823,-122 351.1177,-122 351.1177,-86 440.8823,-86 440.8823,-122"/>
<text text-anchor="middle" x="396" y="-99.8" font-family="Times,serif" font-size="14.00" fill="#000000">PipesModule</text>
</g>
<!-- PipesModule&#45;&gt;UsersListFiltersModalModule -->
<g id="edge8" class="edge">
<title>PipesModule&#45;&gt;UsersListFiltersModalModule</title>
<path fill="none" stroke="#000000" d="M396,-122.2667C396,-140.5552 396,-166 396,-166 396,-166 664.338,-166 664.338,-166"/>
<polygon fill="#000000" stroke="#000000" points="664.3381,-169.5001 674.338,-166 664.338,-162.5001 664.3381,-169.5001"/>
</g>
<!-- PromptFormModalModule -->
<g id="node10" class="node">
<title>PromptFormModalModule</title>
<polygon fill="#8dd3c7" stroke="#000000" points="332.6581,-122 329.6581,-126 308.6581,-126 305.6581,-122 165.3419,-122 165.3419,-86 332.6581,-86 332.6581,-122"/>
<text text-anchor="middle" x="249" y="-99.8" font-family="Times,serif" font-size="14.00" fill="#000000">PromptFormModalModule</text>
</g>
<!-- PromptFormModalModule&#45;&gt;UsersListFiltersModalModule -->
<g id="edge9" class="edge">
<title>PromptFormModalModule&#45;&gt;UsersListFiltersModalModule</title>
<path fill="none" stroke="#000000" d="M249,-122.1289C249,-142.5724 249,-173 249,-173 249,-173 664.392,-173 664.392,-173"/>
<polygon fill="#000000" stroke="#000000" points="664.392,-176.5001 674.392,-173 664.3919,-169.5001 664.392,-176.5001"/>
</g>
<!-- SelectInputModule -->
<g id="node11" class="node">
<title>SelectInputModule</title>
<polygon fill="#8dd3c7" stroke="#000000" points="147.809,-122 144.809,-126 123.809,-126 120.809,-122 24.191,-122 24.191,-86 147.809,-86 147.809,-122"/>
<text text-anchor="middle" x="86" y="-99.8" font-family="Times,serif" font-size="14.00" fill="#000000">SelectInputModule</text>
</g>
<!-- SelectInputModule&#45;&gt;UsersListFiltersModalModule -->
<g id="edge10" class="edge">
<title>SelectInputModule&#45;&gt;UsersListFiltersModalModule</title>
<path fill="none" stroke="#000000" d="M86,-122.0109C86,-144.4852 86,-180 86,-180 86,-180 664.4486,-180 664.4486,-180"/>
<polygon fill="#000000" stroke="#000000" points="664.4486,-183.5001 674.4486,-180 664.4485,-176.5001 664.4486,-183.5001"/>
</g>
</g>
</svg>
