<?xml version="1.0" encoding="UTF-8" standalone="no"?>
<!DOCTYPE svg PUBLIC "-//W3C//DTD SVG 1.1//EN"
 "http://www.w3.org/Graphics/SVG/1.1/DTD/svg11.dtd">
<!-- Generated by graphviz version 2.40.1 (20161225.0304)
 -->
<!-- Title: dependencies Pages: 1 -->
<svg width="1714pt" height="284pt"
 viewBox="0.00 0.00 1714.00 284.00" xmlns="http://www.w3.org/2000/svg" xmlns:xlink="http://www.w3.org/1999/xlink">
<g id="graph0" class="graph" transform="scale(1 1) rotate(0) translate(4 280)">
<title>dependencies</title>
<polygon fill="#ffffff" stroke="transparent" points="-4,4 -4,-280 1710,-280 1710,4 -4,4"/>
<text text-anchor="start" x="832.0091" y="-42.4" font-family="sans-serif" font-weight="bold" font-size="14.00" fill="#000000">Legend</text>
<polygon fill="#ffffb3" stroke="transparent" points="619,-10 619,-30 639,-30 639,-10 619,-10"/>
<text text-anchor="start" x="642.629" y="-15.4" font-family="sans-serif" font-size="14.00" fill="#000000"> &#160;Declarations</text>
<polygon fill="#8dd3c7" stroke="transparent" points="732,-10 732,-30 752,-30 752,-10 732,-10"/>
<text text-anchor="start" x="755.7251" y="-15.4" font-family="sans-serif" font-size="14.00" fill="#000000"> &#160;Module</text>
<polygon fill="#80b1d3" stroke="transparent" points="818,-10 818,-30 838,-30 838,-10 818,-10"/>
<text text-anchor="start" x="841.7812" y="-15.4" font-family="sans-serif" font-size="14.00" fill="#000000"> &#160;Bootstrap</text>
<polygon fill="#fdb462" stroke="transparent" points="915,-10 915,-30 935,-30 935,-10 915,-10"/>
<text text-anchor="start" x="938.6732" y="-15.4" font-family="sans-serif" font-size="14.00" fill="#000000"> &#160;Providers</text>
<polygon fill="#fb8072" stroke="transparent" points="1011,-10 1011,-30 1031,-30 1031,-10 1011,-10"/>
<text text-anchor="start" x="1034.7258" y="-15.4" font-family="sans-serif" font-size="14.00" fill="#000000"> &#160;Exports</text>
<g id="clust1" class="cluster">
<title>cluster_UsersListFiltersModalModule</title>
<polygon fill="none" stroke="#000000" stroke-dasharray="1,5" points="8,-70 8,-268 1698,-268 1698,-70 8,-70"/>
</g>
<g id="clust2" class="cluster">
<title>cluster_UsersListFiltersModalModule_declarations</title>
<polygon fill="none" stroke="#000000" points="1466,-78 1466,-130 1690,-130 1690,-78 1466,-78"/>
</g>
<g id="clust4" class="cluster">
<title>cluster_UsersListFiltersModalModule_imports</title>
<polygon fill="none" stroke="#000000" points="16,-78 16,-130 1458,-130 1458,-78 16,-78"/>
</g>
<g id="clust5" class="cluster">
<title>cluster_UsersListFiltersModalModule_exports</title>
<polygon fill="none" stroke="#000000" points="655,-208 655,-260 1029,-260 1029,-208 655,-208"/>
</g>
<!-- UsersListFiltersModalComponent -->
<g id="node1" class="node">
<title>UsersListFiltersModalComponent</title>
<polygon fill="#ffffb3" stroke="#000000" points="1681.806,-122 1474.194,-122 1474.194,-86 1681.806,-86 1681.806,-122"/>
<text text-anchor="middle" x="1578" y="-99.8" font-family="Times,serif" font-size="14.00" fill="#000000">UsersListFiltersModalComponent</text>
</g>
<!-- UsersListFiltersModalModule -->
<g id="node2" class="node">
<title>UsersListFiltersModalModule</title>
<polygon fill="#8dd3c7" stroke="#000000" points="914.5238,-187 911.5238,-191 890.5238,-191 887.5238,-187 729.4762,-187 729.4762,-151 914.5238,-151 914.5238,-187"/>
<text text-anchor="middle" x="822" y="-164.8" font-family="Times,serif" font-size="14.00" fill="#000000">UsersListFiltersModalModule</text>
</g>
<!-- UsersListFiltersModalComponent&#45;&gt;UsersListFiltersModalModule -->
<g id="edge1" class="edge">
<title>UsersListFiltersModalComponent&#45;&gt;UsersListFiltersModalModule</title>
<path fill="none" stroke="#000000" d="M1578,-122.2479C1578,-145.0179 1578,-181 1578,-181 1578,-181 924.7004,-181 924.7004,-181"/>
<polygon fill="#000000" stroke="#000000" points="924.7005,-177.5001 914.7004,-181 924.7004,-184.5001 924.7005,-177.5001"/>
</g>
<!-- UsersListFiltersModalComponent  -->
<g id="node13" class="node">
<title>UsersListFiltersModalComponent </title>
<polygon fill="#fb8072" stroke="#000000" points="1021.3059,-252 810.6941,-252 810.6941,-216 1021.3059,-216 1021.3059,-252"/>
<text text-anchor="middle" x="916" y="-229.8" font-family="Times,serif" font-size="14.00" fill="#000000">UsersListFiltersModalComponent </text>
</g>
<!-- UsersListFiltersModalModule&#45;&gt;UsersListFiltersModalComponent  -->
<g id="edge12" class="edge">
<title>UsersListFiltersModalModule&#45;&gt;UsersListFiltersModalComponent </title>
<path fill="none" stroke="#000000" stroke-dasharray="5,2" d="M862.6793,-187.1061C862.6793,-187.1061 862.6793,-205.991 862.6793,-205.991"/>
<polygon fill="#000000" stroke="#000000" points="859.1794,-205.9909 862.6793,-215.991 866.1794,-205.991 859.1794,-205.9909"/>
</g>
<!-- FormGroupModule  -->
<g id="node14" class="node">
<title>FormGroupModule </title>
<polygon fill="#fb8072" stroke="#000000" points="792.6509,-252 663.3491,-252 663.3491,-216 792.6509,-216 792.6509,-252"/>
<text text-anchor="middle" x="728" y="-229.8" font-family="Times,serif" font-size="14.00" fill="#000000">FormGroupModule </text>
</g>
<!-- UsersListFiltersModalModule&#45;&gt;FormGroupModule  -->
<g id="edge13" class="edge">
<title>UsersListFiltersModalModule&#45;&gt;FormGroupModule </title>
<path fill="none" stroke="#000000" stroke-dasharray="5,2" d="M760.9069,-187.1061C760.9069,-187.1061 760.9069,-205.991 760.9069,-205.991"/>
<polygon fill="#000000" stroke="#000000" points="757.407,-205.9909 760.9069,-215.991 764.407,-205.991 757.407,-205.9909"/>
</g>
<!-- CommonModule -->
<g id="node3" class="node">
<title>CommonModule</title>
<polygon fill="#8dd3c7" stroke="#000000" points="1449.6681,-122 1446.6681,-126 1425.6681,-126 1422.6681,-122 1338.3319,-122 1338.3319,-86 1449.6681,-86 1449.6681,-122"/>
<text text-anchor="middle" x="1394" y="-99.8" font-family="Times,serif" font-size="14.00" fill="#000000">CommonModule</text>
</g>
<!-- CommonModule&#45;&gt;UsersListFiltersModalModule -->
<g id="edge2" class="edge">
<title>CommonModule&#45;&gt;UsersListFiltersModalModule</title>
<path fill="none" stroke="#000000" d="M1394,-122.2843C1394,-143.3211 1394,-175 1394,-175 1394,-175 924.5374,-175 924.5374,-175"/>
<polygon fill="#000000" stroke="#000000" points="924.5374,-171.5001 914.5374,-175 924.5374,-178.5001 924.5374,-171.5001"/>
</g>
<!-- IonicModule -->
<g id="node4" class="node">
<title>IonicModule</title>
<polygon fill="#8dd3c7" stroke="#000000" points="1320.3162,-122 1317.3162,-126 1296.3162,-126 1293.3162,-122 1231.6838,-122 1231.6838,-86 1320.3162,-86 1320.3162,-122"/>
<text text-anchor="middle" x="1276" y="-99.8" font-family="Times,serif" font-size="14.00" fill="#000000">IonicModule</text>
</g>
<!-- IonicModule&#45;&gt;UsersListFiltersModalModule -->
<g id="edge3" class="edge">
<title>IonicModule&#45;&gt;UsersListFiltersModalModule</title>
<path fill="none" stroke="#000000" d="M1276,-122.1061C1276,-141.3391 1276,-169 1276,-169 1276,-169 924.6949,-169 924.6949,-169"/>
<polygon fill="#000000" stroke="#000000" points="924.695,-165.5001 914.6949,-169 924.6949,-172.5001 924.695,-165.5001"/>
</g>
<!-- FormGroupModule -->
<g id="node5" class="node">
<title>FormGroupModule</title>
<polygon fill="#8dd3c7" stroke="#000000" points="1213.6513,-122 1210.6513,-126 1189.6513,-126 1186.6513,-122 1088.3487,-122 1088.3487,-86 1213.6513,-86 1213.6513,-122"/>
<text text-anchor="middle" x="1151" y="-99.8" font-family="Times,serif" font-size="14.00" fill="#000000">FormGroupModule</text>
</g>
<!-- FormGroupModule&#45;&gt;UsersListFiltersModalModule -->
<g id="edge4" class="edge">
<title>FormGroupModule&#45;&gt;UsersListFiltersModalModule</title>
<path fill="none" stroke="#000000" d="M1151,-122.0225C1151,-139.3734 1151,-163 1151,-163 1151,-163 924.959,-163 924.959,-163"/>
<polygon fill="#000000" stroke="#000000" points="924.959,-159.5001 914.959,-163 924.959,-166.5001 924.959,-159.5001"/>
</g>
<!-- ReactiveFormsModule -->
<g id="node6" class="node">
<title>ReactiveFormsModule</title>
<polygon fill="#8dd3c7" stroke="#000000" points="1070.3047,-122 1067.3047,-126 1046.3047,-126 1043.3047,-122 925.6953,-122 925.6953,-86 1070.3047,-86 1070.3047,-122"/>
<text text-anchor="middle" x="998" y="-99.8" font-family="Times,serif" font-size="14.00" fill="#000000">ReactiveFormsModule</text>
</g>
<!-- ReactiveFormsModule&#45;&gt;UsersListFiltersModalModule -->
<g id="edge5" class="edge">
<title>ReactiveFormsModule&#45;&gt;UsersListFiltersModalModule</title>
<path fill="none" stroke="#000000" d="M973.6254,-122.2396C973.6254,-137.5706 973.6254,-157 973.6254,-157 973.6254,-157 924.5689,-157 924.5689,-157"/>
<polygon fill="#000000" stroke="#000000" points="924.5689,-153.5001 914.5689,-157 924.5688,-160.5001 924.5689,-153.5001"/>
</g>
<!-- TranslateModule.forChild() -->
<g id="node7" class="node">
<title>TranslateModule.forChild()</title>
<polygon fill="#8dd3c7" stroke="#000000" points="907.8928,-122 904.8928,-126 883.8928,-126 880.8928,-122 736.1072,-122 736.1072,-86 907.8928,-86 907.8928,-122"/>
<text text-anchor="middle" x="822" y="-99.8" font-family="Times,serif" font-size="14.00" fill="#000000">TranslateModule.forChild()</text>
</g>
<!-- TranslateModule.forChild()&#45;&gt;UsersListFiltersModalModule -->
<g id="edge6" class="edge">
<title>TranslateModule.forChild()&#45;&gt;UsersListFiltersModalModule</title>
<path fill="none" stroke="#000000" d="M822,-122.1061C822,-122.1061 822,-140.991 822,-140.991"/>
<polygon fill="#000000" stroke="#000000" points="818.5001,-140.9909 822,-150.991 825.5001,-140.991 818.5001,-140.9909"/>
</g>
<!-- DirectivesModule -->
<g id="node8" class="node">
<title>DirectivesModule</title>
<polygon fill="#8dd3c7" stroke="#000000" points="718.5772,-122 715.5772,-126 694.5772,-126 691.5772,-122 601.4228,-122 601.4228,-86 718.5772,-86 718.5772,-122"/>
<text text-anchor="middle" x="660" y="-99.8" font-family="Times,serif" font-size="14.00" fill="#000000">DirectivesModule</text>
</g>
<!-- DirectivesModule&#45;&gt;UsersListFiltersModalModule -->
<g id="edge7" class="edge">
<title>DirectivesModule&#45;&gt;UsersListFiltersModalModule</title>
<path fill="none" stroke="#000000" d="M690.9816,-122.2396C690.9816,-137.5706 690.9816,-157 690.9816,-157 690.9816,-157 719.2298,-157 719.2298,-157"/>
<polygon fill="#000000" stroke="#000000" points="719.2298,-160.5001 729.2298,-157 719.2297,-153.5001 719.2298,-160.5001"/>
</g>
<!-- PipesModule -->
<g id="node9" class="node">
<title>PipesModule</title>
<polygon fill="#8dd3c7" stroke="#000000" points="583.8823,-122 580.8823,-126 559.8823,-126 556.8823,-122 494.1177,-122 494.1177,-86 583.8823,-86 583.8823,-122"/>
<text text-anchor="middle" x="539" y="-99.8" font-family="Times,serif" font-size="14.00" fill="#000000">PipesModule</text>
</g>
<!-- PipesModule&#45;&gt;UsersListFiltersModalModule -->
<g id="edge8" class="edge">
<title>PipesModule&#45;&gt;UsersListFiltersModalModule</title>
<path fill="none" stroke="#000000" d="M539,-122.0225C539,-139.3734 539,-163 539,-163 539,-163 719.3352,-163 719.3352,-163"/>
<polygon fill="#000000" stroke="#000000" points="719.3353,-166.5001 729.3352,-163 719.3352,-159.5001 719.3353,-166.5001"/>
</g>
<!-- PromptFormModalModule -->
<g id="node10" class="node">
<title>PromptFormModalModule</title>
<polygon fill="#8dd3c7" stroke="#000000" points="475.6581,-122 472.6581,-126 451.6581,-126 448.6581,-122 308.3419,-122 308.3419,-86 475.6581,-86 475.6581,-122"/>
<text text-anchor="middle" x="392" y="-99.8" font-family="Times,serif" font-size="14.00" fill="#000000">PromptFormModalModule</text>
</g>
<!-- PromptFormModalModule&#45;&gt;UsersListFiltersModalModule -->
<g id="edge9" class="edge">
<title>PromptFormModalModule&#45;&gt;UsersListFiltersModalModule</title>
<path fill="none" stroke="#000000" d="M392,-122.1061C392,-141.3391 392,-169 392,-169 392,-169 719.2258,-169 719.2258,-169"/>
<polygon fill="#000000" stroke="#000000" points="719.2258,-172.5001 729.2258,-169 719.2258,-165.5001 719.2258,-172.5001"/>
</g>
<!-- SelectInputModule -->
<g id="node11" class="node">
<title>SelectInputModule</title>
<polygon fill="#8dd3c7" stroke="#000000" points="290.809,-122 287.809,-126 266.809,-126 263.809,-122 167.191,-122 167.191,-86 290.809,-86 290.809,-122"/>
<text text-anchor="middle" x="229" y="-99.8" font-family="Times,serif" font-size="14.00" fill="#000000">SelectInputModule</text>
</g>
<!-- SelectInputModule&#45;&gt;UsersListFiltersModalModule -->
<g id="edge10" class="edge">
<title>SelectInputModule&#45;&gt;UsersListFiltersModalModule</title>
<path fill="none" stroke="#000000" d="M229,-122.2843C229,-143.3211 229,-175 229,-175 229,-175 719.3438,-175 719.3438,-175"/>
<polygon fill="#000000" stroke="#000000" points="719.3438,-178.5001 729.3438,-175 719.3437,-171.5001 719.3438,-178.5001"/>
</g>
<!-- NgxBindIOModule -->
<g id="node12" class="node">
<title>NgxBindIOModule</title>
<polygon fill="#8dd3c7" stroke="#000000" points="149.6513,-122 146.6513,-126 125.6513,-126 122.6513,-122 24.3487,-122 24.3487,-86 149.6513,-86 149.6513,-122"/>
<text text-anchor="middle" x="87" y="-99.8" font-family="Times,serif" font-size="14.00" fill="#000000">NgxBindIOModule</text>
</g>
<!-- NgxBindIOModule&#45;&gt;UsersListFiltersModalModule -->
<g id="edge11" class="edge">
<title>NgxBindIOModule&#45;&gt;UsersListFiltersModalModule</title>
<path fill="none" stroke="#000000" d="M87,-122.2479C87,-145.0179 87,-181 87,-181 87,-181 719.2841,-181 719.2841,-181"/>
<polygon fill="#000000" stroke="#000000" points="719.2842,-184.5001 729.2841,-181 719.2841,-177.5001 719.2842,-184.5001"/>
</g>
</g>
</svg>
